<svg width="24" height="24" viewBox="0 0 24 24" fill="none" xmlns="http://www.w3.org/2000/svg">
<path d="M12.0417 4.5L12.0417 16.5" stroke="black" stroke-width="1.5" stroke-miterlimit="10"/>
<path d="M6.75 9.3L12 4.5L17.25 9.3" stroke="black" stroke-width="1.5"/>
<mask id="path-3-inside-1_1858_8581" fill="white">
<path d="M3.75 13.5014V18.25C3.75 19.3546 4.64543 20.25 5.75 20.25H18.25C19.3546 20.25 20.25 19.3557 20.25 18.2511C20.25 16.83 20.25 14.9278 20.25 13.5"/>
</mask>
<path d="M2.25 13.5014V18.25H5.25V13.5014H2.25ZM5.75 21.75H18.25V18.75H5.75V21.75ZM21.75 18.2511C21.75 18.2483 21.75 18.2455 21.75 18.2428C21.75 18.24 21.75 18.2372 21.75 18.2344C21.75 18.2316 21.75 18.2288 21.75 18.2261C21.75 18.2233 21.75 18.2205 21.75 18.2177C21.75 18.2149 21.75 18.2121 21.75 18.2093C21.75 18.2065 21.75 18.2037 21.75 18.2009C21.75 18.1981 21.75 18.1953 21.75 18.1925C21.75 18.1897 21.75 18.1869 21.75 18.1841C21.75 18.1813 21.75 18.1785 21.75 18.1757C21.75 18.1729 21.75 18.1701 21.75 18.1673C21.75 18.1645 21.75 18.1616 21.75 18.1588C21.75 18.156 21.75 18.1532 21.75 18.1504C21.75 18.1476 21.75 18.1447 21.75 18.1419C21.75 18.1391 21.75 18.1363 21.75 18.1334C21.75 18.1306 21.75 18.1278 21.75 18.125C21.75 18.1221 21.75 18.1193 21.75 18.1165C21.75 18.1136 21.75 18.1108 21.75 18.108C21.75 18.1051 21.75 18.1023 21.75 18.0995C21.75 18.0966 21.75 18.0938 21.75 18.0909C21.75 18.0881 21.75 18.0852 21.75 18.0824C21.75 18.0796 21.75 18.0767 21.75 18.0739C21.75 18.071 21.75 18.0682 21.75 18.0653C21.75 18.0624 21.75 18.0596 21.75 18.0567C21.75 18.0539 21.75 18.051 21.75 18.0482C21.75 18.0453 21.75 18.0424 21.75 18.0396C21.75 18.0367 21.75 18.0339 21.75 18.031C21.75 18.0281 21.75 18.0253 21.75 18.0224C21.75 18.0195 21.75 18.0166 21.75 18.0138C21.75 18.0109 21.75 18.008 21.75 18.0051C21.75 18.0023 21.75 17.9994 21.75 17.9965C21.75 17.9936 21.75 17.9908 21.75 17.9879C21.75 17.985 21.75 17.9821 21.75 17.9792C21.75 17.9763 21.75 17.9734 21.75 17.9706C21.75 17.9677 21.75 17.9648 21.75 17.9619C21.75 17.959 21.75 17.9561 21.75 17.9532C21.75 17.9503 21.75 17.9474 21.75 17.9445C21.75 17.9416 21.75 17.9387 21.75 17.9358C21.75 17.9329 21.75 17.93 21.75 17.9271C21.75 17.9242 21.75 17.9213 21.75 17.9184C21.75 17.9155 21.75 17.9126 21.75 17.9097C21.75 17.9067 21.75 17.9038 21.75 17.9009C21.75 17.898 21.75 17.8951 21.75 17.8922C21.75 17.8893 21.75 17.8863 21.75 17.8834C21.75 17.8805 21.75 17.8776 21.75 17.8746C21.75 17.8717 21.75 17.8688 21.75 17.8659C21.75 17.8629 21.75 17.86 21.75 17.8571C21.75 17.8542 21.75 17.8512 21.75 17.8483C21.75 17.8454 21.75 17.8424 21.75 17.8395C21.75 17.8366 21.75 17.8336 21.75 17.8307C21.75 17.8277 21.75 17.8248 21.75 17.8219C21.75 17.8189 21.75 17.816 21.75 17.813C21.75 17.8101 21.75 17.8071 21.75 17.8042C21.75 17.8013 21.75 17.7983 21.75 17.7954C21.75 17.7924 21.75 17.7895 21.75 17.7865C21.75 17.7835 21.75 17.7806 21.75 17.7776C21.75 17.7747 21.75 17.7717 21.75 17.7688C21.75 17.7658 21.75 17.7628 21.75 17.7599C21.75 17.7569 21.75 17.754 21.75 17.751C21.75 17.748 21.75 17.7451 21.75 17.7421C21.75 17.7391 21.75 17.7362 21.75 17.7332C21.75 17.7302 21.75 17.7272 21.75 17.7243C21.75 17.7213 21.75 17.7183 21.75 17.7153C21.75 17.7124 21.75 17.7094 21.75 17.7064C21.75 17.7034 21.75 17.7005 21.75 17.6975C21.75 17.6945 21.75 17.6915 21.75 17.6885C21.75 17.6855 21.75 17.6826 21.75 17.6796C21.75 17.6766 21.75 17.6736 21.75 17.6706C21.75 17.6676 21.75 17.6646 21.75 17.6616C21.75 17.6586 21.75 17.6557 21.75 17.6527C21.75 17.6497 21.75 17.6467 21.75 17.6437C21.75 17.6407 21.75 17.6377 21.75 17.6347C21.75 17.6317 21.75 17.6287 21.75 17.6257C21.75 17.6227 21.75 17.6197 21.75 17.6167C21.75 17.6136 21.75 17.6106 21.75 17.6076C21.75 17.6046 21.75 17.6016 21.75 17.5986C21.75 17.5956 21.75 17.5926 21.75 17.5896C21.75 17.5866 21.75 17.5835 21.75 17.5805C21.75 17.5775 21.75 17.5745 21.75 17.5715C21.75 17.5685 21.75 17.5654 21.75 17.5624C21.75 17.5594 21.75 17.5564 21.75 17.5533C21.75 17.5503 21.75 17.5473 21.75 17.5443C21.75 17.5412 21.75 17.5382 21.75 17.5352C21.75 17.5322 21.75 17.5291 21.75 17.5261C21.75 17.5231 21.75 17.52 21.75 17.517C21.75 17.514 21.75 17.5109 21.75 17.5079C21.75 17.5049 21.75 17.5018 21.75 17.4988C21.75 17.4957 21.75 17.4927 21.75 17.4897C21.75 17.4866 21.75 17.4836 21.75 17.4805C21.75 17.4775 21.75 17.4744 21.75 17.4714C21.75 17.4684 21.75 17.4653 21.75 17.4623C21.75 17.4592 21.75 17.4562 21.75 17.4531C21.75 17.4501 21.75 17.447 21.75 17.444C21.75 17.4409 21.75 17.4378 21.75 17.4348C21.75 17.4317 21.75 17.4287 21.75 17.4256C21.75 17.4226 21.75 17.4195 21.75 17.4164C21.75 17.4134 21.75 17.4103 21.75 17.4073C21.75 17.4042 21.75 17.4011 21.75 17.3981C21.75 17.395 21.75 17.3919 21.75 17.3889C21.75 17.3858 21.75 17.3827 21.75 17.3797C21.75 17.3766 21.75 17.3735 21.75 17.3705C21.75 17.3674 21.75 17.3643 21.75 17.3612C21.75 17.3582 21.75 17.3551 21.75 17.352C21.75 17.3489 21.75 17.3459 21.75 17.3428C21.75 17.3397 21.75 17.3366 21.75 17.3335C21.75 17.3305 21.75 17.3274 21.75 17.3243C21.75 17.3212 21.75 17.3181 21.75 17.3151C21.75 17.312 21.75 17.3089 21.75 17.3058C21.75 17.3027 21.75 17.2996 21.75 17.2965C21.75 17.2934 21.75 17.2904 21.75 17.2873C21.75 17.2842 21.75 17.2811 21.75 17.278C21.75 17.2749 21.75 17.2718 21.75 17.2687C21.75 17.2656 21.75 17.2625 21.75 17.2594C21.75 17.2563 21.75 17.2532 21.75 17.2501C21.75 17.247 21.75 17.2439 21.75 17.2408C21.75 17.2377 21.75 17.2346 21.75 17.2315C21.75 17.2284 21.75 17.2253 21.75 17.2222C21.75 17.2191 21.75 17.216 21.75 17.2129C21.75 17.2098 21.75 17.2067 21.75 17.2036C21.75 17.2004 21.75 17.1973 21.75 17.1942C21.75 17.1911 21.75 17.188 21.75 17.1849C21.75 17.1818 21.75 17.1787 21.75 17.1755C21.75 17.1724 21.75 17.1693 21.75 17.1662C21.75 17.1631 21.75 17.16 21.75 17.1568C21.75 17.1537 21.75 17.1506 21.75 17.1475C21.75 17.1444 21.75 17.1412 21.75 17.1381C21.75 17.135 21.75 17.1319 21.75 17.1287C21.75 17.1256 21.75 17.1225 21.75 17.1194C21.75 17.1162 21.75 17.1131 21.75 17.11C21.75 17.1068 21.75 17.1037 21.75 17.1006C21.75 17.0975 21.75 17.0943 21.75 17.0912C21.75 17.0881 21.75 17.0849 21.75 17.0818C21.75 17.0787 21.75 17.0755 21.75 17.0724C21.75 17.0692 21.75 17.0661 21.75 17.063C21.75 17.0598 21.75 17.0567 21.75 17.0536C21.75 17.0504 21.75 17.0473 21.75 17.0441C21.75 17.041 21.75 17.0379 21.75 17.0347C21.75 17.0316 21.75 17.0284 21.75 17.0253C21.75 17.0221 21.75 17.019 21.75 17.0158C21.75 17.0127 21.75 17.0095 21.75 17.0064C21.75 17.0032 21.75 17.0001 21.75 16.9969C21.75 16.9938 21.75 16.9906 21.75 16.9875C21.75 16.9843 21.75 16.9812 21.75 16.978C21.75 16.9749 21.75 16.9717 21.75 16.9686C21.75 16.9654 21.75 16.9623 21.75 16.9591C21.75 16.956 21.75 16.9528 21.75 16.9496C21.75 16.9465 21.75 16.9433 21.75 16.9402C21.75 16.937 21.75 16.9338 21.75 16.9307C21.75 16.9275 21.75 16.9244 21.75 16.9212C21.75 16.918 21.75 16.9149 21.75 16.9117C21.75 16.9085 21.75 16.9054 21.75 16.9022C21.75 16.899 21.75 16.8959 21.75 16.8927C21.75 16.8895 21.75 16.8864 21.75 16.8832C21.75 16.88 21.75 16.8769 21.75 16.8737C21.75 16.8705 21.75 16.8674 21.75 16.8642C21.75 16.861 21.75 16.8578 21.75 16.8547C21.75 16.8515 21.75 16.8483 21.75 16.8451C21.75 16.842 21.75 16.8388 21.75 16.8356C21.75 16.8324 21.75 16.8293 21.75 16.8261C21.75 16.8229 21.75 16.8197 21.75 16.8165C21.75 16.8134 21.75 16.8102 21.75 16.807C21.75 16.8038 21.75 16.8006 21.75 16.7975C21.75 16.7943 21.75 16.7911 21.75 16.7879C21.75 16.7847 21.75 16.7815 21.75 16.7784C21.75 16.7752 21.75 16.772 21.75 16.7688C21.75 16.7656 21.75 16.7624 21.75 16.7592C21.75 16.7561 21.75 16.7529 21.75 16.7497C21.75 16.7465 21.75 16.7433 21.75 16.7401C21.75 16.7369 21.75 16.7337 21.75 16.7305C21.75 16.7273 21.75 16.7242 21.75 16.721C21.75 16.7178 21.75 16.7146 21.75 16.7114C21.75 16.7082 21.75 16.705 21.75 16.7018C21.75 16.6986 21.75 16.6954 21.75 16.6922C21.75 16.689 21.75 16.6858 21.75 16.6826C21.75 16.6794 21.75 16.6762 21.75 16.673C21.75 16.6698 21.75 16.6666 21.75 16.6634C21.75 16.6602 21.75 16.657 21.75 16.6538C21.75 16.6506 21.75 16.6474 21.75 16.6442C21.75 16.641 21.75 16.6378 21.75 16.6346C21.75 16.6314 21.75 16.6282 21.75 16.625C21.75 16.6218 21.75 16.6186 21.75 16.6154C21.75 16.6122 21.75 16.609 21.75 16.6058C21.75 16.6026 21.75 16.5994 21.75 16.5961C21.75 16.5929 21.75 16.5897 21.75 16.5865C21.75 16.5833 21.75 16.5801 21.75 16.5769C21.75 16.5737 21.75 16.5705 21.75 16.5673C21.75 16.5641 21.75 16.5608 21.75 16.5576C21.75 16.5544 21.75 16.5512 21.75 16.548C21.75 16.5448 21.75 16.5416 21.75 16.5384C21.75 16.5351 21.75 16.5319 21.75 16.5287C21.75 16.5255 21.75 16.5223 21.75 16.5191C21.75 16.5158 21.75 16.5126 21.75 16.5094C21.75 16.5062 21.75 16.503 21.75 16.4998C21.75 16.4965 21.75 16.4933 21.75 16.4901C21.75 16.4869 21.75 16.4837 21.75 16.4804C21.75 16.4772 21.75 16.474 21.75 16.4708C21.75 16.4676 21.75 16.4643 21.75 16.4611C21.75 16.4579 21.75 16.4547 21.75 16.4515C21.75 16.4482 21.75 16.445 21.75 16.4418C21.75 16.4386 21.75 16.4353 21.75 16.4321C21.75 16.4289 21.75 16.4257 21.75 16.4224C21.75 16.4192 21.75 16.416 21.75 16.4128C21.75 16.4095 21.75 16.4063 21.75 16.4031C21.75 16.3999 21.75 16.3966 21.75 16.3934C21.75 16.3902 21.75 16.387 21.75 16.3837C21.75 16.3805 21.75 16.3773 21.75 16.374C21.75 16.3708 21.75 16.3676 21.75 16.3644C21.75 16.3611 21.75 16.3579 21.75 16.3547C21.75 16.3514 21.75 16.3482 21.75 16.345C21.75 16.3417 21.75 16.3385 21.75 16.3353C21.75 16.332 21.75 16.3288 21.75 16.3256C21.75 16.3223 21.75 16.3191 21.75 16.3159C21.75 16.3127 21.75 16.3094 21.75 16.3062C21.75 16.3029 21.75 16.2997 21.75 16.2965C21.75 16.2932 21.75 16.29 21.75 16.2868C21.75 16.2835 21.75 16.2803 21.75 16.2771C21.75 16.2738 21.75 16.2706 21.75 16.2674C21.75 16.2641 21.75 16.2609 21.75 16.2577C21.75 16.2544 21.75 16.2512 21.75 16.2479C21.75 16.2447 21.75 16.2415 21.75 16.2382C21.75 16.235 21.75 16.2318 21.75 16.2285C21.75 16.2253 21.75 16.222 21.75 16.2188C21.75 16.2156 21.75 16.2123 21.75 16.2091C21.75 16.2058 21.75 16.2026 21.75 16.1994C21.75 16.1961 21.75 16.1929 21.75 16.1896C21.75 16.1864 21.75 16.1832 21.75 16.1799C21.75 16.1767 21.75 16.1734 21.75 16.1702C21.75 16.167 21.75 16.1637 21.75 16.1605C21.75 16.1572 21.75 16.154 21.75 16.1507C21.75 16.1475 21.75 16.1443 21.75 16.141C21.75 16.1378 21.75 16.1345 21.75 16.1313C21.75 16.128 21.75 16.1248 21.75 16.1216C21.75 16.1183 21.75 16.1151 21.75 16.1118C21.75 16.1086 21.75 16.1053 21.75 16.1021C21.75 16.0988 21.75 16.0956 21.75 16.0924C21.75 16.0891 21.75 16.0859 21.75 16.0826C21.75 16.0794 21.75 16.0761 21.75 16.0729C21.75 16.0696 21.75 16.0664 21.75 16.0632C21.75 16.0599 21.75 16.0567 21.75 16.0534C21.75 16.0502 21.75 16.0469 21.75 16.0437C21.75 16.0404 21.75 16.0372 21.75 16.0339C21.75 16.0307 21.75 16.0274 21.75 16.0242C21.75 16.021 21.75 16.0177 21.75 16.0145C21.75 16.0112 21.75 16.008 21.75 16.0047C21.75 16.0015 21.75 15.9982 21.75 15.995C21.75 15.9917 21.75 15.9885 21.75 15.9852C21.75 15.982 21.75 15.9787 21.75 15.9755C21.75 15.9722 21.75 15.969 21.75 15.9657C21.75 15.9625 21.75 15.9593 21.75 15.956C21.75 15.9528 21.75 15.9495 21.75 15.9463C21.75 15.943 21.75 15.9398 21.75 15.9365C21.75 15.9333 21.75 15.93 21.75 15.9268C21.75 15.9235 21.75 15.9203 21.75 15.917C21.75 15.9138 21.75 15.9105 21.75 15.9073C21.75 15.904 21.75 15.9008 21.75 15.8975C21.75 15.8943 21.75 15.891 21.75 15.8878C21.75 15.8845 21.75 15.8813 21.75 15.878C21.75 15.8748 21.75 15.8715 21.75 15.8683C21.75 15.865 21.75 15.8618 21.75 15.8585C21.75 15.8553 21.75 15.8521 21.75 15.8488C21.75 15.8456 21.75 15.8423 21.75 15.8391C21.75 15.8358 21.75 15.8326 21.75 15.8293C21.75 15.8261 21.75 15.8228 21.75 15.8196C21.75 15.8163 21.75 15.8131 21.75 15.8098C21.75 15.8066 21.75 15.8033 21.75 15.8001C21.75 15.7968 21.75 15.7936 21.75 15.7903C21.75 15.7871 21.75 15.7838 21.75 15.7806C21.75 15.7773 21.75 15.7741 21.75 15.7708C21.75 15.7676 21.75 15.7643 21.75 15.7611C21.75 15.7578 21.75 15.7546 21.75 15.7514C21.75 15.7481 21.75 15.7449 21.75 15.7416C21.75 15.7384 21.75 15.7351 21.75 15.7319C21.75 15.7286 21.75 15.7254 21.75 15.7221C21.75 15.7189 21.75 15.7156 21.75 15.7124C21.75 15.7091 21.75 15.7059 21.75 15.7026C21.75 15.6994 21.75 15.6961 21.75 15.6929C21.75 15.6897 21.75 15.6864 21.75 15.6832C21.75 15.6799 21.75 15.6767 21.75 15.6734C21.75 15.6702 21.75 15.6669 21.75 15.6637C21.75 15.6604 21.75 15.6572 21.75 15.654C21.75 15.6507 21.75 15.6475 21.75 15.6442C21.75 15.641 21.75 15.6377 21.75 15.6345C21.75 15.6312 21.75 15.628 21.75 15.6247C21.75 15.6215 21.75 15.6183 21.75 15.615C21.75 15.6118 21.75 15.6085 21.75 15.6053C21.75 15.602 21.75 15.5988 21.75 15.5955C21.75 15.5923 21.75 15.5891 21.75 15.5858C21.75 15.5826 21.75 15.5793 21.75 15.5761C21.75 15.5728 21.75 15.5696 21.75 15.5664C21.75 15.5631 21.75 15.5599 21.75 15.5566C21.75 15.5534 21.75 15.5502 21.75 15.5469C21.75 15.5437 21.75 15.5404 21.75 15.5372C21.75 15.534 21.75 15.5307 21.75 15.5275C21.75 15.5242 21.75 15.521 21.75 15.5177C21.75 15.5145 21.75 15.5113 21.75 15.508C21.75 15.5048 21.75 15.5016 21.75 15.4983C21.75 15.4951 21.75 15.4918 21.75 15.4886C21.75 15.4854 21.75 15.4821 21.75 15.4789C21.75 15.4756 21.75 15.4724 21.75 15.4692C21.75 15.4659 21.75 15.4627 21.75 15.4595C21.75 15.4562 21.75 15.453 21.75 15.4498C21.75 15.4465 21.75 15.4433 21.75 15.44C21.75 15.4368 21.75 15.4336 21.75 15.4303C21.75 15.4271 21.75 15.4239 21.75 15.4206C21.75 15.4174 21.75 15.4142 21.75 15.4109C21.75 15.4077 21.75 15.4045 21.75 15.4012C21.75 15.398 21.75 15.3948 21.75 15.3915C21.75 15.3883 21.75 15.3851 21.75 15.3818C21.75 15.3786 21.75 15.3754 21.75 15.3721C21.75 15.3689 21.75 15.3657 21.75 15.3625C21.75 15.3592 21.75 15.356 21.75 15.3528C21.75 15.3495 21.75 15.3463 21.75 15.3431C21.75 15.3399 21.75 15.3366 21.75 15.3334C21.75 15.3302 21.75 15.3269 21.75 15.3237C21.75 15.3205 21.75 15.3173 21.75 15.314C21.75 15.3108 21.75 15.3076 21.75 15.3044C21.75 15.3011 21.75 15.2979 21.75 15.2947C21.75 15.2915 21.75 15.2882 21.75 15.285C21.75 15.2818 21.75 15.2786 21.75 15.2753C21.75 15.2721 21.75 15.2689 21.75 15.2657C21.75 15.2625 21.75 15.2592 21.75 15.256C21.75 15.2528 21.75 15.2496 21.75 15.2463C21.75 15.2431 21.75 15.2399 21.75 15.2367C21.75 15.2335 21.75 15.2302 21.75 15.227C21.75 15.2238 21.75 15.2206 21.75 15.2174C21.75 15.2142 21.75 15.2109 21.75 15.2077C21.75 15.2045 21.75 15.2013 21.75 15.1981C21.75 15.1949 21.75 15.1916 21.75 15.1884C21.75 15.1852 21.75 15.182 21.75 15.1788C21.75 15.1756 21.75 15.1724 21.75 15.1692C21.75 15.1659 21.75 15.1627 21.75 15.1595C21.75 15.1563 21.75 15.1531 21.75 15.1499C21.75 15.1467 21.75 15.1435 21.75 15.1403C21.75 15.137 21.75 15.1338 21.75 15.1306C21.75 15.1274 21.75 15.1242 21.75 15.121C21.75 15.1178 21.75 15.1146 21.75 15.1114C21.75 15.1082 21.75 15.105 21.75 15.1018C21.75 15.0986 21.75 15.0954 21.75 15.0922C21.75 15.0889 21.75 15.0857 21.75 15.0825C21.75 15.0793 21.75 15.0761 21.75 15.0729C21.75 15.0697 21.75 15.0665 21.75 15.0633C21.75 15.0601 21.75 15.0569 21.75 15.0537C21.75 15.0505 21.75 15.0473 21.75 15.0441C21.75 15.0409 21.75 15.0377 21.75 15.0345C21.75 15.0313 21.75 15.0281 21.75 15.025C21.75 15.0218 21.75 15.0186 21.75 15.0154C21.75 15.0122 21.75 15.009 21.75 15.0058C21.75 15.0026 21.75 14.9994 21.75 14.9962C21.75 14.993 21.75 14.9898 21.75 14.9866C21.75 14.9834 21.75 14.9803 21.75 14.9771C21.75 14.9739 21.75 14.9707 21.75 14.9675C21.75 14.9643 21.75 14.9611 21.75 14.9579C21.75 14.9547 21.75 14.9516 21.75 14.9484C21.75 14.9452 21.75 14.942 21.75 14.9388C21.75 14.9356 21.75 14.9325 21.75 14.9293C21.75 14.9261 21.75 14.9229 21.75 14.9197C21.75 14.9165 21.75 14.9134 21.75 14.9102C21.75 14.907 21.75 14.9038 21.75 14.9006C21.75 14.8975 21.75 14.8943 21.75 14.8911C21.75 14.8879 21.75 14.8848 21.75 14.8816C21.75 14.8784 21.75 14.8752 21.75 14.8721C21.75 14.8689 21.75 14.8657 21.75 14.8625C21.75 14.8594 21.75 14.8562 21.75 14.853C21.75 14.8498 21.75 14.8467 21.75 14.8435C21.75 14.8403 21.75 14.8372 21.75 14.834C21.75 14.8308 21.75 14.8277 21.75 14.8245C21.75 14.8213 21.75 14.8182 21.75 14.815C21.75 14.8118 21.75 14.8087 21.75 14.8055C21.75 14.8023 21.75 14.7992 21.75 14.796C21.75 14.7929 21.75 14.7897 21.75 14.7865C21.75 14.7834 21.75 14.7802 21.75 14.7771C21.75 14.7739 21.75 14.7707 21.75 14.7676C21.75 14.7644 21.75 14.7613 21.75 14.7581C21.75 14.755 21.75 14.7518 21.75 14.7486C21.75 14.7455 21.75 14.7423 21.75 14.7392C21.75 14.736 21.75 14.7329 21.75 14.7297C21.75 14.7266 21.75 14.7234 21.75 14.7203C21.75 14.7171 21.75 14.714 21.75 14.7108C21.75 14.7077 21.75 14.7045 21.75 14.7014C21.75 14.6982 21.75 14.6951 21.75 14.692C21.75 14.6888 21.75 14.6857 21.75 14.6825C21.75 14.6794 21.75 14.6762 21.75 14.6731C21.75 14.67 21.75 14.6668 21.75 14.6637C21.75 14.6605 21.75 14.6574 21.75 14.6543C21.75 14.6511 21.75 14.648 21.75 14.6449C21.75 14.6417 21.75 14.6386 21.75 14.6355C21.75 14.6323 21.75 14.6292 21.75 14.6261C21.75 14.6229 21.75 14.6198 21.75 14.6167C21.75 14.6135 21.75 14.6104 21.75 14.6073C21.75 14.6042 21.75 14.601 21.75 14.5979C21.75 14.5948 21.75 14.5916 21.75 14.5885C21.75 14.5854 21.75 14.5823 21.75 14.5792C21.75 14.576 21.75 14.5729 21.75 14.5698C21.75 14.5667 21.75 14.5636 21.75 14.5604C21.75 14.5573 21.75 14.5542 21.75 14.5511C21.75 14.548 21.75 14.5448 21.75 14.5417C21.75 14.5386 21.75 14.5355 21.75 14.5324C21.75 14.5293 21.75 14.5262 21.75 14.5231C21.75 14.5199 21.75 14.5168 21.75 14.5137C21.75 14.5106 21.75 14.5075 21.75 14.5044C21.75 14.5013 21.75 14.4982 21.75 14.4951C21.75 14.492 21.75 14.4889 21.75 14.4858C21.75 14.4827 21.75 14.4796 21.75 14.4765C21.75 14.4734 21.75 14.4703 21.75 14.4672C21.75 14.4641 21.75 14.461 21.75 14.4579C21.75 14.4548 21.75 14.4517 21.75 14.4486C21.75 14.4455 21.75 14.4424 21.75 14.4393C21.75 14.4362 21.75 14.4331 21.75 14.43C21.75 14.4269 21.75 14.4239 21.75 14.4208C21.75 14.4177 21.75 14.4146 21.75 14.4115C21.75 14.4084 21.75 14.4053 21.75 14.4023C21.75 14.3992 21.75 14.3961 21.75 14.393C21.75 14.3899 21.75 14.3868 21.75 14.3838C21.75 14.3807 21.75 14.3776 21.75 14.3745C21.75 14.3715 21.75 14.3684 21.75 14.3653C21.75 14.3622 21.75 14.3592 21.75 14.3561C21.75 14.353 21.75 14.3499 21.75 14.3469C21.75 14.3438 21.75 14.3407 21.75 14.3377C21.75 14.3346 21.75 14.3315 21.75 14.3285C21.75 14.3254 21.75 14.3223 21.75 14.3193C21.75 14.3162 21.75 14.3131 21.75 14.3101C21.75 14.307 21.75 14.304 21.75 14.3009C21.75 14.2978 21.75 14.2948 21.75 14.2917C21.75 14.2887 21.75 14.2856 21.75 14.2826C21.75 14.2795 21.75 14.2764 21.75 14.2734C21.75 14.2703 21.75 14.2673 21.75 14.2642C21.75 14.2612 21.75 14.2581 21.75 14.2551C21.75 14.252 21.75 14.249 21.75 14.246C21.75 14.2429 21.75 14.2399 21.75 14.2368C21.75 14.2338 21.75 14.2307 21.75 14.2277C21.75 14.2247 21.75 14.2216 21.75 14.2186C21.75 14.2156 21.75 14.2125 21.75 14.2095C21.75 14.2064 21.75 14.2034 21.75 14.2004C21.75 14.1973 21.75 14.1943 21.75 14.1913C21.75 14.1883 21.75 14.1852 21.75 14.1822C21.75 14.1792 21.75 14.1761 21.75 14.1731C21.75 14.1701 21.75 14.1671 21.75 14.164C21.75 14.161 21.75 14.158 21.75 14.155C21.75 14.152 21.75 14.1489 21.75 14.1459C21.75 14.1429 21.75 14.1399 21.75 14.1369C21.75 14.1339 21.75 14.1308 21.75 14.1278C21.75 14.1248 21.75 14.1218 21.75 14.1188C21.75 14.1158 21.75 14.1128 21.75 14.1098C21.75 14.1068 21.75 14.1038 21.75 14.1008C21.75 14.0978 21.75 14.0948 21.75 14.0918C21.75 14.0887 21.75 14.0857 21.75 14.0827C21.75 14.0797 21.75 14.0768 21.75 14.0738C21.75 14.0708 21.75 14.0678 21.75 14.0648C21.75 14.0618 21.75 14.0588 21.75 14.0558C21.75 14.0528 21.75 14.0498 21.75 14.0468C21.75 14.0438 21.75 14.0408 21.75 14.0379C21.75 14.0349 21.75 14.0319 21.75 14.0289C21.75 14.0259 21.75 14.0229 21.75 14.02C21.75 14.017 21.75 14.014 21.75 14.011C21.75 14.0081 21.75 14.0051 21.75 14.0021C21.75 13.9991 21.75 13.9962 21.75 13.9932C21.75 13.9902 21.75 13.9872 21.75 13.9843C21.75 13.9813 21.75 13.9783 21.75 13.9754C21.75 13.9724 21.75 13.9694 21.75 13.9665C21.75 13.9635 21.75 13.9605 21.75 13.9576C21.75 13.9546 21.75 13.9517 21.75 13.9487C21.75 13.9458 21.75 13.9428 21.75 13.9398C21.75 13.9369 21.75 13.9339 21.75 13.931C21.75 13.928 21.75 13.9251 21.75 13.9221C21.75 13.9192 21.75 13.9162 21.75 13.9133C21.75 13.9103 21.75 13.9074 21.75 13.9045C21.75 13.9015 21.75 13.8986 21.75 13.8956C21.75 13.8927 21.75 13.8898 21.75 13.8868C21.75 13.8839 21.75 13.8809 21.75 13.878C21.75 13.8751 21.75 13.8721 21.75 13.8692C21.75 13.8663 21.75 13.8633 21.75 13.8604C21.75 13.8575 21.75 13.8546 21.75 13.8516C21.75 13.8487 21.75 13.8458 21.75 13.8429C21.75 13.8399 21.75 13.837 21.75 13.8341C21.75 13.8312 21.75 13.8283 21.75 13.8254C21.75 13.8224 21.75 13.8195 21.75 13.8166C21.75 13.8137 21.75 13.8108 21.75 13.8079C21.75 13.805 21.75 13.8021 21.75 13.7992C21.75 13.7962 21.75 13.7933 21.75 13.7904C21.75 13.7875 21.75 13.7846 21.75 13.7817C21.75 13.7788 21.75 13.7759 21.75 13.773C21.75 13.7701 21.75 13.7672 21.75 13.7644C21.75 13.7615 21.75 13.7586 21.75 13.7557C21.75 13.7528 21.75 13.7499 21.75 13.747C21.75 13.7441 21.75 13.7412 21.75 13.7383C21.75 13.7355 21.75 13.7326 21.75 13.7297C21.75 13.7268 21.75 13.7239 21.75 13.7211C21.75 13.7182 21.75 13.7153 21.75 13.7124C21.75 13.7096 21.75 13.7067 21.75 13.7038C21.75 13.7009 21.75 13.6981 21.75 13.6952C21.75 13.6923 21.75 13.6895 21.75 13.6866C21.75 13.6837 21.75 13.6809 21.75 13.678C21.75 13.6752 21.75 13.6723 21.75 13.6694C21.75 13.6666 21.75 13.6637 21.75 13.6609C21.75 13.658 21.75 13.6552 21.75 13.6523C21.75 13.6495 21.75 13.6466 21.75 13.6438C21.75 13.6409 21.75 13.6381 21.75 13.6352C21.75 13.6324 21.75 13.6295 21.75 13.6267C21.75 13.6238 21.75 13.621 21.75 13.6182C21.75 13.6153 21.75 13.6125 21.75 13.6097C21.75 13.6068 21.75 13.604 21.75 13.6012C21.75 13.5983 21.75 13.5955 21.75 13.5927C21.75 13.5898 21.75 13.587 21.75 13.5842C21.75 13.5814 21.75 13.5785 21.75 13.5757C21.75 13.5729 21.75 13.5701 21.75 13.5673C21.75 13.5645 21.75 13.5616 21.75 13.5588C21.75 13.556 21.75 13.5532 21.75 13.5504C21.75 13.5476 21.75 13.5448 21.75 13.542C21.75 13.5392 21.75 13.5364 21.75 13.5336C21.75 13.5307 21.75 13.5279 21.75 13.5251C21.75 13.5223 21.75 13.5195 21.75 13.5168C21.75 13.514 21.75 13.5112 21.75 13.5084C21.75 13.5056 21.75 13.5028 21.75 13.5H18.75C18.75 13.5028 18.75 13.5056 18.75 13.5084C18.75 13.5112 18.75 13.514 18.75 13.5168C18.75 13.5195 18.75 13.5223 18.75 13.5251C18.75 13.5279 18.75 13.5307 18.75 13.5336C18.75 13.5364 18.75 13.5392 18.75 13.542C18.75 13.5448 18.75 13.5476 18.75 13.5504C18.75 13.5532 18.75 13.556 18.75 13.5588C18.75 13.5616 18.75 13.5645 18.75 13.5673C18.75 13.5701 18.75 13.5729 18.75 13.5757C18.75 13.5785 18.75 13.5814 18.75 13.5842C18.75 13.587 18.75 13.5898 18.75 13.5927C18.75 13.5955 18.75 13.5983 18.75 13.6012C18.75 13.604 18.75 13.6068 18.75 13.6097C18.75 13.6125 18.75 13.6153 18.75 13.6182C18.75 13.621 18.75 13.6238 18.75 13.6267C18.75 13.6295 18.75 13.6324 18.75 13.6352C18.75 13.6381 18.75 13.6409 18.75 13.6438C18.75 13.6466 18.75 13.6495 18.75 13.6523C18.75 13.6552 18.75 13.658 18.75 13.6609C18.75 13.6637 18.75 13.6666 18.75 13.6694C18.75 13.6723 18.75 13.6752 18.75 13.678C18.75 13.6809 18.75 13.6837 18.75 13.6866C18.75 13.6895 18.75 13.6923 18.75 13.6952C18.75 13.6981 18.75 13.7009 18.75 13.7038C18.75 13.7067 18.75 13.7096 18.75 13.7124C18.75 13.7153 18.75 13.7182 18.75 13.7211C18.75 13.7239 18.75 13.7268 18.75 13.7297C18.75 13.7326 18.75 13.7355 18.75 13.7383C18.75 13.7412 18.75 13.7441 18.75 13.747C18.75 13.7499 18.75 13.7528 18.75 13.7557C18.75 13.7586 18.75 13.7615 18.75 13.7644C18.75 13.7672 18.75 13.7701 18.75 13.773C18.75 13.7759 18.75 13.7788 18.75 13.7817C18.75 13.7846 18.75 13.7875 18.75 13.7904C18.75 13.7933 18.75 13.7962 18.75 13.7992C18.75 13.8021 18.75 13.805 18.75 13.8079C18.75 13.8108 18.75 13.8137 18.75 13.8166C18.75 13.8195 18.75 13.8224 18.75 13.8254C18.75 13.8283 18.75 13.8312 18.75 13.8341C18.75 13.837 18.75 13.8399 18.75 13.8429C18.75 13.8458 18.75 13.8487 18.75 13.8516C18.75 13.8546 18.75 13.8575 18.75 13.8604C18.75 13.8633 18.75 13.8663 18.75 13.8692C18.75 13.8721 18.75 13.8751 18.75 13.878C18.75 13.8809 18.75 13.8839 18.75 13.8868C18.75 13.8898 18.75 13.8927 18.75 13.8956C18.75 13.8986 18.75 13.9015 18.75 13.9045C18.75 13.9074 18.75 13.9103 18.75 13.9133C18.75 13.9162 18.75 13.9192 18.75 13.9221C18.75 13.9251 18.75 13.928 18.75 13.931C18.75 13.9339 18.75 13.9369 18.75 13.9398C18.75 13.9428 18.75 13.9458 18.75 13.9487C18.75 13.9517 18.75 13.9546 18.75 13.9576C18.75 13.9605 18.75 13.9635 18.75 13.9665C18.75 13.9694 18.75 13.9724 18.75 13.9754C18.75 13.9783 18.75 13.9813 18.75 13.9843C18.75 13.9872 18.75 13.9902 18.75 13.9932C18.75 13.9962 18.75 13.9991 18.75 14.0021C18.75 14.0051 18.75 14.0081 18.75 14.011C18.75 14.014 18.75 14.017 18.75 14.02C18.75 14.0229 18.75 14.0259 18.75 14.0289C18.75 14.0319 18.75 14.0349 18.75 14.0379C18.75 14.0408 18.75 14.0438 18.75 14.0468C18.75 14.0498 18.75 14.0528 18.75 14.0558C18.75 14.0588 18.75 14.0618 18.75 14.0648C18.75 14.0678 18.75 14.0708 18.75 14.0738C18.75 14.0768 18.75 14.0797 18.75 14.0827C18.75 14.0857 18.75 14.0887 18.75 14.0918C18.75 14.0948 18.75 14.0978 18.75 14.1008C18.75 14.1038 18.75 14.1068 18.75 14.1098C18.75 14.1128 18.75 14.1158 18.75 14.1188C18.75 14.1218 18.75 14.1248 18.75 14.1278C18.75 14.1308 18.75 14.1339 18.75 14.1369C18.75 14.1399 18.75 14.1429 18.75 14.1459C18.75 14.1489 18.75 14.152 18.75 14.155C18.75 14.158 18.75 14.161 18.75 14.164C18.75 14.1671 18.75 14.1701 18.75 14.1731C18.75 14.1761 18.75 14.1792 18.75 14.1822C18.75 14.1852 18.75 14.1883 18.75 14.1913C18.75 14.1943 18.75 14.1973 18.75 14.2004C18.75 14.2034 18.75 14.2064 18.75 14.2095C18.75 14.2125 18.75 14.2156 18.75 14.2186C18.75 14.2216 18.75 14.2247 18.75 14.2277C18.75 14.2307 18.75 14.2338 18.75 14.2368C18.75 14.2399 18.75 14.2429 18.75 14.246C18.75 14.249 18.75 14.252 18.75 14.2551C18.75 14.2581 18.75 14.2612 18.75 14.2642C18.75 14.2673 18.75 14.2703 18.75 14.2734C18.75 14.2764 18.75 14.2795 18.75 14.2826C18.75 14.2856 18.75 14.2887 18.75 14.2917C18.75 14.2948 18.75 14.2978 18.75 14.3009C18.75 14.304 18.75 14.307 18.75 14.3101C18.75 14.3131 18.75 14.3162 18.75 14.3193C18.75 14.3223 18.75 14.3254 18.75 14.3285C18.75 14.3315 18.75 14.3346 18.75 14.3377C18.75 14.3407 18.75 14.3438 18.75 14.3469C18.75 14.3499 18.75 14.353 18.75 14.3561C18.75 14.3592 18.75 14.3622 18.75 14.3653C18.75 14.3684 18.75 14.3715 18.75 14.3745C18.75 14.3776 18.75 14.3807 18.75 14.3838C18.75 14.3868 18.75 14.3899 18.75 14.393C18.75 14.3961 18.75 14.3992 18.75 14.4023C18.75 14.4053 18.75 14.4084 18.75 14.4115C18.75 14.4146 18.75 14.4177 18.75 14.4208C18.75 14.4239 18.75 14.4269 18.75 14.43C18.75 14.4331 18.75 14.4362 18.75 14.4393C18.75 14.4424 18.75 14.4455 18.75 14.4486C18.75 14.4517 18.75 14.4548 18.75 14.4579C18.75 14.461 18.75 14.4641 18.75 14.4672C18.75 14.4703 18.75 14.4734 18.75 14.4765C18.75 14.4796 18.75 14.4827 18.75 14.4858C18.75 14.4889 18.75 14.492 18.75 14.4951C18.75 14.4982 18.75 14.5013 18.75 14.5044C18.75 14.5075 18.75 14.5106 18.75 14.5137C18.75 14.5168 18.75 14.5199 18.75 14.5231C18.75 14.5262 18.75 14.5293 18.75 14.5324C18.75 14.5355 18.75 14.5386 18.75 14.5417C18.75 14.5448 18.75 14.548 18.75 14.5511C18.75 14.5542 18.75 14.5573 18.75 14.5604C18.75 14.5636 18.75 14.5667 18.75 14.5698C18.75 14.5729 18.75 14.576 18.75 14.5792C18.75 14.5823 18.75 14.5854 18.75 14.5885C18.75 14.5916 18.75 14.5948 18.75 14.5979C18.75 14.601 18.75 14.6042 18.75 14.6073C18.75 14.6104 18.75 14.6135 18.75 14.6167C18.75 14.6198 18.75 14.6229 18.75 14.6261C18.75 14.6292 18.75 14.6323 18.75 14.6355C18.75 14.6386 18.75 14.6417 18.75 14.6449C18.75 14.648 18.75 14.6511 18.75 14.6543C18.75 14.6574 18.75 14.6605 18.75 14.6637C18.75 14.6668 18.75 14.67 18.75 14.6731C18.75 14.6762 18.75 14.6794 18.75 14.6825C18.75 14.6857 18.75 14.6888 18.75 14.692C18.75 14.6951 18.75 14.6982 18.75 14.7014C18.75 14.7045 18.75 14.7077 18.75 14.7108C18.75 14.714 18.75 14.7171 18.75 14.7203C18.75 14.7234 18.75 14.7266 18.75 14.7297C18.75 14.7329 18.75 14.736 18.75 14.7392C18.75 14.7423 18.75 14.7455 18.75 14.7486C18.75 14.7518 18.75 14.755 18.75 14.7581C18.75 14.7613 18.75 14.7644 18.75 14.7676C18.75 14.7707 18.75 14.7739 18.75 14.7771C18.75 14.7802 18.75 14.7834 18.75 14.7865C18.75 14.7897 18.75 14.7929 18.75 14.796C18.75 14.7992 18.75 14.8023 18.75 14.8055C18.75 14.8087 18.75 14.8118 18.75 14.815C18.75 14.8182 18.75 14.8213 18.75 14.8245C18.75 14.8277 18.75 14.8308 18.75 14.834C18.75 14.8372 18.75 14.8403 18.75 14.8435C18.75 14.8467 18.75 14.8498 18.75 14.853C18.75 14.8562 18.75 14.8594 18.75 14.8625C18.75 14.8657 18.75 14.8689 18.75 14.8721C18.75 14.8752 18.75 14.8784 18.75 14.8816C18.75 14.8848 18.75 14.8879 18.75 14.8911C18.75 14.8943 18.75 14.8975 18.75 14.9006C18.75 14.9038 18.75 14.907 18.75 14.9102C18.75 14.9134 18.75 14.9165 18.75 14.9197C18.75 14.9229 18.75 14.9261 18.75 14.9293C18.75 14.9325 18.75 14.9356 18.75 14.9388C18.75 14.942 18.75 14.9452 18.75 14.9484C18.75 14.9516 18.75 14.9547 18.75 14.9579C18.75 14.9611 18.75 14.9643 18.75 14.9675C18.75 14.9707 18.75 14.9739 18.75 14.9771C18.75 14.9803 18.75 14.9834 18.75 14.9866C18.75 14.9898 18.75 14.993 18.75 14.9962C18.75 14.9994 18.75 15.0026 18.75 15.0058C18.75 15.009 18.75 15.0122 18.75 15.0154C18.75 15.0186 18.75 15.0218 18.75 15.025C18.75 15.0281 18.75 15.0313 18.75 15.0345C18.75 15.0377 18.75 15.0409 18.75 15.0441C18.75 15.0473 18.75 15.0505 18.75 15.0537C18.75 15.0569 18.75 15.0601 18.75 15.0633C18.75 15.0665 18.75 15.0697 18.75 15.0729C18.75 15.0761 18.75 15.0793 18.75 15.0825C18.75 15.0857 18.75 15.0889 18.75 15.0922C18.75 15.0954 18.75 15.0986 18.75 15.1018C18.75 15.105 18.75 15.1082 18.75 15.1114C18.75 15.1146 18.75 15.1178 18.75 15.121C18.75 15.1242 18.75 15.1274 18.75 15.1306C18.75 15.1338 18.75 15.137 18.75 15.1403C18.75 15.1435 18.75 15.1467 18.75 15.1499C18.75 15.1531 18.75 15.1563 18.75 15.1595C18.75 15.1627 18.75 15.1659 18.75 15.1692C18.75 15.1724 18.75 15.1756 18.75 15.1788C18.75 15.182 18.75 15.1852 18.75 15.1884C18.75 15.1916 18.75 15.1949 18.75 15.1981C18.75 15.2013 18.75 15.2045 18.75 15.2077C18.75 15.2109 18.75 15.2142 18.75 15.2174C18.75 15.2206 18.75 15.2238 18.75 15.227C18.75 15.2302 18.75 15.2335 18.75 15.2367C18.75 15.2399 18.75 15.2431 18.75 15.2463C18.75 15.2496 18.75 15.2528 18.75 15.256C18.75 15.2592 18.75 15.2625 18.75 15.2657C18.75 15.2689 18.75 15.2721 18.75 15.2753C18.75 15.2786 18.75 15.2818 18.75 15.285C18.75 15.2882 18.75 15.2915 18.75 15.2947C18.75 15.2979 18.75 15.3011 18.75 15.3044C18.75 15.3076 18.75 15.3108 18.75 15.314C18.75 15.3173 18.75 15.3205 18.75 15.3237C18.75 15.3269 18.75 15.3302 18.75 15.3334C18.75 15.3366 18.75 15.3399 18.75 15.3431C18.75 15.3463 18.75 15.3495 18.75 15.3528C18.75 15.356 18.75 15.3592 18.75 15.3625C18.75 15.3657 18.75 15.3689 18.75 15.3721C18.75 15.3754 18.75 15.3786 18.75 15.3818C18.75 15.3851 18.75 15.3883 18.75 15.3915C18.75 15.3948 18.75 15.398 18.75 15.4012C18.75 15.4045 18.75 15.4077 18.75 15.4109C18.75 15.4142 18.75 15.4174 18.75 15.4206C18.75 15.4239 18.75 15.4271 18.75 15.4303C18.75 15.4336 18.75 15.4368 18.75 15.44C18.75 15.4433 18.75 15.4465 18.75 15.4498C18.75 15.453 18.75 15.4562 18.75 15.4595C18.75 15.4627 18.75 15.4659 18.75 15.4692C18.75 15.4724 18.75 15.4756 18.75 15.4789C18.75 15.4821 18.75 15.4854 18.75 15.4886C18.75 15.4918 18.75 15.4951 18.75 15.4983C18.75 15.5016 18.75 15.5048 18.75 15.508C18.75 15.5113 18.75 15.5145 18.75 15.5177C18.75 15.521 18.75 15.5242 18.75 15.5275C18.75 15.5307 18.75 15.534 18.75 15.5372C18.75 15.5404 18.75 15.5437 18.75 15.5469C18.75 15.5502 18.75 15.5534 18.75 15.5566C18.75 15.5599 18.75 15.5631 18.75 15.5664C18.75 15.5696 18.75 15.5728 18.75 15.5761C18.75 15.5793 18.75 15.5826 18.75 15.5858C18.75 15.5891 18.75 15.5923 18.75 15.5955C18.75 15.5988 18.75 15.602 18.75 15.6053C18.75 15.6085 18.75 15.6118 18.75 15.615C18.75 15.6183 18.75 15.6215 18.75 15.6247C18.75 15.628 18.75 15.6312 18.75 15.6345C18.75 15.6377 18.75 15.641 18.75 15.6442C18.75 15.6475 18.75 15.6507 18.75 15.654C18.75 15.6572 18.75 15.6604 18.75 15.6637C18.75 15.6669 18.75 15.6702 18.75 15.6734C18.75 15.6767 18.75 15.6799 18.75 15.6832C18.75 15.6864 18.75 15.6897 18.75 15.6929C18.75 15.6961 18.75 15.6994 18.75 15.7026C18.75 15.7059 18.75 15.7091 18.75 15.7124C18.75 15.7156 18.75 15.7189 18.75 15.7221C18.75 15.7254 18.75 15.7286 18.75 15.7319C18.75 15.7351 18.75 15.7384 18.75 15.7416C18.75 15.7449 18.75 15.7481 18.75 15.7514C18.75 15.7546 18.75 15.7578 18.75 15.7611C18.75 15.7643 18.75 15.7676 18.75 15.7708C18.75 15.7741 18.75 15.7773 18.75 15.7806C18.75 15.7838 18.75 15.7871 18.75 15.7903C18.75 15.7936 18.75 15.7968 18.75 15.8001C18.75 15.8033 18.75 15.8066 18.75 15.8098C18.75 15.8131 18.75 15.8163 18.75 15.8196C18.75 15.8228 18.75 15.8261 18.75 15.8293C18.75 15.8326 18.75 15.8358 18.75 15.8391C18.75 15.8423 18.75 15.8456 18.75 15.8488C18.75 15.8521 18.75 15.8553 18.75 15.8585C18.75 15.8618 18.75 15.865 18.75 15.8683C18.75 15.8715 18.75 15.8748 18.75 15.878C18.75 15.8813 18.75 15.8845 18.75 15.8878C18.75 15.891 18.75 15.8943 18.75 15.8975C18.75 15.9008 18.75 15.904 18.75 15.9073C18.75 15.9105 18.75 15.9138 18.75 15.917C18.75 15.9203 18.75 15.9235 18.75 15.9268C18.75 15.93 18.75 15.9333 18.75 15.9365C18.75 15.9398 18.75 15.943 18.75 15.9463C18.75 15.9495 18.75 15.9528 18.75 15.956C18.75 15.9593 18.75 15.9625 18.75 15.9657C18.75 15.969 18.75 15.9722 18.75 15.9755C18.75 15.9787 18.75 15.982 18.75 15.9852C18.75 15.9885 18.75 15.9917 18.75 15.995C18.75 15.9982 18.75 16.0015 18.75 16.0047C18.75 16.008 18.75 16.0112 18.75 16.0145C18.75 16.0177 18.75 16.021 18.75 16.0242C18.75 16.0274 18.75 16.0307 18.75 16.0339C18.75 16.0372 18.75 16.0404 18.75 16.0437C18.75 16.0469 18.75 16.0502 18.75 16.0534C18.75 16.0567 18.75 16.0599 18.75 16.0632C18.75 16.0664 18.75 16.0696 18.75 16.0729C18.75 16.0761 18.75 16.0794 18.75 16.0826C18.75 16.0859 18.75 16.0891 18.75 16.0924C18.75 16.0956 18.75 16.0988 18.75 16.1021C18.75 16.1053 18.75 16.1086 18.75 16.1118C18.75 16.1151 18.75 16.1183 18.75 16.1216C18.75 16.1248 18.75 16.128 18.75 16.1313C18.75 16.1345 18.75 16.1378 18.75 16.141C18.75 16.1443 18.75 16.1475 18.75 16.1507C18.75 16.154 18.75 16.1572 18.75 16.1605C18.75 16.1637 18.75 16.167 18.75 16.1702C18.75 16.1734 18.75 16.1767 18.75 16.1799C18.75 16.1832 18.75 16.1864 18.75 16.1896C18.75 16.1929 18.75 16.1961 18.75 16.1994C18.75 16.2026 18.75 16.2058 18.75 16.2091C18.75 16.2123 18.75 16.2156 18.75 16.2188C18.75 16.222 18.75 16.2253 18.75 16.2285C18.75 16.2318 18.75 16.235 18.75 16.2382C18.75 16.2415 18.75 16.2447 18.75 16.2479C18.75 16.2512 18.75 16.2544 18.75 16.2577C18.75 16.2609 18.75 16.2641 18.75 16.2674C18.75 16.2706 18.75 16.2738 18.75 16.2771C18.75 16.2803 18.75 16.2835 18.75 16.2868C18.75 16.29 18.75 16.2932 18.75 16.2965C18.75 16.2997 18.75 16.3029 18.75 16.3062C18.75 16.3094 18.75 16.3127 18.75 16.3159C18.75 16.3191 18.75 16.3223 18.75 16.3256C18.75 16.3288 18.75 16.332 18.75 16.3353C18.75 16.3385 18.75 16.3417 18.75 16.345C18.75 16.3482 18.75 16.3514 18.75 16.3547C18.75 16.3579 18.75 16.3611 18.75 16.3644C18.75 16.3676 18.75 16.3708 18.75 16.374C18.75 16.3773 18.75 16.3805 18.75 16.3837C18.75 16.387 18.75 16.3902 18.75 16.3934C18.75 16.3966 18.75 16.3999 18.75 16.4031C18.75 16.4063 18.75 16.4095 18.75 16.4128C18.75 16.416 18.75 16.4192 18.75 16.4224C18.75 16.4257 18.75 16.4289 18.75 16.4321C18.75 16.4353 18.75 16.4386 18.75 16.4418C18.75 16.445 18.75 16.4482 18.75 16.4515C18.75 16.4547 18.75 16.4579 18.75 16.4611C18.75 16.4643 18.75 16.4676 18.75 16.4708C18.75 16.474 18.75 16.4772 18.75 16.4804C18.75 16.4837 18.75 16.4869 18.75 16.4901C18.75 16.4933 18.75 16.4965 18.75 16.4998C18.75 16.503 18.75 16.5062 18.75 16.5094C18.75 16.5126 18.75 16.5158 18.75 16.5191C18.75 16.5223 18.75 16.5255 18.75 16.5287C18.75 16.5319 18.75 16.5351 18.75 16.5384C18.75 16.5416 18.75 16.5448 18.75 16.548C18.75 16.5512 18.75 16.5544 18.75 16.5576C18.75 16.5608 18.75 16.5641 18.75 16.5673C18.75 16.5705 18.75 16.5737 18.75 16.5769C18.75 16.5801 18.75 16.5833 18.75 16.5865C18.75 16.5897 18.75 16.5929 18.75 16.5961C18.75 16.5994 18.75 16.6026 18.75 16.6058C18.75 16.609 18.75 16.6122 18.75 16.6154C18.75 16.6186 18.75 16.6218 18.75 16.625C18.75 16.6282 18.75 16.6314 18.75 16.6346C18.75 16.6378 18.75 16.641 18.75 16.6442C18.75 16.6474 18.75 16.6506 18.75 16.6538C18.75 16.657 18.75 16.6602 18.75 16.6634C18.75 16.6666 18.75 16.6698 18.75 16.673C18.75 16.6762 18.75 16.6794 18.75 16.6826C18.75 16.6858 18.75 16.689 18.75 16.6922C18.75 16.6954 18.75 16.6986 18.75 16.7018C18.75 16.705 18.75 16.7082 18.75 16.7114C18.75 16.7146 18.75 16.7178 18.75 16.721C18.75 16.7242 18.75 16.7273 18.75 16.7305C18.75 16.7337 18.75 16.7369 18.75 16.7401C18.75 16.7433 18.75 16.7465 18.75 16.7497C18.75 16.7529 18.75 16.7561 18.75 16.7592C18.75 16.7624 18.75 16.7656 18.75 16.7688C18.75 16.772 18.75 16.7752 18.75 16.7784C18.75 16.7815 18.75 16.7847 18.75 16.7879C18.75 16.7911 18.75 16.7943 18.75 16.7975C18.75 16.8006 18.75 16.8038 18.75 16.807C18.75 16.8102 18.75 16.8134 18.75 16.8165C18.75 16.8197 18.75 16.8229 18.75 16.8261C18.75 16.8293 18.75 16.8324 18.75 16.8356C18.75 16.8388 18.75 16.842 18.75 16.8451C18.75 16.8483 18.75 16.8515 18.75 16.8547C18.75 16.8578 18.75 16.861 18.75 16.8642C18.75 16.8674 18.75 16.8705 18.75 16.8737C18.75 16.8769 18.75 16.88 18.75 16.8832C18.75 16.8864 18.75 16.8895 18.75 16.8927C18.75 16.8959 18.75 16.899 18.75 16.9022C18.75 16.9054 18.75 16.9085 18.75 16.9117C18.75 16.9149 18.75 16.918 18.75 16.9212C18.75 16.9244 18.75 16.9275 18.75 16.9307C18.75 16.9338 18.75 16.937 18.75 16.9402C18.75 16.9433 18.75 16.9465 18.75 16.9496C18.75 16.9528 18.75 16.956 18.75 16.9591C18.75 16.9623 18.75 16.9654 18.75 16.9686C18.75 16.9717 18.75 16.9749 18.75 16.978C18.75 16.9812 18.75 16.9843 18.75 16.9875C18.75 16.9906 18.75 16.9938 18.75 16.9969C18.75 17.0001 18.75 17.0032 18.75 17.0064C18.75 17.0095 18.75 17.0127 18.75 17.0158C18.75 17.019 18.75 17.0221 18.75 17.0253C18.75 17.0284 18.75 17.0316 18.75 17.0347C18.75 17.0379 18.75 17.041 18.75 17.0441C18.75 17.0473 18.75 17.0504 18.75 17.0536C18.75 17.0567 18.75 17.0598 18.75 17.063C18.75 17.0661 18.75 17.0692 18.75 17.0724C18.75 17.0755 18.75 17.0787 18.75 17.0818C18.75 17.0849 18.75 17.0881 18.75 17.0912C18.75 17.0943 18.75 17.0975 18.75 17.1006C18.75 17.1037 18.75 17.1068 18.75 17.11C18.75 17.1131 18.75 17.1162 18.75 17.1194C18.75 17.1225 18.75 17.1256 18.75 17.1287C18.75 17.1319 18.75 17.135 18.75 17.1381C18.75 17.1412 18.75 17.1444 18.75 17.1475C18.75 17.1506 18.75 17.1537 18.75 17.1568C18.75 17.16 18.75 17.1631 18.75 17.1662C18.75 17.1693 18.75 17.1724 18.75 17.1755C18.75 17.1787 18.75 17.1818 18.75 17.1849C18.75 17.188 18.75 17.1911 18.75 17.1942C18.75 17.1973 18.75 17.2004 18.75 17.2036C18.75 17.2067 18.75 17.2098 18.75 17.2129C18.75 17.216 18.75 17.2191 18.75 17.2222C18.75 17.2253 18.75 17.2284 18.75 17.2315C18.75 17.2346 18.75 17.2377 18.75 17.2408C18.75 17.2439 18.75 17.247 18.75 17.2501C18.75 17.2532 18.75 17.2563 18.75 17.2594C18.75 17.2625 18.75 17.2656 18.75 17.2687C18.75 17.2718 18.75 17.2749 18.75 17.278C18.75 17.2811 18.75 17.2842 18.75 17.2873C18.75 17.2904 18.75 17.2934 18.75 17.2965C18.75 17.2996 18.75 17.3027 18.75 17.3058C18.75 17.3089 18.75 17.312 18.75 17.3151C18.75 17.3181 18.75 17.3212 18.75 17.3243C18.75 17.3274 18.75 17.3305 18.75 17.3335C18.75 17.3366 18.75 17.3397 18.75 17.3428C18.75 17.3459 18.75 17.3489 18.75 17.352C18.75 17.3551 18.75 17.3582 18.75 17.3612C18.75 17.3643 18.75 17.3674 18.75 17.3705C18.75 17.3735 18.75 17.3766 18.75 17.3797C18.75 17.3827 18.75 17.3858 18.75 17.3889C18.75 17.3919 18.75 17.395 18.75 17.3981C18.75 17.4011 18.75 17.4042 18.75 17.4073C18.75 17.4103 18.75 17.4134 18.75 17.4164C18.75 17.4195 18.75 17.4226 18.75 17.4256C18.75 17.4287 18.75 17.4317 18.75 17.4348C18.75 17.4378 18.75 17.4409 18.75 17.444C18.75 17.447 18.75 17.4501 18.75 17.4531C18.75 17.4562 18.75 17.4592 18.75 17.4623C18.75 17.4653 18.75 17.4684 18.75 17.4714C18.75 17.4744 18.75 17.4775 18.75 17.4805C18.75 17.4836 18.75 17.4866 18.75 17.4897C18.75 17.4927 18.75 17.4957 18.75 17.4988C18.75 17.5018 18.75 17.5049 18.75 17.5079C18.75 17.5109 18.75 17.514 18.75 17.517C18.75 17.52 18.75 17.5231 18.75 17.5261C18.75 17.5291 18.75 17.5322 18.75 17.5352C18.75 17.5382 18.75 17.5412 18.75 17.5443C18.75 17.5473 18.75 17.5503 18.75 17.5533C18.75 17.5564 18.75 17.5594 18.75 17.5624C18.75 17.5654 18.75 17.5685 18.75 17.5715C18.75 17.5745 18.75 17.5775 18.75 17.5805C18.75 17.5835 18.75 17.5866 18.75 17.5896C18.75 17.5926 18.75 17.5956 18.75 17.5986C18.75 17.6016 18.75 17.6046 18.75 17.6076C18.75 17.6106 18.75 17.6136 18.75 17.6167C18.75 17.6197 18.75 17.6227 18.75 17.6257C18.75 17.6287 18.75 17.6317 18.75 17.6347C18.75 17.6377 18.75 17.6407 18.75 17.6437C18.75 17.6467 18.75 17.6497 18.75 17.6527C18.75 17.6557 18.75 17.6586 18.75 17.6616C18.75 17.6646 18.75 17.6676 18.75 17.6706C18.75 17.6736 18.75 17.6766 18.75 17.6796C18.75 17.6826 18.75 17.6855 18.75 17.6885C18.75 17.6915 18.75 17.6945 18.75 17.6975C18.75 17.7005 18.75 17.7034 18.75 17.7064C18.75 17.7094 18.75 17.7124 18.75 17.7153C18.75 17.7183 18.75 17.7213 18.75 17.7243C18.75 17.7272 18.75 17.7302 18.75 17.7332C18.75 17.7362 18.75 17.7391 18.75 17.7421C18.75 17.7451 18.75 17.748 18.75 17.751C18.75 17.754 18.75 17.7569 18.75 17.7599C18.75 17.7628 18.75 17.7658 18.75 17.7688C18.75 17.7717 18.75 17.7747 18.75 17.7776C18.75 17.7806 18.75 17.7835 18.75 17.7865C18.75 17.7895 18.75 17.7924 18.75 17.7954C18.75 17.7983 18.75 17.8013 18.75 17.8042C18.75 17.8071 18.75 17.8101 18.75 17.813C18.75 17.816 18.75 17.8189 18.75 17.8219C18.75 17.8248 18.75 17.8277 18.75 17.8307C18.75 17.8336 18.75 17.8366 18.75 17.8395C18.75 17.8424 18.75 17.8454 18.75 17.8483C18.75 17.8512 18.75 17.8542 18.75 17.8571C18.75 17.86 18.75 17.8629 18.75 17.8659C18.75 17.8688 18.75 17.8717 18.75 17.8746C18.75 17.8776 18.75 17.8805 18.75 17.8834C18.75 17.8863 18.75 17.8893 18.75 17.8922C18.75 17.8951 18.75 17.898 18.75 17.9009C18.75 17.9038 18.75 17.9067 18.75 17.9097C18.75 17.9126 18.75 17.9155 18.75 17.9184C18.75 17.9213 18.75 17.9242 18.75 17.9271C18.75 17.93 18.75 17.9329 18.75 17.9358C18.75 17.9387 18.75 17.9416 18.75 17.9445C18.75 17.9474 18.75 17.9503 18.75 17.9532C18.75 17.9561 18.75 17.959 18.75 17.9619C18.75 17.9648 18.75 17.9677 18.75 17.9706C18.75 17.9734 18.75 17.9763 18.75 17.9792C18.75 17.9821 18.75 17.985 18.75 17.9879C18.75 17.9908 18.75 17.9936 18.75 17.9965C18.75 17.9994 18.75 18.0023 18.75 18.0051C18.75 18.008 18.75 18.0109 18.75 18.0138C18.75 18.0166 18.75 18.0195 18.75 18.0224C18.75 18.0253 18.75 18.0281 18.75 18.031C18.75 18.0339 18.75 18.0367 18.75 18.0396C18.75 18.0424 18.75 18.0453 18.75 18.0482C18.75 18.051 18.75 18.0539 18.75 18.0567C18.75 18.0596 18.75 18.0624 18.75 18.0653C18.75 18.0682 18.75 18.071 18.75 18.0739C18.75 18.0767 18.75 18.0796 18.75 18.0824C18.75 18.0852 18.75 18.0881 18.75 18.0909C18.75 18.0938 18.75 18.0966 18.75 18.0995C18.75 18.1023 18.75 18.1051 18.75 18.108C18.75 18.1108 18.75 18.1136 18.75 18.1165C18.75 18.1193 18.75 18.1221 18.75 18.125C18.75 18.1278 18.75 18.1306 18.75 18.1334C18.75 18.1363 18.75 18.1391 18.75 18.1419C18.75 18.1447 18.75 18.1476 18.75 18.1504C18.75 18.1532 18.75 18.156 18.75 18.1588C18.75 18.1616 18.75 18.1645 18.75 18.1673C18.75 18.1701 18.75 18.1729 18.75 18.1757C18.75 18.1785 18.75 18.1813 18.75 18.1841C18.75 18.1869 18.75 18.1897 18.75 18.1925C18.75 18.1953 18.75 18.1981 18.75 18.2009C18.75 18.2037 18.75 18.2065 18.75 18.2093C18.75 18.2121 18.75 18.2149 18.75 18.2177C18.75 18.2205 18.75 18.2233 18.75 18.2261C18.75 18.2288 18.75 18.2316 18.75 18.2344C18.75 18.2372 18.75 18.24 18.75 18.2428C18.75 18.2455 18.75 18.2483 18.75 18.2511H21.75ZM18.25 21.75C20.1819 21.75 21.75 20.1851 21.75 18.2511H18.75C18.75 18.5262 18.5272 18.75 18.25 18.75V21.75ZM2.25 18.25C2.25 20.183 3.817 21.75 5.75 21.75V18.75C5.47386 18.75 5.25 18.5261 5.25 18.25H2.25Z" fill="black" mask="url(#path-3-inside-1_1858_8581)"/>
</svg>
