<svg width="25" height="24" viewBox="0 0 25 24" fill="none" xmlns="http://www.w3.org/2000/svg">
<path d="M2.5 3.73334H3.92269H5.28913V15.8251H18.3917L20.8333 6.82088H8.06639" stroke="black" stroke-width="1.5" stroke-linejoin="round"/>
<path d="M6.2271 21.0593C7.17287 21.0593 7.93956 20.2926 7.93956 19.3469C7.93956 18.4011 7.17287 17.6344 6.2271 17.6344C5.28134 17.6344 4.51465 18.4011 4.51465 19.3469C4.51465 20.2926 5.28134 21.0593 6.2271 21.0593Z" fill="black"/>
<path d="M17.3038 21.0635C18.2495 21.0635 19.0162 20.2968 19.0162 19.351C19.0162 18.4052 18.2495 17.6385 17.3038 17.6385C16.358 17.6385 15.5913 18.4052 15.5913 19.351C15.5913 20.2968 16.358 21.0635 17.3038 21.0635Z" fill="black"/>
</svg>
