<svg width="24" height="24" viewBox="0 0 24 24" fill="none" xmlns="http://www.w3.org/2000/svg">
<path d="M14.863 9.05539L21.2928 9.63903C21.4681 9.65494 21.541 9.87145 21.4111 9.99014L16.5226 14.4561C16.4692 14.5049 16.4458 14.5785 16.4614 14.6492L17.9207 21.2744C17.9595 21.4503 17.7665 21.5854 17.6144 21.4888L12.1086 17.9908C12.0423 17.9487 11.9577 17.9487 11.8914 17.9908L6.3863 21.4884C6.23416 21.585 6.04106 21.4497 6.08006 21.2737L7.54814 14.6494C7.56383 14.5786 7.54047 14.5049 7.48689 14.456L2.59028 9.99082C2.46008 9.87209 2.53318 9.65524 2.70869 9.63956L9.13676 9.0655C9.21255 9.05873 9.27814 9.01005 9.30656 8.93946L11.8123 2.71609C11.8804 2.54702 12.1197 2.54696 12.1879 2.716L14.6935 8.92948C14.7219 8.99991 14.7873 9.04853 14.863 9.05539Z" fill="black" stroke="black" stroke-width="1.2" stroke-linejoin="round"/>
</svg>
