<svg width="16" height="16" viewBox="0 0 16 16" fill="none" xmlns="http://www.w3.org/2000/svg">
<path fill-rule="evenodd" clip-rule="evenodd" d="M6.86832 2C6.48482 2 6.15792 2.27164 6.09838 2.6575L6.09836 2.6575L6.09775 2.66173L5.92558 3.84456C5.72648 3.93954 5.53778 4.04758 5.35942 4.16473L4.20051 3.71179L4.20052 3.71176L4.19533 3.70979C3.84861 3.57871 3.43889 3.70659 3.24049 4.04862L2.1107 5.95019L2.11064 5.95015L2.10644 5.95751C1.91627 6.29029 1.98739 6.71639 2.31185 6.95665L3.27281 7.68636C3.26296 7.78856 3.25686 7.89414 3.25686 7.99994C3.25686 8.10218 3.26089 8.20676 3.26909 8.31097L2.30182 9.04546L2.3018 9.04544L2.29723 9.04899C1.99041 9.28763 1.91813 9.70977 2.09437 10.0334L2.09885 10.0416L2.10363 10.0497L3.23341 11.9512C3.44204 12.3111 3.85419 12.3989 4.16557 12.298L4.17965 12.2935L4.19344 12.2881L5.35148 11.8355C5.53218 11.9547 5.72013 12.0616 5.91858 12.1558L6.09068 13.3381L6.09278 13.3526L6.09572 13.3669C6.16994 13.7277 6.48038 13.9999 6.86832 13.9999H9.13121C9.48915 13.9999 9.85302 13.7494 9.90294 13.3302L10.074 12.1553C10.273 12.0603 10.4618 11.9523 10.6401 11.8351L11.799 12.2881L11.799 12.2881L11.8042 12.2901C12.1509 12.4212 12.5607 12.2933 12.7591 11.9512L13.8888 10.0497L13.8889 10.0497L13.8931 10.0424C14.083 9.71008 14.0124 9.28473 13.6891 9.04427L12.7317 8.30856C12.7386 8.20865 12.7427 8.10569 12.7427 7.99994C12.7427 7.89493 12.7387 7.79119 12.7306 7.68876L13.6977 6.95441L13.6977 6.95444L13.7023 6.95088C14.0091 6.71225 14.0814 6.29011 13.9052 5.96646L13.9007 5.95824L13.8959 5.95019L12.7662 4.04869C12.5575 3.68881 12.1454 3.60092 11.834 3.70183L11.8199 3.7064L11.8061 3.71179L10.648 4.16439C10.4674 4.0452 10.2794 3.93823 10.081 3.84408L9.90885 2.66173L9.90887 2.66173L9.90822 2.6575C9.84637 2.25665 9.49904 2 9.13121 2H6.86832ZM6.87517 4.26325L7.05905 3H8.94755L9.13143 4.26325L9.17307 4.54934L9.44179 4.65598C9.74402 4.77591 10.0175 4.93239 10.2833 5.12926L10.5054 5.2938L10.7629 5.19317L11.9965 4.71103L12.9298 6.28189L11.8979 7.06549L11.658 7.24766L11.7069 7.54489C11.7305 7.68823 11.7427 7.83975 11.7427 7.99994C11.7427 8.16025 11.7305 8.31794 11.7111 8.47493L11.6761 8.75853L11.9027 8.93264L12.9233 9.71697L11.9894 11.2888L10.7558 10.8067L10.4994 10.7065L10.2777 10.8695C10.0165 11.0615 9.73545 11.2246 9.43472 11.3439L9.166 11.4505L9.12436 11.7366L8.94048 12.9999H7.05198L6.8681 11.7366L6.82646 11.4505L6.55774 11.3439C6.25551 11.224 5.98205 11.0675 5.71627 10.8706L5.49413 10.7061L5.23665 10.8067L4.00304 11.2888L3.06974 9.71798L4.10166 8.93439L4.34157 8.75222L4.29265 8.45499C4.26914 8.31212 4.25686 8.15377 4.25686 7.99994C4.25686 7.85809 4.27393 7.70159 4.29972 7.54489L4.34864 7.24766L4.10874 7.06549L3.07681 6.28189L4.01011 4.71103L5.24372 5.19317L5.50009 5.29337L5.72187 5.13034C5.98303 4.93837 6.26408 4.77531 6.56481 4.65598L6.83353 4.54934L6.87517 4.26325ZM8.99983 8C8.99983 8.55228 8.55211 9 7.99983 9C7.44754 9 6.99983 8.55228 6.99983 8C6.99983 7.44772 7.44754 7 7.99983 7C8.55211 7 8.99983 7.44772 8.99983 8ZM9.99983 8C9.99983 9.10457 9.1044 10 7.99983 10C6.89526 10 5.99983 9.10457 5.99983 8C5.99983 6.89543 6.89526 6 7.99983 6C9.1044 6 9.99983 6.89543 9.99983 8Z" fill="black"/>
</svg>
