<svg width="16" height="16" viewBox="0 0 16 16" fill="none" xmlns="http://www.w3.org/2000/svg">
<path d="M1.33325 2.48889H2.28171H3.19267V10.5501H11.9277L13.5555 4.54725H5.04418" stroke="black" stroke-linejoin="round"/>
<path d="M3.81791 14.0396C4.44841 14.0396 4.95954 13.5284 4.95954 12.8979C4.95954 12.2674 4.44841 11.7563 3.81791 11.7563C3.1874 11.7563 2.67627 12.2674 2.67627 12.8979C2.67627 13.5284 3.1874 14.0396 3.81791 14.0396Z" fill="black"/>
<path d="M11.2024 14.0423C11.8329 14.0423 12.3441 13.5312 12.3441 12.9007C12.3441 12.2702 11.8329 11.759 11.2024 11.759C10.5719 11.759 10.0608 12.2702 10.0608 12.9007C10.0608 13.5312 10.5719 14.0423 11.2024 14.0423Z" fill="black"/>
</svg>
