<svg width="33" height="32" viewBox="0 0 33 32" fill="none" xmlns="http://www.w3.org/2000/svg">
<path d="M4.5 7.59997L17.588 7.59997M28.5 7.59997L23.044 7.59997" stroke="black" stroke-width="2"/>
<path d="M20.1134 5.00113C21.5493 5.00113 22.7134 6.16519 22.7134 7.60113C22.7134 9.03707 21.5493 10.2011 20.1134 10.2011C18.6774 10.2011 17.5134 9.03707 17.5134 7.60113C17.5134 6.16519 18.6774 5.00113 20.1134 5.00113Z" stroke="black" stroke-width="2"/>
<path d="M4.5 16H9.15525M28.5 16H14.0013" stroke="black" stroke-width="2"/>
<path d="M11.0368 13.4001C12.4727 13.4001 13.6368 14.5641 13.6368 16.0001C13.6368 17.436 12.4727 18.6001 11.0368 18.6001C9.60083 18.6001 8.43677 17.436 8.43677 16.0001C8.43677 14.5641 9.60083 13.4001 11.0368 13.4001Z" stroke="black" stroke-width="2"/>
<path d="M4.5 24.3999H17.5277M28.5 24.3999H22.6264" stroke="black" stroke-width="2"/>
<path d="M20.1134 21.8C21.5493 21.8 22.7134 22.964 22.7134 24.4C22.7134 25.8359 21.5493 27 20.1134 27C18.6774 27 17.5134 25.8359 17.5134 24.4C17.5134 22.964 18.6774 21.8 20.1134 21.8Z" stroke="black" stroke-width="2"/>
</svg>
