<svg width="16" height="16" viewBox="0 0 16 16" fill="none" xmlns="http://www.w3.org/2000/svg">
<path d="M14.0446 3.79149C14.1976 4.05949 14.3132 4.34816 14.3882 4.6491C14.4669 4.96014 14.5044 5.28066 14.4996 5.60199C14.5034 6.21465 14.3462 6.81703 14.0446 7.34579C13.8961 7.62212 13.7076 7.87655 13.4875 8.09857L8 14L2.51248 8.09857C2.29226 7.87429 2.10182 7.62118 1.94609 7.34579C1.8019 7.07789 1.68967 6.79315 1.61183 6.49771C1.53755 6.20517 1.50041 5.90406 1.50041 5.60199C1.49562 5.28066 1.5331 4.96014 1.61183 4.6491C1.75981 4.0366 2.07178 3.47878 2.51248 3.03871C2.8347 2.70913 3.21628 2.44699 3.63599 2.26687C4.48079 1.91104 5.42816 1.91104 6.27296 2.26687C6.66966 2.43918 7.03411 2.68101 7.35004 2.98153L7.39646 3.03871L8 3.65809L8.60353 3.03871L8.64996 2.98153C8.96588 2.68101 9.33034 2.43918 9.72703 2.26687C10.5718 1.91104 11.5192 1.91104 12.364 2.26687C12.7837 2.44699 13.1653 2.70913 13.4875 3.03871C13.7098 3.2588 13.8977 3.5127 14.0446 3.79149Z" fill="black"/>
</svg>
