<svg width="32" height="32" viewBox="0 0 32 32" fill="none" xmlns="http://www.w3.org/2000/svg">
<path d="M28.0892 7.58299C28.3952 8.11898 28.6265 8.69633 28.7763 9.2982C28.9338 9.92027 29.0088 10.5613 28.9992 11.204C29.0067 12.4293 28.6924 13.6341 28.0892 14.6916C27.7921 15.2442 27.4151 15.7531 26.975 16.1971L16 28L5.02497 16.1971C4.58452 15.7486 4.20364 15.2424 3.89218 14.6916C3.6038 14.1558 3.37934 13.5863 3.22365 12.9954C3.07509 12.4103 3.00081 11.8081 3.00081 11.204C2.99125 10.5613 3.06621 9.92028 3.22365 9.2982C3.51961 8.07319 4.14356 6.95757 5.02497 6.07742C5.66941 5.41827 6.43256 4.89398 7.27197 4.53373C8.96158 3.82209 10.8563 3.82209 12.5459 4.53373C13.3393 4.87837 14.0682 5.36203 14.7001 5.96307L14.7929 6.07742L16 7.31618L17.2071 6.07742L17.2999 5.96307C17.9318 5.36203 18.6607 4.87837 19.4541 4.53373C21.1437 3.82209 23.0384 3.82209 24.728 4.53373C25.5674 4.89398 26.3306 5.41827 26.975 6.07742C27.4195 6.5176 27.7953 7.02541 28.0892 7.58299Z" fill="black"/>
</svg>
