<svg width="16" height="16" viewBox="0 0 16 16" fill="none" xmlns="http://www.w3.org/2000/svg">
<path d="M9.90863 6.03693L14.1952 6.42602C14.3121 6.43662 14.3607 6.58096 14.2741 6.66009L11.015 9.63743C10.9794 9.66996 10.9639 9.71902 10.9743 9.76612L11.9472 14.1829C11.973 14.3002 11.8443 14.3903 11.743 14.3259L8.07238 11.9939C8.02821 11.9658 7.97179 11.9658 7.92762 11.9939L4.25753 14.3256C4.15611 14.39 4.02738 14.2998 4.05338 14.1825L5.03209 9.76629C5.04255 9.7191 5.02698 9.66992 4.99126 9.63735L1.72685 6.66055C1.64005 6.5814 1.68879 6.43682 1.80579 6.42637L6.09117 6.04367C6.1417 6.03916 6.18543 6.0067 6.20437 5.95964L7.87489 1.81073C7.92027 1.69801 8.07983 1.69797 8.12527 1.81066L9.79566 5.95298C9.81459 5.99994 9.85821 6.03235 9.90863 6.03693Z" fill="black" stroke="black" stroke-width="0.8" stroke-linejoin="round"/>
</svg>
