<svg width="24" height="24" viewBox="0 0 24 24" fill="none" xmlns="http://www.w3.org/2000/svg">
<path d="M20.6397 6.04391L20.6457 6.05516L20.6522 6.06619C20.8522 6.40774 21.0033 6.77565 21.1013 7.1592L21.102 7.16217C21.2062 7.56342 21.2558 7.97692 21.2495 8.39146L21.2493 8.39959L21.2494 8.40772C21.2543 9.19202 21.048 9.96315 20.652 10.64L20.6472 10.6482L20.6426 10.6565C20.4494 11.007 20.2036 11.3306 19.9164 11.6132L19.9078 11.6216L19.8996 11.6302L12 19.9133L4.10041 11.6302L4.09337 11.6228L4.08612 11.6157C3.79598 11.3276 3.54482 11.0027 3.33906 10.6493C3.14871 10.3031 3.0003 9.93554 2.89697 9.55423C2.79953 9.17892 2.75062 8.79193 2.75062 8.40299H2.75071L2.75054 8.39154C2.74421 7.97695 2.79381 7.56341 2.89798 7.16209L2.89803 7.1621L2.90003 7.15404C3.09405 6.37101 3.5031 5.65795 4.08086 5.09544L4.0809 5.09548L4.08727 5.08912C4.51357 4.66399 5.01827 4.32574 5.57335 4.09313C6.68866 3.63583 7.93889 3.63562 9.05432 4.09252C9.56872 4.31089 10.0425 4.61457 10.4557 4.99068L10.4952 5.03803L10.5169 5.06417L10.541 5.08823L11.4695 6.0173L12 6.54811L12.5305 6.0173L13.459 5.08823L13.483 5.06417L13.5048 5.03803L13.5443 4.99068C13.9575 4.61456 14.4313 4.31089 14.9457 4.09252C16.0611 3.63561 17.3114 3.63583 18.4267 4.09317C18.9818 4.32578 19.4864 4.66401 19.9127 5.08912L19.9127 5.08919L19.9214 5.09761C20.2079 5.37427 20.4502 5.69344 20.6397 6.04391Z" stroke="black" stroke-width="1.5"/>
</svg>
