<svg width="33" height="32" viewBox="0 0 33 32" fill="none" xmlns="http://www.w3.org/2000/svg">
<mask id="path-1-inside-1_70_854" fill="white">
<path d="M26.1001 27.9974L26.1001 20.7333C26.1001 17.7878 23.7123 15.4 20.7668 15.4L12.2334 15.4C9.28791 15.4 6.9001 17.7867 6.9001 20.7322C6.9001 23.1043 6.9001 25.8423 6.9001 28"/>
</mask>
<path d="M28.1001 27.9974L28.1001 20.7333L24.1001 20.7333L24.1001 27.9974L28.1001 27.9974ZM20.7668 13.4L12.2334 13.4L12.2334 17.4L20.7668 17.4L20.7668 13.4ZM4.9001 20.7322C4.9001 20.7369 4.9001 20.7415 4.9001 20.7462C4.9001 20.7508 4.9001 20.7554 4.9001 20.7601C4.9001 20.7647 4.9001 20.7693 4.9001 20.774C4.9001 20.7786 4.9001 20.7833 4.9001 20.7879C4.9001 20.7926 4.9001 20.7972 4.9001 20.8018C4.9001 20.8065 4.9001 20.8111 4.9001 20.8158C4.9001 20.8204 4.9001 20.8251 4.9001 20.8297C4.9001 20.8344 4.9001 20.8391 4.9001 20.8437C4.9001 20.8484 4.9001 20.853 4.9001 20.8577C4.9001 20.8623 4.9001 20.867 4.9001 20.8717C4.9001 20.8763 4.9001 20.881 4.9001 20.8856C4.9001 20.8903 4.9001 20.895 4.9001 20.8996C4.9001 20.9043 4.9001 20.909 4.9001 20.9136C4.9001 20.9183 4.9001 20.923 4.9001 20.9276C4.9001 20.9323 4.9001 20.937 4.9001 20.9417C4.9001 20.9463 4.9001 20.951 4.9001 20.9557C4.9001 20.9604 4.9001 20.965 4.9001 20.9697C4.9001 20.9744 4.9001 20.9791 4.9001 20.9837C4.9001 20.9884 4.9001 20.9931 4.9001 20.9978C4.9001 21.0025 4.9001 21.0072 4.9001 21.0118C4.9001 21.0165 4.9001 21.0212 4.9001 21.0259C4.9001 21.0306 4.9001 21.0353 4.9001 21.04C4.9001 21.0447 4.9001 21.0494 4.9001 21.0541C4.9001 21.0587 4.9001 21.0634 4.9001 21.0681C4.9001 21.0728 4.9001 21.0775 4.9001 21.0822C4.9001 21.0869 4.9001 21.0916 4.9001 21.0963C4.9001 21.101 4.9001 21.1057 4.9001 21.1104C4.9001 21.1151 4.9001 21.1198 4.9001 21.1245C4.9001 21.1293 4.9001 21.134 4.9001 21.1387C4.9001 21.1434 4.9001 21.1481 4.9001 21.1528C4.9001 21.1575 4.9001 21.1622 4.9001 21.1669C4.9001 21.1716 4.9001 21.1764 4.9001 21.1811C4.9001 21.1858 4.9001 21.1905 4.9001 21.1952C4.9001 21.1999 4.9001 21.2047 4.9001 21.2094C4.9001 21.2141 4.9001 21.2188 4.9001 21.2235C4.9001 21.2283 4.9001 21.233 4.9001 21.2377C4.9001 21.2424 4.9001 21.2472 4.9001 21.2519C4.9001 21.2566 4.9001 21.2613 4.9001 21.2661C4.9001 21.2708 4.9001 21.2755 4.9001 21.2803C4.9001 21.285 4.9001 21.2897 4.9001 21.2945C4.9001 21.2992 4.9001 21.3039 4.9001 21.3087C4.9001 21.3134 4.9001 21.3181 4.9001 21.3229C4.9001 21.3276 4.9001 21.3323 4.9001 21.3371C4.9001 21.3418 4.9001 21.3466 4.9001 21.3513C4.9001 21.3561 4.9001 21.3608 4.9001 21.3655C4.9001 21.3703 4.9001 21.375 4.9001 21.3798C4.9001 21.3845 4.9001 21.3893 4.9001 21.394C4.9001 21.3988 4.9001 21.4035 4.9001 21.4083C4.9001 21.413 4.9001 21.4178 4.9001 21.4225C4.9001 21.4273 4.9001 21.432 4.9001 21.4368C4.9001 21.4415 4.9001 21.4463 4.9001 21.4511C4.9001 21.4558 4.9001 21.4606 4.9001 21.4653C4.9001 21.4701 4.9001 21.4748 4.9001 21.4796C4.9001 21.4844 4.9001 21.4891 4.9001 21.4939C4.9001 21.4987 4.9001 21.5034 4.9001 21.5082C4.9001 21.513 4.9001 21.5177 4.9001 21.5225C4.9001 21.5273 4.9001 21.532 4.9001 21.5368C4.9001 21.5416 4.9001 21.5463 4.9001 21.5511C4.9001 21.5559 4.9001 21.5606 4.9001 21.5654C4.9001 21.5702 4.9001 21.575 4.9001 21.5797C4.9001 21.5845 4.9001 21.5893 4.9001 21.5941C4.9001 21.5988 4.9001 21.6036 4.9001 21.6084C4.9001 21.6132 4.9001 21.618 4.9001 21.6227C4.9001 21.6275 4.9001 21.6323 4.9001 21.6371C4.9001 21.6419 4.9001 21.6467 4.9001 21.6514C4.9001 21.6562 4.9001 21.661 4.9001 21.6658C4.9001 21.6706 4.9001 21.6754 4.9001 21.6802C4.9001 21.6849 4.9001 21.6897 4.9001 21.6945C4.9001 21.6993 4.9001 21.7041 4.9001 21.7089C4.9001 21.7137 4.9001 21.7185 4.9001 21.7233C4.9001 21.7281 4.9001 21.7329 4.9001 21.7377C4.9001 21.7425 4.9001 21.7473 4.9001 21.7521C4.9001 21.7568 4.9001 21.7616 4.9001 21.7664C4.9001 21.7712 4.9001 21.776 4.9001 21.7808C4.9001 21.7856 4.9001 21.7905 4.9001 21.7953C4.9001 21.8001 4.9001 21.8049 4.9001 21.8097C4.9001 21.8145 4.9001 21.8193 4.9001 21.8241C4.9001 21.8289 4.9001 21.8337 4.9001 21.8385C4.9001 21.8433 4.9001 21.8481 4.9001 21.8529C4.9001 21.8577 4.9001 21.8625 4.9001 21.8674C4.9001 21.8722 4.9001 21.877 4.9001 21.8818C4.9001 21.8866 4.9001 21.8914 4.9001 21.8962C4.9001 21.901 4.9001 21.9059 4.9001 21.9107C4.9001 21.9155 4.9001 21.9203 4.9001 21.9251C4.9001 21.9299 4.9001 21.9348 4.9001 21.9396C4.9001 21.9444 4.9001 21.9492 4.9001 21.954C4.9001 21.9589 4.9001 21.9637 4.9001 21.9685C4.9001 21.9733 4.9001 21.9782 4.9001 21.983C4.9001 21.9878 4.9001 21.9926 4.9001 21.9975C4.9001 22.0023 4.9001 22.0071 4.9001 22.0119C4.9001 22.0168 4.9001 22.0216 4.9001 22.0264C4.9001 22.0312 4.9001 22.0361 4.9001 22.0409C4.9001 22.0457 4.9001 22.0506 4.9001 22.0554C4.9001 22.0602 4.9001 22.0651 4.9001 22.0699C4.9001 22.0747 4.9001 22.0796 4.9001 22.0844C4.9001 22.0892 4.9001 22.0941 4.9001 22.0989C4.9001 22.1037 4.9001 22.1086 4.9001 22.1134C4.9001 22.1183 4.9001 22.1231 4.9001 22.1279C4.9001 22.1328 4.9001 22.1376 4.9001 22.1424C4.9001 22.1473 4.9001 22.1521 4.9001 22.157C4.9001 22.1618 4.9001 22.1667 4.9001 22.1715C4.9001 22.1763 4.9001 22.1812 4.9001 22.186C4.9001 22.1909 4.9001 22.1957 4.9001 22.2006C4.9001 22.2054 4.9001 22.2103 4.9001 22.2151C4.9001 22.22 4.9001 22.2248 4.9001 22.2296C4.9001 22.2345 4.9001 22.2393 4.9001 22.2442C4.9001 22.249 4.9001 22.2539 4.9001 22.2587C4.9001 22.2636 4.9001 22.2684 4.9001 22.2733C4.9001 22.2782 4.9001 22.283 4.9001 22.2879C4.9001 22.2927 4.9001 22.2976 4.9001 22.3024C4.9001 22.3073 4.9001 22.3121 4.9001 22.317C4.9001 22.3218 4.9001 22.3267 4.9001 22.3316C4.9001 22.3364 4.9001 22.3413 4.9001 22.3461C4.9001 22.351 4.9001 22.3558 4.9001 22.3607C4.9001 22.3656 4.9001 22.3704 4.9001 22.3753C4.9001 22.3801 4.9001 22.385 4.9001 22.3899C4.9001 22.3947 4.9001 22.3996 4.9001 22.4045C4.9001 22.4093 4.9001 22.4142 4.9001 22.4191C4.9001 22.4239 4.9001 22.4288 4.9001 22.4336C4.9001 22.4385 4.9001 22.4434 4.9001 22.4482C4.9001 22.4531 4.9001 22.458 4.9001 22.4628C4.9001 22.4677 4.9001 22.4726 4.9001 22.4774C4.9001 22.4823 4.9001 22.4872 4.9001 22.4921C4.9001 22.4969 4.9001 22.5018 4.9001 22.5067C4.9001 22.5115 4.9001 22.5164 4.9001 22.5213C4.9001 22.5262 4.9001 22.531 4.9001 22.5359C4.9001 22.5408 4.9001 22.5456 4.9001 22.5505C4.9001 22.5554 4.9001 22.5603 4.9001 22.5651C4.9001 22.57 4.9001 22.5749 4.9001 22.5798C4.9001 22.5846 4.9001 22.5895 4.9001 22.5944C4.9001 22.5993 4.9001 22.6041 4.9001 22.609C4.9001 22.6139 4.9001 22.6188 4.9001 22.6237C4.9001 22.6285 4.9001 22.6334 4.9001 22.6383C4.9001 22.6432 4.9001 22.6481 4.9001 22.6529C4.9001 22.6578 4.9001 22.6627 4.9001 22.6676C4.9001 22.6725 4.9001 22.6773 4.9001 22.6822C4.9001 22.6871 4.9001 22.692 4.9001 22.6969C4.9001 22.7018 4.9001 22.7066 4.9001 22.7115C4.9001 22.7164 4.9001 22.7213 4.9001 22.7262C4.9001 22.7311 4.9001 22.736 4.9001 22.7408C4.9001 22.7457 4.9001 22.7506 4.9001 22.7555C4.9001 22.7604 4.9001 22.7653 4.9001 22.7702C4.9001 22.775 4.9001 22.7799 4.9001 22.7848C4.9001 22.7897 4.9001 22.7946 4.9001 22.7995C4.9001 22.8044 4.9001 22.8093 4.9001 22.8141C4.9001 22.819 4.9001 22.8239 4.9001 22.8288C4.9001 22.8337 4.9001 22.8386 4.9001 22.8435C4.9001 22.8484 4.9001 22.8533 4.9001 22.8582C4.9001 22.8631 4.9001 22.8679 4.9001 22.8728C4.9001 22.8777 4.9001 22.8826 4.9001 22.8875C4.9001 22.8924 4.9001 22.8973 4.9001 22.9022C4.9001 22.9071 4.9001 22.912 4.9001 22.9169C4.9001 22.9218 4.9001 22.9267 4.9001 22.9316C4.9001 22.9365 4.9001 22.9414 4.9001 22.9463C4.9001 22.9511 4.9001 22.956 4.9001 22.9609C4.9001 22.9658 4.9001 22.9707 4.9001 22.9756C4.9001 22.9805 4.9001 22.9854 4.9001 22.9903C4.9001 22.9952 4.9001 23.0001 4.9001 23.005C4.9001 23.0099 4.9001 23.0148 4.9001 23.0197C4.9001 23.0246 4.9001 23.0295 4.9001 23.0344C4.9001 23.0393 4.9001 23.0442 4.9001 23.0491C4.9001 23.054 4.9001 23.0589 4.9001 23.0638C4.9001 23.0687 4.9001 23.0736 4.9001 23.0785C4.9001 23.0834 4.9001 23.0883 4.9001 23.0932C4.9001 23.0981 4.9001 23.103 4.9001 23.1079C4.9001 23.1128 4.9001 23.1177 4.9001 23.1226C4.9001 23.1275 4.9001 23.1324 4.9001 23.1373C4.9001 23.1422 4.9001 23.1471 4.9001 23.152C4.9001 23.1569 4.9001 23.1618 4.9001 23.1667C4.9001 23.1716 4.9001 23.1766 4.9001 23.1815C4.9001 23.1864 4.9001 23.1913 4.9001 23.1962C4.9001 23.2011 4.9001 23.206 4.9001 23.2109C4.9001 23.2158 4.9001 23.2207 4.9001 23.2256C4.9001 23.2305 4.9001 23.2354 4.9001 23.2403C4.9001 23.2452 4.9001 23.2501 4.9001 23.255C4.9001 23.2599 4.9001 23.2648 4.9001 23.2697C4.9001 23.2747 4.9001 23.2796 4.9001 23.2845C4.9001 23.2894 4.9001 23.2943 4.9001 23.2992C4.9001 23.3041 4.9001 23.309 4.9001 23.3139C4.9001 23.3188 4.9001 23.3237 4.9001 23.3286C4.9001 23.3335 4.9001 23.3384 4.9001 23.3433C4.9001 23.3483 4.9001 23.3532 4.9001 23.3581C4.9001 23.363 4.9001 23.3679 4.9001 23.3728C4.9001 23.3777 4.9001 23.3826 4.9001 23.3875C4.9001 23.3924 4.9001 23.3973 4.9001 23.4022C4.9001 23.4071 4.9001 23.4121 4.9001 23.417C4.9001 23.4219 4.9001 23.4268 4.9001 23.4317C4.9001 23.4366 4.9001 23.4415 4.9001 23.4464C4.9001 23.4513 4.9001 23.4562 4.9001 23.4611C4.9001 23.466 4.9001 23.471 4.9001 23.4759C4.9001 23.4808 4.9001 23.4857 4.9001 23.4906C4.9001 23.4955 4.9001 23.5004 4.9001 23.5053C4.9001 23.5102 4.9001 23.5151 4.9001 23.52C4.9001 23.525 4.9001 23.5299 4.9001 23.5348C4.9001 23.5397 4.9001 23.5446 4.9001 23.5495C4.9001 23.5544 4.9001 23.5593 4.9001 23.5642C4.9001 23.5691 4.9001 23.5741 4.9001 23.579C4.9001 23.5839 4.9001 23.5888 4.9001 23.5937C4.9001 23.5986 4.9001 23.6035 4.9001 23.6084C4.9001 23.6133 4.9001 23.6182 4.9001 23.6231C4.9001 23.6281 4.9001 23.633 4.9001 23.6379C4.9001 23.6428 4.9001 23.6477 4.9001 23.6526C4.9001 23.6575 4.9001 23.6624 4.9001 23.6673C4.9001 23.6722 4.9001 23.6771 4.9001 23.6821C4.9001 23.687 4.9001 23.6919 4.9001 23.6968C4.9001 23.7017 4.9001 23.7066 4.9001 23.7115C4.9001 23.7164 4.9001 23.7213 4.9001 23.7262C4.9001 23.7311 4.9001 23.7361 4.9001 23.741C4.9001 23.7459 4.9001 23.7508 4.9001 23.7557C4.9001 23.7606 4.9001 23.7655 4.9001 23.7704C4.9001 23.7753 4.9001 23.7802 4.9001 23.7851C4.9001 23.79 4.9001 23.795 4.9001 23.7999C4.9001 23.8048 4.9001 23.8097 4.9001 23.8146C4.9001 23.8195 4.9001 23.8244 4.9001 23.8293C4.9001 23.8342 4.9001 23.8391 4.9001 23.844C4.9001 23.8489 4.9001 23.8538 4.9001 23.8588C4.9001 23.8637 4.9001 23.8686 4.9001 23.8735C4.9001 23.8784 4.9001 23.8833 4.9001 23.8882C4.9001 23.8931 4.9001 23.898 4.9001 23.9029C4.9001 23.9078 4.9001 23.9127 4.9001 23.9176C4.9001 23.9225 4.9001 23.9274 4.9001 23.9323C4.9001 23.9373 4.9001 23.9422 4.9001 23.9471C4.9001 23.952 4.9001 23.9569 4.9001 23.9618C4.9001 23.9667 4.9001 23.9716 4.9001 23.9765C4.9001 23.9814 4.9001 23.9863 4.9001 23.9912C4.9001 23.9961 4.9001 24.001 4.9001 24.0059C4.9001 24.0108 4.9001 24.0157 4.9001 24.0206C4.9001 24.0255 4.9001 24.0304 4.9001 24.0353C4.9001 24.0402 4.9001 24.0451 4.9001 24.05C4.9001 24.0549 4.9001 24.0599 4.9001 24.0648C4.9001 24.0697 4.9001 24.0746 4.9001 24.0795C4.9001 24.0844 4.9001 24.0893 4.9001 24.0942C4.9001 24.0991 4.9001 24.104 4.9001 24.1089C4.9001 24.1138 4.9001 24.1187 4.9001 24.1236C4.9001 24.1285 4.9001 24.1334 4.9001 24.1383C4.9001 24.1432 4.9001 24.1481 4.9001 24.153C4.9001 24.1579 4.9001 24.1628 4.9001 24.1677C4.9001 24.1726 4.9001 24.1775 4.9001 24.1824C4.9001 24.1873 4.9001 24.1922 4.9001 24.1971C4.9001 24.2019 4.9001 24.2068 4.9001 24.2117C4.9001 24.2166 4.9001 24.2215 4.9001 24.2264C4.9001 24.2313 4.9001 24.2362 4.9001 24.2411C4.9001 24.246 4.9001 24.2509 4.9001 24.2558C4.9001 24.2607 4.9001 24.2656 4.9001 24.2705C4.9001 24.2754 4.9001 24.2803 4.9001 24.2852C4.9001 24.2901 4.9001 24.295 4.9001 24.2999C4.9001 24.3047 4.9001 24.3096 4.9001 24.3145C4.9001 24.3194 4.9001 24.3243 4.9001 24.3292C4.9001 24.3341 4.9001 24.339 4.9001 24.3439C4.9001 24.3488 4.9001 24.3537 4.9001 24.3586C4.9001 24.3634 4.9001 24.3683 4.9001 24.3732C4.9001 24.3781 4.9001 24.383 4.9001 24.3879C4.9001 24.3928 4.9001 24.3977 4.9001 24.4026C4.9001 24.4074 4.9001 24.4123 4.9001 24.4172C4.9001 24.4221 4.9001 24.427 4.9001 24.4319C4.9001 24.4368 4.9001 24.4417 4.9001 24.4465C4.9001 24.4514 4.9001 24.4563 4.9001 24.4612C4.9001 24.4661 4.9001 24.471 4.9001 24.4758C4.9001 24.4807 4.9001 24.4856 4.9001 24.4905C4.9001 24.4954 4.9001 24.5003 4.9001 24.5051C4.9001 24.51 4.9001 24.5149 4.9001 24.5198C4.9001 24.5247 4.9001 24.5296 4.9001 24.5344C4.9001 24.5393 4.9001 24.5442 4.9001 24.5491C4.9001 24.554 4.9001 24.5588 4.9001 24.5637C4.9001 24.5686 4.9001 24.5735 4.9001 24.5783C4.9001 24.5832 4.9001 24.5881 4.9001 24.593C4.9001 24.5979 4.9001 24.6027 4.9001 24.6076C4.9001 24.6125 4.9001 24.6174 4.9001 24.6222C4.9001 24.6271 4.9001 24.632 4.9001 24.6369C4.9001 24.6417 4.9001 24.6466 4.9001 24.6515C4.9001 24.6563 4.9001 24.6612 4.9001 24.6661C4.9001 24.671 4.9001 24.6758 4.9001 24.6807C4.9001 24.6856 4.9001 24.6904 4.9001 24.6953C4.9001 24.7002 4.9001 24.7051 4.9001 24.7099C4.9001 24.7148 4.9001 24.7197 4.9001 24.7245C4.9001 24.7294 4.9001 24.7343 4.9001 24.7391C4.9001 24.744 4.9001 24.7489 4.9001 24.7537C4.9001 24.7586 4.9001 24.7635 4.9001 24.7683C4.9001 24.7732 4.9001 24.778 4.9001 24.7829C4.9001 24.7878 4.9001 24.7926 4.9001 24.7975C4.9001 24.8024 4.9001 24.8072 4.9001 24.8121C4.9001 24.8169 4.9001 24.8218 4.9001 24.8267C4.9001 24.8315 4.9001 24.8364 4.9001 24.8412C4.9001 24.8461 4.9001 24.851 4.9001 24.8558C4.9001 24.8607 4.9001 24.8655 4.9001 24.8704C4.9001 24.8752 4.9001 24.8801 4.9001 24.8849C4.9001 24.8898 4.9001 24.8947 4.9001 24.8995C4.9001 24.9044 4.9001 24.9092 4.9001 24.9141C4.9001 24.9189 4.9001 24.9238 4.9001 24.9286C4.9001 24.9335 4.9001 24.9383 4.9001 24.9432C4.9001 24.948 4.9001 24.9529 4.9001 24.9577C4.9001 24.9626 4.9001 24.9674 4.9001 24.9723C4.9001 24.9771 4.9001 24.982 4.9001 24.9868C4.9001 24.9916 4.9001 24.9965 4.9001 25.0013C4.9001 25.0062 4.9001 25.011 4.9001 25.0159C4.9001 25.0207 4.9001 25.0256 4.9001 25.0304C4.9001 25.0352 4.9001 25.0401 4.9001 25.0449C4.9001 25.0498 4.9001 25.0546 4.9001 25.0594C4.9001 25.0643 4.9001 25.0691 4.9001 25.074C4.9001 25.0788 4.9001 25.0836 4.9001 25.0885C4.9001 25.0933 4.9001 25.0981 4.9001 25.103C4.9001 25.1078 4.9001 25.1126 4.9001 25.1175C4.9001 25.1223 4.9001 25.1271 4.9001 25.132C4.9001 25.1368 4.9001 25.1416 4.9001 25.1465C4.9001 25.1513 4.9001 25.1561 4.9001 25.1609C4.9001 25.1658 4.9001 25.1706 4.9001 25.1754C4.9001 25.1803 4.9001 25.1851 4.9001 25.1899C4.9001 25.1947 4.9001 25.1996 4.9001 25.2044C4.9001 25.2092 4.9001 25.214 4.9001 25.2189C4.9001 25.2237 4.9001 25.2285 4.9001 25.2333C4.9001 25.2381 4.9001 25.243 4.9001 25.2478C4.9001 25.2526 4.9001 25.2574 4.9001 25.2622C4.9001 25.2671 4.9001 25.2719 4.9001 25.2767C4.9001 25.2815 4.9001 25.2863 4.9001 25.2911C4.9001 25.2959 4.9001 25.3008 4.9001 25.3056C4.9001 25.3104 4.9001 25.3152 4.9001 25.32C4.9001 25.3248 4.9001 25.3296 4.9001 25.3344C4.9001 25.3392 4.9001 25.3441 4.9001 25.3489C4.9001 25.3537 4.9001 25.3585 4.9001 25.3633C4.9001 25.3681 4.9001 25.3729 4.9001 25.3777C4.9001 25.3825 4.9001 25.3873 4.9001 25.3921C4.9001 25.3969 4.9001 25.4017 4.9001 25.4065C4.9001 25.4113 4.9001 25.4161 4.9001 25.4209C4.9001 25.4257 4.9001 25.4305 4.9001 25.4353C4.9001 25.4401 4.9001 25.4449 4.9001 25.4497C4.9001 25.4545 4.9001 25.4593 4.9001 25.4641C4.9001 25.4689 4.9001 25.4737 4.9001 25.4785C4.9001 25.4833 4.9001 25.488 4.9001 25.4928C4.9001 25.4976 4.9001 25.5024 4.9001 25.5072C4.9001 25.512 4.9001 25.5168 4.9001 25.5216C4.9001 25.5264 4.9001 25.5311 4.9001 25.5359C4.9001 25.5407 4.9001 25.5455 4.9001 25.5503C4.9001 25.5551 4.9001 25.5598 4.9001 25.5646C4.9001 25.5694 4.9001 25.5742 4.9001 25.579C4.9001 25.5837 4.9001 25.5885 4.9001 25.5933C4.9001 25.5981 4.9001 25.6028 4.9001 25.6076C4.9001 25.6124 4.9001 25.6172 4.9001 25.6219C4.9001 25.6267 4.9001 25.6315 4.9001 25.6363C4.9001 25.641 4.9001 25.6458 4.9001 25.6506C4.9001 25.6553 4.9001 25.6601 4.9001 25.6649C4.9001 25.6696 4.9001 25.6744 4.9001 25.6792C4.9001 25.6839 4.9001 25.6887 4.9001 25.6935C4.9001 25.6982 4.9001 25.703 4.9001 25.7078C4.9001 25.7125 4.9001 25.7173 4.9001 25.722C4.9001 25.7268 4.9001 25.7316 4.9001 25.7363C4.9001 25.7411 4.9001 25.7458 4.9001 25.7506C4.9001 25.7553 4.9001 25.7601 4.9001 25.7648C4.9001 25.7696 4.9001 25.7743 4.9001 25.7791C4.9001 25.7838 4.9001 25.7886 4.9001 25.7933C4.9001 25.7981 4.9001 25.8028 4.9001 25.8076C4.9001 25.8123 4.9001 25.8171 4.9001 25.8218C4.9001 25.8266 4.9001 25.8313 4.9001 25.836C4.9001 25.8408 4.9001 25.8455 4.9001 25.8503C4.9001 25.855 4.9001 25.8598 4.9001 25.8645C4.9001 25.8692 4.9001 25.874 4.9001 25.8787C4.9001 25.8834 4.9001 25.8882 4.9001 25.8929C4.9001 25.8976 4.9001 25.9024 4.9001 25.9071C4.9001 25.9118 4.9001 25.9166 4.9001 25.9213C4.9001 25.926 4.9001 25.9307 4.9001 25.9355C4.9001 25.9402 4.9001 25.9449 4.9001 25.9496C4.9001 25.9544 4.9001 25.9591 4.9001 25.9638C4.9001 25.9685 4.9001 25.9733 4.9001 25.978C4.9001 25.9827 4.9001 25.9874 4.9001 25.9921C4.9001 25.9969 4.9001 26.0016 4.9001 26.0063C4.9001 26.011 4.9001 26.0157 4.9001 26.0204C4.9001 26.0251 4.9001 26.0299 4.9001 26.0346C4.9001 26.0393 4.9001 26.044 4.9001 26.0487C4.9001 26.0534 4.9001 26.0581 4.9001 26.0628C4.9001 26.0675 4.9001 26.0722 4.9001 26.0769C4.9001 26.0816 4.9001 26.0863 4.9001 26.091C4.9001 26.0957 4.9001 26.1004 4.9001 26.1051C4.9001 26.1098 4.9001 26.1145 4.9001 26.1192C4.9001 26.1239 4.9001 26.1286 4.9001 26.1333C4.9001 26.138 4.9001 26.1427 4.9001 26.1474C4.9001 26.1521 4.9001 26.1568 4.9001 26.1614C4.9001 26.1661 4.9001 26.1708 4.9001 26.1755C4.9001 26.1802 4.9001 26.1849 4.9001 26.1896C4.9001 26.1942 4.9001 26.1989 4.9001 26.2036C4.9001 26.2083 4.9001 26.213 4.9001 26.2176C4.9001 26.2223 4.9001 26.227 4.9001 26.2317C4.9001 26.2364 4.9001 26.241 4.9001 26.2457C4.9001 26.2504 4.9001 26.255 4.9001 26.2597C4.9001 26.2644 4.9001 26.2691 4.9001 26.2737C4.9001 26.2784 4.9001 26.2831 4.9001 26.2877C4.9001 26.2924 4.9001 26.2971 4.9001 26.3017C4.9001 26.3064 4.9001 26.311 4.9001 26.3157C4.9001 26.3204 4.9001 26.325 4.9001 26.3297C4.9001 26.3343 4.9001 26.339 4.9001 26.3436C4.9001 26.3483 4.9001 26.353 4.9001 26.3576C4.9001 26.3623 4.9001 26.3669 4.9001 26.3716C4.9001 26.3762 4.9001 26.3809 4.9001 26.3855C4.9001 26.3902 4.9001 26.3948 4.9001 26.3994C4.9001 26.4041 4.9001 26.4087 4.9001 26.4134C4.9001 26.418 4.9001 26.4226 4.9001 26.4273C4.9001 26.4319 4.9001 26.4366 4.9001 26.4412C4.9001 26.4458 4.9001 26.4505 4.9001 26.4551C4.9001 26.4597 4.9001 26.4644 4.9001 26.469C4.9001 26.4736 4.9001 26.4783 4.9001 26.4829C4.9001 26.4875 4.9001 26.4921 4.9001 26.4968C4.9001 26.5014 4.9001 26.506 4.9001 26.5106C4.9001 26.5153 4.9001 26.5199 4.9001 26.5245C4.9001 26.5291 4.9001 26.5337 4.9001 26.5383C4.9001 26.543 4.9001 26.5476 4.9001 26.5522C4.9001 26.5568 4.9001 26.5614 4.9001 26.566C4.9001 26.5706 4.9001 26.5752 4.9001 26.5798C4.9001 26.5845 4.9001 26.5891 4.9001 26.5937C4.9001 26.5983 4.9001 26.6029 4.9001 26.6075C4.9001 26.6121 4.9001 26.6167 4.9001 26.6213C4.9001 26.6259 4.9001 26.6305 4.9001 26.6351C4.9001 26.6397 4.9001 26.6443 4.9001 26.6488C4.9001 26.6534 4.9001 26.658 4.9001 26.6626C4.9001 26.6672 4.9001 26.6718 4.9001 26.6764C4.9001 26.681 4.9001 26.6856 4.9001 26.6901C4.9001 26.6947 4.9001 26.6993 4.9001 26.7039C4.9001 26.7085 4.9001 26.713 4.9001 26.7176C4.9001 26.7222 4.9001 26.7268 4.9001 26.7313C4.9001 26.7359 4.9001 26.7405 4.9001 26.7451C4.9001 26.7496 4.9001 26.7542 4.9001 26.7588C4.9001 26.7633 4.9001 26.7679 4.9001 26.7725C4.9001 26.777 4.9001 26.7816 4.9001 26.7862C4.9001 26.7907 4.9001 26.7953 4.9001 26.7998C4.9001 26.8044 4.9001 26.809 4.9001 26.8135C4.9001 26.8181 4.9001 26.8226 4.9001 26.8272C4.9001 26.8317 4.9001 26.8363 4.9001 26.8408C4.9001 26.8454 4.9001 26.8499 4.9001 26.8545C4.9001 26.859 4.9001 26.8636 4.9001 26.8681C4.9001 26.8726 4.9001 26.8772 4.9001 26.8817C4.9001 26.8863 4.9001 26.8908 4.9001 26.8953C4.9001 26.8999 4.9001 26.9044 4.9001 26.9089C4.9001 26.9135 4.9001 26.918 4.9001 26.9225C4.9001 26.9271 4.9001 26.9316 4.9001 26.9361C4.9001 26.9407 4.9001 26.9452 4.9001 26.9497C4.9001 26.9542 4.9001 26.9587 4.9001 26.9633C4.9001 26.9678 4.9001 26.9723 4.9001 26.9768C4.9001 26.9813 4.9001 26.9859 4.9001 26.9904C4.9001 26.9949 4.9001 26.9994 4.9001 27.0039C4.9001 27.0084 4.9001 27.0129 4.9001 27.0174C4.9001 27.0219 4.9001 27.0264 4.9001 27.0309C4.9001 27.0354 4.9001 27.0399 4.9001 27.0444C4.9001 27.0489 4.9001 27.0534 4.9001 27.0579C4.9001 27.0624 4.9001 27.0669 4.9001 27.0714C4.9001 27.0759 4.9001 27.0804 4.9001 27.0849C4.9001 27.0894 4.9001 27.0939 4.9001 27.0984C4.9001 27.1028 4.9001 27.1073 4.9001 27.1118C4.9001 27.1163 4.9001 27.1208 4.9001 27.1253C4.9001 27.1297 4.9001 27.1342 4.9001 27.1387C4.9001 27.1432 4.9001 27.1476 4.9001 27.1521C4.9001 27.1566 4.9001 27.1611 4.9001 27.1655C4.9001 27.17 4.9001 27.1745 4.9001 27.1789C4.9001 27.1834 4.9001 27.1879 4.9001 27.1923C4.9001 27.1968 4.9001 27.2012 4.9001 27.2057C4.9001 27.2101 4.9001 27.2146 4.9001 27.2191C4.9001 27.2235 4.9001 27.228 4.9001 27.2324C4.9001 27.2369 4.9001 27.2413 4.9001 27.2458C4.9001 27.2502 4.9001 27.2547 4.9001 27.2591C4.9001 27.2635 4.9001 27.268 4.9001 27.2724C4.9001 27.2769 4.9001 27.2813 4.9001 27.2857C4.9001 27.2902 4.9001 27.2946 4.9001 27.299C4.9001 27.3035 4.9001 27.3079 4.9001 27.3123C4.9001 27.3168 4.9001 27.3212 4.9001 27.3256C4.9001 27.33 4.9001 27.3345 4.9001 27.3389C4.9001 27.3433 4.9001 27.3477 4.9001 27.3521C4.9001 27.3566 4.9001 27.361 4.9001 27.3654C4.9001 27.3698 4.9001 27.3742 4.9001 27.3786C4.9001 27.383 4.9001 27.3875 4.9001 27.3919C4.9001 27.3963 4.9001 27.4007 4.9001 27.4051C4.9001 27.4095 4.9001 27.4139 4.9001 27.4183C4.9001 27.4227 4.9001 27.4271 4.9001 27.4315C4.9001 27.4359 4.9001 27.4403 4.9001 27.4447C4.9001 27.449 4.9001 27.4534 4.9001 27.4578C4.9001 27.4622 4.9001 27.4666 4.9001 27.471C4.9001 27.4754 4.9001 27.4797 4.9001 27.4841C4.9001 27.4885 4.9001 27.4929 4.9001 27.4973C4.9001 27.5016 4.9001 27.506 4.9001 27.5104C4.9001 27.5148 4.9001 27.5191 4.9001 27.5235C4.9001 27.5279 4.9001 27.5322 4.9001 27.5366C4.9001 27.541 4.9001 27.5453 4.9001 27.5497C4.9001 27.554 4.9001 27.5584 4.9001 27.5628C4.9001 27.5671 4.9001 27.5715 4.9001 27.5758C4.9001 27.5802 4.9001 27.5845 4.9001 27.5889C4.9001 27.5932 4.9001 27.5976 4.9001 27.6019C4.9001 27.6063 4.9001 27.6106 4.9001 27.6149C4.9001 27.6193 4.9001 27.6236 4.9001 27.628C4.9001 27.6323 4.9001 27.6366 4.9001 27.641C4.9001 27.6453 4.9001 27.6496 4.9001 27.6539C4.9001 27.6583 4.9001 27.6626 4.9001 27.6669C4.9001 27.6713 4.9001 27.6756 4.9001 27.6799C4.9001 27.6842 4.9001 27.6885 4.9001 27.6928C4.9001 27.6972 4.9001 27.7015 4.9001 27.7058C4.9001 27.7101 4.9001 27.7144 4.9001 27.7187C4.9001 27.723 4.9001 27.7273 4.9001 27.7316C4.9001 27.7359 4.9001 27.7402 4.9001 27.7445C4.9001 27.7488 4.9001 27.7531 4.9001 27.7574C4.9001 27.7617 4.9001 27.766 4.9001 27.7703C4.9001 27.7746 4.9001 27.7789 4.9001 27.7832C4.9001 27.7875 4.9001 27.7918 4.9001 27.796C4.9001 27.8003 4.9001 27.8046 4.9001 27.8089C4.9001 27.8132 4.9001 27.8174 4.9001 27.8217C4.9001 27.826 4.9001 27.8303 4.9001 27.8345C4.9001 27.8388 4.9001 27.8431 4.9001 27.8473C4.9001 27.8516 4.9001 27.8559 4.9001 27.8601C4.9001 27.8644 4.9001 27.8687 4.9001 27.8729C4.9001 27.8772 4.9001 27.8814 4.9001 27.8857C4.9001 27.8899 4.9001 27.8942 4.9001 27.8984C4.9001 27.9027 4.9001 27.9069 4.9001 27.9112C4.9001 27.9154 4.9001 27.9197 4.9001 27.9239C4.9001 27.9281 4.9001 27.9324 4.9001 27.9366C4.9001 27.9409 4.9001 27.9451 4.9001 27.9493C4.9001 27.9536 4.9001 27.9578 4.9001 27.962C4.9001 27.9662 4.9001 27.9705 4.9001 27.9747C4.9001 27.9789 4.9001 27.9831 4.9001 27.9873C4.9001 27.9916 4.9001 27.9958 4.9001 28L8.9001 28C8.9001 27.9958 8.9001 27.9916 8.9001 27.9873C8.9001 27.9831 8.9001 27.9789 8.9001 27.9747C8.9001 27.9705 8.9001 27.9662 8.9001 27.962C8.9001 27.9578 8.9001 27.9536 8.9001 27.9493C8.9001 27.9451 8.9001 27.9409 8.9001 27.9366C8.9001 27.9324 8.9001 27.9281 8.9001 27.9239C8.9001 27.9197 8.9001 27.9154 8.9001 27.9112C8.9001 27.9069 8.9001 27.9027 8.9001 27.8984C8.9001 27.8942 8.9001 27.8899 8.9001 27.8857C8.9001 27.8814 8.9001 27.8772 8.9001 27.8729C8.9001 27.8687 8.9001 27.8644 8.9001 27.8601C8.9001 27.8559 8.9001 27.8516 8.9001 27.8473C8.9001 27.8431 8.9001 27.8388 8.9001 27.8345C8.9001 27.8303 8.9001 27.826 8.9001 27.8217C8.9001 27.8174 8.9001 27.8132 8.9001 27.8089C8.9001 27.8046 8.9001 27.8003 8.9001 27.796C8.9001 27.7918 8.9001 27.7875 8.9001 27.7832C8.9001 27.7789 8.9001 27.7746 8.9001 27.7703C8.9001 27.766 8.9001 27.7617 8.9001 27.7574C8.9001 27.7531 8.9001 27.7488 8.9001 27.7445C8.9001 27.7402 8.9001 27.7359 8.9001 27.7316C8.9001 27.7273 8.9001 27.723 8.9001 27.7187C8.9001 27.7144 8.9001 27.7101 8.9001 27.7058C8.9001 27.7015 8.9001 27.6972 8.9001 27.6928C8.9001 27.6885 8.9001 27.6842 8.9001 27.6799C8.9001 27.6756 8.9001 27.6713 8.9001 27.6669C8.9001 27.6626 8.9001 27.6583 8.9001 27.6539C8.9001 27.6496 8.9001 27.6453 8.9001 27.641C8.9001 27.6366 8.9001 27.6323 8.9001 27.628C8.9001 27.6236 8.9001 27.6193 8.9001 27.6149C8.9001 27.6106 8.9001 27.6063 8.9001 27.6019C8.9001 27.5976 8.9001 27.5932 8.9001 27.5889C8.9001 27.5845 8.9001 27.5802 8.9001 27.5758C8.9001 27.5715 8.9001 27.5671 8.9001 27.5628C8.9001 27.5584 8.9001 27.554 8.9001 27.5497C8.9001 27.5453 8.9001 27.541 8.9001 27.5366C8.9001 27.5322 8.9001 27.5279 8.9001 27.5235C8.9001 27.5191 8.9001 27.5148 8.9001 27.5104C8.9001 27.506 8.9001 27.5016 8.9001 27.4973C8.9001 27.4929 8.9001 27.4885 8.9001 27.4841C8.9001 27.4797 8.9001 27.4754 8.9001 27.471C8.9001 27.4666 8.9001 27.4622 8.9001 27.4578C8.9001 27.4534 8.9001 27.449 8.9001 27.4447C8.9001 27.4403 8.9001 27.4359 8.9001 27.4315C8.9001 27.4271 8.9001 27.4227 8.9001 27.4183C8.9001 27.4139 8.9001 27.4095 8.9001 27.4051C8.9001 27.4007 8.9001 27.3963 8.9001 27.3919C8.9001 27.3875 8.9001 27.383 8.9001 27.3786C8.9001 27.3742 8.9001 27.3698 8.9001 27.3654C8.9001 27.361 8.9001 27.3566 8.9001 27.3521C8.9001 27.3477 8.9001 27.3433 8.9001 27.3389C8.9001 27.3345 8.9001 27.33 8.9001 27.3256C8.9001 27.3212 8.9001 27.3168 8.9001 27.3123C8.9001 27.3079 8.9001 27.3035 8.9001 27.299C8.9001 27.2946 8.9001 27.2902 8.9001 27.2857C8.9001 27.2813 8.9001 27.2769 8.9001 27.2724C8.9001 27.268 8.9001 27.2635 8.9001 27.2591C8.9001 27.2547 8.9001 27.2502 8.9001 27.2458C8.9001 27.2413 8.9001 27.2369 8.9001 27.2324C8.9001 27.228 8.9001 27.2235 8.9001 27.2191C8.9001 27.2146 8.9001 27.2101 8.9001 27.2057C8.9001 27.2012 8.9001 27.1968 8.9001 27.1923C8.9001 27.1879 8.9001 27.1834 8.9001 27.1789C8.9001 27.1745 8.9001 27.17 8.9001 27.1655C8.9001 27.1611 8.9001 27.1566 8.9001 27.1521C8.9001 27.1476 8.9001 27.1432 8.9001 27.1387C8.9001 27.1342 8.9001 27.1297 8.9001 27.1253C8.9001 27.1208 8.9001 27.1163 8.9001 27.1118C8.9001 27.1073 8.9001 27.1028 8.9001 27.0984C8.9001 27.0939 8.9001 27.0894 8.9001 27.0849C8.9001 27.0804 8.9001 27.0759 8.9001 27.0714C8.9001 27.0669 8.9001 27.0624 8.9001 27.0579C8.9001 27.0534 8.9001 27.0489 8.9001 27.0444C8.9001 27.0399 8.9001 27.0354 8.9001 27.0309C8.9001 27.0264 8.9001 27.0219 8.9001 27.0174C8.9001 27.0129 8.9001 27.0084 8.9001 27.0039C8.9001 26.9994 8.9001 26.9949 8.9001 26.9904C8.9001 26.9859 8.9001 26.9813 8.9001 26.9768C8.9001 26.9723 8.9001 26.9678 8.9001 26.9633C8.9001 26.9587 8.9001 26.9542 8.9001 26.9497C8.9001 26.9452 8.9001 26.9407 8.9001 26.9361C8.9001 26.9316 8.9001 26.9271 8.9001 26.9225C8.9001 26.918 8.9001 26.9135 8.9001 26.9089C8.9001 26.9044 8.9001 26.8999 8.9001 26.8953C8.9001 26.8908 8.9001 26.8863 8.9001 26.8817C8.9001 26.8772 8.9001 26.8726 8.9001 26.8681C8.9001 26.8636 8.9001 26.859 8.9001 26.8545C8.9001 26.8499 8.9001 26.8454 8.9001 26.8408C8.9001 26.8363 8.9001 26.8317 8.9001 26.8272C8.9001 26.8226 8.9001 26.8181 8.9001 26.8135C8.9001 26.809 8.9001 26.8044 8.9001 26.7998C8.9001 26.7953 8.9001 26.7907 8.9001 26.7862C8.9001 26.7816 8.9001 26.777 8.9001 26.7725C8.9001 26.7679 8.9001 26.7633 8.9001 26.7588C8.9001 26.7542 8.9001 26.7496 8.9001 26.7451C8.9001 26.7405 8.9001 26.7359 8.9001 26.7313C8.9001 26.7268 8.9001 26.7222 8.9001 26.7176C8.9001 26.713 8.9001 26.7085 8.9001 26.7039C8.9001 26.6993 8.9001 26.6947 8.9001 26.6901C8.9001 26.6856 8.9001 26.681 8.9001 26.6764C8.9001 26.6718 8.9001 26.6672 8.9001 26.6626C8.9001 26.658 8.9001 26.6534 8.9001 26.6488C8.9001 26.6443 8.9001 26.6397 8.9001 26.6351C8.9001 26.6305 8.9001 26.6259 8.9001 26.6213C8.9001 26.6167 8.9001 26.6121 8.9001 26.6075C8.9001 26.6029 8.9001 26.5983 8.9001 26.5937C8.9001 26.5891 8.9001 26.5845 8.9001 26.5798C8.9001 26.5752 8.9001 26.5706 8.9001 26.566C8.9001 26.5614 8.9001 26.5568 8.9001 26.5522C8.9001 26.5476 8.9001 26.543 8.9001 26.5383C8.9001 26.5337 8.9001 26.5291 8.9001 26.5245C8.9001 26.5199 8.9001 26.5153 8.9001 26.5106C8.9001 26.506 8.9001 26.5014 8.9001 26.4968C8.9001 26.4921 8.9001 26.4875 8.9001 26.4829C8.9001 26.4783 8.9001 26.4736 8.9001 26.469C8.9001 26.4644 8.9001 26.4597 8.9001 26.4551C8.9001 26.4505 8.9001 26.4458 8.9001 26.4412C8.9001 26.4366 8.9001 26.4319 8.9001 26.4273C8.9001 26.4227 8.9001 26.418 8.9001 26.4134C8.9001 26.4087 8.9001 26.4041 8.9001 26.3994C8.9001 26.3948 8.9001 26.3902 8.9001 26.3855C8.9001 26.3809 8.9001 26.3762 8.9001 26.3716C8.9001 26.3669 8.9001 26.3623 8.9001 26.3576C8.9001 26.353 8.9001 26.3483 8.9001 26.3436C8.9001 26.339 8.9001 26.3343 8.9001 26.3297C8.9001 26.325 8.9001 26.3204 8.9001 26.3157C8.9001 26.311 8.9001 26.3064 8.9001 26.3017C8.9001 26.2971 8.9001 26.2924 8.9001 26.2877C8.9001 26.2831 8.9001 26.2784 8.9001 26.2737C8.9001 26.2691 8.9001 26.2644 8.9001 26.2597C8.9001 26.255 8.9001 26.2504 8.9001 26.2457C8.9001 26.241 8.9001 26.2364 8.9001 26.2317C8.9001 26.227 8.9001 26.2223 8.9001 26.2176C8.9001 26.213 8.9001 26.2083 8.9001 26.2036C8.9001 26.1989 8.9001 26.1942 8.9001 26.1896C8.9001 26.1849 8.9001 26.1802 8.9001 26.1755C8.9001 26.1708 8.9001 26.1661 8.9001 26.1614C8.9001 26.1568 8.9001 26.1521 8.9001 26.1474C8.9001 26.1427 8.9001 26.138 8.9001 26.1333C8.9001 26.1286 8.9001 26.1239 8.9001 26.1192C8.9001 26.1145 8.9001 26.1098 8.9001 26.1051C8.9001 26.1004 8.9001 26.0957 8.9001 26.091C8.9001 26.0863 8.9001 26.0816 8.9001 26.0769C8.9001 26.0722 8.9001 26.0675 8.9001 26.0628C8.9001 26.0581 8.9001 26.0534 8.9001 26.0487C8.9001 26.044 8.9001 26.0393 8.9001 26.0346C8.9001 26.0299 8.9001 26.0251 8.9001 26.0204C8.9001 26.0157 8.9001 26.011 8.9001 26.0063C8.9001 26.0016 8.9001 25.9969 8.9001 25.9921C8.9001 25.9874 8.9001 25.9827 8.9001 25.978C8.9001 25.9733 8.9001 25.9685 8.9001 25.9638C8.9001 25.9591 8.9001 25.9544 8.9001 25.9496C8.9001 25.9449 8.9001 25.9402 8.9001 25.9355C8.9001 25.9307 8.9001 25.926 8.9001 25.9213C8.9001 25.9166 8.9001 25.9118 8.9001 25.9071C8.9001 25.9024 8.9001 25.8976 8.9001 25.8929C8.9001 25.8882 8.9001 25.8834 8.9001 25.8787C8.9001 25.874 8.9001 25.8692 8.9001 25.8645C8.9001 25.8598 8.9001 25.855 8.9001 25.8503C8.9001 25.8455 8.9001 25.8408 8.9001 25.8361C8.9001 25.8313 8.9001 25.8266 8.9001 25.8218C8.9001 25.8171 8.9001 25.8123 8.9001 25.8076C8.9001 25.8028 8.9001 25.7981 8.9001 25.7933C8.9001 25.7886 8.9001 25.7838 8.9001 25.7791C8.9001 25.7743 8.9001 25.7696 8.9001 25.7648C8.9001 25.7601 8.9001 25.7553 8.9001 25.7506C8.9001 25.7458 8.9001 25.7411 8.9001 25.7363C8.9001 25.7316 8.9001 25.7268 8.9001 25.722C8.9001 25.7173 8.9001 25.7125 8.9001 25.7078C8.9001 25.703 8.9001 25.6982 8.9001 25.6935C8.9001 25.6887 8.9001 25.6839 8.9001 25.6792C8.9001 25.6744 8.9001 25.6696 8.9001 25.6649C8.9001 25.6601 8.9001 25.6553 8.9001 25.6506C8.9001 25.6458 8.9001 25.641 8.9001 25.6363C8.9001 25.6315 8.9001 25.6267 8.9001 25.6219C8.9001 25.6172 8.9001 25.6124 8.9001 25.6076C8.9001 25.6028 8.9001 25.5981 8.9001 25.5933C8.9001 25.5885 8.9001 25.5837 8.9001 25.579C8.9001 25.5742 8.9001 25.5694 8.9001 25.5646C8.9001 25.5598 8.9001 25.5551 8.9001 25.5503C8.9001 25.5455 8.9001 25.5407 8.9001 25.5359C8.9001 25.5311 8.9001 25.5264 8.9001 25.5216C8.9001 25.5168 8.9001 25.512 8.9001 25.5072C8.9001 25.5024 8.9001 25.4976 8.9001 25.4928C8.9001 25.488 8.9001 25.4833 8.9001 25.4785C8.9001 25.4737 8.9001 25.4689 8.9001 25.4641C8.9001 25.4593 8.9001 25.4545 8.9001 25.4497C8.9001 25.4449 8.9001 25.4401 8.9001 25.4353C8.9001 25.4305 8.9001 25.4257 8.9001 25.4209C8.9001 25.4161 8.9001 25.4113 8.9001 25.4065C8.9001 25.4017 8.9001 25.3969 8.9001 25.3921C8.9001 25.3873 8.9001 25.3825 8.9001 25.3777C8.9001 25.3729 8.9001 25.3681 8.9001 25.3633C8.9001 25.3585 8.9001 25.3537 8.9001 25.3489C8.9001 25.3441 8.9001 25.3392 8.9001 25.3344C8.9001 25.3296 8.9001 25.3248 8.9001 25.32C8.9001 25.3152 8.9001 25.3104 8.9001 25.3056C8.9001 25.3008 8.9001 25.2959 8.9001 25.2911C8.9001 25.2863 8.9001 25.2815 8.9001 25.2767C8.9001 25.2719 8.9001 25.2671 8.9001 25.2622C8.9001 25.2574 8.9001 25.2526 8.9001 25.2478C8.9001 25.243 8.9001 25.2381 8.9001 25.2333C8.9001 25.2285 8.9001 25.2237 8.9001 25.2189C8.9001 25.214 8.9001 25.2092 8.9001 25.2044C8.9001 25.1996 8.9001 25.1947 8.9001 25.1899C8.9001 25.1851 8.9001 25.1803 8.9001 25.1754C8.9001 25.1706 8.9001 25.1658 8.9001 25.1609C8.9001 25.1561 8.9001 25.1513 8.9001 25.1465C8.9001 25.1416 8.9001 25.1368 8.9001 25.132C8.9001 25.1271 8.9001 25.1223 8.9001 25.1175C8.9001 25.1126 8.9001 25.1078 8.9001 25.103C8.9001 25.0981 8.9001 25.0933 8.9001 25.0885C8.9001 25.0836 8.9001 25.0788 8.9001 25.074C8.9001 25.0691 8.9001 25.0643 8.9001 25.0594C8.9001 25.0546 8.9001 25.0498 8.9001 25.0449C8.9001 25.0401 8.9001 25.0352 8.9001 25.0304C8.9001 25.0256 8.9001 25.0207 8.9001 25.0159C8.9001 25.011 8.9001 25.0062 8.9001 25.0013C8.9001 24.9965 8.9001 24.9917 8.9001 24.9868C8.9001 24.982 8.9001 24.9771 8.9001 24.9723C8.9001 24.9674 8.9001 24.9626 8.9001 24.9577C8.9001 24.9529 8.9001 24.948 8.9001 24.9432C8.9001 24.9383 8.9001 24.9335 8.9001 24.9286C8.9001 24.9238 8.9001 24.9189 8.9001 24.9141C8.9001 24.9092 8.9001 24.9044 8.9001 24.8995C8.9001 24.8947 8.9001 24.8898 8.9001 24.8849C8.9001 24.8801 8.9001 24.8752 8.9001 24.8704C8.9001 24.8655 8.9001 24.8607 8.9001 24.8558C8.9001 24.851 8.9001 24.8461 8.9001 24.8412C8.9001 24.8364 8.9001 24.8315 8.9001 24.8267C8.9001 24.8218 8.9001 24.8169 8.9001 24.8121C8.9001 24.8072 8.9001 24.8024 8.9001 24.7975C8.9001 24.7926 8.9001 24.7878 8.9001 24.7829C8.9001 24.778 8.9001 24.7732 8.9001 24.7683C8.9001 24.7635 8.9001 24.7586 8.9001 24.7537C8.9001 24.7489 8.9001 24.744 8.9001 24.7391C8.9001 24.7343 8.9001 24.7294 8.9001 24.7245C8.9001 24.7197 8.9001 24.7148 8.9001 24.7099C8.9001 24.7051 8.9001 24.7002 8.9001 24.6953C8.9001 24.6904 8.9001 24.6856 8.9001 24.6807C8.9001 24.6758 8.9001 24.671 8.9001 24.6661C8.9001 24.6612 8.9001 24.6563 8.9001 24.6515C8.9001 24.6466 8.9001 24.6417 8.9001 24.6369C8.9001 24.632 8.9001 24.6271 8.9001 24.6222C8.9001 24.6174 8.9001 24.6125 8.9001 24.6076C8.9001 24.6027 8.9001 24.5979 8.9001 24.593C8.9001 24.5881 8.9001 24.5832 8.9001 24.5783C8.9001 24.5735 8.9001 24.5686 8.9001 24.5637C8.9001 24.5588 8.9001 24.554 8.9001 24.5491C8.9001 24.5442 8.9001 24.5393 8.9001 24.5344C8.9001 24.5296 8.9001 24.5247 8.9001 24.5198C8.9001 24.5149 8.9001 24.51 8.9001 24.5051C8.9001 24.5003 8.9001 24.4954 8.9001 24.4905C8.9001 24.4856 8.9001 24.4807 8.9001 24.4758C8.9001 24.471 8.9001 24.4661 8.9001 24.4612C8.9001 24.4563 8.9001 24.4514 8.9001 24.4465C8.9001 24.4417 8.9001 24.4368 8.9001 24.4319C8.9001 24.427 8.9001 24.4221 8.9001 24.4172C8.9001 24.4123 8.9001 24.4074 8.9001 24.4026C8.9001 24.3977 8.9001 24.3928 8.9001 24.3879C8.9001 24.383 8.9001 24.3781 8.9001 24.3732C8.9001 24.3683 8.9001 24.3634 8.9001 24.3586C8.9001 24.3537 8.9001 24.3488 8.9001 24.3439C8.9001 24.339 8.9001 24.3341 8.9001 24.3292C8.9001 24.3243 8.9001 24.3194 8.9001 24.3145C8.9001 24.3096 8.9001 24.3047 8.9001 24.2999C8.9001 24.295 8.9001 24.2901 8.9001 24.2852C8.9001 24.2803 8.9001 24.2754 8.9001 24.2705C8.9001 24.2656 8.9001 24.2607 8.9001 24.2558C8.9001 24.2509 8.9001 24.246 8.9001 24.2411C8.9001 24.2362 8.9001 24.2313 8.9001 24.2264C8.9001 24.2215 8.9001 24.2166 8.9001 24.2117C8.9001 24.2068 8.9001 24.2019 8.9001 24.1971C8.9001 24.1922 8.9001 24.1873 8.9001 24.1824C8.9001 24.1775 8.9001 24.1726 8.9001 24.1677C8.9001 24.1628 8.9001 24.1579 8.9001 24.153C8.9001 24.1481 8.9001 24.1432 8.9001 24.1383C8.9001 24.1334 8.9001 24.1285 8.9001 24.1236C8.9001 24.1187 8.9001 24.1138 8.9001 24.1089C8.9001 24.104 8.9001 24.0991 8.9001 24.0942C8.9001 24.0893 8.9001 24.0844 8.9001 24.0795C8.9001 24.0746 8.9001 24.0697 8.9001 24.0648C8.9001 24.0599 8.9001 24.0549 8.9001 24.05C8.9001 24.0451 8.9001 24.0402 8.9001 24.0353C8.9001 24.0304 8.9001 24.0255 8.9001 24.0206C8.9001 24.0157 8.9001 24.0108 8.9001 24.0059C8.9001 24.001 8.9001 23.9961 8.9001 23.9912C8.9001 23.9863 8.9001 23.9814 8.9001 23.9765C8.9001 23.9716 8.9001 23.9667 8.9001 23.9618C8.9001 23.9569 8.9001 23.952 8.9001 23.9471C8.9001 23.9422 8.9001 23.9373 8.9001 23.9323C8.9001 23.9274 8.9001 23.9225 8.9001 23.9176C8.9001 23.9127 8.9001 23.9078 8.9001 23.9029C8.9001 23.898 8.9001 23.8931 8.9001 23.8882C8.9001 23.8833 8.9001 23.8784 8.9001 23.8735C8.9001 23.8686 8.9001 23.8637 8.9001 23.8588C8.9001 23.8538 8.9001 23.8489 8.9001 23.844C8.9001 23.8391 8.9001 23.8342 8.9001 23.8293C8.9001 23.8244 8.9001 23.8195 8.9001 23.8146C8.9001 23.8097 8.9001 23.8048 8.9001 23.7999C8.9001 23.795 8.9001 23.79 8.9001 23.7851C8.9001 23.7802 8.9001 23.7753 8.9001 23.7704C8.9001 23.7655 8.9001 23.7606 8.9001 23.7557C8.9001 23.7508 8.9001 23.7459 8.9001 23.741C8.9001 23.7361 8.9001 23.7311 8.9001 23.7262C8.9001 23.7213 8.9001 23.7164 8.9001 23.7115C8.9001 23.7066 8.9001 23.7017 8.9001 23.6968C8.9001 23.6919 8.9001 23.687 8.9001 23.6821C8.9001 23.6771 8.9001 23.6722 8.9001 23.6673C8.9001 23.6624 8.9001 23.6575 8.9001 23.6526C8.9001 23.6477 8.9001 23.6428 8.9001 23.6379C8.9001 23.633 8.9001 23.6281 8.9001 23.6231C8.9001 23.6182 8.9001 23.6133 8.9001 23.6084C8.9001 23.6035 8.9001 23.5986 8.9001 23.5937C8.9001 23.5888 8.9001 23.5839 8.9001 23.579C8.9001 23.5741 8.9001 23.5691 8.9001 23.5642C8.9001 23.5593 8.9001 23.5544 8.9001 23.5495C8.9001 23.5446 8.9001 23.5397 8.9001 23.5348C8.9001 23.5299 8.9001 23.525 8.9001 23.52C8.9001 23.5151 8.9001 23.5102 8.9001 23.5053C8.9001 23.5004 8.9001 23.4955 8.9001 23.4906C8.9001 23.4857 8.9001 23.4808 8.9001 23.4759C8.9001 23.471 8.9001 23.466 8.9001 23.4611C8.9001 23.4562 8.9001 23.4513 8.9001 23.4464C8.9001 23.4415 8.9001 23.4366 8.9001 23.4317C8.9001 23.4268 8.9001 23.4219 8.9001 23.417C8.9001 23.4121 8.9001 23.4071 8.9001 23.4022C8.9001 23.3973 8.9001 23.3924 8.9001 23.3875C8.9001 23.3826 8.9001 23.3777 8.9001 23.3728C8.9001 23.3679 8.9001 23.363 8.9001 23.3581C8.9001 23.3532 8.9001 23.3483 8.9001 23.3433C8.9001 23.3384 8.9001 23.3335 8.9001 23.3286C8.9001 23.3237 8.9001 23.3188 8.9001 23.3139C8.9001 23.309 8.9001 23.3041 8.9001 23.2992C8.9001 23.2943 8.9001 23.2894 8.9001 23.2845C8.9001 23.2796 8.9001 23.2747 8.9001 23.2697C8.9001 23.2648 8.9001 23.2599 8.9001 23.255C8.9001 23.2501 8.9001 23.2452 8.9001 23.2403C8.9001 23.2354 8.9001 23.2305 8.9001 23.2256C8.9001 23.2207 8.9001 23.2158 8.9001 23.2109C8.9001 23.206 8.9001 23.2011 8.9001 23.1962C8.9001 23.1913 8.9001 23.1864 8.9001 23.1815C8.9001 23.1766 8.9001 23.1716 8.9001 23.1667C8.9001 23.1618 8.9001 23.1569 8.9001 23.152C8.9001 23.1471 8.9001 23.1422 8.9001 23.1373C8.9001 23.1324 8.9001 23.1275 8.9001 23.1226C8.9001 23.1177 8.9001 23.1128 8.9001 23.1079C8.9001 23.103 8.9001 23.0981 8.9001 23.0932C8.9001 23.0883 8.9001 23.0834 8.9001 23.0785C8.9001 23.0736 8.9001 23.0687 8.9001 23.0638C8.9001 23.0589 8.9001 23.054 8.9001 23.0491C8.9001 23.0442 8.9001 23.0393 8.9001 23.0344C8.9001 23.0295 8.9001 23.0246 8.9001 23.0197C8.9001 23.0148 8.9001 23.0099 8.9001 23.005C8.9001 23.0001 8.9001 22.9952 8.9001 22.9903C8.9001 22.9854 8.9001 22.9805 8.9001 22.9756C8.9001 22.9707 8.9001 22.9658 8.9001 22.9609C8.9001 22.956 8.9001 22.9511 8.9001 22.9463C8.9001 22.9414 8.9001 22.9365 8.9001 22.9316C8.9001 22.9267 8.9001 22.9218 8.9001 22.9169C8.9001 22.912 8.9001 22.9071 8.9001 22.9022C8.9001 22.8973 8.9001 22.8924 8.9001 22.8875C8.9001 22.8826 8.9001 22.8777 8.9001 22.8728C8.9001 22.8679 8.9001 22.8631 8.9001 22.8582C8.9001 22.8533 8.9001 22.8484 8.9001 22.8435C8.9001 22.8386 8.9001 22.8337 8.9001 22.8288C8.9001 22.8239 8.9001 22.819 8.9001 22.8142C8.9001 22.8093 8.9001 22.8044 8.9001 22.7995C8.9001 22.7946 8.9001 22.7897 8.9001 22.7848C8.9001 22.7799 8.9001 22.775 8.9001 22.7702C8.9001 22.7653 8.9001 22.7604 8.9001 22.7555C8.9001 22.7506 8.9001 22.7457 8.9001 22.7408C8.9001 22.736 8.9001 22.7311 8.9001 22.7262C8.9001 22.7213 8.9001 22.7164 8.9001 22.7115C8.9001 22.7066 8.9001 22.7018 8.9001 22.6969C8.9001 22.692 8.9001 22.6871 8.9001 22.6822C8.9001 22.6773 8.9001 22.6725 8.9001 22.6676C8.9001 22.6627 8.9001 22.6578 8.9001 22.6529C8.9001 22.6481 8.9001 22.6432 8.9001 22.6383C8.9001 22.6334 8.9001 22.6285 8.9001 22.6237C8.9001 22.6188 8.9001 22.6139 8.9001 22.609C8.9001 22.6042 8.9001 22.5993 8.9001 22.5944C8.9001 22.5895 8.9001 22.5846 8.9001 22.5798C8.9001 22.5749 8.9001 22.57 8.9001 22.5651C8.9001 22.5603 8.9001 22.5554 8.9001 22.5505C8.9001 22.5456 8.9001 22.5408 8.9001 22.5359C8.9001 22.531 8.9001 22.5262 8.9001 22.5213C8.9001 22.5164 8.9001 22.5115 8.9001 22.5067C8.9001 22.5018 8.9001 22.4969 8.9001 22.4921C8.9001 22.4872 8.9001 22.4823 8.9001 22.4774C8.9001 22.4726 8.9001 22.4677 8.9001 22.4628C8.9001 22.458 8.9001 22.4531 8.9001 22.4482C8.9001 22.4434 8.9001 22.4385 8.9001 22.4336C8.9001 22.4288 8.9001 22.4239 8.9001 22.4191C8.9001 22.4142 8.9001 22.4093 8.9001 22.4045C8.9001 22.3996 8.9001 22.3947 8.9001 22.3899C8.9001 22.385 8.9001 22.3802 8.9001 22.3753C8.9001 22.3704 8.9001 22.3656 8.9001 22.3607C8.9001 22.3558 8.9001 22.351 8.9001 22.3461C8.9001 22.3413 8.9001 22.3364 8.9001 22.3316C8.9001 22.3267 8.9001 22.3218 8.9001 22.317C8.9001 22.3121 8.9001 22.3073 8.9001 22.3024C8.9001 22.2976 8.9001 22.2927 8.9001 22.2879C8.9001 22.283 8.9001 22.2782 8.9001 22.2733C8.9001 22.2684 8.9001 22.2636 8.9001 22.2587C8.9001 22.2539 8.9001 22.249 8.9001 22.2442C8.9001 22.2393 8.9001 22.2345 8.9001 22.2296C8.9001 22.2248 8.9001 22.22 8.9001 22.2151C8.9001 22.2103 8.9001 22.2054 8.9001 22.2006C8.9001 22.1957 8.9001 22.1909 8.9001 22.186C8.9001 22.1812 8.9001 22.1763 8.9001 22.1715C8.9001 22.1667 8.9001 22.1618 8.9001 22.157C8.9001 22.1521 8.9001 22.1473 8.9001 22.1424C8.9001 22.1376 8.9001 22.1328 8.9001 22.1279C8.9001 22.1231 8.9001 22.1183 8.9001 22.1134C8.9001 22.1086 8.9001 22.1037 8.9001 22.0989C8.9001 22.0941 8.9001 22.0892 8.9001 22.0844C8.9001 22.0796 8.9001 22.0747 8.9001 22.0699C8.9001 22.0651 8.9001 22.0602 8.9001 22.0554C8.9001 22.0506 8.9001 22.0457 8.9001 22.0409C8.9001 22.0361 8.9001 22.0312 8.9001 22.0264C8.9001 22.0216 8.9001 22.0168 8.9001 22.0119C8.9001 22.0071 8.9001 22.0023 8.9001 21.9975C8.9001 21.9926 8.9001 21.9878 8.9001 21.983C8.9001 21.9782 8.9001 21.9733 8.9001 21.9685C8.9001 21.9637 8.9001 21.9589 8.9001 21.954C8.9001 21.9492 8.9001 21.9444 8.9001 21.9396C8.9001 21.9348 8.9001 21.93 8.9001 21.9251C8.9001 21.9203 8.9001 21.9155 8.9001 21.9107C8.9001 21.9059 8.9001 21.9011 8.9001 21.8962C8.9001 21.8914 8.9001 21.8866 8.9001 21.8818C8.9001 21.877 8.9001 21.8722 8.9001 21.8674C8.9001 21.8625 8.9001 21.8577 8.9001 21.8529C8.9001 21.8481 8.9001 21.8433 8.9001 21.8385C8.9001 21.8337 8.9001 21.8289 8.9001 21.8241C8.9001 21.8193 8.9001 21.8145 8.9001 21.8097C8.9001 21.8049 8.9001 21.8001 8.9001 21.7953C8.9001 21.7905 8.9001 21.7856 8.9001 21.7808C8.9001 21.776 8.9001 21.7712 8.9001 21.7664C8.9001 21.7616 8.9001 21.7569 8.9001 21.7521C8.9001 21.7473 8.9001 21.7425 8.9001 21.7377C8.9001 21.7329 8.9001 21.7281 8.9001 21.7233C8.9001 21.7185 8.9001 21.7137 8.9001 21.7089C8.9001 21.7041 8.9001 21.6993 8.9001 21.6945C8.9001 21.6897 8.9001 21.6849 8.9001 21.6802C8.9001 21.6754 8.9001 21.6706 8.9001 21.6658C8.9001 21.661 8.9001 21.6562 8.9001 21.6514C8.9001 21.6467 8.9001 21.6419 8.9001 21.6371C8.9001 21.6323 8.9001 21.6275 8.9001 21.6227C8.9001 21.618 8.9001 21.6132 8.9001 21.6084C8.9001 21.6036 8.9001 21.5988 8.9001 21.5941C8.9001 21.5893 8.9001 21.5845 8.9001 21.5797C8.9001 21.575 8.9001 21.5702 8.9001 21.5654C8.9001 21.5606 8.9001 21.5559 8.9001 21.5511C8.9001 21.5463 8.9001 21.5416 8.9001 21.5368C8.9001 21.532 8.9001 21.5273 8.9001 21.5225C8.9001 21.5177 8.9001 21.513 8.9001 21.5082C8.9001 21.5034 8.9001 21.4987 8.9001 21.4939C8.9001 21.4891 8.9001 21.4844 8.9001 21.4796C8.9001 21.4748 8.9001 21.4701 8.9001 21.4653C8.9001 21.4606 8.9001 21.4558 8.9001 21.4511C8.9001 21.4463 8.9001 21.4415 8.9001 21.4368C8.9001 21.432 8.9001 21.4273 8.9001 21.4225C8.9001 21.4178 8.9001 21.413 8.9001 21.4083C8.9001 21.4035 8.9001 21.3988 8.9001 21.394C8.9001 21.3893 8.9001 21.3845 8.9001 21.3798C8.9001 21.375 8.9001 21.3703 8.9001 21.3655C8.9001 21.3608 8.9001 21.3561 8.9001 21.3513C8.9001 21.3466 8.9001 21.3418 8.9001 21.3371C8.9001 21.3323 8.9001 21.3276 8.9001 21.3229C8.9001 21.3181 8.9001 21.3134 8.9001 21.3087C8.9001 21.3039 8.9001 21.2992 8.9001 21.2945C8.9001 21.2897 8.9001 21.285 8.9001 21.2803C8.9001 21.2755 8.9001 21.2708 8.9001 21.2661C8.9001 21.2613 8.9001 21.2566 8.9001 21.2519C8.9001 21.2472 8.9001 21.2424 8.9001 21.2377C8.9001 21.233 8.9001 21.2283 8.9001 21.2235C8.9001 21.2188 8.9001 21.2141 8.9001 21.2094C8.9001 21.2047 8.9001 21.1999 8.9001 21.1952C8.9001 21.1905 8.9001 21.1858 8.9001 21.1811C8.9001 21.1764 8.9001 21.1716 8.9001 21.1669C8.9001 21.1622 8.9001 21.1575 8.9001 21.1528C8.9001 21.1481 8.9001 21.1434 8.9001 21.1387C8.9001 21.134 8.9001 21.1293 8.9001 21.1245C8.9001 21.1198 8.9001 21.1151 8.9001 21.1104C8.9001 21.1057 8.9001 21.101 8.9001 21.0963C8.9001 21.0916 8.9001 21.0869 8.9001 21.0822C8.9001 21.0775 8.9001 21.0728 8.9001 21.0681C8.9001 21.0634 8.9001 21.0587 8.9001 21.0541C8.9001 21.0494 8.9001 21.0447 8.9001 21.04C8.9001 21.0353 8.9001 21.0306 8.9001 21.0259C8.9001 21.0212 8.9001 21.0165 8.9001 21.0118C8.9001 21.0072 8.9001 21.0025 8.9001 20.9978C8.9001 20.9931 8.9001 20.9884 8.9001 20.9837C8.9001 20.9791 8.9001 20.9744 8.9001 20.9697C8.9001 20.965 8.9001 20.9604 8.9001 20.9557C8.9001 20.951 8.9001 20.9463 8.9001 20.9417C8.9001 20.937 8.9001 20.9323 8.9001 20.9276C8.9001 20.923 8.9001 20.9183 8.9001 20.9136C8.9001 20.909 8.9001 20.9043 8.9001 20.8996C8.9001 20.895 8.9001 20.8903 8.9001 20.8856C8.9001 20.881 8.9001 20.8763 8.9001 20.8717C8.9001 20.867 8.9001 20.8623 8.9001 20.8577C8.9001 20.853 8.9001 20.8484 8.9001 20.8437C8.9001 20.8391 8.9001 20.8344 8.9001 20.8297C8.9001 20.8251 8.9001 20.8204 8.9001 20.8158C8.9001 20.8111 8.9001 20.8065 8.9001 20.8018C8.9001 20.7972 8.9001 20.7926 8.9001 20.7879C8.9001 20.7833 8.9001 20.7786 8.9001 20.774C8.9001 20.7693 8.9001 20.7647 8.9001 20.7601C8.9001 20.7554 8.9001 20.7508 8.9001 20.7462C8.9001 20.7415 8.9001 20.7369 8.9001 20.7322L4.9001 20.7322ZM12.2334 13.4C8.18387 13.4 4.9001 16.6816 4.9001 20.7322L8.9001 20.7322C8.9001 18.8918 10.392 17.4 12.2334 17.4L12.2334 13.4ZM28.1001 20.7333C28.1001 16.6832 24.8169 13.4 20.7668 13.4L20.7668 17.4C22.6077 17.4 24.1001 18.8924 24.1001 20.7333L28.1001 20.7333Z" fill="black" mask="url(#path-1-inside-1_70_854)"/>
<path d="M20.3001 8.8C20.3001 10.8987 18.5988 12.6 16.5001 12.6C14.4014 12.6 12.7001 10.8987 12.7001 8.8C12.7001 6.70132 14.4014 5 16.5001 5C18.5988 5 20.3001 6.70132 20.3001 8.8Z" stroke="black" stroke-width="2" stroke-miterlimit="10"/>
</svg>
