<svg width="16" height="16" viewBox="0 0 16 16" fill="none" xmlns="http://www.w3.org/2000/svg">
<path d="M2 3.79999L8.54398 3.79999M14 3.79999L11.272 3.79999" stroke="black"/>
<path d="M9.80659 2.50059C10.5246 2.50059 11.1066 3.08262 11.1066 3.80059C11.1066 4.51856 10.5246 5.10059 9.80659 5.10059C9.08862 5.10059 8.50659 4.51856 8.50659 3.80059C8.50659 3.08262 9.08862 2.50059 9.80659 2.50059Z" stroke="black"/>
<path d="M2 8H4.32763M14 8H6.75064" stroke="black"/>
<path d="M5.26851 6.70005C5.98648 6.70005 6.56851 7.28208 6.56851 8.00005C6.56851 8.71802 5.98648 9.30005 5.26851 9.30005C4.55054 9.30005 3.96851 8.71802 3.96851 8.00005C3.96851 7.28208 4.55054 6.70005 5.26851 6.70005Z" stroke="black"/>
<path d="M2 12.2H8.51385M14 12.2H11.0632" stroke="black"/>
<path d="M9.80659 10.9C10.5246 10.9 11.1066 11.482 11.1066 12.2C11.1066 12.918 10.5246 13.5 9.80659 13.5C9.08862 13.5 8.50659 12.918 8.50659 12.2C8.50659 11.482 9.08862 10.9 9.80659 10.9Z" stroke="black"/>
</svg>
