<svg width="24" height="24" viewBox="0 0 24 24" fill="none" xmlns="http://www.w3.org/2000/svg">
<path d="M19.5001 10H4.5L5.88555 4.9812C5.9676 4.69833 6.14197 4.4494 6.38211 4.27228C6.62225 4.09516 6.91504 3.99955 7.21589 4H16.8043C17.1051 3.99955 17.3979 4.09516 17.6381 4.27228C17.8782 4.4494 18.0526 4.69833 18.1346 4.9812L19.5001 10Z" stroke="black" stroke-width="1.5" stroke-miterlimit="10"/>
<path d="M4.29721 9.99994C4.12606 9.99993 3.95662 10.0367 3.79862 10.1081C3.64062 10.1795 3.49722 10.2842 3.37664 10.416C3.25606 10.5478 3.16071 10.7043 3.09608 10.8763C3.03145 11.0483 2.99879 11.2325 3.00003 11.4183V19.2985C3.00128 19.485 3.07041 19.6634 3.19235 19.7948C3.31429 19.9263 3.47915 20 3.65098 20H6.41516C6.58655 20 6.7509 19.9261 6.87209 19.7945C6.99328 19.663 7.06138 19.4845 7.06138 19.2985V17.498H12.0001H16.9388V19.2985C16.9388 19.4845 17.0068 19.663 17.128 19.7945C17.2492 19.9261 17.4136 20 17.585 20H20.3539C20.5249 19.9986 20.6885 19.9243 20.8094 19.793C20.9304 19.6618 20.9988 19.4841 21.0001 19.2985V11.4183C20.9988 11.0457 20.8616 10.6889 20.6185 10.4259C20.3753 10.1629 20.0461 10.0153 19.7029 10.0153L4.29721 9.99994Z" stroke="black" stroke-width="1.5" stroke-miterlimit="10"/>
<path d="M7.25001 15.0172C7.94036 15.0172 8.50001 14.4575 8.50001 13.7672C8.50001 13.0768 7.94036 12.5172 7.25001 12.5172C6.55965 12.5172 6 13.0768 6 13.7672C6 14.4575 6.55965 15.0172 7.25001 15.0172Z" stroke="black" stroke-width="1.5" stroke-miterlimit="10"/>
<path d="M16.75 15.0173C17.4404 15.0173 18 14.4577 18 13.7673C18 13.077 17.4404 12.5173 16.75 12.5173C16.0596 12.5173 15.5 13.077 15.5 13.7673C15.5 14.4577 16.0596 15.0173 16.75 15.0173Z" stroke="black" stroke-width="1.5" stroke-miterlimit="10"/>
</svg>
