<svg width="24" height="24" viewBox="0 0 24 24" fill="none" xmlns="http://www.w3.org/2000/svg">
<path d="M3 5.69998L12.816 5.69998M21 5.69998L16.908 5.69998" stroke="black" stroke-width="1.5"/>
<path d="M14.71 3.75085C15.787 3.75085 16.66 4.62389 16.66 5.70085C16.66 6.7778 15.787 7.65085 14.71 7.65085C13.6331 7.65085 12.76 6.7778 12.76 5.70085C12.76 4.62389 13.6331 3.75085 14.71 3.75085Z" stroke="black" stroke-width="1.5"/>
<path d="M3 12H6.49144M21 12L10.126 12" stroke="black" stroke-width="1.5"/>
<path d="M7.90264 10.05C8.97959 10.05 9.85264 10.9231 9.85264 12C9.85264 13.077 8.97959 13.95 7.90264 13.95C6.82568 13.95 5.95264 13.077 5.95264 12C5.95264 10.9231 6.82568 10.05 7.90264 10.05Z" stroke="black" stroke-width="1.5"/>
<path d="M3 18.3H12.7708M21 18.3H16.5948" stroke="black" stroke-width="1.5"/>
<path d="M14.71 16.35C15.787 16.35 16.66 17.223 16.66 18.3C16.66 19.3769 15.787 20.25 14.71 20.25C13.6331 20.25 12.76 19.3769 12.76 18.3C12.76 17.223 13.6331 16.35 14.71 16.35Z" stroke="black" stroke-width="1.5"/>
</svg>
