<svg width="24" height="24" viewBox="0 0 24 24" fill="none" xmlns="http://www.w3.org/2000/svg">
<path d="M6.77727 15.6901C7.44115 15.6901 7.97934 15.1341 7.97934 14.4483C7.97934 13.7624 7.44115 13.2064 6.77727 13.2064C6.11338 13.2064 5.5752 13.7624 5.5752 14.4483C5.5752 15.1341 6.11338 15.6901 6.77727 15.6901Z" stroke="black" stroke-width="1.5" stroke-miterlimit="10"/>
<path d="M17.2123 15.6901C17.8762 15.6901 18.4144 15.1341 18.4144 14.4483C18.4144 13.7624 17.8762 13.2064 17.2123 13.2064C16.5484 13.2064 16.0103 13.7624 16.0103 14.4483C16.0103 15.1341 16.5484 15.6901 17.2123 15.6901Z" stroke="black" stroke-width="1.5" stroke-miterlimit="10"/>
<path d="M11.6815 5.00001H7.43477C7.20609 4.99897 6.9835 5.07614 6.80169 5.21944C6.61987 5.36273 6.48904 5.56411 6.42959 5.79224L5.16016 10.4922H12.1135" stroke="black" stroke-width="1.5" stroke-miterlimit="10"/>
<path d="M11.6636 10.4931H4.81347C4.33251 10.4931 3.87124 10.6905 3.53115 11.0419C3.19106 11.3932 3 11.8698 3 12.3666V19.197C3 19.41 3.08188 19.6142 3.22764 19.7648C3.37339 19.9153 3.57108 20 3.7772 20H5.70466C5.91079 20 6.10848 19.9153 6.25423 19.7648C6.39998 19.6142 6.48187 19.41 6.48187 19.197V18.0889H17.487V19.1863C17.487 19.3993 17.5689 19.6035 17.7147 19.754C17.8604 19.9046 18.0581 19.9893 18.2642 19.9893H20.2228C20.4289 19.9893 20.6266 19.9046 20.7724 19.754C20.9181 19.6035 21 19.3993 21 19.1863V12.2903" stroke="black" stroke-width="1.5" stroke-miterlimit="10"/>
<path d="M17.8981 6.09553L19.7954 6.26775C19.8739 6.27487 19.9065 6.37174 19.8484 6.42485L18.4036 7.74472C18.3797 7.76655 18.3693 7.79947 18.3763 7.83109L18.8071 9.78719C18.8245 9.8659 18.7381 9.92637 18.6701 9.88315L17.0486 8.85297C17.0189 8.83413 16.9811 8.83413 16.9514 8.85297L15.3303 9.88293C15.2622 9.92618 15.1758 9.86561 15.1932 9.78687L15.6267 7.8312C15.6337 7.79953 15.6232 7.76652 15.5992 7.74466L14.1523 6.42516C14.094 6.37203 14.1267 6.275 14.2052 6.26799L16.1017 6.09862C16.1357 6.09559 16.165 6.0738 16.1777 6.04222L16.916 4.20856C16.9465 4.1329 17.0536 4.13287 17.0841 4.20851L17.8223 6.03919C17.835 6.0707 17.8643 6.09246 17.8981 6.09553Z" stroke="black" stroke-width="1.5" stroke-linejoin="round"/>
</svg>
