<svg width="16" height="16" viewBox="0 0 16 16" fill="none" xmlns="http://www.w3.org/2000/svg">
<path d="M8.02783 3L8.02783 11" stroke="black" stroke-miterlimit="10"/>
<path d="M4.5 6.2L8 3L11.5 6.2" stroke="black"/>
<mask id="path-3-inside-1_1858_8677" fill="white">
<path d="M2.5 9.00092V12.1667C2.5 12.903 3.09695 13.5 3.83333 13.5H12.1667C12.903 13.5 13.5 12.9038 13.5 12.1674C13.5 11.22 13.5 9.95186 13.5 9"/>
</mask>
<path d="M1.5 9.00092V12.1667H3.5V9.00092H1.5ZM3.83333 14.5H12.1667V12.5H3.83333V14.5ZM14.5 12.1674C14.5 12.1655 14.5 12.1637 14.5 12.1618C14.5 12.16 14.5 12.1581 14.5 12.1563C14.5 12.1544 14.5 12.1526 14.5 12.1507C14.5 12.1488 14.5 12.147 14.5 12.1451C14.5 12.1433 14.5 12.1414 14.5 12.1395C14.5 12.1377 14.5 12.1358 14.5 12.134C14.5 12.1321 14.5 12.1302 14.5 12.1284C14.5 12.1265 14.5 12.1246 14.5 12.1227C14.5 12.1209 14.5 12.119 14.5 12.1171C14.5 12.1153 14.5 12.1134 14.5 12.1115C14.5 12.1096 14.5 12.1078 14.5 12.1059C14.5 12.104 14.5 12.1021 14.5 12.1003C14.5 12.0984 14.5 12.0965 14.5 12.0946C14.5 12.0927 14.5 12.0908 14.5 12.089C14.5 12.0871 14.5 12.0852 14.5 12.0833C14.5 12.0814 14.5 12.0795 14.5 12.0776C14.5 12.0758 14.5 12.0739 14.5 12.072C14.5 12.0701 14.5 12.0682 14.5 12.0663C14.5 12.0644 14.5 12.0625 14.5 12.0606C14.5 12.0587 14.5 12.0568 14.5 12.0549C14.5 12.053 14.5 12.0511 14.5 12.0492C14.5 12.0473 14.5 12.0454 14.5 12.0435C14.5 12.0416 14.5 12.0397 14.5 12.0378C14.5 12.0359 14.5 12.034 14.5 12.0321C14.5 12.0302 14.5 12.0283 14.5 12.0264C14.5 12.0245 14.5 12.0226 14.5 12.0207C14.5 12.0187 14.5 12.0168 14.5 12.0149C14.5 12.013 14.5 12.0111 14.5 12.0092C14.5 12.0073 14.5 12.0053 14.5 12.0034C14.5 12.0015 14.5 11.9996 14.5 11.9977C14.5 11.9958 14.5 11.9938 14.5 11.9919C14.5 11.99 14.5 11.9881 14.5 11.9861C14.5 11.9842 14.5 11.9823 14.5 11.9804C14.5 11.9784 14.5 11.9765 14.5 11.9746C14.5 11.9727 14.5 11.9707 14.5 11.9688C14.5 11.9669 14.5 11.9649 14.5 11.963C14.5 11.9611 14.5 11.9591 14.5 11.9572C14.5 11.9553 14.5 11.9533 14.5 11.9514C14.5 11.9495 14.5 11.9475 14.5 11.9456C14.5 11.9436 14.5 11.9417 14.5 11.9398C14.5 11.9378 14.5 11.9359 14.5 11.9339C14.5 11.932 14.5 11.9301 14.5 11.9281C14.5 11.9262 14.5 11.9242 14.5 11.9223C14.5 11.9203 14.5 11.9184 14.5 11.9164C14.5 11.9145 14.5 11.9125 14.5 11.9106C14.5 11.9086 14.5 11.9067 14.5 11.9047C14.5 11.9028 14.5 11.9008 14.5 11.8989C14.5 11.8969 14.5 11.895 14.5 11.893C14.5 11.891 14.5 11.8891 14.5 11.8871C14.5 11.8852 14.5 11.8832 14.5 11.8812C14.5 11.8793 14.5 11.8773 14.5 11.8754C14.5 11.8734 14.5 11.8714 14.5 11.8695C14.5 11.8675 14.5 11.8655 14.5 11.8636C14.5 11.8616 14.5 11.8596 14.5 11.8577C14.5 11.8557 14.5 11.8537 14.5 11.8518C14.5 11.8498 14.5 11.8478 14.5 11.8458C14.5 11.8439 14.5 11.8419 14.5 11.8399C14.5 11.8379 14.5 11.836 14.5 11.834C14.5 11.832 14.5 11.83 14.5 11.8281C14.5 11.8261 14.5 11.8241 14.5 11.8221C14.5 11.8201 14.5 11.8182 14.5 11.8162C14.5 11.8142 14.5 11.8122 14.5 11.8102C14.5 11.8082 14.5 11.8063 14.5 11.8043C14.5 11.8023 14.5 11.8003 14.5 11.7983C14.5 11.7963 14.5 11.7943 14.5 11.7924C14.5 11.7904 14.5 11.7884 14.5 11.7864C14.5 11.7844 14.5 11.7824 14.5 11.7804C14.5 11.7784 14.5 11.7764 14.5 11.7744C14.5 11.7724 14.5 11.7704 14.5 11.7684C14.5 11.7664 14.5 11.7644 14.5 11.7624C14.5 11.7604 14.5 11.7584 14.5 11.7564C14.5 11.7544 14.5 11.7524 14.5 11.7504C14.5 11.7484 14.5 11.7464 14.5 11.7444C14.5 11.7424 14.5 11.7404 14.5 11.7384C14.5 11.7364 14.5 11.7344 14.5 11.7324C14.5 11.7304 14.5 11.7284 14.5 11.7264C14.5 11.7244 14.5 11.7224 14.5 11.7203C14.5 11.7183 14.5 11.7163 14.5 11.7143C14.5 11.7123 14.5 11.7103 14.5 11.7083C14.5 11.7063 14.5 11.7042 14.5 11.7022C14.5 11.7002 14.5 11.6982 14.5 11.6962C14.5 11.6942 14.5 11.6921 14.5 11.6901C14.5 11.6881 14.5 11.6861 14.5 11.6841C14.5 11.682 14.5 11.68 14.5 11.678C14.5 11.676 14.5 11.674 14.5 11.6719C14.5 11.6699 14.5 11.6679 14.5 11.6659C14.5 11.6638 14.5 11.6618 14.5 11.6598C14.5 11.6577 14.5 11.6557 14.5 11.6537C14.5 11.6517 14.5 11.6496 14.5 11.6476C14.5 11.6456 14.5 11.6435 14.5 11.6415C14.5 11.6395 14.5 11.6374 14.5 11.6354C14.5 11.6334 14.5 11.6313 14.5 11.6293C14.5 11.6273 14.5 11.6252 14.5 11.6232C14.5 11.6212 14.5 11.6191 14.5 11.6171C14.5 11.615 14.5 11.613 14.5 11.611C14.5 11.6089 14.5 11.6069 14.5 11.6048C14.5 11.6028 14.5 11.6008 14.5 11.5987C14.5 11.5967 14.5 11.5946 14.5 11.5926C14.5 11.5905 14.5 11.5885 14.5 11.5864C14.5 11.5844 14.5 11.5824 14.5 11.5803C14.5 11.5783 14.5 11.5762 14.5 11.5742C14.5 11.5721 14.5 11.5701 14.5 11.568C14.5 11.566 14.5 11.5639 14.5 11.5619C14.5 11.5598 14.5 11.5578 14.5 11.5557C14.5 11.5536 14.5 11.5516 14.5 11.5495C14.5 11.5475 14.5 11.5454 14.5 11.5434C14.5 11.5413 14.5 11.5393 14.5 11.5372C14.5 11.5351 14.5 11.5331 14.5 11.531C14.5 11.529 14.5 11.5269 14.5 11.5248C14.5 11.5228 14.5 11.5207 14.5 11.5187C14.5 11.5166 14.5 11.5145 14.5 11.5125C14.5 11.5104 14.5 11.5083 14.5 11.5063C14.5 11.5042 14.5 11.5021 14.5 11.5001C14.5 11.498 14.5 11.4959 14.5 11.4939C14.5 11.4918 14.5 11.4897 14.5 11.4877C14.5 11.4856 14.5 11.4835 14.5 11.4815C14.5 11.4794 14.5 11.4773 14.5 11.4753C14.5 11.4732 14.5 11.4711 14.5 11.469C14.5 11.467 14.5 11.4649 14.5 11.4628C14.5 11.4607 14.5 11.4587 14.5 11.4566C14.5 11.4545 14.5 11.4524 14.5 11.4504C14.5 11.4483 14.5 11.4462 14.5 11.4441C14.5 11.442 14.5 11.44 14.5 11.4379C14.5 11.4358 14.5 11.4337 14.5 11.4316C14.5 11.4296 14.5 11.4275 14.5 11.4254C14.5 11.4233 14.5 11.4212 14.5 11.4192C14.5 11.4171 14.5 11.415 14.5 11.4129C14.5 11.4108 14.5 11.4087 14.5 11.4066C14.5 11.4046 14.5 11.4025 14.5 11.4004C14.5 11.3983 14.5 11.3962 14.5 11.3941C14.5 11.392 14.5 11.3899 14.5 11.3879C14.5 11.3858 14.5 11.3837 14.5 11.3816C14.5 11.3795 14.5 11.3774 14.5 11.3753C14.5 11.3732 14.5 11.3711 14.5 11.369C14.5 11.3669 14.5 11.3649 14.5 11.3628C14.5 11.3607 14.5 11.3586 14.5 11.3565C14.5 11.3544 14.5 11.3523 14.5 11.3502C14.5 11.3481 14.5 11.346 14.5 11.3439C14.5 11.3418 14.5 11.3397 14.5 11.3376C14.5 11.3355 14.5 11.3334 14.5 11.3313C14.5 11.3292 14.5 11.3271 14.5 11.325C14.5 11.3229 14.5 11.3208 14.5 11.3187C14.5 11.3166 14.5 11.3145 14.5 11.3124C14.5 11.3103 14.5 11.3082 14.5 11.3061C14.5 11.304 14.5 11.3019 14.5 11.2998C14.5 11.2977 14.5 11.2955 14.5 11.2934C14.5 11.2913 14.5 11.2892 14.5 11.2871C14.5 11.285 14.5 11.2829 14.5 11.2808C14.5 11.2787 14.5 11.2766 14.5 11.2745C14.5 11.2724 14.5 11.2702 14.5 11.2681C14.5 11.266 14.5 11.2639 14.5 11.2618C14.5 11.2597 14.5 11.2576 14.5 11.2555C14.5 11.2534 14.5 11.2512 14.5 11.2491C14.5 11.247 14.5 11.2449 14.5 11.2428C14.5 11.2407 14.5 11.2386 14.5 11.2364C14.5 11.2343 14.5 11.2322 14.5 11.2301C14.5 11.228 14.5 11.2259 14.5 11.2237C14.5 11.2216 14.5 11.2195 14.5 11.2174C14.5 11.2153 14.5 11.2131 14.5 11.211C14.5 11.2089 14.5 11.2068 14.5 11.2047C14.5 11.2025 14.5 11.2004 14.5 11.1983C14.5 11.1962 14.5 11.1941 14.5 11.1919C14.5 11.1898 14.5 11.1877 14.5 11.1856C14.5 11.1835 14.5 11.1813 14.5 11.1792C14.5 11.1771 14.5 11.175 14.5 11.1728C14.5 11.1707 14.5 11.1686 14.5 11.1665C14.5 11.1643 14.5 11.1622 14.5 11.1601C14.5 11.1579 14.5 11.1558 14.5 11.1537C14.5 11.1516 14.5 11.1494 14.5 11.1473C14.5 11.1452 14.5 11.1431 14.5 11.1409C14.5 11.1388 14.5 11.1367 14.5 11.1345C14.5 11.1324 14.5 11.1303 14.5 11.1281C14.5 11.126 14.5 11.1239 14.5 11.1217C14.5 11.1196 14.5 11.1175 14.5 11.1154C14.5 11.1132 14.5 11.1111 14.5 11.109C14.5 11.1068 14.5 11.1047 14.5 11.1026C14.5 11.1004 14.5 11.0983 14.5 11.0961C14.5 11.094 14.5 11.0919 14.5 11.0897C14.5 11.0876 14.5 11.0855 14.5 11.0833C14.5 11.0812 14.5 11.0791 14.5 11.0769C14.5 11.0748 14.5 11.0727 14.5 11.0705C14.5 11.0684 14.5 11.0662 14.5 11.0641C14.5 11.062 14.5 11.0598 14.5 11.0577C14.5 11.0555 14.5 11.0534 14.5 11.0513C14.5 11.0491 14.5 11.047 14.5 11.0448C14.5 11.0427 14.5 11.0406 14.5 11.0384C14.5 11.0363 14.5 11.0341 14.5 11.032C14.5 11.0299 14.5 11.0277 14.5 11.0256C14.5 11.0234 14.5 11.0213 14.5 11.0191C14.5 11.017 14.5 11.0149 14.5 11.0127C14.5 11.0106 14.5 11.0084 14.5 11.0063C14.5 11.0041 14.5 11.002 14.5 10.9998C14.5 10.9977 14.5 10.9955 14.5 10.9934C14.5 10.9913 14.5 10.9891 14.5 10.987C14.5 10.9848 14.5 10.9827 14.5 10.9805C14.5 10.9784 14.5 10.9762 14.5 10.9741C14.5 10.9719 14.5 10.9698 14.5 10.9676C14.5 10.9655 14.5 10.9633 14.5 10.9612C14.5 10.959 14.5 10.9569 14.5 10.9547C14.5 10.9526 14.5 10.9504 14.5 10.9483C14.5 10.9461 14.5 10.944 14.5 10.9418C14.5 10.9397 14.5 10.9375 14.5 10.9354C14.5 10.9332 14.5 10.9311 14.5 10.9289C14.5 10.9268 14.5 10.9246 14.5 10.9225C14.5 10.9203 14.5 10.9182 14.5 10.916C14.5 10.9139 14.5 10.9117 14.5 10.9096C14.5 10.9074 14.5 10.9053 14.5 10.9031C14.5 10.901 14.5 10.8988 14.5 10.8966C14.5 10.8945 14.5 10.8923 14.5 10.8902C14.5 10.888 14.5 10.8859 14.5 10.8837C14.5 10.8816 14.5 10.8794 14.5 10.8773C14.5 10.8751 14.5 10.8729 14.5 10.8708C14.5 10.8686 14.5 10.8665 14.5 10.8643C14.5 10.8622 14.5 10.86 14.5 10.8579C14.5 10.8557 14.5 10.8535 14.5 10.8514C14.5 10.8492 14.5 10.8471 14.5 10.8449C14.5 10.8428 14.5 10.8406 14.5 10.8384C14.5 10.8363 14.5 10.8341 14.5 10.832C14.5 10.8298 14.5 10.8276 14.5 10.8255C14.5 10.8233 14.5 10.8212 14.5 10.819C14.5 10.8169 14.5 10.8147 14.5 10.8125C14.5 10.8104 14.5 10.8082 14.5 10.8061C14.5 10.8039 14.5 10.8017 14.5 10.7996C14.5 10.7974 14.5 10.7953 14.5 10.7931C14.5 10.7909 14.5 10.7888 14.5 10.7866C14.5 10.7845 14.5 10.7823 14.5 10.7801C14.5 10.778 14.5 10.7758 14.5 10.7736C14.5 10.7715 14.5 10.7693 14.5 10.7672C14.5 10.765 14.5 10.7628 14.5 10.7607C14.5 10.7585 14.5 10.7564 14.5 10.7542C14.5 10.752 14.5 10.7499 14.5 10.7477C14.5 10.7455 14.5 10.7434 14.5 10.7412C14.5 10.7391 14.5 10.7369 14.5 10.7347C14.5 10.7326 14.5 10.7304 14.5 10.7282C14.5 10.7261 14.5 10.7239 14.5 10.7217C14.5 10.7196 14.5 10.7174 14.5 10.7153C14.5 10.7131 14.5 10.7109 14.5 10.7088C14.5 10.7066 14.5 10.7044 14.5 10.7023C14.5 10.7001 14.5 10.6979 14.5 10.6958C14.5 10.6936 14.5 10.6915 14.5 10.6893C14.5 10.6871 14.5 10.685 14.5 10.6828C14.5 10.6806 14.5 10.6785 14.5 10.6763C14.5 10.6741 14.5 10.672 14.5 10.6698C14.5 10.6676 14.5 10.6655 14.5 10.6633C14.5 10.6612 14.5 10.659 14.5 10.6568C14.5 10.6547 14.5 10.6525 14.5 10.6503C14.5 10.6482 14.5 10.646 14.5 10.6438C14.5 10.6417 14.5 10.6395 14.5 10.6373C14.5 10.6352 14.5 10.633 14.5 10.6308C14.5 10.6287 14.5 10.6265 14.5 10.6243C14.5 10.6222 14.5 10.62 14.5 10.6178C14.5 10.6157 14.5 10.6135 14.5 10.6113C14.5 10.6092 14.5 10.607 14.5 10.6049C14.5 10.6027 14.5 10.6005 14.5 10.5984C14.5 10.5962 14.5 10.594 14.5 10.5919C14.5 10.5897 14.5 10.5875 14.5 10.5854C14.5 10.5832 14.5 10.581 14.5 10.5789C14.5 10.5767 14.5 10.5745 14.5 10.5724C14.5 10.5702 14.5 10.568 14.5 10.5659C14.5 10.5637 14.5 10.5615 14.5 10.5594C14.5 10.5572 14.5 10.555 14.5 10.5529C14.5 10.5507 14.5 10.5485 14.5 10.5464C14.5 10.5442 14.5 10.542 14.5 10.5399C14.5 10.5377 14.5 10.5355 14.5 10.5334C14.5 10.5312 14.5 10.5291 14.5 10.5269C14.5 10.5247 14.5 10.5226 14.5 10.5204C14.5 10.5182 14.5 10.5161 14.5 10.5139C14.5 10.5117 14.5 10.5096 14.5 10.5074C14.5 10.5052 14.5 10.5031 14.5 10.5009C14.5 10.4987 14.5 10.4966 14.5 10.4944C14.5 10.4922 14.5 10.4901 14.5 10.4879C14.5 10.4857 14.5 10.4836 14.5 10.4814C14.5 10.4793 14.5 10.4771 14.5 10.4749C14.5 10.4728 14.5 10.4706 14.5 10.4684C14.5 10.4663 14.5 10.4641 14.5 10.4619C14.5 10.4598 14.5 10.4576 14.5 10.4554C14.5 10.4533 14.5 10.4511 14.5 10.4489C14.5 10.4468 14.5 10.4446 14.5 10.4425C14.5 10.4403 14.5 10.4381 14.5 10.436C14.5 10.4338 14.5 10.4316 14.5 10.4295C14.5 10.4273 14.5 10.4251 14.5 10.423C14.5 10.4208 14.5 10.4187 14.5 10.4165C14.5 10.4143 14.5 10.4122 14.5 10.41C14.5 10.4078 14.5 10.4057 14.5 10.4035C14.5 10.4014 14.5 10.3992 14.5 10.397C14.5 10.3949 14.5 10.3927 14.5 10.3905C14.5 10.3884 14.5 10.3862 14.5 10.3841C14.5 10.3819 14.5 10.3797 14.5 10.3776C14.5 10.3754 14.5 10.3733 14.5 10.3711C14.5 10.3689 14.5 10.3668 14.5 10.3646C14.5 10.3624 14.5 10.3603 14.5 10.3581C14.5 10.356 14.5 10.3538 14.5 10.3516C14.5 10.3495 14.5 10.3473 14.5 10.3452C14.5 10.343 14.5 10.3408 14.5 10.3387C14.5 10.3365 14.5 10.3344 14.5 10.3322C14.5 10.33 14.5 10.3279 14.5 10.3257C14.5 10.3236 14.5 10.3214 14.5 10.3193C14.5 10.3171 14.5 10.3149 14.5 10.3128C14.5 10.3106 14.5 10.3085 14.5 10.3063C14.5 10.3041 14.5 10.302 14.5 10.2998C14.5 10.2977 14.5 10.2955 14.5 10.2934C14.5 10.2912 14.5 10.289 14.5 10.2869C14.5 10.2847 14.5 10.2826 14.5 10.2804C14.5 10.2783 14.5 10.2761 14.5 10.274C14.5 10.2718 14.5 10.2696 14.5 10.2675C14.5 10.2653 14.5 10.2632 14.5 10.261C14.5 10.2589 14.5 10.2567 14.5 10.2546C14.5 10.2524 14.5 10.2503 14.5 10.2481C14.5 10.2459 14.5 10.2438 14.5 10.2416C14.5 10.2395 14.5 10.2373 14.5 10.2352C14.5 10.233 14.5 10.2309 14.5 10.2287C14.5 10.2266 14.5 10.2244 14.5 10.2223C14.5 10.2201 14.5 10.218 14.5 10.2158C14.5 10.2137 14.5 10.2115 14.5 10.2094C14.5 10.2072 14.5 10.2051 14.5 10.2029C14.5 10.2008 14.5 10.1986 14.5 10.1965C14.5 10.1943 14.5 10.1922 14.5 10.19C14.5 10.1879 14.5 10.1857 14.5 10.1836C14.5 10.1814 14.5 10.1793 14.5 10.1771C14.5 10.175 14.5 10.1728 14.5 10.1707C14.5 10.1685 14.5 10.1664 14.5 10.1642C14.5 10.1621 14.5 10.1599 14.5 10.1578C14.5 10.1556 14.5 10.1535 14.5 10.1514C14.5 10.1492 14.5 10.1471 14.5 10.1449C14.5 10.1428 14.5 10.1406 14.5 10.1385C14.5 10.1363 14.5 10.1342 14.5 10.1321C14.5 10.1299 14.5 10.1278 14.5 10.1256C14.5 10.1235 14.5 10.1213 14.5 10.1192C14.5 10.1171 14.5 10.1149 14.5 10.1128C14.5 10.1106 14.5 10.1085 14.5 10.1063C14.5 10.1042 14.5 10.1021 14.5 10.0999C14.5 10.0978 14.5 10.0956 14.5 10.0935C14.5 10.0914 14.5 10.0892 14.5 10.0871C14.5 10.0849 14.5 10.0828 14.5 10.0807C14.5 10.0785 14.5 10.0764 14.5 10.0743C14.5 10.0721 14.5 10.07 14.5 10.0678C14.5 10.0657 14.5 10.0636 14.5 10.0614C14.5 10.0593 14.5 10.0572 14.5 10.055C14.5 10.0529 14.5 10.0508 14.5 10.0486C14.5 10.0465 14.5 10.0444 14.5 10.0422C14.5 10.0401 14.5 10.038 14.5 10.0358C14.5 10.0337 14.5 10.0316 14.5 10.0294C14.5 10.0273 14.5 10.0252 14.5 10.023C14.5 10.0209 14.5 10.0188 14.5 10.0166C14.5 10.0145 14.5 10.0124 14.5 10.0102C14.5 10.0081 14.5 10.006 14.5 10.0039C14.5 10.0017 14.5 9.9996 14.5 9.99747C14.5 9.99534 14.5 9.99322 14.5 9.99109C14.5 9.98896 14.5 9.98683 14.5 9.98471C14.5 9.98258 14.5 9.98046 14.5 9.97833C14.5 9.97621 14.5 9.97408 14.5 9.97196C14.5 9.96983 14.5 9.96771 14.5 9.96558C14.5 9.96346 14.5 9.96134 14.5 9.95921C14.5 9.95709 14.5 9.95497 14.5 9.95285C14.5 9.95072 14.5 9.9486 14.5 9.94648C14.5 9.94436 14.5 9.94224 14.5 9.94012C14.5 9.938 14.5 9.93588 14.5 9.93376C14.5 9.93164 14.5 9.92952 14.5 9.92741C14.5 9.92529 14.5 9.92317 14.5 9.92105C14.5 9.91894 14.5 9.91682 14.5 9.9147C14.5 9.91259 14.5 9.91047 14.5 9.90836C14.5 9.90624 14.5 9.90413 14.5 9.90201C14.5 9.8999 14.5 9.89778 14.5 9.89567C14.5 9.89356 14.5 9.89144 14.5 9.88933C14.5 9.88722 14.5 9.88511 14.5 9.883C14.5 9.88089 14.5 9.87878 14.5 9.87667C14.5 9.87456 14.5 9.87245 14.5 9.87034C14.5 9.86823 14.5 9.86612 14.5 9.86401C14.5 9.8619 14.5 9.85979 14.5 9.85769C14.5 9.85558 14.5 9.85347 14.5 9.85137C14.5 9.84926 14.5 9.84716 14.5 9.84505C14.5 9.84295 14.5 9.84084 14.5 9.83874C14.5 9.83663 14.5 9.83453 14.5 9.83243C14.5 9.83033 14.5 9.82822 14.5 9.82612C14.5 9.82402 14.5 9.82192 14.5 9.81982C14.5 9.81772 14.5 9.81562 14.5 9.81352C14.5 9.81142 14.5 9.80932 14.5 9.80722C14.5 9.80512 14.5 9.80302 14.5 9.80093C14.5 9.79883 14.5 9.79673 14.5 9.79464C14.5 9.79254 14.5 9.79045 14.5 9.78835C14.5 9.78626 14.5 9.78416 14.5 9.78207C14.5 9.77997 14.5 9.77788 14.5 9.77579C14.5 9.7737 14.5 9.7716 14.5 9.76951C14.5 9.76742 14.5 9.76533 14.5 9.76324C14.5 9.76115 14.5 9.75906 14.5 9.75697C14.5 9.75488 14.5 9.75279 14.5 9.75071C14.5 9.74862 14.5 9.74653 14.5 9.74445C14.5 9.74236 14.5 9.74027 14.5 9.73819C14.5 9.7361 14.5 9.73402 14.5 9.73193C14.5 9.72985 14.5 9.72777 14.5 9.72568C14.5 9.7236 14.5 9.72152 14.5 9.71944C14.5 9.71735 14.5 9.71527 14.5 9.71319C14.5 9.71111 14.5 9.70903 14.5 9.70695C14.5 9.70488 14.5 9.7028 14.5 9.70072C14.5 9.69864 14.5 9.69656 14.5 9.69449C14.5 9.69241 14.5 9.69034 14.5 9.68826C14.5 9.68619 14.5 9.68411 14.5 9.68204C14.5 9.67996 14.5 9.67789 14.5 9.67582C14.5 9.67375 14.5 9.67167 14.5 9.6696C14.5 9.66753 14.5 9.66546 14.5 9.66339C14.5 9.66132 14.5 9.65925 14.5 9.65718C14.5 9.65512 14.5 9.65305 14.5 9.65098C14.5 9.64891 14.5 9.64685 14.5 9.64478C14.5 9.64272 14.5 9.64065 14.5 9.63859C14.5 9.63652 14.5 9.63446 14.5 9.6324C14.5 9.63033 14.5 9.62827 14.5 9.62621C14.5 9.62415 14.5 9.62209 14.5 9.62003C14.5 9.61797 14.5 9.61591 14.5 9.61385C14.5 9.61179 14.5 9.60973 14.5 9.60767C14.5 9.60562 14.5 9.60356 14.5 9.6015C14.5 9.59945 14.5 9.59739 14.5 9.59534C14.5 9.59328 14.5 9.59123 14.5 9.58918C14.5 9.58712 14.5 9.58507 14.5 9.58302C14.5 9.58097 14.5 9.57892 14.5 9.57687C14.5 9.57482 14.5 9.57277 14.5 9.57072C14.5 9.56867 14.5 9.56662 14.5 9.56458C14.5 9.56253 14.5 9.56048 14.5 9.55844C14.5 9.55639 14.5 9.55435 14.5 9.55231C14.5 9.55026 14.5 9.54822 14.5 9.54618C14.5 9.54413 14.5 9.54209 14.5 9.54005C14.5 9.53801 14.5 9.53597 14.5 9.53393C14.5 9.53189 14.5 9.52985 14.5 9.52781C14.5 9.52578 14.5 9.52374 14.5 9.5217C14.5 9.51967 14.5 9.51763 14.5 9.5156C14.5 9.51356 14.5 9.51153 14.5 9.50949C14.5 9.50746 14.5 9.50543 14.5 9.5034C14.5 9.50137 14.5 9.49934 14.5 9.49731C14.5 9.49528 14.5 9.49325 14.5 9.49122C14.5 9.48919 14.5 9.48716 14.5 9.48514C14.5 9.48311 14.5 9.48108 14.5 9.47906C14.5 9.47703 14.5 9.47501 14.5 9.47299C14.5 9.47096 14.5 9.46894 14.5 9.46692C14.5 9.4649 14.5 9.46288 14.5 9.46086C14.5 9.45884 14.5 9.45682 14.5 9.4548C14.5 9.45278 14.5 9.45076 14.5 9.44874C14.5 9.44673 14.5 9.44471 14.5 9.4427C14.5 9.44068 14.5 9.43867 14.5 9.43665C14.5 9.43464 14.5 9.43263 14.5 9.43062C14.5 9.42861 14.5 9.42659 14.5 9.42458C14.5 9.42257 14.5 9.42057 14.5 9.41856C14.5 9.41655 14.5 9.41454 14.5 9.41254C14.5 9.41053 14.5 9.40852 14.5 9.40652C14.5 9.40451 14.5 9.40251 14.5 9.40051C14.5 9.3985 14.5 9.3965 14.5 9.3945C14.5 9.3925 14.5 9.3905 14.5 9.3885C14.5 9.3865 14.5 9.3845 14.5 9.3825C14.5 9.38051 14.5 9.37851 14.5 9.37651C14.5 9.37452 14.5 9.37252 14.5 9.37053C14.5 9.36853 14.5 9.36654 14.5 9.36455C14.5 9.36256 14.5 9.36057 14.5 9.35857C14.5 9.35658 14.5 9.35459 14.5 9.35261C14.5 9.35062 14.5 9.34863 14.5 9.34664C14.5 9.34466 14.5 9.34267 14.5 9.34069C14.5 9.3387 14.5 9.33672 14.5 9.33473C14.5 9.33275 14.5 9.33077 14.5 9.32879C14.5 9.32681 14.5 9.32483 14.5 9.32285C14.5 9.32087 14.5 9.31889 14.5 9.31691C14.5 9.31493 14.5 9.31296 14.5 9.31098C14.5 9.30901 14.5 9.30703 14.5 9.30506C14.5 9.30308 14.5 9.30111 14.5 9.29914C14.5 9.29717 14.5 9.2952 14.5 9.29323C14.5 9.29126 14.5 9.28929 14.5 9.28732C14.5 9.28535 14.5 9.28339 14.5 9.28142C14.5 9.27945 14.5 9.27749 14.5 9.27552C14.5 9.27356 14.5 9.2716 14.5 9.26964C14.5 9.26767 14.5 9.26571 14.5 9.26375C14.5 9.26179 14.5 9.25983 14.5 9.25788C14.5 9.25592 14.5 9.25396 14.5 9.252C14.5 9.25005 14.5 9.24809 14.5 9.24614C14.5 9.24419 14.5 9.24223 14.5 9.24028C14.5 9.23833 14.5 9.23638 14.5 9.23443C14.5 9.23248 14.5 9.23053 14.5 9.22858C14.5 9.22663 14.5 9.22468 14.5 9.22274C14.5 9.22079 14.5 9.21885 14.5 9.2169C14.5 9.21496 14.5 9.21302 14.5 9.21107C14.5 9.20913 14.5 9.20719 14.5 9.20525C14.5 9.20331 14.5 9.20137 14.5 9.19944C14.5 9.1975 14.5 9.19556 14.5 9.19363C14.5 9.19169 14.5 9.18976 14.5 9.18782C14.5 9.18589 14.5 9.18396 14.5 9.18202C14.5 9.18009 14.5 9.17816 14.5 9.17623C14.5 9.1743 14.5 9.17238 14.5 9.17045C14.5 9.16852 14.5 9.1666 14.5 9.16467C14.5 9.16275 14.5 9.16082 14.5 9.1589C14.5 9.15698 14.5 9.15505 14.5 9.15313C14.5 9.15121 14.5 9.14929 14.5 9.14737C14.5 9.14545 14.5 9.14354 14.5 9.14162C14.5 9.1397 14.5 9.13779 14.5 9.13587C14.5 9.13396 14.5 9.13205 14.5 9.13014C14.5 9.12822 14.5 9.12631 14.5 9.1244C14.5 9.12249 14.5 9.12058 14.5 9.11868C14.5 9.11677 14.5 9.11486 14.5 9.11296C14.5 9.11105 14.5 9.10915 14.5 9.10724C14.5 9.10534 14.5 9.10344 14.5 9.10154C14.5 9.09964 14.5 9.09774 14.5 9.09584C14.5 9.09394 14.5 9.09204 14.5 9.09014C14.5 9.08825 14.5 9.08635 14.5 9.08446C14.5 9.08256 14.5 9.08067 14.5 9.07878C14.5 9.07689 14.5 9.075 14.5 9.07311C14.5 9.07122 14.5 9.06933 14.5 9.06744C14.5 9.06555 14.5 9.06367 14.5 9.06178C14.5 9.0599 14.5 9.05801 14.5 9.05613C14.5 9.05425 14.5 9.05237 14.5 9.05049C14.5 9.04861 14.5 9.04673 14.5 9.04485C14.5 9.04297 14.5 9.04109 14.5 9.03922C14.5 9.03734 14.5 9.03547 14.5 9.03359C14.5 9.03172 14.5 9.02985 14.5 9.02798C14.5 9.02611 14.5 9.02424 14.5 9.02237C14.5 9.0205 14.5 9.01863 14.5 9.01676C14.5 9.0149 14.5 9.01303 14.5 9.01117C14.5 9.00931 14.5 9.00744 14.5 9.00558C14.5 9.00372 14.5 9.00186 14.5 9H12.5C12.5 9.00186 12.5 9.00372 12.5 9.00558C12.5 9.00744 12.5 9.00931 12.5 9.01117C12.5 9.01303 12.5 9.0149 12.5 9.01676C12.5 9.01863 12.5 9.0205 12.5 9.02237C12.5 9.02424 12.5 9.02611 12.5 9.02798C12.5 9.02985 12.5 9.03172 12.5 9.03359C12.5 9.03547 12.5 9.03734 12.5 9.03922C12.5 9.04109 12.5 9.04297 12.5 9.04485C12.5 9.04673 12.5 9.04861 12.5 9.05049C12.5 9.05237 12.5 9.05425 12.5 9.05613C12.5 9.05801 12.5 9.0599 12.5 9.06178C12.5 9.06367 12.5 9.06555 12.5 9.06744C12.5 9.06933 12.5 9.07122 12.5 9.07311C12.5 9.075 12.5 9.07689 12.5 9.07878C12.5 9.08067 12.5 9.08256 12.5 9.08446C12.5 9.08635 12.5 9.08825 12.5 9.09014C12.5 9.09204 12.5 9.09394 12.5 9.09584C12.5 9.09774 12.5 9.09964 12.5 9.10154C12.5 9.10344 12.5 9.10534 12.5 9.10724C12.5 9.10915 12.5 9.11105 12.5 9.11296C12.5 9.11486 12.5 9.11677 12.5 9.11868C12.5 9.12058 12.5 9.12249 12.5 9.1244C12.5 9.12631 12.5 9.12822 12.5 9.13014C12.5 9.13205 12.5 9.13396 12.5 9.13587C12.5 9.13779 12.5 9.1397 12.5 9.14162C12.5 9.14354 12.5 9.14545 12.5 9.14737C12.5 9.14929 12.5 9.15121 12.5 9.15313C12.5 9.15505 12.5 9.15698 12.5 9.1589C12.5 9.16082 12.5 9.16275 12.5 9.16467C12.5 9.1666 12.5 9.16852 12.5 9.17045C12.5 9.17238 12.5 9.1743 12.5 9.17623C12.5 9.17816 12.5 9.18009 12.5 9.18202C12.5 9.18396 12.5 9.18589 12.5 9.18782C12.5 9.18976 12.5 9.19169 12.5 9.19363C12.5 9.19556 12.5 9.1975 12.5 9.19944C12.5 9.20137 12.5 9.20331 12.5 9.20525C12.5 9.20719 12.5 9.20913 12.5 9.21107C12.5 9.21302 12.5 9.21496 12.5 9.2169C12.5 9.21885 12.5 9.22079 12.5 9.22274C12.5 9.22468 12.5 9.22663 12.5 9.22858C12.5 9.23053 12.5 9.23248 12.5 9.23443C12.5 9.23638 12.5 9.23833 12.5 9.24028C12.5 9.24223 12.5 9.24419 12.5 9.24614C12.5 9.24809 12.5 9.25005 12.5 9.252C12.5 9.25396 12.5 9.25592 12.5 9.25788C12.5 9.25983 12.5 9.26179 12.5 9.26375C12.5 9.26571 12.5 9.26767 12.5 9.26964C12.5 9.2716 12.5 9.27356 12.5 9.27552C12.5 9.27749 12.5 9.27945 12.5 9.28142C12.5 9.28339 12.5 9.28535 12.5 9.28732C12.5 9.28929 12.5 9.29126 12.5 9.29323C12.5 9.2952 12.5 9.29717 12.5 9.29914C12.5 9.30111 12.5 9.30308 12.5 9.30506C12.5 9.30703 12.5 9.30901 12.5 9.31098C12.5 9.31296 12.5 9.31493 12.5 9.31691C12.5 9.31889 12.5 9.32087 12.5 9.32285C12.5 9.32483 12.5 9.32681 12.5 9.32879C12.5 9.33077 12.5 9.33275 12.5 9.33473C12.5 9.33672 12.5 9.3387 12.5 9.34069C12.5 9.34267 12.5 9.34466 12.5 9.34664C12.5 9.34863 12.5 9.35062 12.5 9.35261C12.5 9.35459 12.5 9.35658 12.5 9.35857C12.5 9.36057 12.5 9.36256 12.5 9.36455C12.5 9.36654 12.5 9.36853 12.5 9.37053C12.5 9.37252 12.5 9.37452 12.5 9.37651C12.5 9.37851 12.5 9.38051 12.5 9.3825C12.5 9.3845 12.5 9.3865 12.5 9.3885C12.5 9.3905 12.5 9.3925 12.5 9.3945C12.5 9.3965 12.5 9.3985 12.5 9.40051C12.5 9.40251 12.5 9.40451 12.5 9.40652C12.5 9.40852 12.5 9.41053 12.5 9.41254C12.5 9.41454 12.5 9.41655 12.5 9.41856C12.5 9.42057 12.5 9.42257 12.5 9.42458C12.5 9.42659 12.5 9.42861 12.5 9.43062C12.5 9.43263 12.5 9.43464 12.5 9.43665C12.5 9.43867 12.5 9.44068 12.5 9.4427C12.5 9.44471 12.5 9.44673 12.5 9.44874C12.5 9.45076 12.5 9.45278 12.5 9.4548C12.5 9.45682 12.5 9.45884 12.5 9.46086C12.5 9.46288 12.5 9.4649 12.5 9.46692C12.5 9.46894 12.5 9.47096 12.5 9.47299C12.5 9.47501 12.5 9.47703 12.5 9.47906C12.5 9.48108 12.5 9.48311 12.5 9.48514C12.5 9.48716 12.5 9.48919 12.5 9.49122C12.5 9.49325 12.5 9.49528 12.5 9.49731C12.5 9.49934 12.5 9.50137 12.5 9.5034C12.5 9.50543 12.5 9.50746 12.5 9.50949C12.5 9.51153 12.5 9.51356 12.5 9.5156C12.5 9.51763 12.5 9.51967 12.5 9.5217C12.5 9.52374 12.5 9.52578 12.5 9.52781C12.5 9.52985 12.5 9.53189 12.5 9.53393C12.5 9.53597 12.5 9.53801 12.5 9.54005C12.5 9.54209 12.5 9.54413 12.5 9.54618C12.5 9.54822 12.5 9.55026 12.5 9.55231C12.5 9.55435 12.5 9.55639 12.5 9.55844C12.5 9.56048 12.5 9.56253 12.5 9.56458C12.5 9.56662 12.5 9.56867 12.5 9.57072C12.5 9.57277 12.5 9.57482 12.5 9.57687C12.5 9.57892 12.5 9.58097 12.5 9.58302C12.5 9.58507 12.5 9.58712 12.5 9.58918C12.5 9.59123 12.5 9.59328 12.5 9.59534C12.5 9.59739 12.5 9.59945 12.5 9.6015C12.5 9.60356 12.5 9.60562 12.5 9.60767C12.5 9.60973 12.5 9.61179 12.5 9.61385C12.5 9.61591 12.5 9.61797 12.5 9.62003C12.5 9.62209 12.5 9.62415 12.5 9.62621C12.5 9.62827 12.5 9.63033 12.5 9.6324C12.5 9.63446 12.5 9.63652 12.5 9.63859C12.5 9.64065 12.5 9.64272 12.5 9.64478C12.5 9.64685 12.5 9.64891 12.5 9.65098C12.5 9.65305 12.5 9.65512 12.5 9.65718C12.5 9.65925 12.5 9.66132 12.5 9.66339C12.5 9.66546 12.5 9.66753 12.5 9.6696C12.5 9.67167 12.5 9.67375 12.5 9.67582C12.5 9.67789 12.5 9.67996 12.5 9.68204C12.5 9.68411 12.5 9.68619 12.5 9.68826C12.5 9.69034 12.5 9.69241 12.5 9.69449C12.5 9.69656 12.5 9.69864 12.5 9.70072C12.5 9.7028 12.5 9.70488 12.5 9.70695C12.5 9.70903 12.5 9.71111 12.5 9.71319C12.5 9.71527 12.5 9.71735 12.5 9.71944C12.5 9.72152 12.5 9.7236 12.5 9.72568C12.5 9.72777 12.5 9.72985 12.5 9.73193C12.5 9.73402 12.5 9.7361 12.5 9.73819C12.5 9.74027 12.5 9.74236 12.5 9.74445C12.5 9.74653 12.5 9.74862 12.5 9.75071C12.5 9.75279 12.5 9.75488 12.5 9.75697C12.5 9.75906 12.5 9.76115 12.5 9.76324C12.5 9.76533 12.5 9.76742 12.5 9.76951C12.5 9.7716 12.5 9.7737 12.5 9.77579C12.5 9.77788 12.5 9.77997 12.5 9.78207C12.5 9.78416 12.5 9.78626 12.5 9.78835C12.5 9.79045 12.5 9.79254 12.5 9.79464C12.5 9.79673 12.5 9.79883 12.5 9.80093C12.5 9.80302 12.5 9.80512 12.5 9.80722C12.5 9.80932 12.5 9.81142 12.5 9.81352C12.5 9.81562 12.5 9.81772 12.5 9.81982C12.5 9.82192 12.5 9.82402 12.5 9.82612C12.5 9.82822 12.5 9.83033 12.5 9.83243C12.5 9.83453 12.5 9.83663 12.5 9.83874C12.5 9.84084 12.5 9.84295 12.5 9.84505C12.5 9.84716 12.5 9.84926 12.5 9.85137C12.5 9.85347 12.5 9.85558 12.5 9.85769C12.5 9.85979 12.5 9.8619 12.5 9.86401C12.5 9.86612 12.5 9.86823 12.5 9.87034C12.5 9.87245 12.5 9.87456 12.5 9.87667C12.5 9.87878 12.5 9.88089 12.5 9.883C12.5 9.88511 12.5 9.88722 12.5 9.88933C12.5 9.89144 12.5 9.89356 12.5 9.89567C12.5 9.89778 12.5 9.8999 12.5 9.90201C12.5 9.90413 12.5 9.90624 12.5 9.90836C12.5 9.91047 12.5 9.91259 12.5 9.9147C12.5 9.91682 12.5 9.91894 12.5 9.92105C12.5 9.92317 12.5 9.92529 12.5 9.92741C12.5 9.92952 12.5 9.93164 12.5 9.93376C12.5 9.93588 12.5 9.938 12.5 9.94012C12.5 9.94224 12.5 9.94436 12.5 9.94648C12.5 9.9486 12.5 9.95072 12.5 9.95285C12.5 9.95497 12.5 9.95709 12.5 9.95921C12.5 9.96134 12.5 9.96346 12.5 9.96558C12.5 9.96771 12.5 9.96983 12.5 9.97196C12.5 9.97408 12.5 9.97621 12.5 9.97833C12.5 9.98046 12.5 9.98258 12.5 9.98471C12.5 9.98683 12.5 9.98896 12.5 9.99109C12.5 9.99322 12.5 9.99534 12.5 9.99747C12.5 9.9996 12.5 10.0017 12.5 10.0039C12.5 10.006 12.5 10.0081 12.5 10.0102C12.5 10.0124 12.5 10.0145 12.5 10.0166C12.5 10.0188 12.5 10.0209 12.5 10.023C12.5 10.0252 12.5 10.0273 12.5 10.0294C12.5 10.0316 12.5 10.0337 12.5 10.0358C12.5 10.038 12.5 10.0401 12.5 10.0422C12.5 10.0444 12.5 10.0465 12.5 10.0486C12.5 10.0508 12.5 10.0529 12.5 10.055C12.5 10.0572 12.5 10.0593 12.5 10.0614C12.5 10.0636 12.5 10.0657 12.5 10.0678C12.5 10.07 12.5 10.0721 12.5 10.0743C12.5 10.0764 12.5 10.0785 12.5 10.0807C12.5 10.0828 12.5 10.0849 12.5 10.0871C12.5 10.0892 12.5 10.0914 12.5 10.0935C12.5 10.0956 12.5 10.0978 12.5 10.0999C12.5 10.1021 12.5 10.1042 12.5 10.1063C12.5 10.1085 12.5 10.1106 12.5 10.1128C12.5 10.1149 12.5 10.1171 12.5 10.1192C12.5 10.1213 12.5 10.1235 12.5 10.1256C12.5 10.1278 12.5 10.1299 12.5 10.1321C12.5 10.1342 12.5 10.1363 12.5 10.1385C12.5 10.1406 12.5 10.1428 12.5 10.1449C12.5 10.1471 12.5 10.1492 12.5 10.1514C12.5 10.1535 12.5 10.1556 12.5 10.1578C12.5 10.1599 12.5 10.1621 12.5 10.1642C12.5 10.1664 12.5 10.1685 12.5 10.1707C12.5 10.1728 12.5 10.175 12.5 10.1771C12.5 10.1793 12.5 10.1814 12.5 10.1836C12.5 10.1857 12.5 10.1879 12.5 10.19C12.5 10.1922 12.5 10.1943 12.5 10.1965C12.5 10.1986 12.5 10.2008 12.5 10.2029C12.5 10.2051 12.5 10.2072 12.5 10.2094C12.5 10.2115 12.5 10.2137 12.5 10.2158C12.5 10.218 12.5 10.2201 12.5 10.2223C12.5 10.2244 12.5 10.2266 12.5 10.2287C12.5 10.2309 12.5 10.233 12.5 10.2352C12.5 10.2373 12.5 10.2395 12.5 10.2416C12.5 10.2438 12.5 10.2459 12.5 10.2481C12.5 10.2503 12.5 10.2524 12.5 10.2546C12.5 10.2567 12.5 10.2589 12.5 10.261C12.5 10.2632 12.5 10.2653 12.5 10.2675C12.5 10.2696 12.5 10.2718 12.5 10.274C12.5 10.2761 12.5 10.2783 12.5 10.2804C12.5 10.2826 12.5 10.2847 12.5 10.2869C12.5 10.289 12.5 10.2912 12.5 10.2934C12.5 10.2955 12.5 10.2977 12.5 10.2998C12.5 10.302 12.5 10.3041 12.5 10.3063C12.5 10.3085 12.5 10.3106 12.5 10.3128C12.5 10.3149 12.5 10.3171 12.5 10.3193C12.5 10.3214 12.5 10.3236 12.5 10.3257C12.5 10.3279 12.5 10.33 12.5 10.3322C12.5 10.3344 12.5 10.3365 12.5 10.3387C12.5 10.3408 12.5 10.343 12.5 10.3452C12.5 10.3473 12.5 10.3495 12.5 10.3516C12.5 10.3538 12.5 10.356 12.5 10.3581C12.5 10.3603 12.5 10.3624 12.5 10.3646C12.5 10.3668 12.5 10.3689 12.5 10.3711C12.5 10.3733 12.5 10.3754 12.5 10.3776C12.5 10.3797 12.5 10.3819 12.5 10.3841C12.5 10.3862 12.5 10.3884 12.5 10.3905C12.5 10.3927 12.5 10.3949 12.5 10.397C12.5 10.3992 12.5 10.4014 12.5 10.4035C12.5 10.4057 12.5 10.4078 12.5 10.41C12.5 10.4122 12.5 10.4143 12.5 10.4165C12.5 10.4187 12.5 10.4208 12.5 10.423C12.5 10.4251 12.5 10.4273 12.5 10.4295C12.5 10.4316 12.5 10.4338 12.5 10.436C12.5 10.4381 12.5 10.4403 12.5 10.4425C12.5 10.4446 12.5 10.4468 12.5 10.4489C12.5 10.4511 12.5 10.4533 12.5 10.4554C12.5 10.4576 12.5 10.4598 12.5 10.4619C12.5 10.4641 12.5 10.4663 12.5 10.4684C12.5 10.4706 12.5 10.4728 12.5 10.4749C12.5 10.4771 12.5 10.4793 12.5 10.4814C12.5 10.4836 12.5 10.4857 12.5 10.4879C12.5 10.4901 12.5 10.4922 12.5 10.4944C12.5 10.4966 12.5 10.4987 12.5 10.5009C12.5 10.5031 12.5 10.5052 12.5 10.5074C12.5 10.5096 12.5 10.5117 12.5 10.5139C12.5 10.5161 12.5 10.5182 12.5 10.5204C12.5 10.5226 12.5 10.5247 12.5 10.5269C12.5 10.5291 12.5 10.5312 12.5 10.5334C12.5 10.5355 12.5 10.5377 12.5 10.5399C12.5 10.542 12.5 10.5442 12.5 10.5464C12.5 10.5485 12.5 10.5507 12.5 10.5529C12.5 10.555 12.5 10.5572 12.5 10.5594C12.5 10.5615 12.5 10.5637 12.5 10.5659C12.5 10.568 12.5 10.5702 12.5 10.5724C12.5 10.5745 12.5 10.5767 12.5 10.5789C12.5 10.581 12.5 10.5832 12.5 10.5854C12.5 10.5875 12.5 10.5897 12.5 10.5919C12.5 10.594 12.5 10.5962 12.5 10.5984C12.5 10.6005 12.5 10.6027 12.5 10.6049C12.5 10.607 12.5 10.6092 12.5 10.6113C12.5 10.6135 12.5 10.6157 12.5 10.6178C12.5 10.62 12.5 10.6222 12.5 10.6243C12.5 10.6265 12.5 10.6287 12.5 10.6308C12.5 10.633 12.5 10.6352 12.5 10.6373C12.5 10.6395 12.5 10.6417 12.5 10.6438C12.5 10.646 12.5 10.6482 12.5 10.6503C12.5 10.6525 12.5 10.6547 12.5 10.6568C12.5 10.659 12.5 10.6612 12.5 10.6633C12.5 10.6655 12.5 10.6676 12.5 10.6698C12.5 10.672 12.5 10.6741 12.5 10.6763C12.5 10.6785 12.5 10.6806 12.5 10.6828C12.5 10.685 12.5 10.6871 12.5 10.6893C12.5 10.6915 12.5 10.6936 12.5 10.6958C12.5 10.6979 12.5 10.7001 12.5 10.7023C12.5 10.7044 12.5 10.7066 12.5 10.7088C12.5 10.7109 12.5 10.7131 12.5 10.7153C12.5 10.7174 12.5 10.7196 12.5 10.7217C12.5 10.7239 12.5 10.7261 12.5 10.7282C12.5 10.7304 12.5 10.7326 12.5 10.7347C12.5 10.7369 12.5 10.7391 12.5 10.7412C12.5 10.7434 12.5 10.7455 12.5 10.7477C12.5 10.7499 12.5 10.752 12.5 10.7542C12.5 10.7564 12.5 10.7585 12.5 10.7607C12.5 10.7628 12.5 10.765 12.5 10.7672C12.5 10.7693 12.5 10.7715 12.5 10.7736C12.5 10.7758 12.5 10.778 12.5 10.7801C12.5 10.7823 12.5 10.7845 12.5 10.7866C12.5 10.7888 12.5 10.7909 12.5 10.7931C12.5 10.7953 12.5 10.7974 12.5 10.7996C12.5 10.8017 12.5 10.8039 12.5 10.8061C12.5 10.8082 12.5 10.8104 12.5 10.8125C12.5 10.8147 12.5 10.8169 12.5 10.819C12.5 10.8212 12.5 10.8233 12.5 10.8255C12.5 10.8276 12.5 10.8298 12.5 10.832C12.5 10.8341 12.5 10.8363 12.5 10.8384C12.5 10.8406 12.5 10.8428 12.5 10.8449C12.5 10.8471 12.5 10.8492 12.5 10.8514C12.5 10.8535 12.5 10.8557 12.5 10.8579C12.5 10.86 12.5 10.8622 12.5 10.8643C12.5 10.8665 12.5 10.8686 12.5 10.8708C12.5 10.8729 12.5 10.8751 12.5 10.8773C12.5 10.8794 12.5 10.8816 12.5 10.8837C12.5 10.8859 12.5 10.888 12.5 10.8902C12.5 10.8923 12.5 10.8945 12.5 10.8966C12.5 10.8988 12.5 10.901 12.5 10.9031C12.5 10.9053 12.5 10.9074 12.5 10.9096C12.5 10.9117 12.5 10.9139 12.5 10.916C12.5 10.9182 12.5 10.9203 12.5 10.9225C12.5 10.9246 12.5 10.9268 12.5 10.9289C12.5 10.9311 12.5 10.9332 12.5 10.9354C12.5 10.9375 12.5 10.9397 12.5 10.9418C12.5 10.944 12.5 10.9461 12.5 10.9483C12.5 10.9504 12.5 10.9526 12.5 10.9547C12.5 10.9569 12.5 10.959 12.5 10.9612C12.5 10.9633 12.5 10.9655 12.5 10.9676C12.5 10.9698 12.5 10.9719 12.5 10.9741C12.5 10.9762 12.5 10.9784 12.5 10.9805C12.5 10.9827 12.5 10.9848 12.5 10.987C12.5 10.9891 12.5 10.9913 12.5 10.9934C12.5 10.9955 12.5 10.9977 12.5 10.9998C12.5 11.002 12.5 11.0041 12.5 11.0063C12.5 11.0084 12.5 11.0106 12.5 11.0127C12.5 11.0149 12.5 11.017 12.5 11.0191C12.5 11.0213 12.5 11.0234 12.5 11.0256C12.5 11.0277 12.5 11.0299 12.5 11.032C12.5 11.0341 12.5 11.0363 12.5 11.0384C12.5 11.0406 12.5 11.0427 12.5 11.0448C12.5 11.047 12.5 11.0491 12.5 11.0513C12.5 11.0534 12.5 11.0555 12.5 11.0577C12.5 11.0598 12.5 11.062 12.5 11.0641C12.5 11.0662 12.5 11.0684 12.5 11.0705C12.5 11.0727 12.5 11.0748 12.5 11.0769C12.5 11.0791 12.5 11.0812 12.5 11.0833C12.5 11.0855 12.5 11.0876 12.5 11.0897C12.5 11.0919 12.5 11.094 12.5 11.0961C12.5 11.0983 12.5 11.1004 12.5 11.1026C12.5 11.1047 12.5 11.1068 12.5 11.109C12.5 11.1111 12.5 11.1132 12.5 11.1154C12.5 11.1175 12.5 11.1196 12.5 11.1217C12.5 11.1239 12.5 11.126 12.5 11.1281C12.5 11.1303 12.5 11.1324 12.5 11.1345C12.5 11.1367 12.5 11.1388 12.5 11.1409C12.5 11.1431 12.5 11.1452 12.5 11.1473C12.5 11.1494 12.5 11.1516 12.5 11.1537C12.5 11.1558 12.5 11.1579 12.5 11.1601C12.5 11.1622 12.5 11.1643 12.5 11.1665C12.5 11.1686 12.5 11.1707 12.5 11.1728C12.5 11.175 12.5 11.1771 12.5 11.1792C12.5 11.1813 12.5 11.1835 12.5 11.1856C12.5 11.1877 12.5 11.1898 12.5 11.1919C12.5 11.1941 12.5 11.1962 12.5 11.1983C12.5 11.2004 12.5 11.2025 12.5 11.2047C12.5 11.2068 12.5 11.2089 12.5 11.211C12.5 11.2131 12.5 11.2153 12.5 11.2174C12.5 11.2195 12.5 11.2216 12.5 11.2237C12.5 11.2259 12.5 11.228 12.5 11.2301C12.5 11.2322 12.5 11.2343 12.5 11.2364C12.5 11.2386 12.5 11.2407 12.5 11.2428C12.5 11.2449 12.5 11.247 12.5 11.2491C12.5 11.2512 12.5 11.2534 12.5 11.2555C12.5 11.2576 12.5 11.2597 12.5 11.2618C12.5 11.2639 12.5 11.266 12.5 11.2681C12.5 11.2702 12.5 11.2724 12.5 11.2745C12.5 11.2766 12.5 11.2787 12.5 11.2808C12.5 11.2829 12.5 11.285 12.5 11.2871C12.5 11.2892 12.5 11.2913 12.5 11.2934C12.5 11.2955 12.5 11.2977 12.5 11.2998C12.5 11.3019 12.5 11.304 12.5 11.3061C12.5 11.3082 12.5 11.3103 12.5 11.3124C12.5 11.3145 12.5 11.3166 12.5 11.3187C12.5 11.3208 12.5 11.3229 12.5 11.325C12.5 11.3271 12.5 11.3292 12.5 11.3313C12.5 11.3334 12.5 11.3355 12.5 11.3376C12.5 11.3397 12.5 11.3418 12.5 11.3439C12.5 11.346 12.5 11.3481 12.5 11.3502C12.5 11.3523 12.5 11.3544 12.5 11.3565C12.5 11.3586 12.5 11.3607 12.5 11.3628C12.5 11.3649 12.5 11.3669 12.5 11.369C12.5 11.3711 12.5 11.3732 12.5 11.3753C12.5 11.3774 12.5 11.3795 12.5 11.3816C12.5 11.3837 12.5 11.3858 12.5 11.3879C12.5 11.3899 12.5 11.392 12.5 11.3941C12.5 11.3962 12.5 11.3983 12.5 11.4004C12.5 11.4025 12.5 11.4046 12.5 11.4066C12.5 11.4087 12.5 11.4108 12.5 11.4129C12.5 11.415 12.5 11.4171 12.5 11.4192C12.5 11.4212 12.5 11.4233 12.5 11.4254C12.5 11.4275 12.5 11.4296 12.5 11.4316C12.5 11.4337 12.5 11.4358 12.5 11.4379C12.5 11.44 12.5 11.442 12.5 11.4441C12.5 11.4462 12.5 11.4483 12.5 11.4504C12.5 11.4524 12.5 11.4545 12.5 11.4566C12.5 11.4587 12.5 11.4607 12.5 11.4628C12.5 11.4649 12.5 11.467 12.5 11.469C12.5 11.4711 12.5 11.4732 12.5 11.4753C12.5 11.4773 12.5 11.4794 12.5 11.4815C12.5 11.4835 12.5 11.4856 12.5 11.4877C12.5 11.4897 12.5 11.4918 12.5 11.4939C12.5 11.4959 12.5 11.498 12.5 11.5001C12.5 11.5021 12.5 11.5042 12.5 11.5063C12.5 11.5083 12.5 11.5104 12.5 11.5125C12.5 11.5145 12.5 11.5166 12.5 11.5187C12.5 11.5207 12.5 11.5228 12.5 11.5248C12.5 11.5269 12.5 11.529 12.5 11.531C12.5 11.5331 12.5 11.5351 12.5 11.5372C12.5 11.5393 12.5 11.5413 12.5 11.5434C12.5 11.5454 12.5 11.5475 12.5 11.5495C12.5 11.5516 12.5 11.5536 12.5 11.5557C12.5 11.5578 12.5 11.5598 12.5 11.5619C12.5 11.5639 12.5 11.566 12.5 11.568C12.5 11.5701 12.5 11.5721 12.5 11.5742C12.5 11.5762 12.5 11.5783 12.5 11.5803C12.5 11.5824 12.5 11.5844 12.5 11.5864C12.5 11.5885 12.5 11.5905 12.5 11.5926C12.5 11.5946 12.5 11.5967 12.5 11.5987C12.5 11.6008 12.5 11.6028 12.5 11.6048C12.5 11.6069 12.5 11.6089 12.5 11.611C12.5 11.613 12.5 11.615 12.5 11.6171C12.5 11.6191 12.5 11.6212 12.5 11.6232C12.5 11.6252 12.5 11.6273 12.5 11.6293C12.5 11.6313 12.5 11.6334 12.5 11.6354C12.5 11.6374 12.5 11.6395 12.5 11.6415C12.5 11.6435 12.5 11.6456 12.5 11.6476C12.5 11.6496 12.5 11.6517 12.5 11.6537C12.5 11.6557 12.5 11.6577 12.5 11.6598C12.5 11.6618 12.5 11.6638 12.5 11.6659C12.5 11.6679 12.5 11.6699 12.5 11.6719C12.5 11.674 12.5 11.676 12.5 11.678C12.5 11.68 12.5 11.682 12.5 11.6841C12.5 11.6861 12.5 11.6881 12.5 11.6901C12.5 11.6921 12.5 11.6942 12.5 11.6962C12.5 11.6982 12.5 11.7002 12.5 11.7022C12.5 11.7042 12.5 11.7063 12.5 11.7083C12.5 11.7103 12.5 11.7123 12.5 11.7143C12.5 11.7163 12.5 11.7183 12.5 11.7203C12.5 11.7224 12.5 11.7244 12.5 11.7264C12.5 11.7284 12.5 11.7304 12.5 11.7324C12.5 11.7344 12.5 11.7364 12.5 11.7384C12.5 11.7404 12.5 11.7424 12.5 11.7444C12.5 11.7464 12.5 11.7484 12.5 11.7504C12.5 11.7524 12.5 11.7544 12.5 11.7564C12.5 11.7584 12.5 11.7604 12.5 11.7624C12.5 11.7644 12.5 11.7664 12.5 11.7684C12.5 11.7704 12.5 11.7724 12.5 11.7744C12.5 11.7764 12.5 11.7784 12.5 11.7804C12.5 11.7824 12.5 11.7844 12.5 11.7864C12.5 11.7884 12.5 11.7904 12.5 11.7924C12.5 11.7943 12.5 11.7963 12.5 11.7983C12.5 11.8003 12.5 11.8023 12.5 11.8043C12.5 11.8063 12.5 11.8082 12.5 11.8102C12.5 11.8122 12.5 11.8142 12.5 11.8162C12.5 11.8182 12.5 11.8201 12.5 11.8221C12.5 11.8241 12.5 11.8261 12.5 11.8281C12.5 11.83 12.5 11.832 12.5 11.834C12.5 11.836 12.5 11.8379 12.5 11.8399C12.5 11.8419 12.5 11.8439 12.5 11.8458C12.5 11.8478 12.5 11.8498 12.5 11.8518C12.5 11.8537 12.5 11.8557 12.5 11.8577C12.5 11.8596 12.5 11.8616 12.5 11.8636C12.5 11.8655 12.5 11.8675 12.5 11.8695C12.5 11.8714 12.5 11.8734 12.5 11.8754C12.5 11.8773 12.5 11.8793 12.5 11.8812C12.5 11.8832 12.5 11.8852 12.5 11.8871C12.5 11.8891 12.5 11.891 12.5 11.893C12.5 11.895 12.5 11.8969 12.5 11.8989C12.5 11.9008 12.5 11.9028 12.5 11.9047C12.5 11.9067 12.5 11.9086 12.5 11.9106C12.5 11.9125 12.5 11.9145 12.5 11.9164C12.5 11.9184 12.5 11.9203 12.5 11.9223C12.5 11.9242 12.5 11.9262 12.5 11.9281C12.5 11.9301 12.5 11.932 12.5 11.9339C12.5 11.9359 12.5 11.9378 12.5 11.9398C12.5 11.9417 12.5 11.9436 12.5 11.9456C12.5 11.9475 12.5 11.9495 12.5 11.9514C12.5 11.9533 12.5 11.9553 12.5 11.9572C12.5 11.9591 12.5 11.9611 12.5 11.963C12.5 11.9649 12.5 11.9669 12.5 11.9688C12.5 11.9707 12.5 11.9727 12.5 11.9746C12.5 11.9765 12.5 11.9784 12.5 11.9804C12.5 11.9823 12.5 11.9842 12.5 11.9861C12.5 11.9881 12.5 11.99 12.5 11.9919C12.5 11.9938 12.5 11.9958 12.5 11.9977C12.5 11.9996 12.5 12.0015 12.5 12.0034C12.5 12.0053 12.5 12.0073 12.5 12.0092C12.5 12.0111 12.5 12.013 12.5 12.0149C12.5 12.0168 12.5 12.0187 12.5 12.0207C12.5 12.0226 12.5 12.0245 12.5 12.0264C12.5 12.0283 12.5 12.0302 12.5 12.0321C12.5 12.034 12.5 12.0359 12.5 12.0378C12.5 12.0397 12.5 12.0416 12.5 12.0435C12.5 12.0454 12.5 12.0473 12.5 12.0492C12.5 12.0511 12.5 12.053 12.5 12.0549C12.5 12.0568 12.5 12.0587 12.5 12.0606C12.5 12.0625 12.5 12.0644 12.5 12.0663C12.5 12.0682 12.5 12.0701 12.5 12.072C12.5 12.0739 12.5 12.0758 12.5 12.0776C12.5 12.0795 12.5 12.0814 12.5 12.0833C12.5 12.0852 12.5 12.0871 12.5 12.089C12.5 12.0908 12.5 12.0927 12.5 12.0946C12.5 12.0965 12.5 12.0984 12.5 12.1003C12.5 12.1021 12.5 12.104 12.5 12.1059C12.5 12.1078 12.5 12.1096 12.5 12.1115C12.5 12.1134 12.5 12.1153 12.5 12.1171C12.5 12.119 12.5 12.1209 12.5 12.1227C12.5 12.1246 12.5 12.1265 12.5 12.1284C12.5 12.1302 12.5 12.1321 12.5 12.134C12.5 12.1358 12.5 12.1377 12.5 12.1395C12.5 12.1414 12.5 12.1433 12.5 12.1451C12.5 12.147 12.5 12.1488 12.5 12.1507C12.5 12.1526 12.5 12.1544 12.5 12.1563C12.5 12.1581 12.5 12.16 12.5 12.1618C12.5 12.1637 12.5 12.1655 12.5 12.1674H14.5ZM12.1667 14.5C13.4546 14.5 14.5 13.4568 14.5 12.1674H12.5C12.5 12.3508 12.3515 12.5 12.1667 12.5V14.5ZM1.5 12.1667C1.5 13.4553 2.54467 14.5 3.83333 14.5V12.5C3.64924 12.5 3.5 12.3508 3.5 12.1667H1.5Z" fill="black" mask="url(#path-3-inside-1_1858_8677)"/>
</svg>
