<svg width="24" height="24" viewBox="0 0 24 24" fill="none" xmlns="http://www.w3.org/2000/svg">
<path d="M21.0669 5.68724C21.2964 6.08923 21.4699 6.52225 21.5823 6.97365C21.7004 7.4402 21.7566 7.92099 21.7494 8.40299C21.755 9.32198 21.5193 10.2255 21.0669 11.0187C20.8441 11.4332 20.5613 11.8148 20.2313 12.1479L12 21L3.76873 12.1479C3.43839 11.8114 3.15273 11.4318 2.91914 11.0187C2.70285 10.6168 2.5345 10.1897 2.41774 9.74656C2.30632 9.30776 2.25061 8.85609 2.25061 8.40299C2.24344 7.921 2.29966 7.44021 2.41774 6.97365C2.63971 6.05489 3.10767 5.21818 3.76873 4.55806C4.25206 4.0637 4.82442 3.67049 5.45398 3.4003C6.72118 2.86657 8.14224 2.86657 9.40944 3.4003C10.0045 3.65878 10.5512 4.02152 11.0251 4.4723L11.0947 4.55806L12 5.48713L12.9053 4.55806L12.9749 4.4723C13.4488 4.02152 13.9955 3.65878 14.5905 3.4003C15.8577 2.86657 17.2788 2.86657 18.546 3.4003C19.1756 3.67049 19.7479 4.0637 20.2313 4.55806C20.5646 4.8882 20.8465 5.26906 21.0669 5.68724Z" fill="black"/>
</svg>
