<svg width="24" height="24" viewBox="0 0 24 24" fill="none" xmlns="http://www.w3.org/2000/svg">
<mask id="path-1-inside-1_1858_8590" fill="white">
<path d="M19.2 20.9981L19.2 15.3833C19.2 13.2662 17.4837 11.55 15.3666 11.55L8.63329 11.55C6.5162 11.55 4.79995 13.2654 4.79995 15.3825C4.79995 17.1989 4.79995 19.331 4.79995 21"/>
</mask>
<path d="M20.7 20.9981L20.7 15.3833L17.7 15.3833L17.7 20.9981L20.7 20.9981ZM15.3666 10.05L8.63329 10.05L8.63329 13.05L15.3666 13.05L15.3666 10.05ZM3.29995 15.3825C3.29995 15.386 3.29995 15.3896 3.29995 15.3931C3.29995 15.3967 3.29995 15.4002 3.29995 15.4038C3.29995 15.4073 3.29995 15.4109 3.29995 15.4144C3.29995 15.418 3.29995 15.4215 3.29995 15.4251C3.29995 15.4286 3.29995 15.4322 3.29995 15.4358C3.29995 15.4393 3.29995 15.4429 3.29995 15.4464C3.29995 15.45 3.29995 15.4536 3.29995 15.4571C3.29995 15.4607 3.29995 15.4643 3.29995 15.4678C3.29995 15.4714 3.29995 15.475 3.29995 15.4785C3.29995 15.4821 3.29995 15.4857 3.29995 15.4892C3.29995 15.4928 3.29995 15.4964 3.29995 15.5C3.29995 15.5035 3.29995 15.5071 3.29995 15.5107C3.29995 15.5143 3.29995 15.5178 3.29995 15.5214C3.29995 15.525 3.29995 15.5286 3.29995 15.5322C3.29995 15.5357 3.29995 15.5393 3.29995 15.5429C3.29995 15.5465 3.29995 15.5501 3.29995 15.5536C3.29995 15.5572 3.29995 15.5608 3.29995 15.5644C3.29995 15.568 3.29995 15.5716 3.29995 15.5752C3.29995 15.5788 3.29995 15.5824 3.29995 15.5859C3.29995 15.5895 3.29995 15.5931 3.29995 15.5967C3.29995 15.6003 3.29995 15.6039 3.29995 15.6075C3.29995 15.6111 3.29995 15.6147 3.29995 15.6183C3.29995 15.6219 3.29995 15.6255 3.29995 15.6291C3.29995 15.6327 3.29995 15.6363 3.29995 15.6399C3.29995 15.6435 3.29995 15.6471 3.29995 15.6507C3.29995 15.6543 3.29995 15.6579 3.29995 15.6615C3.29995 15.6651 3.29995 15.6687 3.29995 15.6723C3.29995 15.676 3.29995 15.6796 3.29995 15.6832C3.29995 15.6868 3.29995 15.6904 3.29995 15.694C3.29995 15.6976 3.29995 15.7012 3.29995 15.7048C3.29995 15.7085 3.29995 15.7121 3.29995 15.7157C3.29995 15.7193 3.29995 15.7229 3.29995 15.7265C3.29995 15.7302 3.29995 15.7338 3.29995 15.7374C3.29995 15.741 3.29995 15.7446 3.29995 15.7483C3.29995 15.7519 3.29995 15.7555 3.29995 15.7591C3.29995 15.7628 3.29995 15.7664 3.29995 15.77C3.29995 15.7736 3.29995 15.7773 3.29995 15.7809C3.29995 15.7845 3.29995 15.7882 3.29995 15.7918C3.29995 15.7954 3.29995 15.7991 3.29995 15.8027C3.29995 15.8063 3.29995 15.81 3.29995 15.8136C3.29995 15.8172 3.29995 15.8209 3.29995 15.8245C3.29995 15.8281 3.29995 15.8318 3.29995 15.8354C3.29995 15.8391 3.29995 15.8427 3.29995 15.8463C3.29995 15.85 3.29995 15.8536 3.29995 15.8573C3.29995 15.8609 3.29995 15.8645 3.29995 15.8682C3.29995 15.8718 3.29995 15.8755 3.29995 15.8791C3.29995 15.8828 3.29995 15.8864 3.29995 15.8901C3.29995 15.8937 3.29995 15.8974 3.29995 15.901C3.29995 15.9047 3.29995 15.9083 3.29995 15.912C3.29995 15.9156 3.29995 15.9193 3.29995 15.9229C3.29995 15.9266 3.29995 15.9302 3.29995 15.9339C3.29995 15.9375 3.29995 15.9412 3.29995 15.9449C3.29995 15.9485 3.29995 15.9522 3.29995 15.9558C3.29995 15.9595 3.29995 15.9631 3.29995 15.9668C3.29995 15.9705 3.29995 15.9741 3.29995 15.9778C3.29995 15.9815 3.29995 15.9851 3.29995 15.9888C3.29995 15.9924 3.29995 15.9961 3.29995 15.9998C3.29995 16.0034 3.29995 16.0071 3.29995 16.0108C3.29995 16.0144 3.29995 16.0181 3.29995 16.0218C3.29995 16.0255 3.29995 16.0291 3.29995 16.0328C3.29995 16.0365 3.29995 16.0401 3.29995 16.0438C3.29995 16.0475 3.29995 16.0512 3.29995 16.0548C3.29995 16.0585 3.29995 16.0622 3.29995 16.0659C3.29995 16.0695 3.29995 16.0732 3.29995 16.0769C3.29995 16.0806 3.29995 16.0843 3.29995 16.0879C3.29995 16.0916 3.29995 16.0953 3.29995 16.099C3.29995 16.1027 3.29995 16.1063 3.29995 16.11C3.29995 16.1137 3.29995 16.1174 3.29995 16.1211C3.29995 16.1248 3.29995 16.1284 3.29995 16.1321C3.29995 16.1358 3.29995 16.1395 3.29995 16.1432C3.29995 16.1469 3.29995 16.1506 3.29995 16.1543C3.29995 16.1579 3.29995 16.1616 3.29995 16.1653C3.29995 16.169 3.29995 16.1727 3.29995 16.1764C3.29995 16.1801 3.29995 16.1838 3.29995 16.1875C3.29995 16.1912 3.29995 16.1949 3.29995 16.1986C3.29995 16.2023 3.29995 16.206 3.29995 16.2097C3.29995 16.2134 3.29995 16.217 3.29995 16.2207C3.29995 16.2244 3.29995 16.2281 3.29995 16.2318C3.29995 16.2355 3.29995 16.2392 3.29995 16.243C3.29995 16.2467 3.29995 16.2504 3.29995 16.2541C3.29995 16.2578 3.29995 16.2615 3.29995 16.2652C3.29995 16.2689 3.29995 16.2726 3.29995 16.2763C3.29995 16.28 3.29995 16.2837 3.29995 16.2874C3.29995 16.2911 3.29995 16.2948 3.29995 16.2985C3.29995 16.3022 3.29995 16.306 3.29995 16.3097C3.29995 16.3134 3.29995 16.3171 3.29995 16.3208C3.29995 16.3245 3.29995 16.3282 3.29995 16.3319C3.29995 16.3356 3.29995 16.3394 3.29995 16.3431C3.29995 16.3468 3.29995 16.3505 3.29995 16.3542C3.29995 16.3579 3.29995 16.3617 3.29995 16.3654C3.29995 16.3691 3.29995 16.3728 3.29995 16.3765C3.29995 16.3802 3.29995 16.384 3.29995 16.3877C3.29995 16.3914 3.29995 16.3951 3.29995 16.3988C3.29995 16.4026 3.29995 16.4063 3.29995 16.41C3.29995 16.4137 3.29995 16.4175 3.29995 16.4212C3.29995 16.4249 3.29995 16.4286 3.29995 16.4324C3.29995 16.4361 3.29995 16.4398 3.29995 16.4435C3.29995 16.4473 3.29995 16.451 3.29995 16.4547C3.29995 16.4584 3.29995 16.4622 3.29995 16.4659C3.29995 16.4696 3.29995 16.4734 3.29995 16.4771C3.29995 16.4808 3.29995 16.4846 3.29995 16.4883C3.29995 16.492 3.29995 16.4958 3.29995 16.4995C3.29995 16.5032 3.29995 16.5069 3.29995 16.5107C3.29995 16.5144 3.29995 16.5182 3.29995 16.5219C3.29995 16.5256 3.29995 16.5294 3.29995 16.5331C3.29995 16.5368 3.29995 16.5406 3.29995 16.5443C3.29995 16.548 3.29995 16.5518 3.29995 16.5555C3.29995 16.5593 3.29995 16.563 3.29995 16.5667C3.29995 16.5705 3.29995 16.5742 3.29995 16.578C3.29995 16.5817 3.29995 16.5854 3.29995 16.5892C3.29995 16.5929 3.29995 16.5967 3.29995 16.6004C3.29995 16.6042 3.29995 16.6079 3.29995 16.6117C3.29995 16.6154 3.29995 16.6191 3.29995 16.6229C3.29995 16.6266 3.29995 16.6304 3.29995 16.6341C3.29995 16.6379 3.29995 16.6416 3.29995 16.6454C3.29995 16.6491 3.29995 16.6529 3.29995 16.6566C3.29995 16.6604 3.29995 16.6641 3.29995 16.6679C3.29995 16.6716 3.29995 16.6754 3.29995 16.6791C3.29995 16.6829 3.29995 16.6866 3.29995 16.6904C3.29995 16.6941 3.29995 16.6979 3.29995 16.7016C3.29995 16.7054 3.29995 16.7091 3.29995 16.7129C3.29995 16.7166 3.29995 16.7204 3.29995 16.7242C3.29995 16.7279 3.29995 16.7317 3.29995 16.7354C3.29995 16.7392 3.29995 16.7429 3.29995 16.7467C3.29995 16.7504 3.29995 16.7542 3.29995 16.758C3.29995 16.7617 3.29995 16.7655 3.29995 16.7692C3.29995 16.773 3.29995 16.7768 3.29995 16.7805C3.29995 16.7843 3.29995 16.788 3.29995 16.7918C3.29995 16.7956 3.29995 16.7993 3.29995 16.8031C3.29995 16.8068 3.29995 16.8106 3.29995 16.8144C3.29995 16.8181 3.29995 16.8219 3.29995 16.8257C3.29995 16.8294 3.29995 16.8332 3.29995 16.8369C3.29995 16.8407 3.29995 16.8445 3.29995 16.8482C3.29995 16.852 3.29995 16.8558 3.29995 16.8595C3.29995 16.8633 3.29995 16.8671 3.29995 16.8708C3.29995 16.8746 3.29995 16.8784 3.29995 16.8821C3.29995 16.8859 3.29995 16.8897 3.29995 16.8934C3.29995 16.8972 3.29995 16.901 3.29995 16.9048C3.29995 16.9085 3.29995 16.9123 3.29995 16.9161C3.29995 16.9198 3.29995 16.9236 3.29995 16.9274C3.29995 16.9311 3.29995 16.9349 3.29995 16.9387C3.29995 16.9425 3.29995 16.9462 3.29995 16.95C3.29995 16.9538 3.29995 16.9576 3.29995 16.9613C3.29995 16.9651 3.29995 16.9689 3.29995 16.9726C3.29995 16.9764 3.29995 16.9802 3.29995 16.984C3.29995 16.9877 3.29995 16.9915 3.29995 16.9953C3.29995 16.9991 3.29995 17.0029 3.29995 17.0066C3.29995 17.0104 3.29995 17.0142 3.29995 17.018C3.29995 17.0217 3.29995 17.0255 3.29995 17.0293C3.29995 17.0331 3.29995 17.0368 3.29995 17.0406C3.29995 17.0444 3.29995 17.0482 3.29995 17.052C3.29995 17.0557 3.29995 17.0595 3.29995 17.0633C3.29995 17.0671 3.29995 17.0709 3.29995 17.0746C3.29995 17.0784 3.29995 17.0822 3.29995 17.086C3.29995 17.0898 3.29995 17.0935 3.29995 17.0973C3.29995 17.1011 3.29995 17.1049 3.29995 17.1087C3.29995 17.1125 3.29995 17.1162 3.29995 17.12C3.29995 17.1238 3.29995 17.1276 3.29995 17.1314C3.29995 17.1351 3.29995 17.1389 3.29995 17.1427C3.29995 17.1465 3.29995 17.1503 3.29995 17.1541C3.29995 17.1579 3.29995 17.1616 3.29995 17.1654C3.29995 17.1692 3.29995 17.173 3.29995 17.1768C3.29995 17.1806 3.29995 17.1844 3.29995 17.1881C3.29995 17.1919 3.29995 17.1957 3.29995 17.1995C3.29995 17.2033 3.29995 17.2071 3.29995 17.2109C3.29995 17.2146 3.29995 17.2184 3.29995 17.2222C3.29995 17.226 3.29995 17.2298 3.29995 17.2336C3.29995 17.2374 3.29995 17.2412 3.29995 17.2449C3.29995 17.2487 3.29995 17.2525 3.29995 17.2563C3.29995 17.2601 3.29995 17.2639 3.29995 17.2677C3.29995 17.2715 3.29995 17.2753 3.29995 17.2791C3.29995 17.2828 3.29995 17.2866 3.29995 17.2904C3.29995 17.2942 3.29995 17.298 3.29995 17.3018C3.29995 17.3056 3.29995 17.3094 3.29995 17.3132C3.29995 17.317 3.29995 17.3207 3.29995 17.3245C3.29995 17.3283 3.29995 17.3321 3.29995 17.3359C3.29995 17.3397 3.29995 17.3435 3.29995 17.3473C3.29995 17.3511 3.29995 17.3549 3.29995 17.3587C3.29995 17.3625 3.29995 17.3663 3.29995 17.37C3.29995 17.3738 3.29995 17.3776 3.29995 17.3814C3.29995 17.3852 3.29995 17.389 3.29995 17.3928C3.29995 17.3966 3.29995 17.4004 3.29995 17.4042C3.29995 17.408 3.29995 17.4118 3.29995 17.4156C3.29995 17.4194 3.29995 17.4232 3.29995 17.4269C3.29995 17.4307 3.29995 17.4345 3.29995 17.4383C3.29995 17.4421 3.29995 17.4459 3.29995 17.4497C3.29995 17.4535 3.29995 17.4573 3.29995 17.4611C3.29995 17.4649 3.29995 17.4687 3.29995 17.4725C3.29995 17.4763 3.29995 17.4801 3.29995 17.4839C3.29995 17.4877 3.29995 17.4915 3.29995 17.4953C3.29995 17.4991 3.29995 17.5029 3.29995 17.5067C3.29995 17.5104 3.29995 17.5142 3.29995 17.518C3.29995 17.5218 3.29995 17.5256 3.29995 17.5294C3.29995 17.5332 3.29995 17.537 3.29995 17.5408C3.29995 17.5446 3.29995 17.5484 3.29995 17.5522C3.29995 17.556 3.29995 17.5598 3.29995 17.5636C3.29995 17.5674 3.29995 17.5712 3.29995 17.575C3.29995 17.5788 3.29995 17.5826 3.29995 17.5864C3.29995 17.5902 3.29995 17.594 3.29995 17.5978C3.29995 17.6016 3.29995 17.6054 3.29995 17.6092C3.29995 17.613 3.29995 17.6168 3.29995 17.6206C3.29995 17.6244 3.29995 17.6281 3.29995 17.6319C3.29995 17.6357 3.29995 17.6395 3.29995 17.6433C3.29995 17.6471 3.29995 17.6509 3.29995 17.6547C3.29995 17.6585 3.29995 17.6623 3.29995 17.6661C3.29995 17.6699 3.29995 17.6737 3.29995 17.6775C3.29995 17.6813 3.29995 17.6851 3.29995 17.6889C3.29995 17.6927 3.29995 17.6965 3.29995 17.7003C3.29995 17.7041 3.29995 17.7079 3.29995 17.7117C3.29995 17.7155 3.29995 17.7193 3.29995 17.7231C3.29995 17.7269 3.29995 17.7307 3.29995 17.7345C3.29995 17.7383 3.29995 17.7421 3.29995 17.7459C3.29995 17.7497 3.29995 17.7535 3.29995 17.7573C3.29995 17.7611 3.29995 17.7649 3.29995 17.7687C3.29995 17.7725 3.29995 17.7763 3.29995 17.78C3.29995 17.7838 3.29995 17.7876 3.29995 17.7914C3.29995 17.7952 3.29995 17.799 3.29995 17.8028C3.29995 17.8066 3.29995 17.8104 3.29995 17.8142C3.29995 17.818 3.29995 17.8218 3.29995 17.8256C3.29995 17.8294 3.29995 17.8332 3.29995 17.837C3.29995 17.8408 3.29995 17.8446 3.29995 17.8484C3.29995 17.8522 3.29995 17.856 3.29995 17.8598C3.29995 17.8636 3.29995 17.8674 3.29995 17.8712C3.29995 17.875 3.29995 17.8788 3.29995 17.8826C3.29995 17.8864 3.29995 17.8902 3.29995 17.8939C3.29995 17.8977 3.29995 17.9015 3.29995 17.9053C3.29995 17.9091 3.29995 17.9129 3.29995 17.9167C3.29995 17.9205 3.29995 17.9243 3.29995 17.9281C3.29995 17.9319 3.29995 17.9357 3.29995 17.9395C3.29995 17.9433 3.29995 17.9471 3.29995 17.9509C3.29995 17.9547 3.29995 17.9585 3.29995 17.9623C3.29995 17.9661 3.29995 17.9699 3.29995 17.9736C3.29995 17.9774 3.29995 17.9812 3.29995 17.985C3.29995 17.9888 3.29995 17.9926 3.29995 17.9964C3.29995 18.0002 3.29995 18.004 3.29995 18.0078C3.29995 18.0116 3.29995 18.0154 3.29995 18.0192C3.29995 18.023 3.29995 18.0268 3.29995 18.0305C3.29995 18.0343 3.29995 18.0381 3.29995 18.0419C3.29995 18.0457 3.29995 18.0495 3.29995 18.0533C3.29995 18.0571 3.29995 18.0609 3.29995 18.0647C3.29995 18.0685 3.29995 18.0723 3.29995 18.076C3.29995 18.0798 3.29995 18.0836 3.29995 18.0874C3.29995 18.0912 3.29995 18.095 3.29995 18.0988C3.29995 18.1026 3.29995 18.1064 3.29995 18.1102C3.29995 18.114 3.29995 18.1177 3.29995 18.1215C3.29995 18.1253 3.29995 18.1291 3.29995 18.1329C3.29995 18.1367 3.29995 18.1405 3.29995 18.1443C3.29995 18.1481 3.29995 18.1518 3.29995 18.1556C3.29995 18.1594 3.29995 18.1632 3.29995 18.167C3.29995 18.1708 3.29995 18.1746 3.29995 18.1784C3.29995 18.1821 3.29995 18.1859 3.29995 18.1897C3.29995 18.1935 3.29995 18.1973 3.29995 18.2011C3.29995 18.2049 3.29995 18.2086 3.29995 18.2124C3.29995 18.2162 3.29995 18.22 3.29995 18.2238C3.29995 18.2276 3.29995 18.2314 3.29995 18.2351C3.29995 18.2389 3.29995 18.2427 3.29995 18.2465C3.29995 18.2503 3.29995 18.2541 3.29995 18.2578C3.29995 18.2616 3.29995 18.2654 3.29995 18.2692C3.29995 18.273 3.29995 18.2768 3.29995 18.2805C3.29995 18.2843 3.29995 18.2881 3.29995 18.2919C3.29995 18.2957 3.29995 18.2995 3.29995 18.3032C3.29995 18.307 3.29995 18.3108 3.29995 18.3146C3.29995 18.3184 3.29995 18.3221 3.29995 18.3259C3.29995 18.3297 3.29995 18.3335 3.29995 18.3373C3.29995 18.341 3.29995 18.3448 3.29995 18.3486C3.29995 18.3524 3.29995 18.3561 3.29995 18.3599C3.29995 18.3637 3.29995 18.3675 3.29995 18.3713C3.29995 18.375 3.29995 18.3788 3.29995 18.3826C3.29995 18.3864 3.29995 18.3901 3.29995 18.3939C3.29995 18.3977 3.29995 18.4015 3.29995 18.4052C3.29995 18.409 3.29995 18.4128 3.29995 18.4166C3.29995 18.4203 3.29995 18.4241 3.29995 18.4279C3.29995 18.4317 3.29995 18.4354 3.29995 18.4392C3.29995 18.443 3.29995 18.4468 3.29995 18.4505C3.29995 18.4543 3.29995 18.4581 3.29995 18.4618C3.29995 18.4656 3.29995 18.4694 3.29995 18.4732C3.29995 18.4769 3.29995 18.4807 3.29995 18.4845C3.29995 18.4882 3.29995 18.492 3.29995 18.4958C3.29995 18.4995 3.29995 18.5033 3.29995 18.5071C3.29995 18.5108 3.29995 18.5146 3.29995 18.5184C3.29995 18.5221 3.29995 18.5259 3.29995 18.5297C3.29995 18.5334 3.29995 18.5372 3.29995 18.541C3.29995 18.5447 3.29995 18.5485 3.29995 18.5523C3.29995 18.556 3.29995 18.5598 3.29995 18.5636C3.29995 18.5673 3.29995 18.5711 3.29995 18.5749C3.29995 18.5786 3.29995 18.5824 3.29995 18.5861C3.29995 18.5899 3.29995 18.5937 3.29995 18.5974C3.29995 18.6012 3.29995 18.6049 3.29995 18.6087C3.29995 18.6125 3.29995 18.6162 3.29995 18.62C3.29995 18.6237 3.29995 18.6275 3.29995 18.6313C3.29995 18.635 3.29995 18.6388 3.29995 18.6425C3.29995 18.6463 3.29995 18.65 3.29995 18.6538C3.29995 18.6576 3.29995 18.6613 3.29995 18.6651C3.29995 18.6688 3.29995 18.6726 3.29995 18.6763C3.29995 18.6801 3.29995 18.6838 3.29995 18.6876C3.29995 18.6913 3.29995 18.6951 3.29995 18.6989C3.29995 18.7026 3.29995 18.7064 3.29995 18.7101C3.29995 18.7139 3.29995 18.7176 3.29995 18.7214C3.29995 18.7251 3.29995 18.7289 3.29995 18.7326C3.29995 18.7364 3.29995 18.7401 3.29995 18.7439C3.29995 18.7476 3.29995 18.7514 3.29995 18.7551C3.29995 18.7588 3.29995 18.7626 3.29995 18.7663C3.29995 18.7701 3.29995 18.7738 3.29995 18.7776C3.29995 18.7813 3.29995 18.7851 3.29995 18.7888C3.29995 18.7925 3.29995 18.7963 3.29995 18.8C3.29995 18.8038 3.29995 18.8075 3.29995 18.8113C3.29995 18.815 3.29995 18.8187 3.29995 18.8225C3.29995 18.8262 3.29995 18.83 3.29995 18.8337C3.29995 18.8374 3.29995 18.8412 3.29995 18.8449C3.29995 18.8487 3.29995 18.8524 3.29995 18.8561C3.29995 18.8599 3.29995 18.8636 3.29995 18.8673C3.29995 18.8711 3.29995 18.8748 3.29995 18.8785C3.29995 18.8823 3.29995 18.886 3.29995 18.8897C3.29995 18.8935 3.29995 18.8972 3.29995 18.9009C3.29995 18.9047 3.29995 18.9084 3.29995 18.9121C3.29995 18.9159 3.29995 18.9196 3.29995 18.9233C3.29995 18.9271 3.29995 18.9308 3.29995 18.9345C3.29995 18.9382 3.29995 18.942 3.29995 18.9457C3.29995 18.9494 3.29995 18.9531 3.29995 18.9569C3.29995 18.9606 3.29995 18.9643 3.29995 18.968C3.29995 18.9718 3.29995 18.9755 3.29995 18.9792C3.29995 18.9829 3.29995 18.9867 3.29995 18.9904C3.29995 18.9941 3.29995 18.9978 3.29995 19.0015C3.29995 19.0053 3.29995 19.009 3.29995 19.0127C3.29995 19.0164 3.29995 19.0201 3.29995 19.0239C3.29995 19.0276 3.29995 19.0313 3.29995 19.035C3.29995 19.0387 3.29995 19.0424 3.29995 19.0462C3.29995 19.0499 3.29995 19.0536 3.29995 19.0573C3.29995 19.061 3.29995 19.0647 3.29995 19.0684C3.29995 19.0722 3.29995 19.0759 3.29995 19.0796C3.29995 19.0833 3.29995 19.087 3.29995 19.0907C3.29995 19.0944 3.29995 19.0981 3.29995 19.1018C3.29995 19.1055 3.29995 19.1092 3.29995 19.1129C3.29995 19.1167 3.29995 19.1204 3.29995 19.1241C3.29995 19.1278 3.29995 19.1315 3.29995 19.1352C3.29995 19.1389 3.29995 19.1426 3.29995 19.1463C3.29995 19.15 3.29995 19.1537 3.29995 19.1574C3.29995 19.1611 3.29995 19.1648 3.29995 19.1685C3.29995 19.1722 3.29995 19.1759 3.29995 19.1796C3.29995 19.1833 3.29995 19.187 3.29995 19.1907C3.29995 19.1944 3.29995 19.1981 3.29995 19.2018C3.29995 19.2055 3.29995 19.2091 3.29995 19.2128C3.29995 19.2165 3.29995 19.2202 3.29995 19.2239C3.29995 19.2276 3.29995 19.2313 3.29995 19.235C3.29995 19.2387 3.29995 19.2424 3.29995 19.2461C3.29995 19.2497 3.29995 19.2534 3.29995 19.2571C3.29995 19.2608 3.29995 19.2645 3.29995 19.2682C3.29995 19.2719 3.29995 19.2755 3.29995 19.2792C3.29995 19.2829 3.29995 19.2866 3.29995 19.2903C3.29995 19.294 3.29995 19.2976 3.29995 19.3013C3.29995 19.305 3.29995 19.3087 3.29995 19.3123C3.29995 19.316 3.29995 19.3197 3.29995 19.3234C3.29995 19.3271 3.29995 19.3307 3.29995 19.3344C3.29995 19.3381 3.29995 19.3418 3.29995 19.3454C3.29995 19.3491 3.29995 19.3528 3.29995 19.3564C3.29995 19.3601 3.29995 19.3638 3.29995 19.3675C3.29995 19.3711 3.29995 19.3748 3.29995 19.3785C3.29995 19.3821 3.29995 19.3858 3.29995 19.3895C3.29995 19.3931 3.29995 19.3968 3.29995 19.4005C3.29995 19.4041 3.29995 19.4078 3.29995 19.4115C3.29995 19.4151 3.29995 19.4188 3.29995 19.4224C3.29995 19.4261 3.29995 19.4298 3.29995 19.4334C3.29995 19.4371 3.29995 19.4407 3.29995 19.4444C3.29995 19.4481 3.29995 19.4517 3.29995 19.4554C3.29995 19.459 3.29995 19.4627 3.29995 19.4663C3.29995 19.47 3.29995 19.4736 3.29995 19.4773C3.29995 19.4809 3.29995 19.4846 3.29995 19.4882C3.29995 19.4919 3.29995 19.4955 3.29995 19.4992C3.29995 19.5028 3.29995 19.5065 3.29995 19.5101C3.29995 19.5138 3.29995 19.5174 3.29995 19.5211C3.29995 19.5247 3.29995 19.5284 3.29995 19.532C3.29995 19.5356 3.29995 19.5393 3.29995 19.5429C3.29995 19.5466 3.29995 19.5502 3.29995 19.5538C3.29995 19.5575 3.29995 19.5611 3.29995 19.5648C3.29995 19.5684 3.29995 19.572 3.29995 19.5757C3.29995 19.5793 3.29995 19.5829 3.29995 19.5866C3.29995 19.5902 3.29995 19.5938 3.29995 19.5975C3.29995 19.6011 3.29995 19.6047 3.29995 19.6083C3.29995 19.612 3.29995 19.6156 3.29995 19.6192C3.29995 19.6229 3.29995 19.6265 3.29995 19.6301C3.29995 19.6337 3.29995 19.6374 3.29995 19.641C3.29995 19.6446 3.29995 19.6482 3.29995 19.6519C3.29995 19.6555 3.29995 19.6591 3.29995 19.6627C3.29995 19.6663 3.29995 19.6699 3.29995 19.6736C3.29995 19.6772 3.29995 19.6808 3.29995 19.6844C3.29995 19.688 3.29995 19.6916 3.29995 19.6953C3.29995 19.6989 3.29995 19.7025 3.29995 19.7061C3.29995 19.7097 3.29995 19.7133 3.29995 19.7169C3.29995 19.7205 3.29995 19.7241 3.29995 19.7277C3.29995 19.7313 3.29995 19.735 3.29995 19.7386C3.29995 19.7422 3.29995 19.7458 3.29995 19.7494C3.29995 19.753 3.29995 19.7566 3.29995 19.7602C3.29995 19.7638 3.29995 19.7674 3.29995 19.771C3.29995 19.7746 3.29995 19.7782 3.29995 19.7818C3.29995 19.7854 3.29995 19.789 3.29995 19.7925C3.29995 19.7961 3.29995 19.7997 3.29995 19.8033C3.29995 19.8069 3.29995 19.8105 3.29995 19.8141C3.29995 19.8177 3.29995 19.8213 3.29995 19.8249C3.29995 19.8284 3.29995 19.832 3.29995 19.8356C3.29995 19.8392 3.29995 19.8428 3.29995 19.8464C3.29995 19.85 3.29995 19.8535 3.29995 19.8571C3.29995 19.8607 3.29995 19.8643 3.29995 19.8679C3.29995 19.8714 3.29995 19.875 3.29995 19.8786C3.29995 19.8822 3.29995 19.8857 3.29995 19.8893C3.29995 19.8929 3.29995 19.8965 3.29995 19.9C3.29995 19.9036 3.29995 19.9072 3.29995 19.9107C3.29995 19.9143 3.29995 19.9179 3.29995 19.9214C3.29995 19.925 3.29995 19.9286 3.29995 19.9321C3.29995 19.9357 3.29995 19.9393 3.29995 19.9428C3.29995 19.9464 3.29995 19.95 3.29995 19.9535C3.29995 19.9571 3.29995 19.9606 3.29995 19.9642C3.29995 19.9677 3.29995 19.9713 3.29995 19.9749C3.29995 19.9784 3.29995 19.982 3.29995 19.9855C3.29995 19.9891 3.29995 19.9926 3.29995 19.9962C3.29995 19.9997 3.29995 20.0033 3.29995 20.0068C3.29995 20.0104 3.29995 20.0139 3.29995 20.0175C3.29995 20.021 3.29995 20.0245 3.29995 20.0281C3.29995 20.0316 3.29995 20.0352 3.29995 20.0387C3.29995 20.0423 3.29995 20.0458 3.29995 20.0493C3.29995 20.0529 3.29995 20.0564 3.29995 20.0599C3.29995 20.0635 3.29995 20.067 3.29995 20.0705C3.29995 20.0741 3.29995 20.0776 3.29995 20.0811C3.29995 20.0847 3.29995 20.0882 3.29995 20.0917C3.29995 20.0953 3.29995 20.0988 3.29995 20.1023C3.29995 20.1058 3.29995 20.1094 3.29995 20.1129C3.29995 20.1164 3.29995 20.1199 3.29995 20.1235C3.29995 20.127 3.29995 20.1305 3.29995 20.134C3.29995 20.1375 3.29995 20.141 3.29995 20.1446C3.29995 20.1481 3.29995 20.1516 3.29995 20.1551C3.29995 20.1586 3.29995 20.1621 3.29995 20.1656C3.29995 20.1692 3.29995 20.1727 3.29995 20.1762C3.29995 20.1797 3.29995 20.1832 3.29995 20.1867C3.29995 20.1902 3.29995 20.1937 3.29995 20.1972C3.29995 20.2007 3.29995 20.2042 3.29995 20.2077C3.29995 20.2112 3.29995 20.2147 3.29995 20.2182C3.29995 20.2217 3.29995 20.2252 3.29995 20.2287C3.29995 20.2322 3.29995 20.2357 3.29995 20.2392C3.29995 20.2427 3.29995 20.2462 3.29995 20.2496C3.29995 20.2531 3.29995 20.2566 3.29995 20.2601C3.29995 20.2636 3.29995 20.2671 3.29995 20.2706C3.29995 20.274 3.29995 20.2775 3.29995 20.281C3.29995 20.2845 3.29995 20.288 3.29995 20.2915C3.29995 20.2949 3.29995 20.2984 3.29995 20.3019C3.29995 20.3054 3.29995 20.3088 3.29995 20.3123C3.29995 20.3158 3.29995 20.3193 3.29995 20.3227C3.29995 20.3262 3.29995 20.3297 3.29995 20.3331C3.29995 20.3366 3.29995 20.3401 3.29995 20.3435C3.29995 20.347 3.29995 20.3505 3.29995 20.3539C3.29995 20.3574 3.29995 20.3608 3.29995 20.3643C3.29995 20.3678 3.29995 20.3712 3.29995 20.3747C3.29995 20.3781 3.29995 20.3816 3.29995 20.385C3.29995 20.3885 3.29995 20.392 3.29995 20.3954C3.29995 20.3989 3.29995 20.4023 3.29995 20.4058C3.29995 20.4092 3.29995 20.4126 3.29995 20.4161C3.29995 20.4195 3.29995 20.423 3.29995 20.4264C3.29995 20.4299 3.29995 20.4333 3.29995 20.4367C3.29995 20.4402 3.29995 20.4436 3.29995 20.4471C3.29995 20.4505 3.29995 20.4539 3.29995 20.4574C3.29995 20.4608 3.29995 20.4642 3.29995 20.4677C3.29995 20.4711 3.29995 20.4745 3.29995 20.4779C3.29995 20.4814 3.29995 20.4848 3.29995 20.4882C3.29995 20.4917 3.29995 20.4951 3.29995 20.4985C3.29995 20.5019 3.29995 20.5053 3.29995 20.5088C3.29995 20.5122 3.29995 20.5156 3.29995 20.519C3.29995 20.5224 3.29995 20.5258 3.29995 20.5293C3.29995 20.5327 3.29995 20.5361 3.29995 20.5395C3.29995 20.5429 3.29995 20.5463 3.29995 20.5497C3.29995 20.5531 3.29995 20.5565 3.29995 20.5599C3.29995 20.5633 3.29995 20.5667 3.29995 20.5701C3.29995 20.5735 3.29995 20.5769 3.29995 20.5803C3.29995 20.5837 3.29995 20.5871 3.29995 20.5905C3.29995 20.5939 3.29995 20.5973 3.29995 20.6007C3.29995 20.6041 3.29995 20.6075 3.29995 20.6109C3.29995 20.6143 3.29995 20.6177 3.29995 20.621C3.29995 20.6244 3.29995 20.6278 3.29995 20.6312C3.29995 20.6346 3.29995 20.638 3.29995 20.6413C3.29995 20.6447 3.29995 20.6481 3.29995 20.6515C3.29995 20.6548 3.29995 20.6582 3.29995 20.6616C3.29995 20.665 3.29995 20.6683 3.29995 20.6717C3.29995 20.6751 3.29995 20.6784 3.29995 20.6818C3.29995 20.6852 3.29995 20.6885 3.29995 20.6919C3.29995 20.6953 3.29995 20.6986 3.29995 20.702C3.29995 20.7054 3.29995 20.7087 3.29995 20.7121C3.29995 20.7154 3.29995 20.7188 3.29995 20.7221C3.29995 20.7255 3.29995 20.7289 3.29995 20.7322C3.29995 20.7356 3.29995 20.7389 3.29995 20.7422C3.29995 20.7456 3.29995 20.7489 3.29995 20.7523C3.29995 20.7556 3.29995 20.759 3.29995 20.7623C3.29995 20.7657 3.29995 20.769 3.29995 20.7723C3.29995 20.7757 3.29995 20.779 3.29995 20.7823C3.29995 20.7857 3.29995 20.789 3.29995 20.7923C3.29995 20.7957 3.29995 20.799 3.29995 20.8023C3.29995 20.8057 3.29995 20.809 3.29995 20.8123C3.29995 20.8156 3.29995 20.819 3.29995 20.8223C3.29995 20.8256 3.29995 20.8289 3.29995 20.8322C3.29995 20.8356 3.29995 20.8389 3.29995 20.8422C3.29995 20.8455 3.29995 20.8488 3.29995 20.8521C3.29995 20.8554 3.29995 20.8588 3.29995 20.8621C3.29995 20.8654 3.29995 20.8687 3.29995 20.872C3.29995 20.8753 3.29995 20.8786 3.29995 20.8819C3.29995 20.8852 3.29995 20.8885 3.29995 20.8918C3.29995 20.8951 3.29995 20.8984 3.29995 20.9017C3.29995 20.905 3.29995 20.9083 3.29995 20.9116C3.29995 20.9148 3.29995 20.9181 3.29995 20.9214C3.29995 20.9247 3.29995 20.928 3.29995 20.9313C3.29995 20.9346 3.29995 20.9379 3.29995 20.9411C3.29995 20.9444 3.29995 20.9477 3.29995 20.951C3.29995 20.9542 3.29995 20.9575 3.29995 20.9608C3.29995 20.9641 3.29995 20.9673 3.29995 20.9706C3.29995 20.9739 3.29995 20.9772 3.29995 20.9804C3.29995 20.9837 3.29995 20.987 3.29995 20.9902C3.29995 20.9935 3.29995 20.9967 3.29995 21L6.29995 21C6.29995 20.9967 6.29995 20.9935 6.29995 20.9902C6.29995 20.987 6.29995 20.9837 6.29995 20.9804C6.29995 20.9772 6.29995 20.9739 6.29995 20.9706C6.29995 20.9673 6.29995 20.9641 6.29995 20.9608C6.29995 20.9575 6.29995 20.9542 6.29995 20.951C6.29995 20.9477 6.29995 20.9444 6.29995 20.9411C6.29995 20.9379 6.29995 20.9346 6.29995 20.9313C6.29995 20.928 6.29995 20.9247 6.29995 20.9214C6.29995 20.9181 6.29995 20.9148 6.29995 20.9116C6.29995 20.9083 6.29995 20.905 6.29995 20.9017C6.29995 20.8984 6.29995 20.8951 6.29995 20.8918C6.29995 20.8885 6.29995 20.8852 6.29995 20.8819C6.29995 20.8786 6.29995 20.8753 6.29995 20.872C6.29995 20.8687 6.29995 20.8654 6.29995 20.8621C6.29995 20.8588 6.29995 20.8554 6.29995 20.8521C6.29995 20.8488 6.29995 20.8455 6.29995 20.8422C6.29995 20.8389 6.29995 20.8356 6.29995 20.8322C6.29995 20.8289 6.29995 20.8256 6.29995 20.8223C6.29995 20.819 6.29995 20.8156 6.29995 20.8123C6.29995 20.809 6.29995 20.8057 6.29995 20.8023C6.29995 20.799 6.29995 20.7957 6.29995 20.7923C6.29995 20.789 6.29995 20.7857 6.29995 20.7823C6.29995 20.779 6.29995 20.7757 6.29995 20.7723C6.29995 20.769 6.29995 20.7657 6.29995 20.7623C6.29995 20.759 6.29995 20.7556 6.29995 20.7523C6.29995 20.7489 6.29995 20.7456 6.29995 20.7422C6.29995 20.7389 6.29995 20.7356 6.29995 20.7322C6.29995 20.7289 6.29995 20.7255 6.29995 20.7221C6.29995 20.7188 6.29995 20.7154 6.29995 20.7121C6.29995 20.7087 6.29995 20.7054 6.29995 20.702C6.29995 20.6986 6.29995 20.6953 6.29995 20.6919C6.29995 20.6885 6.29995 20.6852 6.29995 20.6818C6.29995 20.6784 6.29995 20.6751 6.29995 20.6717C6.29995 20.6683 6.29995 20.665 6.29995 20.6616C6.29995 20.6582 6.29995 20.6548 6.29995 20.6515C6.29995 20.6481 6.29995 20.6447 6.29995 20.6413C6.29995 20.638 6.29995 20.6346 6.29995 20.6312C6.29995 20.6278 6.29995 20.6244 6.29995 20.621C6.29995 20.6177 6.29995 20.6143 6.29995 20.6109C6.29995 20.6075 6.29995 20.6041 6.29995 20.6007C6.29995 20.5973 6.29995 20.5939 6.29995 20.5905C6.29995 20.5871 6.29995 20.5837 6.29995 20.5803C6.29995 20.5769 6.29995 20.5735 6.29995 20.5701C6.29995 20.5667 6.29995 20.5633 6.29995 20.5599C6.29995 20.5565 6.29995 20.5531 6.29995 20.5497C6.29995 20.5463 6.29995 20.5429 6.29995 20.5395C6.29995 20.5361 6.29995 20.5327 6.29995 20.5293C6.29995 20.5258 6.29995 20.5224 6.29995 20.519C6.29995 20.5156 6.29995 20.5122 6.29995 20.5088C6.29995 20.5053 6.29995 20.5019 6.29995 20.4985C6.29995 20.4951 6.29995 20.4917 6.29995 20.4882C6.29995 20.4848 6.29995 20.4814 6.29995 20.4779C6.29995 20.4745 6.29995 20.4711 6.29995 20.4677C6.29995 20.4642 6.29995 20.4608 6.29995 20.4574C6.29995 20.4539 6.29995 20.4505 6.29995 20.4471C6.29995 20.4436 6.29995 20.4402 6.29995 20.4367C6.29995 20.4333 6.29995 20.4299 6.29995 20.4264C6.29995 20.423 6.29995 20.4195 6.29995 20.4161C6.29995 20.4126 6.29995 20.4092 6.29995 20.4058C6.29995 20.4023 6.29995 20.3989 6.29995 20.3954C6.29995 20.392 6.29995 20.3885 6.29995 20.385C6.29995 20.3816 6.29995 20.3781 6.29995 20.3747C6.29995 20.3712 6.29995 20.3678 6.29995 20.3643C6.29995 20.3608 6.29995 20.3574 6.29995 20.3539C6.29995 20.3505 6.29995 20.347 6.29995 20.3435C6.29995 20.3401 6.29995 20.3366 6.29995 20.3331C6.29995 20.3297 6.29995 20.3262 6.29995 20.3227C6.29995 20.3193 6.29995 20.3158 6.29995 20.3123C6.29995 20.3088 6.29995 20.3054 6.29995 20.3019C6.29995 20.2984 6.29995 20.2949 6.29995 20.2915C6.29995 20.288 6.29995 20.2845 6.29995 20.281C6.29995 20.2775 6.29995 20.2741 6.29995 20.2706C6.29995 20.2671 6.29995 20.2636 6.29995 20.2601C6.29995 20.2566 6.29995 20.2531 6.29995 20.2496C6.29995 20.2462 6.29995 20.2427 6.29995 20.2392C6.29995 20.2357 6.29995 20.2322 6.29995 20.2287C6.29995 20.2252 6.29995 20.2217 6.29995 20.2182C6.29995 20.2147 6.29995 20.2112 6.29995 20.2077C6.29995 20.2042 6.29995 20.2007 6.29995 20.1972C6.29995 20.1937 6.29995 20.1902 6.29995 20.1867C6.29995 20.1832 6.29995 20.1797 6.29995 20.1762C6.29995 20.1727 6.29995 20.1692 6.29995 20.1656C6.29995 20.1621 6.29995 20.1586 6.29995 20.1551C6.29995 20.1516 6.29995 20.1481 6.29995 20.1446C6.29995 20.141 6.29995 20.1375 6.29995 20.134C6.29995 20.1305 6.29995 20.127 6.29995 20.1235C6.29995 20.1199 6.29995 20.1164 6.29995 20.1129C6.29995 20.1094 6.29995 20.1058 6.29995 20.1023C6.29995 20.0988 6.29995 20.0953 6.29995 20.0917C6.29995 20.0882 6.29995 20.0847 6.29995 20.0811C6.29995 20.0776 6.29995 20.0741 6.29995 20.0706C6.29995 20.067 6.29995 20.0635 6.29995 20.0599C6.29995 20.0564 6.29995 20.0529 6.29995 20.0493C6.29995 20.0458 6.29995 20.0423 6.29995 20.0387C6.29995 20.0352 6.29995 20.0316 6.29995 20.0281C6.29995 20.0245 6.29995 20.021 6.29995 20.0175C6.29995 20.0139 6.29995 20.0104 6.29995 20.0068C6.29995 20.0033 6.29995 19.9997 6.29995 19.9962C6.29995 19.9926 6.29995 19.9891 6.29995 19.9855C6.29995 19.982 6.29995 19.9784 6.29995 19.9749C6.29995 19.9713 6.29995 19.9677 6.29995 19.9642C6.29995 19.9606 6.29995 19.9571 6.29995 19.9535C6.29995 19.95 6.29995 19.9464 6.29995 19.9428C6.29995 19.9393 6.29995 19.9357 6.29995 19.9321C6.29995 19.9286 6.29995 19.925 6.29995 19.9214C6.29995 19.9179 6.29995 19.9143 6.29995 19.9107C6.29995 19.9072 6.29995 19.9036 6.29995 19.9C6.29995 19.8965 6.29995 19.8929 6.29995 19.8893C6.29995 19.8857 6.29995 19.8822 6.29995 19.8786C6.29995 19.875 6.29995 19.8714 6.29995 19.8679C6.29995 19.8643 6.29995 19.8607 6.29995 19.8571C6.29995 19.8535 6.29995 19.85 6.29995 19.8464C6.29995 19.8428 6.29995 19.8392 6.29995 19.8356C6.29995 19.832 6.29995 19.8284 6.29995 19.8249C6.29995 19.8213 6.29995 19.8177 6.29995 19.8141C6.29995 19.8105 6.29995 19.8069 6.29995 19.8033C6.29995 19.7997 6.29995 19.7961 6.29995 19.7925C6.29995 19.789 6.29995 19.7854 6.29995 19.7818C6.29995 19.7782 6.29995 19.7746 6.29995 19.771C6.29995 19.7674 6.29995 19.7638 6.29995 19.7602C6.29995 19.7566 6.29995 19.753 6.29995 19.7494C6.29995 19.7458 6.29995 19.7422 6.29995 19.7386C6.29995 19.735 6.29995 19.7313 6.29995 19.7277C6.29995 19.7241 6.29995 19.7205 6.29995 19.7169C6.29995 19.7133 6.29995 19.7097 6.29995 19.7061C6.29995 19.7025 6.29995 19.6989 6.29995 19.6953C6.29995 19.6916 6.29995 19.688 6.29995 19.6844C6.29995 19.6808 6.29995 19.6772 6.29995 19.6736C6.29995 19.6699 6.29995 19.6663 6.29995 19.6627C6.29995 19.6591 6.29995 19.6555 6.29995 19.6519C6.29995 19.6482 6.29995 19.6446 6.29995 19.641C6.29995 19.6374 6.29995 19.6337 6.29995 19.6301C6.29995 19.6265 6.29995 19.6229 6.29995 19.6192C6.29995 19.6156 6.29995 19.612 6.29995 19.6083C6.29995 19.6047 6.29995 19.6011 6.29995 19.5975C6.29995 19.5938 6.29995 19.5902 6.29995 19.5866C6.29995 19.5829 6.29995 19.5793 6.29995 19.5757C6.29995 19.572 6.29995 19.5684 6.29995 19.5648C6.29995 19.5611 6.29995 19.5575 6.29995 19.5538C6.29995 19.5502 6.29995 19.5466 6.29995 19.5429C6.29995 19.5393 6.29995 19.5356 6.29995 19.532C6.29995 19.5284 6.29995 19.5247 6.29995 19.5211C6.29995 19.5174 6.29995 19.5138 6.29995 19.5101C6.29995 19.5065 6.29995 19.5028 6.29995 19.4992C6.29995 19.4955 6.29995 19.4919 6.29995 19.4882C6.29995 19.4846 6.29995 19.4809 6.29995 19.4773C6.29995 19.4736 6.29995 19.47 6.29995 19.4663C6.29995 19.4627 6.29995 19.459 6.29995 19.4554C6.29995 19.4517 6.29995 19.4481 6.29995 19.4444C6.29995 19.4407 6.29995 19.4371 6.29995 19.4334C6.29995 19.4298 6.29995 19.4261 6.29995 19.4224C6.29995 19.4188 6.29995 19.4151 6.29995 19.4115C6.29995 19.4078 6.29995 19.4041 6.29995 19.4005C6.29995 19.3968 6.29995 19.3931 6.29995 19.3895C6.29995 19.3858 6.29995 19.3821 6.29995 19.3785C6.29995 19.3748 6.29995 19.3711 6.29995 19.3675C6.29995 19.3638 6.29995 19.3601 6.29995 19.3564C6.29995 19.3528 6.29995 19.3491 6.29995 19.3454C6.29995 19.3418 6.29995 19.3381 6.29995 19.3344C6.29995 19.3307 6.29995 19.3271 6.29995 19.3234C6.29995 19.3197 6.29995 19.316 6.29995 19.3123C6.29995 19.3087 6.29995 19.305 6.29995 19.3013C6.29995 19.2976 6.29995 19.294 6.29995 19.2903C6.29995 19.2866 6.29995 19.2829 6.29995 19.2792C6.29995 19.2755 6.29995 19.2719 6.29995 19.2682C6.29995 19.2645 6.29995 19.2608 6.29995 19.2571C6.29995 19.2534 6.29995 19.2497 6.29995 19.2461C6.29995 19.2424 6.29995 19.2387 6.29995 19.235C6.29995 19.2313 6.29995 19.2276 6.29995 19.2239C6.29995 19.2202 6.29995 19.2165 6.29995 19.2128C6.29995 19.2091 6.29995 19.2055 6.29995 19.2018C6.29995 19.1981 6.29995 19.1944 6.29995 19.1907C6.29995 19.187 6.29995 19.1833 6.29995 19.1796C6.29995 19.1759 6.29995 19.1722 6.29995 19.1685C6.29995 19.1648 6.29995 19.1611 6.29995 19.1574C6.29995 19.1537 6.29995 19.15 6.29995 19.1463C6.29995 19.1426 6.29995 19.1389 6.29995 19.1352C6.29995 19.1315 6.29995 19.1278 6.29995 19.1241C6.29995 19.1204 6.29995 19.1167 6.29995 19.1129C6.29995 19.1092 6.29995 19.1055 6.29995 19.1018C6.29995 19.0981 6.29995 19.0944 6.29995 19.0907C6.29995 19.087 6.29995 19.0833 6.29995 19.0796C6.29995 19.0759 6.29995 19.0722 6.29995 19.0684C6.29995 19.0647 6.29995 19.061 6.29995 19.0573C6.29995 19.0536 6.29995 19.0499 6.29995 19.0462C6.29995 19.0424 6.29995 19.0387 6.29995 19.035C6.29995 19.0313 6.29995 19.0276 6.29995 19.0239C6.29995 19.0201 6.29995 19.0164 6.29995 19.0127C6.29995 19.009 6.29995 19.0053 6.29995 19.0015C6.29995 18.9978 6.29995 18.9941 6.29995 18.9904C6.29995 18.9867 6.29995 18.9829 6.29995 18.9792C6.29995 18.9755 6.29995 18.9718 6.29995 18.968C6.29995 18.9643 6.29995 18.9606 6.29995 18.9569C6.29995 18.9531 6.29995 18.9494 6.29995 18.9457C6.29995 18.942 6.29995 18.9382 6.29995 18.9345C6.29995 18.9308 6.29995 18.9271 6.29995 18.9233C6.29995 18.9196 6.29995 18.9159 6.29995 18.9121C6.29995 18.9084 6.29995 18.9047 6.29995 18.9009C6.29995 18.8972 6.29995 18.8935 6.29995 18.8897C6.29995 18.886 6.29995 18.8823 6.29995 18.8785C6.29995 18.8748 6.29995 18.8711 6.29995 18.8673C6.29995 18.8636 6.29995 18.8599 6.29995 18.8561C6.29995 18.8524 6.29995 18.8487 6.29995 18.8449C6.29995 18.8412 6.29995 18.8374 6.29995 18.8337C6.29995 18.83 6.29995 18.8262 6.29995 18.8225C6.29995 18.8187 6.29995 18.815 6.29995 18.8113C6.29995 18.8075 6.29995 18.8038 6.29995 18.8C6.29995 18.7963 6.29995 18.7926 6.29995 18.7888C6.29995 18.7851 6.29995 18.7813 6.29995 18.7776C6.29995 18.7738 6.29995 18.7701 6.29995 18.7663C6.29995 18.7626 6.29995 18.7588 6.29995 18.7551C6.29995 18.7514 6.29995 18.7476 6.29995 18.7439C6.29995 18.7401 6.29995 18.7364 6.29995 18.7326C6.29995 18.7289 6.29995 18.7251 6.29995 18.7214C6.29995 18.7176 6.29995 18.7139 6.29995 18.7101C6.29995 18.7064 6.29995 18.7026 6.29995 18.6989C6.29995 18.6951 6.29995 18.6914 6.29995 18.6876C6.29995 18.6838 6.29995 18.6801 6.29995 18.6763C6.29995 18.6726 6.29995 18.6688 6.29995 18.6651C6.29995 18.6613 6.29995 18.6576 6.29995 18.6538C6.29995 18.65 6.29995 18.6463 6.29995 18.6425C6.29995 18.6388 6.29995 18.635 6.29995 18.6313C6.29995 18.6275 6.29995 18.6237 6.29995 18.62C6.29995 18.6162 6.29995 18.6125 6.29995 18.6087C6.29995 18.6049 6.29995 18.6012 6.29995 18.5974C6.29995 18.5937 6.29995 18.5899 6.29995 18.5861C6.29995 18.5824 6.29995 18.5786 6.29995 18.5749C6.29995 18.5711 6.29995 18.5673 6.29995 18.5636C6.29995 18.5598 6.29995 18.556 6.29995 18.5523C6.29995 18.5485 6.29995 18.5447 6.29995 18.541C6.29995 18.5372 6.29995 18.5334 6.29995 18.5297C6.29995 18.5259 6.29995 18.5221 6.29995 18.5184C6.29995 18.5146 6.29995 18.5108 6.29995 18.5071C6.29995 18.5033 6.29995 18.4995 6.29995 18.4958C6.29995 18.492 6.29995 18.4882 6.29995 18.4845C6.29995 18.4807 6.29995 18.4769 6.29995 18.4732C6.29995 18.4694 6.29995 18.4656 6.29995 18.4618C6.29995 18.4581 6.29995 18.4543 6.29995 18.4505C6.29995 18.4468 6.29995 18.443 6.29995 18.4392C6.29995 18.4354 6.29995 18.4317 6.29995 18.4279C6.29995 18.4241 6.29995 18.4203 6.29995 18.4166C6.29995 18.4128 6.29995 18.409 6.29995 18.4052C6.29995 18.4015 6.29995 18.3977 6.29995 18.3939C6.29995 18.3901 6.29995 18.3864 6.29995 18.3826C6.29995 18.3788 6.29995 18.375 6.29995 18.3713C6.29995 18.3675 6.29995 18.3637 6.29995 18.3599C6.29995 18.3561 6.29995 18.3524 6.29995 18.3486C6.29995 18.3448 6.29995 18.341 6.29995 18.3373C6.29995 18.3335 6.29995 18.3297 6.29995 18.3259C6.29995 18.3221 6.29995 18.3184 6.29995 18.3146C6.29995 18.3108 6.29995 18.307 6.29995 18.3032C6.29995 18.2995 6.29995 18.2957 6.29995 18.2919C6.29995 18.2881 6.29995 18.2843 6.29995 18.2805C6.29995 18.2768 6.29995 18.273 6.29995 18.2692C6.29995 18.2654 6.29995 18.2616 6.29995 18.2578C6.29995 18.2541 6.29995 18.2503 6.29995 18.2465C6.29995 18.2427 6.29995 18.2389 6.29995 18.2351C6.29995 18.2314 6.29995 18.2276 6.29995 18.2238C6.29995 18.22 6.29995 18.2162 6.29995 18.2124C6.29995 18.2086 6.29995 18.2049 6.29995 18.2011C6.29995 18.1973 6.29995 18.1935 6.29995 18.1897C6.29995 18.1859 6.29995 18.1821 6.29995 18.1784C6.29995 18.1746 6.29995 18.1708 6.29995 18.167C6.29995 18.1632 6.29995 18.1594 6.29995 18.1556C6.29995 18.1518 6.29995 18.1481 6.29995 18.1443C6.29995 18.1405 6.29995 18.1367 6.29995 18.1329C6.29995 18.1291 6.29995 18.1253 6.29995 18.1215C6.29995 18.1177 6.29995 18.114 6.29995 18.1102C6.29995 18.1064 6.29995 18.1026 6.29995 18.0988C6.29995 18.095 6.29995 18.0912 6.29995 18.0874C6.29995 18.0836 6.29995 18.0798 6.29995 18.076C6.29995 18.0723 6.29995 18.0685 6.29995 18.0647C6.29995 18.0609 6.29995 18.0571 6.29995 18.0533C6.29995 18.0495 6.29995 18.0457 6.29995 18.0419C6.29995 18.0381 6.29995 18.0343 6.29995 18.0305C6.29995 18.0268 6.29995 18.023 6.29995 18.0192C6.29995 18.0154 6.29995 18.0116 6.29995 18.0078C6.29995 18.004 6.29995 18.0002 6.29995 17.9964C6.29995 17.9926 6.29995 17.9888 6.29995 17.985C6.29995 17.9812 6.29995 17.9774 6.29995 17.9736C6.29995 17.9699 6.29995 17.9661 6.29995 17.9623C6.29995 17.9585 6.29995 17.9547 6.29995 17.9509C6.29995 17.9471 6.29995 17.9433 6.29995 17.9395C6.29995 17.9357 6.29995 17.9319 6.29995 17.9281C6.29995 17.9243 6.29995 17.9205 6.29995 17.9167C6.29995 17.9129 6.29995 17.9091 6.29995 17.9053C6.29995 17.9015 6.29995 17.8977 6.29995 17.8939C6.29995 17.8902 6.29995 17.8864 6.29995 17.8826C6.29995 17.8788 6.29995 17.875 6.29995 17.8712C6.29995 17.8674 6.29995 17.8636 6.29995 17.8598C6.29995 17.856 6.29995 17.8522 6.29995 17.8484C6.29995 17.8446 6.29995 17.8408 6.29995 17.837C6.29995 17.8332 6.29995 17.8294 6.29995 17.8256C6.29995 17.8218 6.29995 17.818 6.29995 17.8142C6.29995 17.8104 6.29995 17.8066 6.29995 17.8028C6.29995 17.799 6.29995 17.7952 6.29995 17.7914C6.29995 17.7876 6.29995 17.7838 6.29995 17.78C6.29995 17.7763 6.29995 17.7725 6.29995 17.7687C6.29995 17.7649 6.29995 17.7611 6.29995 17.7573C6.29995 17.7535 6.29995 17.7497 6.29995 17.7459C6.29995 17.7421 6.29995 17.7383 6.29995 17.7345C6.29995 17.7307 6.29995 17.7269 6.29995 17.7231C6.29995 17.7193 6.29995 17.7155 6.29995 17.7117C6.29995 17.7079 6.29995 17.7041 6.29995 17.7003C6.29995 17.6965 6.29995 17.6927 6.29995 17.6889C6.29995 17.6851 6.29995 17.6813 6.29995 17.6775C6.29995 17.6737 6.29995 17.6699 6.29995 17.6661C6.29995 17.6623 6.29995 17.6585 6.29995 17.6547C6.29995 17.6509 6.29995 17.6471 6.29995 17.6433C6.29995 17.6395 6.29995 17.6357 6.29995 17.6319C6.29995 17.6281 6.29995 17.6244 6.29995 17.6206C6.29995 17.6168 6.29995 17.613 6.29995 17.6092C6.29995 17.6054 6.29995 17.6016 6.29995 17.5978C6.29995 17.594 6.29995 17.5902 6.29995 17.5864C6.29995 17.5826 6.29995 17.5788 6.29995 17.575C6.29995 17.5712 6.29995 17.5674 6.29995 17.5636C6.29995 17.5598 6.29995 17.556 6.29995 17.5522C6.29995 17.5484 6.29995 17.5446 6.29995 17.5408C6.29995 17.537 6.29995 17.5332 6.29995 17.5294C6.29995 17.5256 6.29995 17.5218 6.29995 17.518C6.29995 17.5142 6.29995 17.5104 6.29995 17.5067C6.29995 17.5029 6.29995 17.4991 6.29995 17.4953C6.29995 17.4915 6.29995 17.4877 6.29995 17.4839C6.29995 17.4801 6.29995 17.4763 6.29995 17.4725C6.29995 17.4687 6.29995 17.4649 6.29995 17.4611C6.29995 17.4573 6.29995 17.4535 6.29995 17.4497C6.29995 17.4459 6.29995 17.4421 6.29995 17.4383C6.29995 17.4345 6.29995 17.4307 6.29995 17.427C6.29995 17.4232 6.29995 17.4194 6.29995 17.4156C6.29995 17.4118 6.29995 17.408 6.29995 17.4042C6.29995 17.4004 6.29995 17.3966 6.29995 17.3928C6.29995 17.389 6.29995 17.3852 6.29995 17.3814C6.29995 17.3776 6.29995 17.3738 6.29995 17.37C6.29995 17.3663 6.29995 17.3625 6.29995 17.3587C6.29995 17.3549 6.29995 17.3511 6.29995 17.3473C6.29995 17.3435 6.29995 17.3397 6.29995 17.3359C6.29995 17.3321 6.29995 17.3283 6.29995 17.3245C6.29995 17.3207 6.29995 17.317 6.29995 17.3132C6.29995 17.3094 6.29995 17.3056 6.29995 17.3018C6.29995 17.298 6.29995 17.2942 6.29995 17.2904C6.29995 17.2866 6.29995 17.2828 6.29995 17.2791C6.29995 17.2753 6.29995 17.2715 6.29995 17.2677C6.29995 17.2639 6.29995 17.2601 6.29995 17.2563C6.29995 17.2525 6.29995 17.2487 6.29995 17.2449C6.29995 17.2412 6.29995 17.2374 6.29995 17.2336C6.29995 17.2298 6.29995 17.226 6.29995 17.2222C6.29995 17.2184 6.29995 17.2146 6.29995 17.2109C6.29995 17.2071 6.29995 17.2033 6.29995 17.1995C6.29995 17.1957 6.29995 17.1919 6.29995 17.1881C6.29995 17.1844 6.29995 17.1806 6.29995 17.1768C6.29995 17.173 6.29995 17.1692 6.29995 17.1654C6.29995 17.1616 6.29995 17.1579 6.29995 17.1541C6.29995 17.1503 6.29995 17.1465 6.29995 17.1427C6.29995 17.1389 6.29995 17.1351 6.29995 17.1314C6.29995 17.1276 6.29995 17.1238 6.29995 17.12C6.29995 17.1162 6.29995 17.1125 6.29995 17.1087C6.29995 17.1049 6.29995 17.1011 6.29995 17.0973C6.29995 17.0935 6.29995 17.0898 6.29995 17.086C6.29995 17.0822 6.29995 17.0784 6.29995 17.0746C6.29995 17.0709 6.29995 17.0671 6.29995 17.0633C6.29995 17.0595 6.29995 17.0557 6.29995 17.052C6.29995 17.0482 6.29995 17.0444 6.29995 17.0406C6.29995 17.0368 6.29995 17.0331 6.29995 17.0293C6.29995 17.0255 6.29995 17.0217 6.29995 17.018C6.29995 17.0142 6.29995 17.0104 6.29995 17.0066C6.29995 17.0029 6.29995 16.9991 6.29995 16.9953C6.29995 16.9915 6.29995 16.9877 6.29995 16.984C6.29995 16.9802 6.29995 16.9764 6.29995 16.9726C6.29995 16.9689 6.29995 16.9651 6.29995 16.9613C6.29995 16.9576 6.29995 16.9538 6.29995 16.95C6.29995 16.9462 6.29995 16.9425 6.29995 16.9387C6.29995 16.9349 6.29995 16.9311 6.29995 16.9274C6.29995 16.9236 6.29995 16.9198 6.29995 16.9161C6.29995 16.9123 6.29995 16.9085 6.29995 16.9048C6.29995 16.901 6.29995 16.8972 6.29995 16.8934C6.29995 16.8897 6.29995 16.8859 6.29995 16.8821C6.29995 16.8784 6.29995 16.8746 6.29995 16.8708C6.29995 16.8671 6.29995 16.8633 6.29995 16.8595C6.29995 16.8558 6.29995 16.852 6.29995 16.8482C6.29995 16.8445 6.29995 16.8407 6.29995 16.8369C6.29995 16.8332 6.29995 16.8294 6.29995 16.8257C6.29995 16.8219 6.29995 16.8181 6.29995 16.8144C6.29995 16.8106 6.29995 16.8068 6.29995 16.8031C6.29995 16.7993 6.29995 16.7956 6.29995 16.7918C6.29995 16.788 6.29995 16.7843 6.29995 16.7805C6.29995 16.7768 6.29995 16.773 6.29995 16.7692C6.29995 16.7655 6.29995 16.7617 6.29995 16.758C6.29995 16.7542 6.29995 16.7504 6.29995 16.7467C6.29995 16.7429 6.29995 16.7392 6.29995 16.7354C6.29995 16.7317 6.29995 16.7279 6.29995 16.7242C6.29995 16.7204 6.29995 16.7166 6.29995 16.7129C6.29995 16.7091 6.29995 16.7054 6.29995 16.7016C6.29995 16.6979 6.29995 16.6941 6.29995 16.6904C6.29995 16.6866 6.29995 16.6829 6.29995 16.6791C6.29995 16.6754 6.29995 16.6716 6.29995 16.6679C6.29995 16.6641 6.29995 16.6604 6.29995 16.6566C6.29995 16.6529 6.29995 16.6491 6.29995 16.6454C6.29995 16.6416 6.29995 16.6379 6.29995 16.6341C6.29995 16.6304 6.29995 16.6266 6.29995 16.6229C6.29995 16.6191 6.29995 16.6154 6.29995 16.6117C6.29995 16.6079 6.29995 16.6042 6.29995 16.6004C6.29995 16.5967 6.29995 16.5929 6.29995 16.5892C6.29995 16.5854 6.29995 16.5817 6.29995 16.578C6.29995 16.5742 6.29995 16.5705 6.29995 16.5667C6.29995 16.563 6.29995 16.5593 6.29995 16.5555C6.29995 16.5518 6.29995 16.548 6.29995 16.5443C6.29995 16.5406 6.29995 16.5368 6.29995 16.5331C6.29995 16.5294 6.29995 16.5256 6.29995 16.5219C6.29995 16.5182 6.29995 16.5144 6.29995 16.5107C6.29995 16.507 6.29995 16.5032 6.29995 16.4995C6.29995 16.4958 6.29995 16.492 6.29995 16.4883C6.29995 16.4846 6.29995 16.4808 6.29995 16.4771C6.29995 16.4734 6.29995 16.4696 6.29995 16.4659C6.29995 16.4622 6.29995 16.4584 6.29995 16.4547C6.29995 16.451 6.29995 16.4473 6.29995 16.4435C6.29995 16.4398 6.29995 16.4361 6.29995 16.4324C6.29995 16.4286 6.29995 16.4249 6.29995 16.4212C6.29995 16.4175 6.29995 16.4137 6.29995 16.41C6.29995 16.4063 6.29995 16.4026 6.29995 16.3988C6.29995 16.3951 6.29995 16.3914 6.29995 16.3877C6.29995 16.384 6.29995 16.3802 6.29995 16.3765C6.29995 16.3728 6.29995 16.3691 6.29995 16.3654C6.29995 16.3617 6.29995 16.3579 6.29995 16.3542C6.29995 16.3505 6.29995 16.3468 6.29995 16.3431C6.29995 16.3394 6.29995 16.3356 6.29995 16.3319C6.29995 16.3282 6.29995 16.3245 6.29995 16.3208C6.29995 16.3171 6.29995 16.3134 6.29995 16.3097C6.29995 16.306 6.29995 16.3022 6.29995 16.2985C6.29995 16.2948 6.29995 16.2911 6.29995 16.2874C6.29995 16.2837 6.29995 16.28 6.29995 16.2763C6.29995 16.2726 6.29995 16.2689 6.29995 16.2652C6.29995 16.2615 6.29995 16.2578 6.29995 16.2541C6.29995 16.2504 6.29995 16.2467 6.29995 16.243C6.29995 16.2392 6.29995 16.2355 6.29995 16.2318C6.29995 16.2281 6.29995 16.2244 6.29995 16.2207C6.29995 16.217 6.29995 16.2134 6.29995 16.2097C6.29995 16.206 6.29995 16.2023 6.29995 16.1986C6.29995 16.1949 6.29995 16.1912 6.29995 16.1875C6.29995 16.1838 6.29995 16.1801 6.29995 16.1764C6.29995 16.1727 6.29995 16.169 6.29995 16.1653C6.29995 16.1616 6.29995 16.1579 6.29995 16.1543C6.29995 16.1506 6.29995 16.1469 6.29995 16.1432C6.29995 16.1395 6.29995 16.1358 6.29995 16.1321C6.29995 16.1284 6.29995 16.1248 6.29995 16.1211C6.29995 16.1174 6.29995 16.1137 6.29995 16.11C6.29995 16.1063 6.29995 16.1027 6.29995 16.099C6.29995 16.0953 6.29995 16.0916 6.29995 16.0879C6.29995 16.0843 6.29995 16.0806 6.29995 16.0769C6.29995 16.0732 6.29995 16.0695 6.29995 16.0659C6.29995 16.0622 6.29995 16.0585 6.29995 16.0548C6.29995 16.0512 6.29995 16.0475 6.29995 16.0438C6.29995 16.0401 6.29995 16.0365 6.29995 16.0328C6.29995 16.0291 6.29995 16.0255 6.29995 16.0218C6.29995 16.0181 6.29995 16.0144 6.29995 16.0108C6.29995 16.0071 6.29995 16.0034 6.29995 15.9998C6.29995 15.9961 6.29995 15.9924 6.29995 15.9888C6.29995 15.9851 6.29995 15.9815 6.29995 15.9778C6.29995 15.9741 6.29995 15.9705 6.29995 15.9668C6.29995 15.9631 6.29995 15.9595 6.29995 15.9558C6.29995 15.9522 6.29995 15.9485 6.29995 15.9449C6.29995 15.9412 6.29995 15.9375 6.29995 15.9339C6.29995 15.9302 6.29995 15.9266 6.29995 15.9229C6.29995 15.9193 6.29995 15.9156 6.29995 15.912C6.29995 15.9083 6.29995 15.9047 6.29995 15.901C6.29995 15.8974 6.29995 15.8937 6.29995 15.8901C6.29995 15.8864 6.29995 15.8828 6.29995 15.8791C6.29995 15.8755 6.29995 15.8718 6.29995 15.8682C6.29995 15.8645 6.29995 15.8609 6.29995 15.8573C6.29995 15.8536 6.29995 15.85 6.29995 15.8463C6.29995 15.8427 6.29995 15.8391 6.29995 15.8354C6.29995 15.8318 6.29995 15.8281 6.29995 15.8245C6.29995 15.8209 6.29995 15.8172 6.29995 15.8136C6.29995 15.81 6.29995 15.8063 6.29995 15.8027C6.29995 15.7991 6.29995 15.7954 6.29995 15.7918C6.29995 15.7882 6.29995 15.7845 6.29995 15.7809C6.29995 15.7773 6.29995 15.7736 6.29995 15.77C6.29995 15.7664 6.29995 15.7628 6.29995 15.7591C6.29995 15.7555 6.29995 15.7519 6.29995 15.7483C6.29995 15.7447 6.29995 15.741 6.29995 15.7374C6.29995 15.7338 6.29995 15.7302 6.29995 15.7265C6.29995 15.7229 6.29995 15.7193 6.29995 15.7157C6.29995 15.7121 6.29995 15.7085 6.29995 15.7048C6.29995 15.7012 6.29995 15.6976 6.29995 15.694C6.29995 15.6904 6.29995 15.6868 6.29995 15.6832C6.29995 15.6796 6.29995 15.676 6.29995 15.6723C6.29995 15.6687 6.29995 15.6651 6.29995 15.6615C6.29995 15.6579 6.29995 15.6543 6.29995 15.6507C6.29995 15.6471 6.29995 15.6435 6.29995 15.6399C6.29995 15.6363 6.29995 15.6327 6.29995 15.6291C6.29995 15.6255 6.29995 15.6219 6.29995 15.6183C6.29995 15.6147 6.29995 15.6111 6.29995 15.6075C6.29995 15.6039 6.29995 15.6003 6.29995 15.5967C6.29995 15.5931 6.29995 15.5895 6.29995 15.5859C6.29995 15.5824 6.29995 15.5788 6.29995 15.5752C6.29995 15.5716 6.29995 15.568 6.29995 15.5644C6.29995 15.5608 6.29995 15.5572 6.29995 15.5536C6.29995 15.5501 6.29995 15.5465 6.29995 15.5429C6.29995 15.5393 6.29995 15.5357 6.29995 15.5322C6.29995 15.5286 6.29995 15.525 6.29995 15.5214C6.29995 15.5178 6.29995 15.5143 6.29995 15.5107C6.29995 15.5071 6.29995 15.5035 6.29995 15.5C6.29995 15.4964 6.29995 15.4928 6.29995 15.4892C6.29995 15.4857 6.29995 15.4821 6.29995 15.4785C6.29995 15.475 6.29995 15.4714 6.29995 15.4678C6.29995 15.4643 6.29995 15.4607 6.29995 15.4571C6.29995 15.4536 6.29995 15.45 6.29995 15.4464C6.29995 15.4429 6.29995 15.4393 6.29995 15.4358C6.29995 15.4322 6.29995 15.4286 6.29995 15.4251C6.29995 15.4215 6.29995 15.418 6.29995 15.4144C6.29995 15.4109 6.29995 15.4073 6.29995 15.4038C6.29995 15.4002 6.29995 15.3967 6.29995 15.3931C6.29995 15.3896 6.29995 15.386 6.29995 15.3825L3.29995 15.3825ZM8.63329 10.05C5.68822 10.05 3.29995 12.4365 3.29995 15.3825L6.29995 15.3825C6.29995 14.0942 7.34418 13.05 8.63329 13.05L8.63329 10.05ZM20.7 15.3833C20.7 12.4378 18.3121 10.05 15.3666 10.05L15.3666 13.05C16.6553 13.05 17.7 14.0947 17.7 15.3833L20.7 15.3833Z" fill="black" mask="url(#path-1-inside-1_1858_8590)"/>
<path d="M14.8501 6.6C14.8501 8.17401 13.5742 9.45 12.0001 9.45C10.4261 9.45 9.15015 8.17401 9.15015 6.6C9.15015 5.02599 10.4261 3.75 12.0001 3.75C13.5742 3.75 14.8501 5.02599 14.8501 6.6Z" stroke="black" stroke-width="1.5" stroke-miterlimit="10"/>
</svg>
