<svg width="33" height="32" viewBox="0 0 33 32" fill="none" xmlns="http://www.w3.org/2000/svg">
<path fill-rule="evenodd" clip-rule="evenodd" d="M14.2366 4C13.4696 4 12.8158 4.54328 12.6968 5.31501L12.6967 5.315L12.6955 5.32346L12.3512 7.68911C11.953 7.87908 11.5756 8.09517 11.2188 8.32945L8.90102 7.42357L8.90105 7.42351L8.89065 7.41958C8.19723 7.15741 7.37777 7.41319 6.98098 8.09724L4.7214 11.9004L4.71708 11.9077L4.71287 11.915C4.33255 12.5806 4.47477 13.4328 5.12369 13.9133L7.04562 15.3727C7.02592 15.5771 7.01371 15.7883 7.01371 15.9999C7.01371 16.2044 7.02178 16.4135 7.03818 16.6219L5.10364 18.0909L5.1036 18.0909L5.09447 18.098C4.48082 18.5753 4.33626 19.4195 4.68874 20.0668L4.6977 20.0833L4.70726 20.0994L6.96683 23.9025C7.38409 24.6222 8.20838 24.7979 8.83115 24.5961L8.85931 24.587L8.88688 24.5762L11.203 23.671C11.5644 23.9094 11.9403 24.1233 12.3372 24.3116L12.6814 26.6763L12.6856 26.7052L12.6914 26.7338C12.8399 27.4554 13.4608 27.9997 14.2366 27.9997H18.7624C19.4783 27.9997 20.206 27.4987 20.3059 26.6604L20.6479 24.3106C21.0461 24.1207 21.4235 23.9046 21.7802 23.6703L24.098 24.5762L24.098 24.5762L24.1084 24.5802C24.8019 24.8423 25.6214 24.5865 26.0181 23.9024L28.2777 20.0994L28.282 20.0921L28.2862 20.0847C28.666 19.4202 28.5247 18.5695 27.8782 18.0885L25.9634 16.6171C25.9773 16.4173 25.9853 16.2114 25.9853 15.9999C25.9853 15.7899 25.9774 15.5824 25.9613 15.3775L27.8954 13.9088L27.8955 13.9089L27.9046 13.9018C28.5182 13.4245 28.6628 12.5802 28.3103 11.9329L28.3014 11.9165L28.2918 11.9004L26.0323 8.09738C25.6151 7.37761 24.7907 7.20184 24.1679 7.40367L24.1398 7.41279L24.1122 7.42357L21.7961 8.32877C21.4347 8.09039 21.0588 7.87647 20.6619 7.68815L20.3177 5.32346L20.3177 5.32345L20.3164 5.31501C20.1927 4.51329 19.4981 4 18.7624 4H14.2366ZM14.2503 8.5265L14.6181 6H18.3951L18.7629 8.5265L18.8461 9.09869L19.3836 9.31195C19.988 9.55181 20.535 9.86478 21.0665 10.2585L21.5108 10.5876L22.0258 10.3863L24.493 9.42207L26.3596 12.5638L24.2957 14.131L23.8159 14.4953L23.9138 15.0898C23.9609 15.3765 23.9853 15.6795 23.9853 15.9999C23.9853 16.3205 23.9609 16.6359 23.9222 16.9499L23.8522 17.5171L24.3053 17.8653L26.3466 19.4339L24.4788 22.5777L22.0116 21.6134L21.4989 21.413L21.0553 21.7391C20.533 22.123 19.9709 22.4491 19.3694 22.6878L18.832 22.9011L18.7487 23.4732L18.381 25.9997H14.604L14.2362 23.4732L14.1529 22.9011L13.6155 22.6878C13.011 22.4479 12.4641 22.135 11.9325 21.7412L11.4883 21.4121L10.9733 21.6134L8.50608 22.5777L6.63948 19.436L8.70333 17.8688L9.18313 17.5044L9.0853 16.91C9.03827 16.6242 9.01371 16.3075 9.01371 15.9999C9.01371 15.7162 9.04786 15.4032 9.09944 15.0898L9.19728 14.4953L8.71747 14.131L6.65362 12.5638L8.52022 9.42207L10.9874 10.3863L11.5002 10.5867L11.9437 10.2607C12.4661 9.87674 13.0282 9.55062 13.6296 9.31195L14.1671 9.09869L14.2503 8.5265ZM18.4997 16C18.4997 17.1046 17.6042 18 16.4997 18C15.3951 18 14.4997 17.1046 14.4997 16C14.4997 14.8954 15.3951 14 16.4997 14C17.6042 14 18.4997 14.8954 18.4997 16ZM20.4997 16C20.4997 18.2091 18.7088 20 16.4997 20C14.2905 20 12.4997 18.2091 12.4997 16C12.4997 13.7909 14.2905 12 16.4997 12C18.7088 12 20.4997 13.7909 20.4997 16Z" fill="black"/>
</svg>
