<svg width="16" height="16" viewBox="0 0 16 16" fill="none" xmlns="http://www.w3.org/2000/svg">
<mask id="path-1-inside-1_1858_8680" fill="white">
<path d="M12.7998 13.9987L12.7998 10.2556C12.7998 8.84416 11.6556 7.7 10.2442 7.7L5.75536 7.7C4.34396 7.7 3.1998 8.84358 3.1998 10.255C3.1998 11.4659 3.1998 12.8873 3.1998 14"/>
</mask>
<path d="M13.7998 13.9987L13.7998 10.2556L11.7998 10.2556L11.7998 13.9987L13.7998 13.9987ZM10.2442 6.7L5.75536 6.7L5.75536 8.7L10.2442 8.7L10.2442 6.7ZM2.1998 10.255C2.1998 10.2573 2.1998 10.2597 2.1998 10.2621C2.1998 10.2644 2.1998 10.2668 2.1998 10.2692C2.1998 10.2715 2.1998 10.2739 2.1998 10.2763C2.1998 10.2787 2.1998 10.281 2.1998 10.2834C2.1998 10.2858 2.1998 10.2881 2.1998 10.2905C2.1998 10.2929 2.1998 10.2953 2.1998 10.2976C2.1998 10.3 2.1998 10.3024 2.1998 10.3048C2.1998 10.3071 2.1998 10.3095 2.1998 10.3119C2.1998 10.3143 2.1998 10.3166 2.1998 10.319C2.1998 10.3214 2.1998 10.3238 2.1998 10.3262C2.1998 10.3285 2.1998 10.3309 2.1998 10.3333C2.1998 10.3357 2.1998 10.3381 2.1998 10.3405C2.1998 10.3428 2.1998 10.3452 2.1998 10.3476C2.1998 10.35 2.1998 10.3524 2.1998 10.3548C2.1998 10.3572 2.1998 10.3595 2.1998 10.3619C2.1998 10.3643 2.1998 10.3667 2.1998 10.3691C2.1998 10.3715 2.1998 10.3739 2.1998 10.3763C2.1998 10.3787 2.1998 10.3811 2.1998 10.3834C2.1998 10.3858 2.1998 10.3882 2.1998 10.3906C2.1998 10.393 2.1998 10.3954 2.1998 10.3978C2.1998 10.4002 2.1998 10.4026 2.1998 10.405C2.1998 10.4074 2.1998 10.4098 2.1998 10.4122C2.1998 10.4146 2.1998 10.417 2.1998 10.4194C2.1998 10.4218 2.1998 10.4242 2.1998 10.4266C2.1998 10.429 2.1998 10.4314 2.1998 10.4338C2.1998 10.4362 2.1998 10.4386 2.1998 10.441C2.1998 10.4434 2.1998 10.4458 2.1998 10.4482C2.1998 10.4506 2.1998 10.453 2.1998 10.4554C2.1998 10.4579 2.1998 10.4603 2.1998 10.4627C2.1998 10.4651 2.1998 10.4675 2.1998 10.4699C2.1998 10.4723 2.1998 10.4747 2.1998 10.4771C2.1998 10.4795 2.1998 10.482 2.1998 10.4844C2.1998 10.4868 2.1998 10.4892 2.1998 10.4916C2.1998 10.494 2.1998 10.4964 2.1998 10.4988C2.1998 10.5013 2.1998 10.5037 2.1998 10.5061C2.1998 10.5085 2.1998 10.5109 2.1998 10.5133C2.1998 10.5158 2.1998 10.5182 2.1998 10.5206C2.1998 10.523 2.1998 10.5254 2.1998 10.5279C2.1998 10.5303 2.1998 10.5327 2.1998 10.5351C2.1998 10.5375 2.1998 10.54 2.1998 10.5424C2.1998 10.5448 2.1998 10.5472 2.1998 10.5497C2.1998 10.5521 2.1998 10.5545 2.1998 10.5569C2.1998 10.5594 2.1998 10.5618 2.1998 10.5642C2.1998 10.5666 2.1998 10.5691 2.1998 10.5715C2.1998 10.5739 2.1998 10.5764 2.1998 10.5788C2.1998 10.5812 2.1998 10.5837 2.1998 10.5861C2.1998 10.5885 2.1998 10.5909 2.1998 10.5934C2.1998 10.5958 2.1998 10.5982 2.1998 10.6007C2.1998 10.6031 2.1998 10.6055 2.1998 10.608C2.1998 10.6104 2.1998 10.6128 2.1998 10.6153C2.1998 10.6177 2.1998 10.6202 2.1998 10.6226C2.1998 10.625 2.1998 10.6275 2.1998 10.6299C2.1998 10.6323 2.1998 10.6348 2.1998 10.6372C2.1998 10.6397 2.1998 10.6421 2.1998 10.6445C2.1998 10.647 2.1998 10.6494 2.1998 10.6519C2.1998 10.6543 2.1998 10.6567 2.1998 10.6592C2.1998 10.6616 2.1998 10.6641 2.1998 10.6665C2.1998 10.669 2.1998 10.6714 2.1998 10.6739C2.1998 10.6763 2.1998 10.6787 2.1998 10.6812C2.1998 10.6836 2.1998 10.6861 2.1998 10.6885C2.1998 10.691 2.1998 10.6934 2.1998 10.6959C2.1998 10.6983 2.1998 10.7008 2.1998 10.7032C2.1998 10.7057 2.1998 10.7081 2.1998 10.7106C2.1998 10.713 2.1998 10.7155 2.1998 10.7179C2.1998 10.7204 2.1998 10.7228 2.1998 10.7253C2.1998 10.7277 2.1998 10.7302 2.1998 10.7326C2.1998 10.7351 2.1998 10.7376 2.1998 10.74C2.1998 10.7425 2.1998 10.7449 2.1998 10.7474C2.1998 10.7498 2.1998 10.7523 2.1998 10.7548C2.1998 10.7572 2.1998 10.7597 2.1998 10.7621C2.1998 10.7646 2.1998 10.767 2.1998 10.7695C2.1998 10.772 2.1998 10.7744 2.1998 10.7769C2.1998 10.7793 2.1998 10.7818 2.1998 10.7843C2.1998 10.7867 2.1998 10.7892 2.1998 10.7917C2.1998 10.7941 2.1998 10.7966 2.1998 10.799C2.1998 10.8015 2.1998 10.804 2.1998 10.8064C2.1998 10.8089 2.1998 10.8114 2.1998 10.8138C2.1998 10.8163 2.1998 10.8188 2.1998 10.8212C2.1998 10.8237 2.1998 10.8262 2.1998 10.8286C2.1998 10.8311 2.1998 10.8336 2.1998 10.836C2.1998 10.8385 2.1998 10.841 2.1998 10.8434C2.1998 10.8459 2.1998 10.8484 2.1998 10.8509C2.1998 10.8533 2.1998 10.8558 2.1998 10.8583C2.1998 10.8607 2.1998 10.8632 2.1998 10.8657C2.1998 10.8682 2.1998 10.8706 2.1998 10.8731C2.1998 10.8756 2.1998 10.8781 2.1998 10.8805C2.1998 10.883 2.1998 10.8855 2.1998 10.888C2.1998 10.8904 2.1998 10.8929 2.1998 10.8954C2.1998 10.8979 2.1998 10.9003 2.1998 10.9028C2.1998 10.9053 2.1998 10.9078 2.1998 10.9102C2.1998 10.9127 2.1998 10.9152 2.1998 10.9177C2.1998 10.9202 2.1998 10.9226 2.1998 10.9251C2.1998 10.9276 2.1998 10.9301 2.1998 10.9326C2.1998 10.935 2.1998 10.9375 2.1998 10.94C2.1998 10.9425 2.1998 10.945 2.1998 10.9475C2.1998 10.9499 2.1998 10.9524 2.1998 10.9549C2.1998 10.9574 2.1998 10.9599 2.1998 10.9624C2.1998 10.9648 2.1998 10.9673 2.1998 10.9698C2.1998 10.9723 2.1998 10.9748 2.1998 10.9773C2.1998 10.9798 2.1998 10.9822 2.1998 10.9847C2.1998 10.9872 2.1998 10.9897 2.1998 10.9922C2.1998 10.9947 2.1998 10.9972 2.1998 10.9997C2.1998 11.0021 2.1998 11.0046 2.1998 11.0071C2.1998 11.0096 2.1998 11.0121 2.1998 11.0146C2.1998 11.0171 2.1998 11.0196 2.1998 11.0221C2.1998 11.0246 2.1998 11.027 2.1998 11.0295C2.1998 11.032 2.1998 11.0345 2.1998 11.037C2.1998 11.0395 2.1998 11.042 2.1998 11.0445C2.1998 11.047 2.1998 11.0495 2.1998 11.052C2.1998 11.0545 2.1998 11.057 2.1998 11.0595C2.1998 11.062 2.1998 11.0645 2.1998 11.0669C2.1998 11.0694 2.1998 11.0719 2.1998 11.0744C2.1998 11.0769 2.1998 11.0794 2.1998 11.0819C2.1998 11.0844 2.1998 11.0869 2.1998 11.0894C2.1998 11.0919 2.1998 11.0944 2.1998 11.0969C2.1998 11.0994 2.1998 11.1019 2.1998 11.1044C2.1998 11.1069 2.1998 11.1094 2.1998 11.1119C2.1998 11.1144 2.1998 11.1169 2.1998 11.1194C2.1998 11.1219 2.1998 11.1244 2.1998 11.1269C2.1998 11.1294 2.1998 11.1319 2.1998 11.1344C2.1998 11.1369 2.1998 11.1394 2.1998 11.1419C2.1998 11.1444 2.1998 11.1469 2.1998 11.1494C2.1998 11.1519 2.1998 11.1544 2.1998 11.1569C2.1998 11.1594 2.1998 11.162 2.1998 11.1645C2.1998 11.167 2.1998 11.1695 2.1998 11.172C2.1998 11.1745 2.1998 11.177 2.1998 11.1795C2.1998 11.182 2.1998 11.1845 2.1998 11.187C2.1998 11.1895 2.1998 11.192 2.1998 11.1945C2.1998 11.197 2.1998 11.1995 2.1998 11.2021C2.1998 11.2046 2.1998 11.2071 2.1998 11.2096C2.1998 11.2121 2.1998 11.2146 2.1998 11.2171C2.1998 11.2196 2.1998 11.2221 2.1998 11.2246C2.1998 11.2271 2.1998 11.2297 2.1998 11.2322C2.1998 11.2347 2.1998 11.2372 2.1998 11.2397C2.1998 11.2422 2.1998 11.2447 2.1998 11.2472C2.1998 11.2497 2.1998 11.2523 2.1998 11.2548C2.1998 11.2573 2.1998 11.2598 2.1998 11.2623C2.1998 11.2648 2.1998 11.2673 2.1998 11.2698C2.1998 11.2724 2.1998 11.2749 2.1998 11.2774C2.1998 11.2799 2.1998 11.2824 2.1998 11.2849C2.1998 11.2874 2.1998 11.2899 2.1998 11.2925C2.1998 11.295 2.1998 11.2975 2.1998 11.3C2.1998 11.3025 2.1998 11.305 2.1998 11.3076C2.1998 11.3101 2.1998 11.3126 2.1998 11.3151C2.1998 11.3176 2.1998 11.3201 2.1998 11.3226C2.1998 11.3252 2.1998 11.3277 2.1998 11.3302C2.1998 11.3327 2.1998 11.3352 2.1998 11.3378C2.1998 11.3403 2.1998 11.3428 2.1998 11.3453C2.1998 11.3478 2.1998 11.3503 2.1998 11.3529C2.1998 11.3554 2.1998 11.3579 2.1998 11.3604C2.1998 11.3629 2.1998 11.3655 2.1998 11.368C2.1998 11.3705 2.1998 11.373 2.1998 11.3755C2.1998 11.3781 2.1998 11.3806 2.1998 11.3831C2.1998 11.3856 2.1998 11.3881 2.1998 11.3907C2.1998 11.3932 2.1998 11.3957 2.1998 11.3982C2.1998 11.4007 2.1998 11.4033 2.1998 11.4058C2.1998 11.4083 2.1998 11.4108 2.1998 11.4133C2.1998 11.4159 2.1998 11.4184 2.1998 11.4209C2.1998 11.4234 2.1998 11.426 2.1998 11.4285C2.1998 11.431 2.1998 11.4335 2.1998 11.436C2.1998 11.4386 2.1998 11.4411 2.1998 11.4436C2.1998 11.4461 2.1998 11.4487 2.1998 11.4512C2.1998 11.4537 2.1998 11.4562 2.1998 11.4588C2.1998 11.4613 2.1998 11.4638 2.1998 11.4663C2.1998 11.4689 2.1998 11.4714 2.1998 11.4739C2.1998 11.4764 2.1998 11.479 2.1998 11.4815C2.1998 11.484 2.1998 11.4865 2.1998 11.4891C2.1998 11.4916 2.1998 11.4941 2.1998 11.4966C2.1998 11.4992 2.1998 11.5017 2.1998 11.5042C2.1998 11.5067 2.1998 11.5093 2.1998 11.5118C2.1998 11.5143 2.1998 11.5168 2.1998 11.5194C2.1998 11.5219 2.1998 11.5244 2.1998 11.5269C2.1998 11.5295 2.1998 11.532 2.1998 11.5345C2.1998 11.5371 2.1998 11.5396 2.1998 11.5421C2.1998 11.5446 2.1998 11.5472 2.1998 11.5497C2.1998 11.5522 2.1998 11.5547 2.1998 11.5573C2.1998 11.5598 2.1998 11.5623 2.1998 11.5649C2.1998 11.5674 2.1998 11.5699 2.1998 11.5724C2.1998 11.575 2.1998 11.5775 2.1998 11.58C2.1998 11.5826 2.1998 11.5851 2.1998 11.5876C2.1998 11.5901 2.1998 11.5927 2.1998 11.5952C2.1998 11.5977 2.1998 11.6003 2.1998 11.6028C2.1998 11.6053 2.1998 11.6078 2.1998 11.6104C2.1998 11.6129 2.1998 11.6154 2.1998 11.618C2.1998 11.6205 2.1998 11.623 2.1998 11.6256C2.1998 11.6281 2.1998 11.6306 2.1998 11.6331C2.1998 11.6357 2.1998 11.6382 2.1998 11.6407C2.1998 11.6433 2.1998 11.6458 2.1998 11.6483C2.1998 11.6509 2.1998 11.6534 2.1998 11.6559C2.1998 11.6584 2.1998 11.661 2.1998 11.6635C2.1998 11.666 2.1998 11.6686 2.1998 11.6711C2.1998 11.6736 2.1998 11.6762 2.1998 11.6787C2.1998 11.6812 2.1998 11.6838 2.1998 11.6863C2.1998 11.6888 2.1998 11.6913 2.1998 11.6939C2.1998 11.6964 2.1998 11.6989 2.1998 11.7015C2.1998 11.704 2.1998 11.7065 2.1998 11.7091C2.1998 11.7116 2.1998 11.7141 2.1998 11.7167C2.1998 11.7192 2.1998 11.7217 2.1998 11.7243C2.1998 11.7268 2.1998 11.7293 2.1998 11.7318C2.1998 11.7344 2.1998 11.7369 2.1998 11.7394C2.1998 11.742 2.1998 11.7445 2.1998 11.747C2.1998 11.7496 2.1998 11.7521 2.1998 11.7546C2.1998 11.7572 2.1998 11.7597 2.1998 11.7622C2.1998 11.7648 2.1998 11.7673 2.1998 11.7698C2.1998 11.7724 2.1998 11.7749 2.1998 11.7774C2.1998 11.7799 2.1998 11.7825 2.1998 11.785C2.1998 11.7875 2.1998 11.7901 2.1998 11.7926C2.1998 11.7951 2.1998 11.7977 2.1998 11.8002C2.1998 11.8027 2.1998 11.8053 2.1998 11.8078C2.1998 11.8103 2.1998 11.8129 2.1998 11.8154C2.1998 11.8179 2.1998 11.8205 2.1998 11.823C2.1998 11.8255 2.1998 11.8281 2.1998 11.8306C2.1998 11.8331 2.1998 11.8356 2.1998 11.8382C2.1998 11.8407 2.1998 11.8432 2.1998 11.8458C2.1998 11.8483 2.1998 11.8508 2.1998 11.8534C2.1998 11.8559 2.1998 11.8584 2.1998 11.861C2.1998 11.8635 2.1998 11.866 2.1998 11.8686C2.1998 11.8711 2.1998 11.8736 2.1998 11.8761C2.1998 11.8787 2.1998 11.8812 2.1998 11.8837C2.1998 11.8863 2.1998 11.8888 2.1998 11.8913C2.1998 11.8939 2.1998 11.8964 2.1998 11.8989C2.1998 11.9015 2.1998 11.904 2.1998 11.9065C2.1998 11.9091 2.1998 11.9116 2.1998 11.9141C2.1998 11.9166 2.1998 11.9192 2.1998 11.9217C2.1998 11.9242 2.1998 11.9268 2.1998 11.9293C2.1998 11.9318 2.1998 11.9344 2.1998 11.9369C2.1998 11.9394 2.1998 11.942 2.1998 11.9445C2.1998 11.947 2.1998 11.9495 2.1998 11.9521C2.1998 11.9546 2.1998 11.9571 2.1998 11.9597C2.1998 11.9622 2.1998 11.9647 2.1998 11.9673C2.1998 11.9698 2.1998 11.9723 2.1998 11.9748C2.1998 11.9774 2.1998 11.9799 2.1998 11.9824C2.1998 11.985 2.1998 11.9875 2.1998 11.99C2.1998 11.9925 2.1998 11.9951 2.1998 11.9976C2.1998 12.0001 2.1998 12.0027 2.1998 12.0052C2.1998 12.0077 2.1998 12.0102 2.1998 12.0128C2.1998 12.0153 2.1998 12.0178 2.1998 12.0204C2.1998 12.0229 2.1998 12.0254 2.1998 12.0279C2.1998 12.0305 2.1998 12.033 2.1998 12.0355C2.1998 12.0381 2.1998 12.0406 2.1998 12.0431C2.1998 12.0456 2.1998 12.0482 2.1998 12.0507C2.1998 12.0532 2.1998 12.0558 2.1998 12.0583C2.1998 12.0608 2.1998 12.0633 2.1998 12.0659C2.1998 12.0684 2.1998 12.0709 2.1998 12.0734C2.1998 12.076 2.1998 12.0785 2.1998 12.081C2.1998 12.0835 2.1998 12.0861 2.1998 12.0886C2.1998 12.0911 2.1998 12.0937 2.1998 12.0962C2.1998 12.0987 2.1998 12.1012 2.1998 12.1038C2.1998 12.1063 2.1998 12.1088 2.1998 12.1113C2.1998 12.1139 2.1998 12.1164 2.1998 12.1189C2.1998 12.1214 2.1998 12.124 2.1998 12.1265C2.1998 12.129 2.1998 12.1315 2.1998 12.1341C2.1998 12.1366 2.1998 12.1391 2.1998 12.1416C2.1998 12.1441 2.1998 12.1467 2.1998 12.1492C2.1998 12.1517 2.1998 12.1542 2.1998 12.1568C2.1998 12.1593 2.1998 12.1618 2.1998 12.1643C2.1998 12.1669 2.1998 12.1694 2.1998 12.1719C2.1998 12.1744 2.1998 12.1769 2.1998 12.1795C2.1998 12.182 2.1998 12.1845 2.1998 12.187C2.1998 12.1896 2.1998 12.1921 2.1998 12.1946C2.1998 12.1971 2.1998 12.1996 2.1998 12.2022C2.1998 12.2047 2.1998 12.2072 2.1998 12.2097C2.1998 12.2122 2.1998 12.2148 2.1998 12.2173C2.1998 12.2198 2.1998 12.2223 2.1998 12.2248C2.1998 12.2274 2.1998 12.2299 2.1998 12.2324C2.1998 12.2349 2.1998 12.2374 2.1998 12.24C2.1998 12.2425 2.1998 12.245 2.1998 12.2475C2.1998 12.25 2.1998 12.2525 2.1998 12.2551C2.1998 12.2576 2.1998 12.2601 2.1998 12.2626C2.1998 12.2651 2.1998 12.2676 2.1998 12.2702C2.1998 12.2727 2.1998 12.2752 2.1998 12.2777C2.1998 12.2802 2.1998 12.2827 2.1998 12.2853C2.1998 12.2878 2.1998 12.2903 2.1998 12.2928C2.1998 12.2953 2.1998 12.2978 2.1998 12.3004C2.1998 12.3029 2.1998 12.3054 2.1998 12.3079C2.1998 12.3104 2.1998 12.3129 2.1998 12.3154C2.1998 12.3179 2.1998 12.3205 2.1998 12.323C2.1998 12.3255 2.1998 12.328 2.1998 12.3305C2.1998 12.333 2.1998 12.3355 2.1998 12.3381C2.1998 12.3406 2.1998 12.3431 2.1998 12.3456C2.1998 12.3481 2.1998 12.3506 2.1998 12.3531C2.1998 12.3556 2.1998 12.3581 2.1998 12.3607C2.1998 12.3632 2.1998 12.3657 2.1998 12.3682C2.1998 12.3707 2.1998 12.3732 2.1998 12.3757C2.1998 12.3782 2.1998 12.3807 2.1998 12.3832C2.1998 12.3857 2.1998 12.3883 2.1998 12.3908C2.1998 12.3933 2.1998 12.3958 2.1998 12.3983C2.1998 12.4008 2.1998 12.4033 2.1998 12.4058C2.1998 12.4083 2.1998 12.4108 2.1998 12.4133C2.1998 12.4158 2.1998 12.4183 2.1998 12.4208C2.1998 12.4233 2.1998 12.4259 2.1998 12.4284C2.1998 12.4309 2.1998 12.4334 2.1998 12.4359C2.1998 12.4384 2.1998 12.4409 2.1998 12.4434C2.1998 12.4459 2.1998 12.4484 2.1998 12.4509C2.1998 12.4534 2.1998 12.4559 2.1998 12.4584C2.1998 12.4609 2.1998 12.4634 2.1998 12.4659C2.1998 12.4684 2.1998 12.4709 2.1998 12.4734C2.1998 12.4759 2.1998 12.4784 2.1998 12.4809C2.1998 12.4834 2.1998 12.4859 2.1998 12.4884C2.1998 12.4909 2.1998 12.4934 2.1998 12.4959C2.1998 12.4984 2.1998 12.5009 2.1998 12.5034C2.1998 12.5059 2.1998 12.5084 2.1998 12.5109C2.1998 12.5134 2.1998 12.5159 2.1998 12.5184C2.1998 12.5209 2.1998 12.5234 2.1998 12.5259C2.1998 12.5284 2.1998 12.5309 2.1998 12.5334C2.1998 12.5359 2.1998 12.5383 2.1998 12.5408C2.1998 12.5433 2.1998 12.5458 2.1998 12.5483C2.1998 12.5508 2.1998 12.5533 2.1998 12.5558C2.1998 12.5583 2.1998 12.5608 2.1998 12.5633C2.1998 12.5658 2.1998 12.5683 2.1998 12.5708C2.1998 12.5732 2.1998 12.5757 2.1998 12.5782C2.1998 12.5807 2.1998 12.5832 2.1998 12.5857C2.1998 12.5882 2.1998 12.5907 2.1998 12.5932C2.1998 12.5957 2.1998 12.5981 2.1998 12.6006C2.1998 12.6031 2.1998 12.6056 2.1998 12.6081C2.1998 12.6106 2.1998 12.6131 2.1998 12.6156C2.1998 12.618 2.1998 12.6205 2.1998 12.623C2.1998 12.6255 2.1998 12.628 2.1998 12.6305C2.1998 12.6329 2.1998 12.6354 2.1998 12.6379C2.1998 12.6404 2.1998 12.6429 2.1998 12.6454C2.1998 12.6478 2.1998 12.6503 2.1998 12.6528C2.1998 12.6553 2.1998 12.6578 2.1998 12.6603C2.1998 12.6627 2.1998 12.6652 2.1998 12.6677C2.1998 12.6702 2.1998 12.6727 2.1998 12.6751C2.1998 12.6776 2.1998 12.6801 2.1998 12.6826C2.1998 12.6851 2.1998 12.6875 2.1998 12.69C2.1998 12.6925 2.1998 12.695 2.1998 12.6974C2.1998 12.6999 2.1998 12.7024 2.1998 12.7049C2.1998 12.7073 2.1998 12.7098 2.1998 12.7123C2.1998 12.7148 2.1998 12.7172 2.1998 12.7197C2.1998 12.7222 2.1998 12.7247 2.1998 12.7271C2.1998 12.7296 2.1998 12.7321 2.1998 12.7346C2.1998 12.737 2.1998 12.7395 2.1998 12.742C2.1998 12.7444 2.1998 12.7469 2.1998 12.7494C2.1998 12.7518 2.1998 12.7543 2.1998 12.7568C2.1998 12.7593 2.1998 12.7617 2.1998 12.7642C2.1998 12.7667 2.1998 12.7691 2.1998 12.7716C2.1998 12.7741 2.1998 12.7765 2.1998 12.779C2.1998 12.7815 2.1998 12.7839 2.1998 12.7864C2.1998 12.7889 2.1998 12.7913 2.1998 12.7938C2.1998 12.7962 2.1998 12.7987 2.1998 12.8012C2.1998 12.8036 2.1998 12.8061 2.1998 12.8086C2.1998 12.811 2.1998 12.8135 2.1998 12.8159C2.1998 12.8184 2.1998 12.8209 2.1998 12.8233C2.1998 12.8258 2.1998 12.8282 2.1998 12.8307C2.1998 12.8332 2.1998 12.8356 2.1998 12.8381C2.1998 12.8405 2.1998 12.843 2.1998 12.8454C2.1998 12.8479 2.1998 12.8504 2.1998 12.8528C2.1998 12.8553 2.1998 12.8577 2.1998 12.8602C2.1998 12.8626 2.1998 12.8651 2.1998 12.8675C2.1998 12.87 2.1998 12.8724 2.1998 12.8749C2.1998 12.8774 2.1998 12.8798 2.1998 12.8823C2.1998 12.8847 2.1998 12.8872 2.1998 12.8896C2.1998 12.8921 2.1998 12.8945 2.1998 12.897C2.1998 12.8994 2.1998 12.9019 2.1998 12.9043C2.1998 12.9067 2.1998 12.9092 2.1998 12.9116C2.1998 12.9141 2.1998 12.9165 2.1998 12.919C2.1998 12.9214 2.1998 12.9239 2.1998 12.9263C2.1998 12.9288 2.1998 12.9312 2.1998 12.9336C2.1998 12.9361 2.1998 12.9385 2.1998 12.941C2.1998 12.9434 2.1998 12.9459 2.1998 12.9483C2.1998 12.9507 2.1998 12.9532 2.1998 12.9556C2.1998 12.9581 2.1998 12.9605 2.1998 12.9629C2.1998 12.9654 2.1998 12.9678 2.1998 12.9702C2.1998 12.9727 2.1998 12.9751 2.1998 12.9776C2.1998 12.98 2.1998 12.9824 2.1998 12.9849C2.1998 12.9873 2.1998 12.9897 2.1998 12.9922C2.1998 12.9946 2.1998 12.997 2.1998 12.9995C2.1998 13.0019 2.1998 13.0043 2.1998 13.0068C2.1998 13.0092 2.1998 13.0116 2.1998 13.014C2.1998 13.0165 2.1998 13.0189 2.1998 13.0213C2.1998 13.0238 2.1998 13.0262 2.1998 13.0286C2.1998 13.031 2.1998 13.0335 2.1998 13.0359C2.1998 13.0383 2.1998 13.0407 2.1998 13.0432C2.1998 13.0456 2.1998 13.048 2.1998 13.0504C2.1998 13.0529 2.1998 13.0553 2.1998 13.0577C2.1998 13.0601 2.1998 13.0626 2.1998 13.065C2.1998 13.0674 2.1998 13.0698 2.1998 13.0722C2.1998 13.0747 2.1998 13.0771 2.1998 13.0795C2.1998 13.0819 2.1998 13.0843 2.1998 13.0867C2.1998 13.0892 2.1998 13.0916 2.1998 13.094C2.1998 13.0964 2.1998 13.0988 2.1998 13.1012C2.1998 13.1036 2.1998 13.1061 2.1998 13.1085C2.1998 13.1109 2.1998 13.1133 2.1998 13.1157C2.1998 13.1181 2.1998 13.1205 2.1998 13.1229C2.1998 13.1254 2.1998 13.1278 2.1998 13.1302C2.1998 13.1326 2.1998 13.135 2.1998 13.1374C2.1998 13.1398 2.1998 13.1422 2.1998 13.1446C2.1998 13.147 2.1998 13.1494 2.1998 13.1518C2.1998 13.1542 2.1998 13.1566 2.1998 13.159C2.1998 13.1614 2.1998 13.1638 2.1998 13.1662C2.1998 13.1686 2.1998 13.171 2.1998 13.1734C2.1998 13.1758 2.1998 13.1782 2.1998 13.1806C2.1998 13.183 2.1998 13.1854 2.1998 13.1878C2.1998 13.1902 2.1998 13.1926 2.1998 13.195C2.1998 13.1974 2.1998 13.1998 2.1998 13.2022C2.1998 13.2046 2.1998 13.207 2.1998 13.2094C2.1998 13.2118 2.1998 13.2142 2.1998 13.2166C2.1998 13.219 2.1998 13.2214 2.1998 13.2237C2.1998 13.2261 2.1998 13.2285 2.1998 13.2309C2.1998 13.2333 2.1998 13.2357 2.1998 13.2381C2.1998 13.2405 2.1998 13.2428 2.1998 13.2452C2.1998 13.2476 2.1998 13.25 2.1998 13.2524C2.1998 13.2548 2.1998 13.2572 2.1998 13.2595C2.1998 13.2619 2.1998 13.2643 2.1998 13.2667C2.1998 13.2691 2.1998 13.2714 2.1998 13.2738C2.1998 13.2762 2.1998 13.2786 2.1998 13.281C2.1998 13.2833 2.1998 13.2857 2.1998 13.2881C2.1998 13.2905 2.1998 13.2928 2.1998 13.2952C2.1998 13.2976 2.1998 13.3 2.1998 13.3023C2.1998 13.3047 2.1998 13.3071 2.1998 13.3095C2.1998 13.3118 2.1998 13.3142 2.1998 13.3166C2.1998 13.3189 2.1998 13.3213 2.1998 13.3237C2.1998 13.326 2.1998 13.3284 2.1998 13.3308C2.1998 13.3331 2.1998 13.3355 2.1998 13.3379C2.1998 13.3402 2.1998 13.3426 2.1998 13.345C2.1998 13.3473 2.1998 13.3497 2.1998 13.3521C2.1998 13.3544 2.1998 13.3568 2.1998 13.3591C2.1998 13.3615 2.1998 13.3639 2.1998 13.3662C2.1998 13.3686 2.1998 13.3709 2.1998 13.3733C2.1998 13.3757 2.1998 13.378 2.1998 13.3804C2.1998 13.3827 2.1998 13.3851 2.1998 13.3874C2.1998 13.3898 2.1998 13.3921 2.1998 13.3945C2.1998 13.3968 2.1998 13.3992 2.1998 13.4015C2.1998 13.4039 2.1998 13.4062 2.1998 13.4086C2.1998 13.4109 2.1998 13.4133 2.1998 13.4156C2.1998 13.418 2.1998 13.4203 2.1998 13.4227C2.1998 13.425 2.1998 13.4274 2.1998 13.4297C2.1998 13.4321 2.1998 13.4344 2.1998 13.4367C2.1998 13.4391 2.1998 13.4414 2.1998 13.4438C2.1998 13.4461 2.1998 13.4484 2.1998 13.4508C2.1998 13.4531 2.1998 13.4555 2.1998 13.4578C2.1998 13.4601 2.1998 13.4625 2.1998 13.4648C2.1998 13.4671 2.1998 13.4695 2.1998 13.4718C2.1998 13.4741 2.1998 13.4765 2.1998 13.4788C2.1998 13.4811 2.1998 13.4835 2.1998 13.4858C2.1998 13.4881 2.1998 13.4905 2.1998 13.4928C2.1998 13.4951 2.1998 13.4974 2.1998 13.4998C2.1998 13.5021 2.1998 13.5044 2.1998 13.5067C2.1998 13.5091 2.1998 13.5114 2.1998 13.5137C2.1998 13.516 2.1998 13.5184 2.1998 13.5207C2.1998 13.523 2.1998 13.5253 2.1998 13.5276C2.1998 13.53 2.1998 13.5323 2.1998 13.5346C2.1998 13.5369 2.1998 13.5392 2.1998 13.5415C2.1998 13.5439 2.1998 13.5462 2.1998 13.5485C2.1998 13.5508 2.1998 13.5531 2.1998 13.5554C2.1998 13.5577 2.1998 13.56 2.1998 13.5624C2.1998 13.5647 2.1998 13.567 2.1998 13.5693C2.1998 13.5716 2.1998 13.5739 2.1998 13.5762C2.1998 13.5785 2.1998 13.5808 2.1998 13.5831C2.1998 13.5854 2.1998 13.5877 2.1998 13.59C2.1998 13.5923 2.1998 13.5946 2.1998 13.5969C2.1998 13.5992 2.1998 13.6015 2.1998 13.6038C2.1998 13.6061 2.1998 13.6084 2.1998 13.6107C2.1998 13.613 2.1998 13.6153 2.1998 13.6176C2.1998 13.6199 2.1998 13.6222 2.1998 13.6245C2.1998 13.6268 2.1998 13.6291 2.1998 13.6314C2.1998 13.6337 2.1998 13.636 2.1998 13.6382C2.1998 13.6405 2.1998 13.6428 2.1998 13.6451C2.1998 13.6474 2.1998 13.6497 2.1998 13.652C2.1998 13.6543 2.1998 13.6565 2.1998 13.6588C2.1998 13.6611 2.1998 13.6634 2.1998 13.6657C2.1998 13.6679 2.1998 13.6702 2.1998 13.6725C2.1998 13.6748 2.1998 13.6771 2.1998 13.6793C2.1998 13.6816 2.1998 13.6839 2.1998 13.6862C2.1998 13.6884 2.1998 13.6907 2.1998 13.693C2.1998 13.6953 2.1998 13.6975 2.1998 13.6998C2.1998 13.7021 2.1998 13.7044 2.1998 13.7066C2.1998 13.7089 2.1998 13.7112 2.1998 13.7134C2.1998 13.7157 2.1998 13.718 2.1998 13.7202C2.1998 13.7225 2.1998 13.7248 2.1998 13.727C2.1998 13.7293 2.1998 13.7315 2.1998 13.7338C2.1998 13.7361 2.1998 13.7383 2.1998 13.7406C2.1998 13.7428 2.1998 13.7451 2.1998 13.7474C2.1998 13.7496 2.1998 13.7519 2.1998 13.7541C2.1998 13.7564 2.1998 13.7586 2.1998 13.7609C2.1998 13.7631 2.1998 13.7654 2.1998 13.7676C2.1998 13.7699 2.1998 13.7721 2.1998 13.7744C2.1998 13.7766 2.1998 13.7789 2.1998 13.7811C2.1998 13.7834 2.1998 13.7856 2.1998 13.7879C2.1998 13.7901 2.1998 13.7924 2.1998 13.7946C2.1998 13.7969 2.1998 13.7991 2.1998 13.8013C2.1998 13.8036 2.1998 13.8058 2.1998 13.8081C2.1998 13.8103 2.1998 13.8125 2.1998 13.8148C2.1998 13.817 2.1998 13.8192 2.1998 13.8215C2.1998 13.8237 2.1998 13.8259 2.1998 13.8282C2.1998 13.8304 2.1998 13.8326 2.1998 13.8349C2.1998 13.8371 2.1998 13.8393 2.1998 13.8415C2.1998 13.8438 2.1998 13.846 2.1998 13.8482C2.1998 13.8504 2.1998 13.8527 2.1998 13.8549C2.1998 13.8571 2.1998 13.8593 2.1998 13.8616C2.1998 13.8638 2.1998 13.866 2.1998 13.8682C2.1998 13.8704 2.1998 13.8727 2.1998 13.8749C2.1998 13.8771 2.1998 13.8793 2.1998 13.8815C2.1998 13.8837 2.1998 13.8859 2.1998 13.8882C2.1998 13.8904 2.1998 13.8926 2.1998 13.8948C2.1998 13.897 2.1998 13.8992 2.1998 13.9014C2.1998 13.9036 2.1998 13.9058 2.1998 13.908C2.1998 13.9102 2.1998 13.9125 2.1998 13.9147C2.1998 13.9169 2.1998 13.9191 2.1998 13.9213C2.1998 13.9235 2.1998 13.9257 2.1998 13.9279C2.1998 13.9301 2.1998 13.9323 2.1998 13.9345C2.1998 13.9366 2.1998 13.9388 2.1998 13.941C2.1998 13.9432 2.1998 13.9454 2.1998 13.9476C2.1998 13.9498 2.1998 13.952 2.1998 13.9542C2.1998 13.9564 2.1998 13.9586 2.1998 13.9608C2.1998 13.9629 2.1998 13.9651 2.1998 13.9673C2.1998 13.9695 2.1998 13.9717 2.1998 13.9739C2.1998 13.976 2.1998 13.9782 2.1998 13.9804C2.1998 13.9826 2.1998 13.9848 2.1998 13.9869C2.1998 13.9891 2.1998 13.9913 2.1998 13.9935C2.1998 13.9957 2.1998 13.9978 2.1998 14L4.1998 14C4.1998 13.9978 4.1998 13.9957 4.1998 13.9935C4.1998 13.9913 4.1998 13.9891 4.1998 13.9869C4.1998 13.9848 4.1998 13.9826 4.1998 13.9804C4.1998 13.9782 4.1998 13.976 4.1998 13.9739C4.1998 13.9717 4.1998 13.9695 4.1998 13.9673C4.1998 13.9651 4.1998 13.9629 4.1998 13.9608C4.1998 13.9586 4.1998 13.9564 4.1998 13.9542C4.1998 13.952 4.1998 13.9498 4.1998 13.9476C4.1998 13.9454 4.1998 13.9432 4.1998 13.941C4.1998 13.9388 4.1998 13.9366 4.1998 13.9345C4.1998 13.9323 4.1998 13.9301 4.1998 13.9279C4.1998 13.9257 4.1998 13.9235 4.1998 13.9213C4.1998 13.9191 4.1998 13.9169 4.1998 13.9147C4.1998 13.9125 4.1998 13.9102 4.1998 13.908C4.1998 13.9058 4.1998 13.9036 4.1998 13.9014C4.1998 13.8992 4.1998 13.897 4.1998 13.8948C4.1998 13.8926 4.1998 13.8904 4.1998 13.8882C4.1998 13.886 4.1998 13.8837 4.1998 13.8815C4.1998 13.8793 4.1998 13.8771 4.1998 13.8749C4.1998 13.8727 4.1998 13.8704 4.1998 13.8682C4.1998 13.866 4.1998 13.8638 4.1998 13.8616C4.1998 13.8593 4.1998 13.8571 4.1998 13.8549C4.1998 13.8527 4.1998 13.8504 4.1998 13.8482C4.1998 13.846 4.1998 13.8438 4.1998 13.8415C4.1998 13.8393 4.1998 13.8371 4.1998 13.8349C4.1998 13.8326 4.1998 13.8304 4.1998 13.8282C4.1998 13.8259 4.1998 13.8237 4.1998 13.8215C4.1998 13.8192 4.1998 13.817 4.1998 13.8148C4.1998 13.8125 4.1998 13.8103 4.1998 13.8081C4.1998 13.8058 4.1998 13.8036 4.1998 13.8013C4.1998 13.7991 4.1998 13.7969 4.1998 13.7946C4.1998 13.7924 4.1998 13.7901 4.1998 13.7879C4.1998 13.7856 4.1998 13.7834 4.1998 13.7811C4.1998 13.7789 4.1998 13.7766 4.1998 13.7744C4.1998 13.7721 4.1998 13.7699 4.1998 13.7676C4.1998 13.7654 4.1998 13.7631 4.1998 13.7609C4.1998 13.7586 4.1998 13.7564 4.1998 13.7541C4.1998 13.7519 4.1998 13.7496 4.1998 13.7474C4.1998 13.7451 4.1998 13.7428 4.1998 13.7406C4.1998 13.7383 4.1998 13.7361 4.1998 13.7338C4.1998 13.7315 4.1998 13.7293 4.1998 13.727C4.1998 13.7248 4.1998 13.7225 4.1998 13.7202C4.1998 13.718 4.1998 13.7157 4.1998 13.7134C4.1998 13.7112 4.1998 13.7089 4.1998 13.7066C4.1998 13.7044 4.1998 13.7021 4.1998 13.6998C4.1998 13.6975 4.1998 13.6953 4.1998 13.693C4.1998 13.6907 4.1998 13.6884 4.1998 13.6862C4.1998 13.6839 4.1998 13.6816 4.1998 13.6793C4.1998 13.6771 4.1998 13.6748 4.1998 13.6725C4.1998 13.6702 4.1998 13.6679 4.1998 13.6657C4.1998 13.6634 4.1998 13.6611 4.1998 13.6588C4.1998 13.6565 4.1998 13.6543 4.1998 13.652C4.1998 13.6497 4.1998 13.6474 4.1998 13.6451C4.1998 13.6428 4.1998 13.6405 4.1998 13.6382C4.1998 13.636 4.1998 13.6337 4.1998 13.6314C4.1998 13.6291 4.1998 13.6268 4.1998 13.6245C4.1998 13.6222 4.1998 13.6199 4.1998 13.6176C4.1998 13.6153 4.1998 13.613 4.1998 13.6107C4.1998 13.6084 4.1998 13.6061 4.1998 13.6038C4.1998 13.6015 4.1998 13.5992 4.1998 13.5969C4.1998 13.5946 4.1998 13.5923 4.1998 13.59C4.1998 13.5877 4.1998 13.5854 4.1998 13.5831C4.1998 13.5808 4.1998 13.5785 4.1998 13.5762C4.1998 13.5739 4.1998 13.5716 4.1998 13.5693C4.1998 13.567 4.1998 13.5647 4.1998 13.5624C4.1998 13.56 4.1998 13.5577 4.1998 13.5554C4.1998 13.5531 4.1998 13.5508 4.1998 13.5485C4.1998 13.5462 4.1998 13.5439 4.1998 13.5415C4.1998 13.5392 4.1998 13.5369 4.1998 13.5346C4.1998 13.5323 4.1998 13.53 4.1998 13.5276C4.1998 13.5253 4.1998 13.523 4.1998 13.5207C4.1998 13.5184 4.1998 13.516 4.1998 13.5137C4.1998 13.5114 4.1998 13.5091 4.1998 13.5067C4.1998 13.5044 4.1998 13.5021 4.1998 13.4998C4.1998 13.4974 4.1998 13.4951 4.1998 13.4928C4.1998 13.4905 4.1998 13.4881 4.1998 13.4858C4.1998 13.4835 4.1998 13.4811 4.1998 13.4788C4.1998 13.4765 4.1998 13.4741 4.1998 13.4718C4.1998 13.4695 4.1998 13.4671 4.1998 13.4648C4.1998 13.4625 4.1998 13.4601 4.1998 13.4578C4.1998 13.4555 4.1998 13.4531 4.1998 13.4508C4.1998 13.4484 4.1998 13.4461 4.1998 13.4438C4.1998 13.4414 4.1998 13.4391 4.1998 13.4367C4.1998 13.4344 4.1998 13.4321 4.1998 13.4297C4.1998 13.4274 4.1998 13.425 4.1998 13.4227C4.1998 13.4203 4.1998 13.418 4.1998 13.4156C4.1998 13.4133 4.1998 13.4109 4.1998 13.4086C4.1998 13.4062 4.1998 13.4039 4.1998 13.4015C4.1998 13.3992 4.1998 13.3968 4.1998 13.3945C4.1998 13.3921 4.1998 13.3898 4.1998 13.3874C4.1998 13.3851 4.1998 13.3827 4.1998 13.3804C4.1998 13.378 4.1998 13.3757 4.1998 13.3733C4.1998 13.3709 4.1998 13.3686 4.1998 13.3662C4.1998 13.3639 4.1998 13.3615 4.1998 13.3591C4.1998 13.3568 4.1998 13.3544 4.1998 13.3521C4.1998 13.3497 4.1998 13.3473 4.1998 13.345C4.1998 13.3426 4.1998 13.3402 4.1998 13.3379C4.1998 13.3355 4.1998 13.3331 4.1998 13.3308C4.1998 13.3284 4.1998 13.326 4.1998 13.3237C4.1998 13.3213 4.1998 13.3189 4.1998 13.3166C4.1998 13.3142 4.1998 13.3118 4.1998 13.3095C4.1998 13.3071 4.1998 13.3047 4.1998 13.3023C4.1998 13.3 4.1998 13.2976 4.1998 13.2952C4.1998 13.2928 4.1998 13.2905 4.1998 13.2881C4.1998 13.2857 4.1998 13.2833 4.1998 13.281C4.1998 13.2786 4.1998 13.2762 4.1998 13.2738C4.1998 13.2714 4.1998 13.2691 4.1998 13.2667C4.1998 13.2643 4.1998 13.2619 4.1998 13.2595C4.1998 13.2572 4.1998 13.2548 4.1998 13.2524C4.1998 13.25 4.1998 13.2476 4.1998 13.2452C4.1998 13.2428 4.1998 13.2405 4.1998 13.2381C4.1998 13.2357 4.1998 13.2333 4.1998 13.2309C4.1998 13.2285 4.1998 13.2261 4.1998 13.2237C4.1998 13.2214 4.1998 13.219 4.1998 13.2166C4.1998 13.2142 4.1998 13.2118 4.1998 13.2094C4.1998 13.207 4.1998 13.2046 4.1998 13.2022C4.1998 13.1998 4.1998 13.1974 4.1998 13.195C4.1998 13.1926 4.1998 13.1902 4.1998 13.1878C4.1998 13.1854 4.1998 13.183 4.1998 13.1806C4.1998 13.1782 4.1998 13.1758 4.1998 13.1734C4.1998 13.171 4.1998 13.1686 4.1998 13.1662C4.1998 13.1638 4.1998 13.1614 4.1998 13.159C4.1998 13.1566 4.1998 13.1542 4.1998 13.1518C4.1998 13.1494 4.1998 13.147 4.1998 13.1446C4.1998 13.1422 4.1998 13.1398 4.1998 13.1374C4.1998 13.135 4.1998 13.1326 4.1998 13.1302C4.1998 13.1278 4.1998 13.1254 4.1998 13.1229C4.1998 13.1205 4.1998 13.1181 4.1998 13.1157C4.1998 13.1133 4.1998 13.1109 4.1998 13.1085C4.1998 13.1061 4.1998 13.1036 4.1998 13.1012C4.1998 13.0988 4.1998 13.0964 4.1998 13.094C4.1998 13.0916 4.1998 13.0892 4.1998 13.0867C4.1998 13.0843 4.1998 13.0819 4.1998 13.0795C4.1998 13.0771 4.1998 13.0747 4.1998 13.0722C4.1998 13.0698 4.1998 13.0674 4.1998 13.065C4.1998 13.0626 4.1998 13.0601 4.1998 13.0577C4.1998 13.0553 4.1998 13.0529 4.1998 13.0504C4.1998 13.048 4.1998 13.0456 4.1998 13.0432C4.1998 13.0407 4.1998 13.0383 4.1998 13.0359C4.1998 13.0335 4.1998 13.031 4.1998 13.0286C4.1998 13.0262 4.1998 13.0238 4.1998 13.0213C4.1998 13.0189 4.1998 13.0165 4.1998 13.014C4.1998 13.0116 4.1998 13.0092 4.1998 13.0068C4.1998 13.0043 4.1998 13.0019 4.1998 12.9995C4.1998 12.997 4.1998 12.9946 4.1998 12.9922C4.1998 12.9897 4.1998 12.9873 4.1998 12.9849C4.1998 12.9824 4.1998 12.98 4.1998 12.9776C4.1998 12.9751 4.1998 12.9727 4.1998 12.9702C4.1998 12.9678 4.1998 12.9654 4.1998 12.9629C4.1998 12.9605 4.1998 12.9581 4.1998 12.9556C4.1998 12.9532 4.1998 12.9507 4.1998 12.9483C4.1998 12.9459 4.1998 12.9434 4.1998 12.941C4.1998 12.9385 4.1998 12.9361 4.1998 12.9336C4.1998 12.9312 4.1998 12.9288 4.1998 12.9263C4.1998 12.9239 4.1998 12.9214 4.1998 12.919C4.1998 12.9165 4.1998 12.9141 4.1998 12.9116C4.1998 12.9092 4.1998 12.9067 4.1998 12.9043C4.1998 12.9019 4.1998 12.8994 4.1998 12.897C4.1998 12.8945 4.1998 12.8921 4.1998 12.8896C4.1998 12.8872 4.1998 12.8847 4.1998 12.8823C4.1998 12.8798 4.1998 12.8774 4.1998 12.8749C4.1998 12.8724 4.1998 12.87 4.1998 12.8675C4.1998 12.8651 4.1998 12.8626 4.1998 12.8602C4.1998 12.8577 4.1998 12.8553 4.1998 12.8528C4.1998 12.8504 4.1998 12.8479 4.1998 12.8454C4.1998 12.843 4.1998 12.8405 4.1998 12.8381C4.1998 12.8356 4.1998 12.8332 4.1998 12.8307C4.1998 12.8282 4.1998 12.8258 4.1998 12.8233C4.1998 12.8209 4.1998 12.8184 4.1998 12.8159C4.1998 12.8135 4.1998 12.811 4.1998 12.8086C4.1998 12.8061 4.1998 12.8036 4.1998 12.8012C4.1998 12.7987 4.1998 12.7962 4.1998 12.7938C4.1998 12.7913 4.1998 12.7889 4.1998 12.7864C4.1998 12.7839 4.1998 12.7815 4.1998 12.779C4.1998 12.7765 4.1998 12.7741 4.1998 12.7716C4.1998 12.7691 4.1998 12.7667 4.1998 12.7642C4.1998 12.7617 4.1998 12.7593 4.1998 12.7568C4.1998 12.7543 4.1998 12.7518 4.1998 12.7494C4.1998 12.7469 4.1998 12.7444 4.1998 12.742C4.1998 12.7395 4.1998 12.737 4.1998 12.7346C4.1998 12.7321 4.1998 12.7296 4.1998 12.7271C4.1998 12.7247 4.1998 12.7222 4.1998 12.7197C4.1998 12.7172 4.1998 12.7148 4.1998 12.7123C4.1998 12.7098 4.1998 12.7073 4.1998 12.7049C4.1998 12.7024 4.1998 12.6999 4.1998 12.6974C4.1998 12.695 4.1998 12.6925 4.1998 12.69C4.1998 12.6875 4.1998 12.6851 4.1998 12.6826C4.1998 12.6801 4.1998 12.6776 4.1998 12.6751C4.1998 12.6727 4.1998 12.6702 4.1998 12.6677C4.1998 12.6652 4.1998 12.6627 4.1998 12.6603C4.1998 12.6578 4.1998 12.6553 4.1998 12.6528C4.1998 12.6503 4.1998 12.6478 4.1998 12.6454C4.1998 12.6429 4.1998 12.6404 4.1998 12.6379C4.1998 12.6354 4.1998 12.6329 4.1998 12.6305C4.1998 12.628 4.1998 12.6255 4.1998 12.623C4.1998 12.6205 4.1998 12.618 4.1998 12.6156C4.1998 12.6131 4.1998 12.6106 4.1998 12.6081C4.1998 12.6056 4.1998 12.6031 4.1998 12.6006C4.1998 12.5981 4.1998 12.5957 4.1998 12.5932C4.1998 12.5907 4.1998 12.5882 4.1998 12.5857C4.1998 12.5832 4.1998 12.5807 4.1998 12.5782C4.1998 12.5757 4.1998 12.5732 4.1998 12.5708C4.1998 12.5683 4.1998 12.5658 4.1998 12.5633C4.1998 12.5608 4.1998 12.5583 4.1998 12.5558C4.1998 12.5533 4.1998 12.5508 4.1998 12.5483C4.1998 12.5458 4.1998 12.5433 4.1998 12.5408C4.1998 12.5383 4.1998 12.5359 4.1998 12.5334C4.1998 12.5309 4.1998 12.5284 4.1998 12.5259C4.1998 12.5234 4.1998 12.5209 4.1998 12.5184C4.1998 12.5159 4.1998 12.5134 4.1998 12.5109C4.1998 12.5084 4.1998 12.5059 4.1998 12.5034C4.1998 12.5009 4.1998 12.4984 4.1998 12.4959C4.1998 12.4934 4.1998 12.4909 4.1998 12.4884C4.1998 12.4859 4.1998 12.4834 4.1998 12.4809C4.1998 12.4784 4.1998 12.4759 4.1998 12.4734C4.1998 12.4709 4.1998 12.4684 4.1998 12.4659C4.1998 12.4634 4.1998 12.4609 4.1998 12.4584C4.1998 12.4559 4.1998 12.4534 4.1998 12.4509C4.1998 12.4484 4.1998 12.4459 4.1998 12.4434C4.1998 12.4409 4.1998 12.4384 4.1998 12.4359C4.1998 12.4334 4.1998 12.4309 4.1998 12.4284C4.1998 12.4259 4.1998 12.4233 4.1998 12.4208C4.1998 12.4183 4.1998 12.4158 4.1998 12.4133C4.1998 12.4108 4.1998 12.4083 4.1998 12.4058C4.1998 12.4033 4.1998 12.4008 4.1998 12.3983C4.1998 12.3958 4.1998 12.3933 4.1998 12.3908C4.1998 12.3883 4.1998 12.3857 4.1998 12.3832C4.1998 12.3807 4.1998 12.3782 4.1998 12.3757C4.1998 12.3732 4.1998 12.3707 4.1998 12.3682C4.1998 12.3657 4.1998 12.3632 4.1998 12.3607C4.1998 12.3581 4.1998 12.3556 4.1998 12.3531C4.1998 12.3506 4.1998 12.3481 4.1998 12.3456C4.1998 12.3431 4.1998 12.3406 4.1998 12.3381C4.1998 12.3355 4.1998 12.333 4.1998 12.3305C4.1998 12.328 4.1998 12.3255 4.1998 12.323C4.1998 12.3205 4.1998 12.3179 4.1998 12.3154C4.1998 12.3129 4.1998 12.3104 4.1998 12.3079C4.1998 12.3054 4.1998 12.3029 4.1998 12.3004C4.1998 12.2978 4.1998 12.2953 4.1998 12.2928C4.1998 12.2903 4.1998 12.2878 4.1998 12.2853C4.1998 12.2827 4.1998 12.2802 4.1998 12.2777C4.1998 12.2752 4.1998 12.2727 4.1998 12.2702C4.1998 12.2676 4.1998 12.2651 4.1998 12.2626C4.1998 12.2601 4.1998 12.2576 4.1998 12.2551C4.1998 12.2525 4.1998 12.25 4.1998 12.2475C4.1998 12.245 4.1998 12.2425 4.1998 12.24C4.1998 12.2374 4.1998 12.2349 4.1998 12.2324C4.1998 12.2299 4.1998 12.2274 4.1998 12.2248C4.1998 12.2223 4.1998 12.2198 4.1998 12.2173C4.1998 12.2148 4.1998 12.2122 4.1998 12.2097C4.1998 12.2072 4.1998 12.2047 4.1998 12.2022C4.1998 12.1996 4.1998 12.1971 4.1998 12.1946C4.1998 12.1921 4.1998 12.1896 4.1998 12.187C4.1998 12.1845 4.1998 12.182 4.1998 12.1795C4.1998 12.1769 4.1998 12.1744 4.1998 12.1719C4.1998 12.1694 4.1998 12.1669 4.1998 12.1643C4.1998 12.1618 4.1998 12.1593 4.1998 12.1568C4.1998 12.1542 4.1998 12.1517 4.1998 12.1492C4.1998 12.1467 4.1998 12.1441 4.1998 12.1416C4.1998 12.1391 4.1998 12.1366 4.1998 12.1341C4.1998 12.1315 4.1998 12.129 4.1998 12.1265C4.1998 12.124 4.1998 12.1214 4.1998 12.1189C4.1998 12.1164 4.1998 12.1139 4.1998 12.1113C4.1998 12.1088 4.1998 12.1063 4.1998 12.1038C4.1998 12.1012 4.1998 12.0987 4.1998 12.0962C4.1998 12.0937 4.1998 12.0911 4.1998 12.0886C4.1998 12.0861 4.1998 12.0835 4.1998 12.081C4.1998 12.0785 4.1998 12.076 4.1998 12.0734C4.1998 12.0709 4.1998 12.0684 4.1998 12.0659C4.1998 12.0633 4.1998 12.0608 4.1998 12.0583C4.1998 12.0558 4.1998 12.0532 4.1998 12.0507C4.1998 12.0482 4.1998 12.0456 4.1998 12.0431C4.1998 12.0406 4.1998 12.0381 4.1998 12.0355C4.1998 12.033 4.1998 12.0305 4.1998 12.0279C4.1998 12.0254 4.1998 12.0229 4.1998 12.0204C4.1998 12.0178 4.1998 12.0153 4.1998 12.0128C4.1998 12.0102 4.1998 12.0077 4.1998 12.0052C4.1998 12.0027 4.1998 12.0001 4.1998 11.9976C4.1998 11.9951 4.1998 11.9925 4.1998 11.99C4.1998 11.9875 4.1998 11.985 4.1998 11.9824C4.1998 11.9799 4.1998 11.9774 4.1998 11.9748C4.1998 11.9723 4.1998 11.9698 4.1998 11.9673C4.1998 11.9647 4.1998 11.9622 4.1998 11.9597C4.1998 11.9571 4.1998 11.9546 4.1998 11.9521C4.1998 11.9495 4.1998 11.947 4.1998 11.9445C4.1998 11.942 4.1998 11.9394 4.1998 11.9369C4.1998 11.9344 4.1998 11.9318 4.1998 11.9293C4.1998 11.9268 4.1998 11.9242 4.1998 11.9217C4.1998 11.9192 4.1998 11.9166 4.1998 11.9141C4.1998 11.9116 4.1998 11.9091 4.1998 11.9065C4.1998 11.904 4.1998 11.9015 4.1998 11.8989C4.1998 11.8964 4.1998 11.8939 4.1998 11.8913C4.1998 11.8888 4.1998 11.8863 4.1998 11.8837C4.1998 11.8812 4.1998 11.8787 4.1998 11.8761C4.1998 11.8736 4.1998 11.8711 4.1998 11.8686C4.1998 11.866 4.1998 11.8635 4.1998 11.861C4.1998 11.8584 4.1998 11.8559 4.1998 11.8534C4.1998 11.8508 4.1998 11.8483 4.1998 11.8458C4.1998 11.8432 4.1998 11.8407 4.1998 11.8382C4.1998 11.8356 4.1998 11.8331 4.1998 11.8306C4.1998 11.8281 4.1998 11.8255 4.1998 11.823C4.1998 11.8205 4.1998 11.8179 4.1998 11.8154C4.1998 11.8129 4.1998 11.8103 4.1998 11.8078C4.1998 11.8053 4.1998 11.8027 4.1998 11.8002C4.1998 11.7977 4.1998 11.7951 4.1998 11.7926C4.1998 11.7901 4.1998 11.7875 4.1998 11.785C4.1998 11.7825 4.1998 11.7799 4.1998 11.7774C4.1998 11.7749 4.1998 11.7724 4.1998 11.7698C4.1998 11.7673 4.1998 11.7648 4.1998 11.7622C4.1998 11.7597 4.1998 11.7572 4.1998 11.7546C4.1998 11.7521 4.1998 11.7496 4.1998 11.747C4.1998 11.7445 4.1998 11.742 4.1998 11.7394C4.1998 11.7369 4.1998 11.7344 4.1998 11.7318C4.1998 11.7293 4.1998 11.7268 4.1998 11.7243C4.1998 11.7217 4.1998 11.7192 4.1998 11.7167C4.1998 11.7141 4.1998 11.7116 4.1998 11.7091C4.1998 11.7065 4.1998 11.704 4.1998 11.7015C4.1998 11.6989 4.1998 11.6964 4.1998 11.6939C4.1998 11.6913 4.1998 11.6888 4.1998 11.6863C4.1998 11.6838 4.1998 11.6812 4.1998 11.6787C4.1998 11.6762 4.1998 11.6736 4.1998 11.6711C4.1998 11.6686 4.1998 11.666 4.1998 11.6635C4.1998 11.661 4.1998 11.6584 4.1998 11.6559C4.1998 11.6534 4.1998 11.6509 4.1998 11.6483C4.1998 11.6458 4.1998 11.6433 4.1998 11.6407C4.1998 11.6382 4.1998 11.6357 4.1998 11.6331C4.1998 11.6306 4.1998 11.6281 4.1998 11.6256C4.1998 11.623 4.1998 11.6205 4.1998 11.618C4.1998 11.6154 4.1998 11.6129 4.1998 11.6104C4.1998 11.6078 4.1998 11.6053 4.1998 11.6028C4.1998 11.6003 4.1998 11.5977 4.1998 11.5952C4.1998 11.5927 4.1998 11.5901 4.1998 11.5876C4.1998 11.5851 4.1998 11.5826 4.1998 11.58C4.1998 11.5775 4.1998 11.575 4.1998 11.5724C4.1998 11.5699 4.1998 11.5674 4.1998 11.5649C4.1998 11.5623 4.1998 11.5598 4.1998 11.5573C4.1998 11.5547 4.1998 11.5522 4.1998 11.5497C4.1998 11.5472 4.1998 11.5446 4.1998 11.5421C4.1998 11.5396 4.1998 11.5371 4.1998 11.5345C4.1998 11.532 4.1998 11.5295 4.1998 11.5269C4.1998 11.5244 4.1998 11.5219 4.1998 11.5194C4.1998 11.5168 4.1998 11.5143 4.1998 11.5118C4.1998 11.5093 4.1998 11.5067 4.1998 11.5042C4.1998 11.5017 4.1998 11.4992 4.1998 11.4966C4.1998 11.4941 4.1998 11.4916 4.1998 11.4891C4.1998 11.4865 4.1998 11.484 4.1998 11.4815C4.1998 11.479 4.1998 11.4764 4.1998 11.4739C4.1998 11.4714 4.1998 11.4689 4.1998 11.4663C4.1998 11.4638 4.1998 11.4613 4.1998 11.4588C4.1998 11.4562 4.1998 11.4537 4.1998 11.4512C4.1998 11.4487 4.1998 11.4461 4.1998 11.4436C4.1998 11.4411 4.1998 11.4386 4.1998 11.436C4.1998 11.4335 4.1998 11.431 4.1998 11.4285C4.1998 11.426 4.1998 11.4234 4.1998 11.4209C4.1998 11.4184 4.1998 11.4159 4.1998 11.4133C4.1998 11.4108 4.1998 11.4083 4.1998 11.4058C4.1998 11.4033 4.1998 11.4007 4.1998 11.3982C4.1998 11.3957 4.1998 11.3932 4.1998 11.3907C4.1998 11.3881 4.1998 11.3856 4.1998 11.3831C4.1998 11.3806 4.1998 11.3781 4.1998 11.3755C4.1998 11.373 4.1998 11.3705 4.1998 11.368C4.1998 11.3655 4.1998 11.3629 4.1998 11.3604C4.1998 11.3579 4.1998 11.3554 4.1998 11.3529C4.1998 11.3503 4.1998 11.3478 4.1998 11.3453C4.1998 11.3428 4.1998 11.3403 4.1998 11.3378C4.1998 11.3352 4.1998 11.3327 4.1998 11.3302C4.1998 11.3277 4.1998 11.3252 4.1998 11.3226C4.1998 11.3201 4.1998 11.3176 4.1998 11.3151C4.1998 11.3126 4.1998 11.3101 4.1998 11.3076C4.1998 11.305 4.1998 11.3025 4.1998 11.3C4.1998 11.2975 4.1998 11.295 4.1998 11.2925C4.1998 11.2899 4.1998 11.2874 4.1998 11.2849C4.1998 11.2824 4.1998 11.2799 4.1998 11.2774C4.1998 11.2749 4.1998 11.2724 4.1998 11.2698C4.1998 11.2673 4.1998 11.2648 4.1998 11.2623C4.1998 11.2598 4.1998 11.2573 4.1998 11.2548C4.1998 11.2523 4.1998 11.2497 4.1998 11.2472C4.1998 11.2447 4.1998 11.2422 4.1998 11.2397C4.1998 11.2372 4.1998 11.2347 4.1998 11.2322C4.1998 11.2297 4.1998 11.2271 4.1998 11.2246C4.1998 11.2221 4.1998 11.2196 4.1998 11.2171C4.1998 11.2146 4.1998 11.2121 4.1998 11.2096C4.1998 11.2071 4.1998 11.2046 4.1998 11.2021C4.1998 11.1995 4.1998 11.197 4.1998 11.1945C4.1998 11.192 4.1998 11.1895 4.1998 11.187C4.1998 11.1845 4.1998 11.182 4.1998 11.1795C4.1998 11.177 4.1998 11.1745 4.1998 11.172C4.1998 11.1695 4.1998 11.167 4.1998 11.1645C4.1998 11.162 4.1998 11.1594 4.1998 11.1569C4.1998 11.1544 4.1998 11.1519 4.1998 11.1494C4.1998 11.1469 4.1998 11.1444 4.1998 11.1419C4.1998 11.1394 4.1998 11.1369 4.1998 11.1344C4.1998 11.1319 4.1998 11.1294 4.1998 11.1269C4.1998 11.1244 4.1998 11.1219 4.1998 11.1194C4.1998 11.1169 4.1998 11.1144 4.1998 11.1119C4.1998 11.1094 4.1998 11.1069 4.1998 11.1044C4.1998 11.1019 4.1998 11.0994 4.1998 11.0969C4.1998 11.0944 4.1998 11.0919 4.1998 11.0894C4.1998 11.0869 4.1998 11.0844 4.1998 11.0819C4.1998 11.0794 4.1998 11.0769 4.1998 11.0744C4.1998 11.0719 4.1998 11.0694 4.1998 11.0669C4.1998 11.0645 4.1998 11.062 4.1998 11.0595C4.1998 11.057 4.1998 11.0545 4.1998 11.052C4.1998 11.0495 4.1998 11.047 4.1998 11.0445C4.1998 11.042 4.1998 11.0395 4.1998 11.037C4.1998 11.0345 4.1998 11.032 4.1998 11.0295C4.1998 11.027 4.1998 11.0246 4.1998 11.0221C4.1998 11.0196 4.1998 11.0171 4.1998 11.0146C4.1998 11.0121 4.1998 11.0096 4.1998 11.0071C4.1998 11.0046 4.1998 11.0021 4.1998 10.9997C4.1998 10.9972 4.1998 10.9947 4.1998 10.9922C4.1998 10.9897 4.1998 10.9872 4.1998 10.9847C4.1998 10.9822 4.1998 10.9798 4.1998 10.9773C4.1998 10.9748 4.1998 10.9723 4.1998 10.9698C4.1998 10.9673 4.1998 10.9648 4.1998 10.9624C4.1998 10.9599 4.1998 10.9574 4.1998 10.9549C4.1998 10.9524 4.1998 10.9499 4.1998 10.9475C4.1998 10.945 4.1998 10.9425 4.1998 10.94C4.1998 10.9375 4.1998 10.935 4.1998 10.9326C4.1998 10.9301 4.1998 10.9276 4.1998 10.9251C4.1998 10.9226 4.1998 10.9202 4.1998 10.9177C4.1998 10.9152 4.1998 10.9127 4.1998 10.9102C4.1998 10.9078 4.1998 10.9053 4.1998 10.9028C4.1998 10.9003 4.1998 10.8979 4.1998 10.8954C4.1998 10.8929 4.1998 10.8904 4.1998 10.888C4.1998 10.8855 4.1998 10.883 4.1998 10.8805C4.1998 10.8781 4.1998 10.8756 4.1998 10.8731C4.1998 10.8706 4.1998 10.8682 4.1998 10.8657C4.1998 10.8632 4.1998 10.8607 4.1998 10.8583C4.1998 10.8558 4.1998 10.8533 4.1998 10.8509C4.1998 10.8484 4.1998 10.8459 4.1998 10.8434C4.1998 10.841 4.1998 10.8385 4.1998 10.836C4.1998 10.8336 4.1998 10.8311 4.1998 10.8286C4.1998 10.8262 4.1998 10.8237 4.1998 10.8212C4.1998 10.8188 4.1998 10.8163 4.1998 10.8138C4.1998 10.8114 4.1998 10.8089 4.1998 10.8064C4.1998 10.804 4.1998 10.8015 4.1998 10.799C4.1998 10.7966 4.1998 10.7941 4.1998 10.7917C4.1998 10.7892 4.1998 10.7867 4.1998 10.7843C4.1998 10.7818 4.1998 10.7793 4.1998 10.7769C4.1998 10.7744 4.1998 10.772 4.1998 10.7695C4.1998 10.767 4.1998 10.7646 4.1998 10.7621C4.1998 10.7597 4.1998 10.7572 4.1998 10.7548C4.1998 10.7523 4.1998 10.7498 4.1998 10.7474C4.1998 10.7449 4.1998 10.7425 4.1998 10.74C4.1998 10.7376 4.1998 10.7351 4.1998 10.7326C4.1998 10.7302 4.1998 10.7277 4.1998 10.7253C4.1998 10.7228 4.1998 10.7204 4.1998 10.7179C4.1998 10.7155 4.1998 10.713 4.1998 10.7106C4.1998 10.7081 4.1998 10.7057 4.1998 10.7032C4.1998 10.7008 4.1998 10.6983 4.1998 10.6959C4.1998 10.6934 4.1998 10.691 4.1998 10.6885C4.1998 10.6861 4.1998 10.6836 4.1998 10.6812C4.1998 10.6787 4.1998 10.6763 4.1998 10.6739C4.1998 10.6714 4.1998 10.669 4.1998 10.6665C4.1998 10.6641 4.1998 10.6616 4.1998 10.6592C4.1998 10.6567 4.1998 10.6543 4.1998 10.6519C4.1998 10.6494 4.1998 10.647 4.1998 10.6445C4.1998 10.6421 4.1998 10.6397 4.1998 10.6372C4.1998 10.6348 4.1998 10.6323 4.1998 10.6299C4.1998 10.6275 4.1998 10.625 4.1998 10.6226C4.1998 10.6202 4.1998 10.6177 4.1998 10.6153C4.1998 10.6128 4.1998 10.6104 4.1998 10.608C4.1998 10.6055 4.1998 10.6031 4.1998 10.6007C4.1998 10.5982 4.1998 10.5958 4.1998 10.5934C4.1998 10.5909 4.1998 10.5885 4.1998 10.5861C4.1998 10.5837 4.1998 10.5812 4.1998 10.5788C4.1998 10.5764 4.1998 10.5739 4.1998 10.5715C4.1998 10.5691 4.1998 10.5666 4.1998 10.5642C4.1998 10.5618 4.1998 10.5594 4.1998 10.5569C4.1998 10.5545 4.1998 10.5521 4.1998 10.5497C4.1998 10.5472 4.1998 10.5448 4.1998 10.5424C4.1998 10.54 4.1998 10.5375 4.1998 10.5351C4.1998 10.5327 4.1998 10.5303 4.1998 10.5279C4.1998 10.5254 4.1998 10.523 4.1998 10.5206C4.1998 10.5182 4.1998 10.5158 4.1998 10.5133C4.1998 10.5109 4.1998 10.5085 4.1998 10.5061C4.1998 10.5037 4.1998 10.5013 4.1998 10.4988C4.1998 10.4964 4.1998 10.494 4.1998 10.4916C4.1998 10.4892 4.1998 10.4868 4.1998 10.4844C4.1998 10.482 4.1998 10.4795 4.1998 10.4771C4.1998 10.4747 4.1998 10.4723 4.1998 10.4699C4.1998 10.4675 4.1998 10.4651 4.1998 10.4627C4.1998 10.4603 4.1998 10.4579 4.1998 10.4554C4.1998 10.453 4.1998 10.4506 4.1998 10.4482C4.1998 10.4458 4.1998 10.4434 4.1998 10.441C4.1998 10.4386 4.1998 10.4362 4.1998 10.4338C4.1998 10.4314 4.1998 10.429 4.1998 10.4266C4.1998 10.4242 4.1998 10.4218 4.1998 10.4194C4.1998 10.417 4.1998 10.4146 4.1998 10.4122C4.1998 10.4098 4.1998 10.4074 4.1998 10.405C4.1998 10.4026 4.1998 10.4002 4.1998 10.3978C4.1998 10.3954 4.1998 10.393 4.1998 10.3906C4.1998 10.3882 4.1998 10.3858 4.1998 10.3834C4.1998 10.3811 4.1998 10.3787 4.1998 10.3763C4.1998 10.3739 4.1998 10.3715 4.1998 10.3691C4.1998 10.3667 4.1998 10.3643 4.1998 10.3619C4.1998 10.3595 4.1998 10.3572 4.1998 10.3548C4.1998 10.3524 4.1998 10.35 4.1998 10.3476C4.1998 10.3452 4.1998 10.3428 4.1998 10.3405C4.1998 10.3381 4.1998 10.3357 4.1998 10.3333C4.1998 10.3309 4.1998 10.3285 4.1998 10.3262C4.1998 10.3238 4.1998 10.3214 4.1998 10.319C4.1998 10.3166 4.1998 10.3143 4.1998 10.3119C4.1998 10.3095 4.1998 10.3071 4.1998 10.3048C4.1998 10.3024 4.1998 10.3 4.1998 10.2976C4.1998 10.2953 4.1998 10.2929 4.1998 10.2905C4.1998 10.2881 4.1998 10.2858 4.1998 10.2834C4.1998 10.281 4.1998 10.2787 4.1998 10.2763C4.1998 10.2739 4.1998 10.2715 4.1998 10.2692C4.1998 10.2668 4.1998 10.2644 4.1998 10.2621C4.1998 10.2597 4.1998 10.2573 4.1998 10.255L2.1998 10.255ZM5.75536 6.7C3.79198 6.7 2.1998 8.291 2.1998 10.255L4.1998 10.255C4.1998 9.39616 4.89595 8.7 5.75536 8.7L5.75536 6.7ZM13.7998 10.2556C13.7998 8.29188 12.2079 6.7 10.2442 6.7L10.2442 8.7C11.1034 8.7 11.7998 9.39645 11.7998 10.2556L13.7998 10.2556Z" fill="black" mask="url(#path-1-inside-1_1858_8680)"/>
<path d="M9.89985 4.4C9.89985 5.44934 9.04919 6.3 7.99985 6.3C6.95051 6.3 6.09985 5.44934 6.09985 4.4C6.09985 3.35066 6.95051 2.5 7.99985 2.5C9.04919 2.5 9.89985 3.35066 9.89985 4.4Z" stroke="black" stroke-miterlimit="10"/>
</svg>
