<svg width="36" height="36" viewBox="0 0 36 36" fill="none" xmlns="http://www.w3.org/2000/svg">
<path d="M28.2816 10.6998H28.2816C28.5306 10.6998 28.782 10.8057 28.9777 11.0155C29.1743 11.2263 29.2955 11.5237 29.2998 11.8461V27.4436C29.2955 27.766 29.1743 28.0634 28.9777 28.2742C28.782 28.4839 28.5306 28.5899 28.2816 28.5899H28.2816H16.9836H16.7649L16.5851 28.7143L10.8808 32.6637V29.2899V28.5899H10.1808L7.7281 28.5899L7.72361 28.5899C7.47375 28.5915 7.22105 28.4864 7.02419 28.2766C6.82626 28.0656 6.70412 27.7673 6.69982 27.4436V11.846C6.70412 11.5224 6.82626 11.224 7.02419 11.0131C7.22104 10.8033 7.47374 10.6982 7.72361 10.6998L7.72361 10.6998H7.7281H28.2816Z" stroke="white" stroke-width="1.4"/>
<path d="M17.9998 10.3635V7.09082" stroke="white" stroke-width="1.4" stroke-miterlimit="10"/>
<path d="M16.8331 3.05367C17.1784 2.82292 17.5845 2.69976 17.9998 2.69976C18.5568 2.69976 19.0909 2.921 19.4847 3.31483C19.8786 3.70867 20.0998 4.24282 20.0998 4.79976C20.0998 5.21511 19.9767 5.62112 19.7459 5.96645C19.5152 6.31178 19.1872 6.58095 18.8034 6.7399C18.4197 6.89884 17.9975 6.94043 17.5901 6.8594C17.1828 6.77838 16.8086 6.57838 16.5149 6.28468C16.2212 5.99098 16.0212 5.6168 15.9402 5.20945C15.8592 4.80209 15.9007 4.37984 16.0597 3.99612C16.2186 3.61237 16.4878 3.28441 16.8331 3.05367Z" stroke="white" stroke-width="1.4"/>
<rect x="20.9998" y="15.1997" width="2" height="3.6" rx="1" fill="white"/>
<rect x="12.9998" y="15.1997" width="2" height="3.6" rx="1" fill="white"/>
<mask id="path-6-inside-1_3643_6742" fill="white">
<path d="M21.9998 20.7998V21.1757C21.9998 22.1369 21.5784 23.0587 20.8282 23.7383C20.0781 24.418 19.0607 24.7998 17.9998 24.7998C16.939 24.7998 15.9215 24.418 15.1714 23.7383C14.4212 23.0587 13.9998 22.1369 13.9998 21.1757V20.7998"/>
</mask>
<path d="M21.9998 21.1757H23.5998H21.9998ZM17.9998 24.7998V26.3998V24.7998ZM20.3998 20.7998V21.1757H23.5998V20.7998H20.3998ZM20.3998 21.1757C20.3998 21.6587 20.1894 22.1581 19.754 22.5526L21.9025 24.9241C22.9673 23.9593 23.5998 22.6151 23.5998 21.1757H20.3998ZM19.754 22.5526C19.3132 22.9519 18.6845 23.1998 17.9998 23.1998V26.3998C19.4369 26.3998 20.843 25.884 21.9025 24.9241L19.754 22.5526ZM17.9998 23.1998C17.3151 23.1998 16.6864 22.9519 16.2457 22.5526L14.0971 24.9241C15.1567 25.884 16.5628 26.3998 17.9998 26.3998V23.1998ZM16.2457 22.5526C15.8102 22.1581 15.5998 21.6587 15.5998 21.1757H12.3998C12.3998 22.6151 13.0323 23.9593 14.0971 24.9241L16.2457 22.5526ZM15.5998 21.1757V20.7998H12.3998V21.1757H15.5998Z" fill="white" mask="url(#path-6-inside-1_3643_6742)"/>
</svg>
