<svg width="24" height="24" viewBox="0 0 24 24" fill="none" xmlns="http://www.w3.org/2000/svg">
<path fill-rule="evenodd" clip-rule="evenodd" d="M10.3025 3C9.72722 3 9.23687 3.40746 9.14757 3.98626L9.14755 3.98625L9.14662 3.99259L8.88837 5.76684C8.58973 5.90931 8.30666 6.07138 8.03913 6.24709L6.30077 5.56768L6.30079 5.56763L6.29299 5.56469C5.77292 5.36806 5.15833 5.55989 4.86074 6.07292L3.16605 8.92529L3.16596 8.92523L3.15966 8.93626C2.87441 9.43544 2.98108 10.0746 3.4678 10.435L4.90922 11.5295C4.89444 11.6828 4.88528 11.8412 4.88528 11.9999C4.88528 12.1533 4.89134 12.3101 4.90364 12.4665L3.45273 13.5682L3.4527 13.5682L3.44585 13.5735C2.98561 13.9314 2.87719 14.5646 3.14156 15.0501L3.14827 15.0625L3.15544 15.0745L4.8501 17.9268C5.16304 18.4666 5.78127 18.5984 6.24836 18.4471L6.26948 18.4402L6.29016 18.4321L8.02722 17.7532C8.29827 17.932 8.5802 18.0925 8.87787 18.2337L9.13601 20.0072L9.13917 20.0289L9.14358 20.0503C9.25491 20.5915 9.72057 20.9998 10.3025 20.9998H13.6968C14.2337 20.9998 14.7795 20.624 14.8544 19.9953L15.1109 18.233C15.4096 18.0905 15.6926 17.9284 15.9602 17.7527L17.6985 18.4321L17.6985 18.4322L17.7063 18.4351C18.2264 18.6318 18.841 18.4399 19.1385 17.9269L20.8332 15.0745L20.8333 15.0746L20.8396 15.0635C21.1245 14.5651 21.0185 13.9271 20.5337 13.5664L19.0975 12.4628C19.1079 12.313 19.114 12.1585 19.114 11.9999C19.114 11.8424 19.108 11.6868 19.0959 11.5331L20.5466 10.4316L20.5466 10.4317L20.5534 10.4263C21.0137 10.0684 21.1221 9.43517 20.8577 8.94969L20.851 8.93736L20.8438 8.92529L19.1492 6.07304C18.8363 5.53321 18.218 5.40138 17.7509 5.55275L17.7298 5.5596L17.7091 5.56768L15.9721 6.24658C15.701 6.0678 15.4191 5.90735 15.1214 5.76611L14.8633 3.99259L14.8633 3.99259L14.8623 3.98626C14.7696 3.38497 14.2486 3 13.6968 3H10.3025ZM10.3128 6.39487L10.5886 4.5H13.4213L13.6971 6.39487L13.7596 6.82402L14.1627 6.98397C14.616 7.16386 15.0262 7.39858 15.4249 7.69388L15.7581 7.9407L16.1443 7.78976L17.9947 7.06655L19.3947 9.42284L17.8468 10.5982L17.4869 10.8715L17.5603 11.3173C17.5957 11.5324 17.614 11.7596 17.614 11.9999C17.614 12.2404 17.5957 12.4769 17.5666 12.7124L17.5141 13.1378L17.854 13.399L19.385 14.5755L17.9841 16.9333L16.1337 16.2101L15.7492 16.0598L15.4165 16.3043C15.0248 16.5923 14.6032 16.8368 14.1521 17.0158L13.749 17.1758L13.6865 17.6049L13.4107 19.4998H10.578L10.3022 17.6049L10.2397 17.1758L9.8366 17.0158C9.38326 16.836 8.97307 16.6012 8.57441 16.3059L8.2412 16.0591L7.85498 16.2101L6.00456 16.9333L4.60461 14.577L6.1525 13.4016L6.51235 13.1283L6.43897 12.6825C6.4037 12.4682 6.38528 12.2307 6.38528 11.9999C6.38528 11.7871 6.4109 11.5524 6.44958 11.3173L6.52296 10.8715L6.1631 10.5982L4.61521 9.42284L6.01517 7.06655L7.86559 7.78976L8.25014 7.94005L8.58281 7.69551C8.97454 7.40756 9.39612 7.16297 9.84721 6.98397L10.2503 6.82401L10.3128 6.39487ZM13.4997 12C13.4997 12.8284 12.8282 13.5 11.9997 13.5C11.1713 13.5 10.4997 12.8284 10.4997 12C10.4997 11.1716 11.1713 10.5 11.9997 10.5C12.8282 10.5 13.4997 11.1716 13.4997 12ZM14.9997 12C14.9997 13.6569 13.6566 15 11.9997 15C10.3429 15 8.99974 13.6569 8.99974 12C8.99974 10.3431 10.3429 9 11.9997 9C13.6566 9 14.9997 10.3431 14.9997 12Z" fill="black"/>
</svg>
