<svg width="32" height="32" viewBox="0 0 32 32" fill="none" xmlns="http://www.w3.org/2000/svg">
<path d="M19.8173 12.0739L28.3905 12.852C28.6241 12.8733 28.7214 13.1619 28.5481 13.3202L22.0301 19.2749C21.9589 19.3399 21.9278 19.438 21.9485 19.5322L23.8943 28.3659C23.946 28.6004 23.6886 28.7806 23.4859 28.6518L16.1448 23.9878C16.0564 23.9316 15.9436 23.9316 15.8552 23.9878L8.51507 28.6512C8.31222 28.78 8.05475 28.5995 8.10675 28.3649L10.0642 19.5326C10.0851 19.4382 10.054 19.3398 9.98253 19.2747L3.4537 13.3211C3.2801 13.1628 3.37758 12.8736 3.61158 12.8527L12.1823 12.0873C12.2834 12.0783 12.3709 12.0134 12.4087 11.9193L15.7498 3.62146C15.8405 3.39603 16.1597 3.39594 16.2505 3.62133L19.5913 11.906C19.6292 11.9999 19.7164 12.0647 19.8173 12.0739Z" fill="black" stroke="black" stroke-width="1.6" stroke-linejoin="round"/>
</svg>
