<svg width="32" height="32" viewBox="0 0 32 32" fill="none" xmlns="http://www.w3.org/2000/svg">
<path d="M2.66675 4.97778H4.56367H6.38558V21.1002H23.8557L27.1112 9.0945H10.0886" stroke="black" stroke-width="2" stroke-linejoin="round"/>
<path d="M7.6363 28.0791C8.89732 28.0791 9.91957 27.0568 9.91957 25.7958C9.91957 24.5348 8.89732 23.5125 7.6363 23.5125C6.37528 23.5125 5.35303 24.5348 5.35303 25.7958C5.35303 27.0568 6.37528 28.0791 7.6363 28.0791Z" fill="black"/>
<path d="M22.4051 28.0846C23.6661 28.0846 24.6884 27.0623 24.6884 25.8013C24.6884 24.5403 23.6661 23.5181 22.4051 23.5181C21.1441 23.5181 20.1218 24.5403 20.1218 25.8013C20.1218 27.0623 21.1441 28.0846 22.4051 28.0846Z" fill="black"/>
</svg>
