<svg width="32" height="32" viewBox="0 0 32 32" fill="none" xmlns="http://www.w3.org/2000/svg">
<path d="M27.2046 8.04927L27.2124 8.06415L27.2208 8.07876C27.4811 8.5347 27.6782 9.02647 27.8059 9.53978L27.8069 9.54366C27.9429 10.0805 28.0076 10.634 27.9993 11.189L27.9991 11.1996L27.9992 11.2101C28.0057 12.2608 27.736 13.2924 27.2206 14.1961L27.2144 14.207L27.2085 14.2181C26.9569 14.686 26.6374 15.1172 26.2648 15.4932L26.2535 15.5045L26.2427 15.5162L16 26.5315L5.75729 15.5162L5.74803 15.5062L5.7385 15.4965C5.36204 15.1131 5.03557 14.6802 4.76778 14.2084C4.51999 13.7463 4.32655 13.255 4.1918 12.745C4.06467 12.2428 4.00081 11.7248 4.00081 11.204V11.1965L4.0007 11.1891C3.99244 10.634 4.0572 10.0805 4.19309 9.54355L4.19314 9.54357L4.19569 9.53304C4.44893 8.48484 4.98209 7.53343 5.73157 6.78503L5.73162 6.78508L5.74001 6.7765C6.29304 6.21085 6.94643 5.76214 7.66325 5.45401C9.10213 4.84895 10.7136 4.84866 12.1526 5.45315C12.8169 5.74243 13.43 6.14516 13.9657 6.64511L14.0166 6.70778L14.0451 6.7429L14.0767 6.7753L15.2838 8.01406L16 8.74908L16.7162 8.01406L17.9233 6.7753L17.9548 6.7429L17.9834 6.70778L18.0342 6.64512C18.5699 6.14517 19.183 5.74244 19.8473 5.45317C21.2864 4.84866 22.8979 4.84894 24.3368 5.45402C25.0536 5.76214 25.707 6.21085 26.26 6.7765L26.2656 6.78228L26.2714 6.78797C26.6429 7.15589 26.9579 7.58118 27.2046 8.04927Z" stroke="black" stroke-width="2"/>
</svg>
