<svg width="32" height="32" viewBox="0 0 32 32" fill="none" xmlns="http://www.w3.org/2000/svg">
<path d="M4 24C9.72769 24 12.939 24 18.6667 24" stroke="black" stroke-width="2"/>
<path d="M24 24C25.5621 24 26.4379 24 28 24" stroke="black" stroke-width="2"/>
<path d="M24.3333 24C24.3333 25.6569 22.9902 27 21.3333 27C19.6765 27 18.3333 25.6569 18.3333 24C18.3333 22.3431 19.6765 21 21.3333 21C22.9902 21 24.3333 22.3431 24.3333 24Z" stroke="black" stroke-width="2"/>
<path d="M13.3333 16C19.061 16 22.2723 16 28 16" stroke="black" stroke-width="2"/>
<path d="M4 16C5.5621 16 6.4379 16 8 16" stroke="black" stroke-width="2"/>
<path d="M13.6667 16C13.6667 17.6569 12.3235 19 10.6667 19C9.00981 19 7.66667 17.6569 7.66667 16C7.66667 14.3431 9.00981 13 10.6667 13C12.3235 13 13.6667 14.3431 13.6667 16Z" stroke="black" stroke-width="2"/>
<path d="M4 8C9.72769 8 12.939 8 18.6667 8" stroke="black" stroke-width="2"/>
<path d="M24 8C25.5621 8 26.4379 8 28 8" stroke="black" stroke-width="2"/>
<path d="M24.3333 8C24.3333 9.65685 22.9902 11 21.3333 11C19.6765 11 18.3333 9.65685 18.3333 8C18.3333 6.34315 19.6765 5 21.3333 5C22.9902 5 24.3333 6.34315 24.3333 8Z" stroke="black" stroke-width="2"/>
</svg>
