<svg width="36" height="36" viewBox="0 0 36 36" fill="none" xmlns="http://www.w3.org/2000/svg">
<path d="M16.0158 28.9877L10.3814 32.65V29.6026V28.8692H9.64806H6.71919H5.73321V27.8818V12.1512V11.1638H6.71919H29.2906H30.2665V12.1512V27.8818V28.8692H29.2906H16.4155H16.1981L16.0158 28.9877Z" stroke="white" stroke-width="1.46667"/>
<path d="M17.9998 6.89795V10.5377" stroke="white" stroke-width="1.46667"/>
<path d="M19.8661 4.52851C19.8661 5.50102 19.0497 6.32394 17.9994 6.32394C16.9491 6.32394 16.1327 5.50102 16.1327 4.52851C16.1327 3.556 16.9491 2.73309 17.9994 2.73309C19.0497 2.73309 19.8661 3.556 19.8661 4.52851Z" stroke="white" stroke-width="1.46667"/>
<rect x="13.5554" y="16.4219" width="1.83333" height="3.66667" rx="0.916667" fill="white"/>
<rect x="20.2777" y="16.4221" width="1.83333" height="3.66667" rx="0.916667" fill="white"/>
<mask id="path-6-inside-1_2736_2787" fill="white">
<path d="M21.3464 21.6941V21.9633C21.3464 22.6516 20.9938 23.3117 20.3662 23.7984C19.7386 24.285 18.8873 24.5585 17.9998 24.5585C17.1122 24.5585 16.2609 24.285 15.6333 23.7984C15.0057 23.3117 14.6531 22.6516 14.6531 21.9633V21.6941"/>
</mask>
<path d="M21.3464 21.9633H22.8131H21.3464ZM17.9998 24.5585V26.0251V24.5585ZM19.8798 21.6941V21.9633H22.8131V21.6941H19.8798ZM19.8798 21.9633C19.8798 22.1247 19.7992 22.3821 19.4674 22.6393L21.265 24.9574C22.1885 24.2412 22.8131 23.1784 22.8131 21.9633H19.8798ZM19.4674 22.6393C19.1271 22.9032 18.6023 23.0918 17.9998 23.0918V26.0251C19.1724 26.0251 20.35 25.6669 21.265 24.9574L19.4674 22.6393ZM17.9998 23.0918C17.3972 23.0918 16.8723 22.9032 16.5321 22.6393L14.7345 24.9574C15.6495 25.6669 16.8271 26.0251 17.9998 26.0251V23.0918ZM16.5321 22.6393C16.2003 22.3821 16.1197 22.1247 16.1197 21.9633H13.1864C13.1864 23.1784 13.811 24.2412 14.7345 24.9574L16.5321 22.6393ZM16.1197 21.9633V21.6941H13.1864V21.9633H16.1197Z" fill="white" mask="url(#path-6-inside-1_2736_2787)"/>
</svg>
