<svg width="24" height="24" viewBox="0 0 24 24" fill="none" xmlns="http://www.w3.org/2000/svg">
<path d="M12 4.00006L12 17.0001" stroke="black" stroke-width="1.2" stroke-miterlimit="10"/>
<path d="M7 8.84998L12 3.84998L17 8.84998" stroke="black" stroke-width="1.2"/>
<mask id="path-3-inside-1_10_530" fill="white">
<path d="M4.03516 14.0568V20.9954H20.0352C20.0352 20.9954 20.0352 16.7212 20.0352 14.0554"/>
</mask>
<path d="M4.03516 20.9954H2.83516V22.1954H4.03516V20.9954ZM20.0352 20.9954V22.1954H21.2352V20.9954H20.0352ZM2.83516 14.0568V20.9954H5.23516V14.0568H2.83516ZM4.03516 22.1954H20.0352V19.7954H4.03516V22.1954ZM20.0352 20.9954C21.2352 20.9954 21.2352 20.9953 21.2352 20.9953C21.2352 20.9953 21.2352 20.9952 21.2352 20.9952C21.2352 20.9951 21.2352 20.995 21.2352 20.9949C21.2352 20.9948 21.2352 20.9947 21.2352 20.9946C21.2352 20.9944 21.2352 20.9943 21.2352 20.9941C21.2352 20.994 21.2352 20.9938 21.2352 20.9936C21.2352 20.9934 21.2352 20.9932 21.2352 20.993C21.2352 20.9928 21.2352 20.9925 21.2352 20.9923C21.2352 20.992 21.2352 20.9917 21.2352 20.9914C21.2352 20.9911 21.2352 20.9908 21.2352 20.9905C21.2352 20.9902 21.2352 20.9899 21.2352 20.9895C21.2352 20.9891 21.2352 20.9888 21.2352 20.9884C21.2352 20.988 21.2352 20.9876 21.2352 20.9872C21.2352 20.9868 21.2352 20.9863 21.2352 20.9859C21.2352 20.9854 21.2352 20.985 21.2352 20.9845C21.2352 20.984 21.2352 20.9835 21.2352 20.983C21.2352 20.9825 21.2352 20.982 21.2352 20.9814C21.2352 20.9809 21.2352 20.9803 21.2352 20.9798C21.2352 20.9792 21.2352 20.9786 21.2352 20.978C21.2352 20.9774 21.2352 20.9768 21.2352 20.9761C21.2352 20.9755 21.2352 20.9749 21.2352 20.9742C21.2352 20.9735 21.2352 20.9728 21.2352 20.9722C21.2352 20.9715 21.2352 20.9707 21.2352 20.97C21.2352 20.9693 21.2352 20.9685 21.2352 20.9678C21.2352 20.967 21.2352 20.9663 21.2352 20.9655C21.2352 20.9647 21.2352 20.9639 21.2352 20.9631C21.2352 20.9622 21.2352 20.9614 21.2352 20.9606C21.2352 20.9597 21.2352 20.9589 21.2352 20.958C21.2352 20.9571 21.2352 20.9562 21.2352 20.9553C21.2352 20.9544 21.2352 20.9535 21.2352 20.9525C21.2352 20.9516 21.2352 20.9506 21.2352 20.9497C21.2352 20.9487 21.2352 20.9477 21.2352 20.9467C21.2352 20.9457 21.2352 20.9447 21.2352 20.9437C21.2352 20.9426 21.2352 20.9416 21.2352 20.9405C21.2352 20.9395 21.2352 20.9384 21.2352 20.9373C21.2352 20.9362 21.2352 20.9351 21.2352 20.934C21.2352 20.9329 21.2352 20.9318 21.2352 20.9306C21.2352 20.9295 21.2352 20.9283 21.2352 20.9271C21.2352 20.926 21.2352 20.9248 21.2352 20.9236C21.2352 20.9224 21.2352 20.9211 21.2352 20.9199C21.2352 20.9187 21.2352 20.9174 21.2352 20.9162C21.2352 20.9149 21.2352 20.9136 21.2352 20.9123C21.2352 20.911 21.2352 20.9097 21.2352 20.9084C21.2352 20.9071 21.2352 20.9057 21.2352 20.9044C21.2352 20.903 21.2352 20.9017 21.2352 20.9003C21.2352 20.8989 21.2352 20.8975 21.2352 20.8961C21.2352 20.8947 21.2352 20.8933 21.2352 20.8919C21.2352 20.8904 21.2352 20.889 21.2352 20.8875C21.2352 20.886 21.2352 20.8846 21.2352 20.8831C21.2352 20.8816 21.2352 20.8801 21.2352 20.8786C21.2352 20.877 21.2352 20.8755 21.2352 20.8739C21.2352 20.8724 21.2352 20.8708 21.2352 20.8693C21.2352 20.8677 21.2352 20.8661 21.2352 20.8645C21.2352 20.8629 21.2352 20.8613 21.2352 20.8596C21.2352 20.858 21.2352 20.8563 21.2352 20.8547C21.2352 20.853 21.2352 20.8513 21.2352 20.8497C21.2352 20.848 21.2352 20.8463 21.2352 20.8446C21.2352 20.8428 21.2352 20.8411 21.2352 20.8394C21.2352 20.8376 21.2352 20.8359 21.2352 20.8341C21.2352 20.8323 21.2352 20.8305 21.2352 20.8287C21.2352 20.8269 21.2352 20.8251 21.2352 20.8233C21.2352 20.8215 21.2352 20.8196 21.2352 20.8178C21.2352 20.8159 21.2352 20.8141 21.2352 20.8122C21.2352 20.8103 21.2352 20.8084 21.2352 20.8065C21.2352 20.8046 21.2352 20.8027 21.2352 20.8007C21.2352 20.7988 21.2352 20.7969 21.2352 20.7949C21.2352 20.7929 21.2352 20.791 21.2352 20.789C21.2352 20.787 21.2352 20.785 21.2352 20.783C21.2352 20.7809 21.2352 20.7789 21.2352 20.7769C21.2352 20.7748 21.2352 20.7728 21.2352 20.7707C21.2352 20.7686 21.2352 20.7666 21.2352 20.7645C21.2352 20.7624 21.2352 20.7603 21.2352 20.7581C21.2352 20.756 21.2352 20.7539 21.2352 20.7517C21.2352 20.7496 21.2352 20.7474 21.2352 20.7453C21.2352 20.7431 21.2352 20.7409 21.2352 20.7387C21.2352 20.7365 21.2352 20.7343 21.2352 20.7321C21.2352 20.7298 21.2352 20.7276 21.2352 20.7254C21.2352 20.7231 21.2352 20.7208 21.2352 20.7186C21.2352 20.7163 21.2352 20.714 21.2352 20.7117C21.2352 20.7094 21.2352 20.7071 21.2352 20.7047C21.2352 20.7024 21.2352 20.7001 21.2352 20.6977C21.2352 20.6954 21.2352 20.693 21.2352 20.6906C21.2352 20.6882 21.2352 20.6859 21.2352 20.6834C21.2352 20.681 21.2352 20.6786 21.2352 20.6762C21.2352 20.6738 21.2352 20.6713 21.2352 20.6689C21.2352 20.6664 21.2352 20.6639 21.2352 20.6615C21.2352 20.659 21.2352 20.6565 21.2352 20.654C21.2352 20.6515 21.2352 20.649 21.2352 20.6464C21.2352 20.6439 21.2352 20.6414 21.2352 20.6388C21.2352 20.6363 21.2352 20.6337 21.2352 20.6311C21.2352 20.6285 21.2352 20.6259 21.2352 20.6233C21.2352 20.6207 21.2352 20.6181 21.2352 20.6155C21.2352 20.6128 21.2352 20.6102 21.2352 20.6076C21.2352 20.6049 21.2352 20.6022 21.2352 20.5996C21.2352 20.5969 21.2352 20.5942 21.2352 20.5915C21.2352 20.5888 21.2352 20.5861 21.2352 20.5833C21.2352 20.5806 21.2352 20.5779 21.2352 20.5751C21.2352 20.5724 21.2352 20.5696 21.2352 20.5668C21.2352 20.5641 21.2352 20.5613 21.2352 20.5585C21.2352 20.5557 21.2352 20.5529 21.2352 20.55C21.2352 20.5472 21.2352 20.5444 21.2352 20.5415C21.2352 20.5387 21.2352 20.5358 21.2352 20.533C21.2352 20.5301 21.2352 20.5272 21.2352 20.5243C21.2352 20.5214 21.2352 20.5185 21.2352 20.5156C21.2352 20.5127 21.2352 20.5098 21.2352 20.5068C21.2352 20.5039 21.2352 20.5009 21.2352 20.498C21.2352 20.495 21.2352 20.492 21.2352 20.489C21.2352 20.486 21.2352 20.483 21.2352 20.48C21.2352 20.477 21.2352 20.474 21.2352 20.471C21.2352 20.4679 21.2352 20.4649 21.2352 20.4618C21.2352 20.4588 21.2352 20.4557 21.2352 20.4526C21.2352 20.4495 21.2352 20.4465 21.2352 20.4434C21.2352 20.4403 21.2352 20.4371 21.2352 20.434C21.2352 20.4309 21.2352 20.4278 21.2352 20.4246C21.2352 20.4215 21.2352 20.4183 21.2352 20.4151C21.2352 20.412 21.2352 20.4088 21.2352 20.4056C21.2352 20.4024 21.2352 20.3992 21.2352 20.396C21.2352 20.3928 21.2352 20.3895 21.2352 20.3863C21.2352 20.3831 21.2352 20.3798 21.2352 20.3765C21.2352 20.3733 21.2352 20.37 21.2352 20.3667C21.2352 20.3634 21.2352 20.3602 21.2352 20.3569C21.2352 20.3535 21.2352 20.3502 21.2352 20.3469C21.2352 20.3436 21.2352 20.3402 21.2352 20.3369C21.2352 20.3335 21.2352 20.3302 21.2352 20.3268C21.2352 20.3234 21.2352 20.3201 21.2352 20.3167C21.2352 20.3133 21.2352 20.3099 21.2352 20.3065C21.2352 20.3031 21.2352 20.2996 21.2352 20.2962C21.2352 20.2928 21.2352 20.2893 21.2352 20.2859C21.2352 20.2824 21.2352 20.2789 21.2352 20.2755C21.2352 20.272 21.2352 20.2685 21.2352 20.265C21.2352 20.2615 21.2352 20.258 21.2352 20.2545C21.2352 20.251 21.2352 20.2474 21.2352 20.2439C21.2352 20.2403 21.2352 20.2368 21.2352 20.2332C21.2352 20.2297 21.2352 20.2261 21.2352 20.2225C21.2352 20.2189 21.2352 20.2153 21.2352 20.2117C21.2352 20.2081 21.2352 20.2045 21.2352 20.2009C21.2352 20.1973 21.2352 20.1936 21.2352 20.19C21.2352 20.1863 21.2352 20.1827 21.2352 20.179C21.2352 20.1754 21.2352 20.1717 21.2352 20.168C21.2352 20.1643 21.2352 20.1606 21.2352 20.1569C21.2352 20.1532 21.2352 20.1495 21.2352 20.1458C21.2352 20.142 21.2352 20.1383 21.2352 20.1345C21.2352 20.1308 21.2352 20.127 21.2352 20.1233C21.2352 20.1195 21.2352 20.1157 21.2352 20.1119C21.2352 20.1082 21.2352 20.1044 21.2352 20.1006C21.2352 20.0967 21.2352 20.0929 21.2352 20.0891C21.2352 20.0853 21.2352 20.0814 21.2352 20.0776C21.2352 20.0737 21.2352 20.0699 21.2352 20.066C21.2352 20.0622 21.2352 20.0583 21.2352 20.0544C21.2352 20.0505 21.2352 20.0466 21.2352 20.0427C21.2352 20.0388 21.2352 20.0349 21.2352 20.031C21.2352 20.027 21.2352 20.0231 21.2352 20.0192C21.2352 20.0152 21.2352 20.0113 21.2352 20.0073C21.2352 20.0033 21.2352 19.9994 21.2352 19.9954C21.2352 19.9914 21.2352 19.9874 21.2352 19.9834C21.2352 19.9794 21.2352 19.9754 21.2352 19.9714C21.2352 19.9674 21.2352 19.9633 21.2352 19.9593C21.2352 19.9552 21.2352 19.9512 21.2352 19.9471C21.2352 19.9431 21.2352 19.939 21.2352 19.9349C21.2352 19.9309 21.2352 19.9268 21.2352 19.9227C21.2352 19.9186 21.2352 19.9145 21.2352 19.9104C21.2352 19.9062 21.2352 19.9021 21.2352 19.898C21.2352 19.8939 21.2352 19.8897 21.2352 19.8856C21.2352 19.8814 21.2352 19.8773 21.2352 19.8731C21.2352 19.8689 21.2352 19.8647 21.2352 19.8606C21.2352 19.8564 21.2352 19.8522 21.2352 19.848C21.2352 19.8438 21.2352 19.8395 21.2352 19.8353C21.2352 19.8311 21.2352 19.8269 21.2352 19.8226C21.2352 19.8184 21.2352 19.8141 21.2352 19.8099C21.2352 19.8056 21.2352 19.8013 21.2352 19.7971C21.2352 19.7928 21.2352 19.7885 21.2352 19.7842C21.2352 19.7799 21.2352 19.7756 21.2352 19.7713C21.2352 19.767 21.2352 19.7627 21.2352 19.7583C21.2352 19.754 21.2352 19.7497 21.2352 19.7453C21.2352 19.741 21.2352 19.7366 21.2352 19.7323C21.2352 19.7279 21.2352 19.7235 21.2352 19.7191C21.2352 19.7148 21.2352 19.7104 21.2352 19.706C21.2352 19.7016 21.2352 19.6972 21.2352 19.6927C21.2352 19.6883 21.2352 19.6839 21.2352 19.6795C21.2352 19.675 21.2352 19.6706 21.2352 19.6661C21.2352 19.6617 21.2352 19.6572 21.2352 19.6528C21.2352 19.6483 21.2352 19.6438 21.2352 19.6393C21.2352 19.6349 21.2352 19.6304 21.2352 19.6259C21.2352 19.6214 21.2352 19.6169 21.2352 19.6123C21.2352 19.6078 21.2352 19.6033 21.2352 19.5988C21.2352 19.5942 21.2352 19.5897 21.2352 19.5852C21.2352 19.5806 21.2352 19.576 21.2352 19.5715C21.2352 19.5669 21.2352 19.5623 21.2352 19.5578C21.2352 19.5532 21.2352 19.5486 21.2352 19.544C21.2352 19.5394 21.2352 19.5348 21.2352 19.5302C21.2352 19.5256 21.2352 19.5209 21.2352 19.5163C21.2352 19.5117 21.2352 19.507 21.2352 19.5024C21.2352 19.4978 21.2352 19.4931 21.2352 19.4884C21.2352 19.4838 21.2352 19.4791 21.2352 19.4744C21.2352 19.4698 21.2352 19.4651 21.2352 19.4604C21.2352 19.4557 21.2352 19.451 21.2352 19.4463C21.2352 19.4416 21.2352 19.4369 21.2352 19.4321C21.2352 19.4274 21.2352 19.4227 21.2352 19.4179C21.2352 19.4132 21.2352 19.4085 21.2352 19.4037C21.2352 19.3989 21.2352 19.3942 21.2352 19.3894C21.2352 19.3847 21.2352 19.3799 21.2352 19.3751C21.2352 19.3703 21.2352 19.3655 21.2352 19.3607C21.2352 19.3559 21.2352 19.3511 21.2352 19.3463C21.2352 19.3415 21.2352 19.3367 21.2352 19.3318C21.2352 19.327 21.2352 19.3222 21.2352 19.3173C21.2352 19.3125 21.2352 19.3076 21.2352 19.3028C21.2352 19.2979 21.2352 19.2931 21.2352 19.2882C21.2352 19.2833 21.2352 19.2784 21.2352 19.2735C21.2352 19.2687 21.2352 19.2638 21.2352 19.2589C21.2352 19.254 21.2352 19.2491 21.2352 19.2441C21.2352 19.2392 21.2352 19.2343 21.2352 19.2294C21.2352 19.2244 21.2352 19.2195 21.2352 19.2146C21.2352 19.2096 21.2352 19.2047 21.2352 19.1997C21.2352 19.1948 21.2352 19.1898 21.2352 19.1848C21.2352 19.1798 21.2352 19.1749 21.2352 19.1699C21.2352 19.1649 21.2352 19.1599 21.2352 19.1549C21.2352 19.1499 21.2352 19.1449 21.2352 19.1399C21.2352 19.1349 21.2352 19.1299 21.2352 19.1248C21.2352 19.1198 21.2352 19.1148 21.2352 19.1097C21.2352 19.1047 21.2352 19.0997 21.2352 19.0946C21.2352 19.0895 21.2352 19.0845 21.2352 19.0794C21.2352 19.0744 21.2352 19.0693 21.2352 19.0642C21.2352 19.0591 21.2352 19.054 21.2352 19.0489C21.2352 19.0439 21.2352 19.0388 21.2352 19.0336C21.2352 19.0285 21.2352 19.0234 21.2352 19.0183C21.2352 19.0132 21.2352 19.0081 21.2352 19.0029C21.2352 18.9978 21.2352 18.9927 21.2352 18.9875C21.2352 18.9824 21.2352 18.9772 21.2352 18.9721C21.2352 18.9669 21.2352 18.9618 21.2352 18.9566C21.2352 18.9514 21.2352 18.9462 21.2352 18.9411C21.2352 18.9359 21.2352 18.9307 21.2352 18.9255C21.2352 18.9203 21.2352 18.9151 21.2352 18.9099C21.2352 18.9047 21.2352 18.8995 21.2352 18.8943C21.2352 18.889 21.2352 18.8838 21.2352 18.8786C21.2352 18.8734 21.2352 18.8681 21.2352 18.8629C21.2352 18.8576 21.2352 18.8524 21.2352 18.8471C21.2352 18.8419 21.2352 18.8366 21.2352 18.8313C21.2352 18.8261 21.2352 18.8208 21.2352 18.8155C21.2352 18.8102 21.2352 18.805 21.2352 18.7997C21.2352 18.7944 21.2352 18.7891 21.2352 18.7838C21.2352 18.7785 21.2352 18.7732 21.2352 18.7679C21.2352 18.7626 21.2352 18.7572 21.2352 18.7519C21.2352 18.7466 21.2352 18.7413 21.2352 18.7359C21.2352 18.7306 21.2352 18.7252 21.2352 18.7199C21.2352 18.7145 21.2352 18.7092 21.2352 18.7038C21.2352 18.6985 21.2352 18.6931 21.2352 18.6877C21.2352 18.6824 21.2352 18.677 21.2352 18.6716C21.2352 18.6662 21.2352 18.6608 21.2352 18.6555C21.2352 18.6501 21.2352 18.6447 21.2352 18.6393C21.2352 18.6339 21.2352 18.6285 21.2352 18.623C21.2352 18.6176 21.2352 18.6122 21.2352 18.6068C21.2352 18.6014 21.2352 18.5959 21.2352 18.5905C21.2352 18.5851 21.2352 18.5796 21.2352 18.5742C21.2352 18.5687 21.2352 18.5633 21.2352 18.5578C21.2352 18.5524 21.2352 18.5469 21.2352 18.5414C21.2352 18.536 21.2352 18.5305 21.2352 18.525C21.2352 18.5196 21.2352 18.5141 21.2352 18.5086C21.2352 18.5031 21.2352 18.4976 21.2352 18.4921C21.2352 18.4866 21.2352 18.4811 21.2352 18.4756C21.2352 18.4701 21.2352 18.4646 21.2352 18.4591C21.2352 18.4536 21.2352 18.4481 21.2352 18.4425C21.2352 18.437 21.2352 18.4315 21.2352 18.4259C21.2352 18.4204 21.2352 18.4149 21.2352 18.4093C21.2352 18.4038 21.2352 18.3982 21.2352 18.3927C21.2352 18.3871 21.2352 18.3816 21.2352 18.376C21.2352 18.3704 21.2352 18.3649 21.2352 18.3593C21.2352 18.3537 21.2352 18.3481 21.2352 18.3426C21.2352 18.337 21.2352 18.3314 21.2352 18.3258C21.2352 18.3202 21.2352 18.3146 21.2352 18.309C21.2352 18.3034 21.2352 18.2978 21.2352 18.2922C21.2352 18.2866 21.2352 18.281 21.2352 18.2753C21.2352 18.2697 21.2352 18.2641 21.2352 18.2585C21.2352 18.2529 21.2352 18.2472 21.2352 18.2416C21.2352 18.2359 21.2352 18.2303 21.2352 18.2247C21.2352 18.219 21.2352 18.2134 21.2352 18.2077C21.2352 18.2021 21.2352 18.1964 21.2352 18.1907C21.2352 18.1851 21.2352 18.1794 21.2352 18.1737C21.2352 18.1681 21.2352 18.1624 21.2352 18.1567C21.2352 18.151 21.2352 18.1454 21.2352 18.1397C21.2352 18.134 21.2352 18.1283 21.2352 18.1226C21.2352 18.1169 21.2352 18.1112 21.2352 18.1055C21.2352 18.0998 21.2352 18.0941 21.2352 18.0884C21.2352 18.0827 21.2352 18.077 21.2352 18.0713C21.2352 18.0655 21.2352 18.0598 21.2352 18.0541C21.2352 18.0484 21.2352 18.0426 21.2352 18.0369C21.2352 18.0312 21.2352 18.0254 21.2352 18.0197C21.2352 18.0139 21.2352 18.0082 21.2352 18.0024C21.2352 17.9967 21.2352 17.9909 21.2352 17.9852C21.2352 17.9794 21.2352 17.9737 21.2352 17.9679C21.2352 17.9621 21.2352 17.9564 21.2352 17.9506C21.2352 17.9448 21.2352 17.9391 21.2352 17.9333C21.2352 17.9275 21.2352 17.9217 21.2352 17.9159C21.2352 17.9102 21.2352 17.9044 21.2352 17.8986C21.2352 17.8928 21.2352 17.887 21.2352 17.8812C21.2352 17.8754 21.2352 17.8696 21.2352 17.8638C21.2352 17.858 21.2352 17.8522 21.2352 17.8464C21.2352 17.8405 21.2352 17.8347 21.2352 17.8289C21.2352 17.8231 21.2352 17.8173 21.2352 17.8114C21.2352 17.8056 21.2352 17.7998 21.2352 17.794C21.2352 17.7881 21.2352 17.7823 21.2352 17.7765C21.2352 17.7706 21.2352 17.7648 21.2352 17.7589C21.2352 17.7531 21.2352 17.7472 21.2352 17.7414C21.2352 17.7355 21.2352 17.7297 21.2352 17.7238C21.2352 17.718 21.2352 17.7121 21.2352 17.7062C21.2352 17.7004 21.2352 17.6945 21.2352 17.6886C21.2352 17.6828 21.2352 17.6769 21.2352 17.671C21.2352 17.6652 21.2352 17.6593 21.2352 17.6534C21.2352 17.6475 21.2352 17.6416 21.2352 17.6357C21.2352 17.6299 21.2352 17.624 21.2352 17.6181C21.2352 17.6122 21.2352 17.6063 21.2352 17.6004C21.2352 17.5945 21.2352 17.5886 21.2352 17.5827C21.2352 17.5768 21.2352 17.5709 21.2352 17.565C21.2352 17.5591 21.2352 17.5532 21.2352 17.5473C21.2352 17.5413 21.2352 17.5354 21.2352 17.5295C21.2352 17.5236 21.2352 17.5177 21.2352 17.5117C21.2352 17.5058 21.2352 17.4999 21.2352 17.494C21.2352 17.488 21.2352 17.4821 21.2352 17.4762C21.2352 17.4702 21.2352 17.4643 21.2352 17.4584C21.2352 17.4524 21.2352 17.4465 21.2352 17.4406C21.2352 17.4346 21.2352 17.4287 21.2352 17.4227C21.2352 17.4168 21.2352 17.4108 21.2352 17.4049C21.2352 17.3989 21.2352 17.393 21.2352 17.387C21.2352 17.3811 21.2352 17.3751 21.2352 17.3691C21.2352 17.3632 21.2352 17.3572 21.2352 17.3512C21.2352 17.3453 21.2352 17.3393 21.2352 17.3333C21.2352 17.3274 21.2352 17.3214 21.2352 17.3154C21.2352 17.3095 21.2352 17.3035 21.2352 17.2975C21.2352 17.2915 21.2352 17.2856 21.2352 17.2796C21.2352 17.2736 21.2352 17.2676 21.2352 17.2616C21.2352 17.2556 21.2352 17.2497 21.2352 17.2437C21.2352 17.2377 21.2352 17.2317 21.2352 17.2257C21.2352 17.2197 21.2352 17.2137 21.2352 17.2077C21.2352 17.2017 21.2352 17.1957 21.2352 17.1897C21.2352 17.1837 21.2352 17.1777 21.2352 17.1717C21.2352 17.1657 21.2352 17.1597 21.2352 17.1537C21.2352 17.1477 21.2352 17.1417 21.2352 17.1357C21.2352 17.1297 21.2352 17.1237 21.2352 17.1177C21.2352 17.1116 21.2352 17.1056 21.2352 17.0996C21.2352 17.0936 21.2352 17.0876 21.2352 17.0816C21.2352 17.0756 21.2352 17.0695 21.2352 17.0635C21.2352 17.0575 21.2352 17.0515 21.2352 17.0454C21.2352 17.0394 21.2352 17.0334 21.2352 17.0274C21.2352 17.0213 21.2352 17.0153 21.2352 17.0093C21.2352 17.0033 21.2352 16.9972 21.2352 16.9912C21.2352 16.9852 21.2352 16.9791 21.2352 16.9731C21.2352 16.9671 21.2352 16.961 21.2352 16.955C21.2352 16.949 21.2352 16.9429 21.2352 16.9369C21.2352 16.9309 21.2352 16.9248 21.2352 16.9188C21.2352 16.9127 21.2352 16.9067 21.2352 16.9006C21.2352 16.8946 21.2352 16.8886 21.2352 16.8825C21.2352 16.8765 21.2352 16.8704 21.2352 16.8644C21.2352 16.8583 21.2352 16.8523 21.2352 16.8462C21.2352 16.8402 21.2352 16.8341 21.2352 16.8281C21.2352 16.822 21.2352 16.816 21.2352 16.8099C21.2352 16.8039 21.2352 16.7978 21.2352 16.7918C21.2352 16.7857 21.2352 16.7797 21.2352 16.7736C21.2352 16.7676 21.2352 16.7615 21.2352 16.7555C21.2352 16.7494 21.2352 16.7433 21.2352 16.7373C21.2352 16.7312 21.2352 16.7252 21.2352 16.7191C21.2352 16.7131 21.2352 16.707 21.2352 16.7009C21.2352 16.6949 21.2352 16.6888 21.2352 16.6828C21.2352 16.6767 21.2352 16.6706 21.2352 16.6646C21.2352 16.6585 21.2352 16.6525 21.2352 16.6464C21.2352 16.6403 21.2352 16.6343 21.2352 16.6282C21.2352 16.6221 21.2352 16.6161 21.2352 16.61C21.2352 16.604 21.2352 16.5979 21.2352 16.5918C21.2352 16.5858 21.2352 16.5797 21.2352 16.5736C21.2352 16.5676 21.2352 16.5615 21.2352 16.5554C21.2352 16.5494 21.2352 16.5433 21.2352 16.5372C21.2352 16.5312 21.2352 16.5251 21.2352 16.5191C21.2352 16.513 21.2352 16.5069 21.2352 16.5009C21.2352 16.4948 21.2352 16.4887 21.2352 16.4827C21.2352 16.4766 21.2352 16.4705 21.2352 16.4645C21.2352 16.4584 21.2352 16.4523 21.2352 16.4463C21.2352 16.4402 21.2352 16.4341 21.2352 16.4281C21.2352 16.422 21.2352 16.4159 21.2352 16.4099C21.2352 16.4038 21.2352 16.3977 21.2352 16.3917C21.2352 16.3856 21.2352 16.3796 21.2352 16.3735C21.2352 16.3674 21.2352 16.3614 21.2352 16.3553C21.2352 16.3492 21.2352 16.3432 21.2352 16.3371C21.2352 16.331 21.2352 16.325 21.2352 16.3189C21.2352 16.3129 21.2352 16.3068 21.2352 16.3007C21.2352 16.2947 21.2352 16.2886 21.2352 16.2826C21.2352 16.2765 21.2352 16.2704 21.2352 16.2644C21.2352 16.2583 21.2352 16.2523 21.2352 16.2462C21.2352 16.2401 21.2352 16.2341 21.2352 16.228C21.2352 16.222 21.2352 16.2159 21.2352 16.2099C21.2352 16.2038 21.2352 16.1977 21.2352 16.1917C21.2352 16.1856 21.2352 16.1796 21.2352 16.1735C21.2352 16.1675 21.2352 16.1614 21.2352 16.1554C21.2352 16.1493 21.2352 16.1433 21.2352 16.1372C21.2352 16.1312 21.2352 16.1251 21.2352 16.1191C21.2352 16.113 21.2352 16.107 21.2352 16.1009C21.2352 16.0949 21.2352 16.0888 21.2352 16.0828C21.2352 16.0768 21.2352 16.0707 21.2352 16.0647C21.2352 16.0586 21.2352 16.0526 21.2352 16.0465C21.2352 16.0405 21.2352 16.0345 21.2352 16.0284C21.2352 16.0224 21.2352 16.0163 21.2352 16.0103C21.2352 16.0043 21.2352 15.9982 21.2352 15.9922C21.2352 15.9862 21.2352 15.9801 21.2352 15.9741C21.2352 15.9681 21.2352 15.9621 21.2352 15.956C21.2352 15.95 21.2352 15.944 21.2352 15.9379C21.2352 15.9319 21.2352 15.9259 21.2352 15.9199C21.2352 15.9138 21.2352 15.9078 21.2352 15.9018C21.2352 15.8958 21.2352 15.8898 21.2352 15.8837C21.2352 15.8777 21.2352 15.8717 21.2352 15.8657C21.2352 15.8597 21.2352 15.8537 21.2352 15.8477C21.2352 15.8416 21.2352 15.8356 21.2352 15.8296C21.2352 15.8236 21.2352 15.8176 21.2352 15.8116C21.2352 15.8056 21.2352 15.7996 21.2352 15.7936C21.2352 15.7876 21.2352 15.7816 21.2352 15.7756C21.2352 15.7696 21.2352 15.7636 21.2352 15.7576C21.2352 15.7516 21.2352 15.7456 21.2352 15.7396C21.2352 15.7336 21.2352 15.7276 21.2352 15.7216C21.2352 15.7157 21.2352 15.7097 21.2352 15.7037C21.2352 15.6977 21.2352 15.6917 21.2352 15.6857C21.2352 15.6798 21.2352 15.6738 21.2352 15.6678C21.2352 15.6618 21.2352 15.6558 21.2352 15.6499C21.2352 15.6439 21.2352 15.6379 21.2352 15.632C21.2352 15.626 21.2352 15.62 21.2352 15.6141C21.2352 15.6081 21.2352 15.6021 21.2352 15.5962C21.2352 15.5902 21.2352 15.5843 21.2352 15.5783C21.2352 15.5723 21.2352 15.5664 21.2352 15.5604C21.2352 15.5545 21.2352 15.5485 21.2352 15.5426C21.2352 15.5366 21.2352 15.5307 21.2352 15.5248C21.2352 15.5188 21.2352 15.5129 21.2352 15.5069C21.2352 15.501 21.2352 15.4951 21.2352 15.4891C21.2352 15.4832 21.2352 15.4773 21.2352 15.4713C21.2352 15.4654 21.2352 15.4595 21.2352 15.4536C21.2352 15.4476 21.2352 15.4417 21.2352 15.4358C21.2352 15.4299 21.2352 15.424 21.2352 15.418C21.2352 15.4121 21.2352 15.4062 21.2352 15.4003C21.2352 15.3944 21.2352 15.3885 21.2352 15.3826C21.2352 15.3767 21.2352 15.3708 21.2352 15.3649C21.2352 15.359 21.2352 15.3531 21.2352 15.3472C21.2352 15.3413 21.2352 15.3354 21.2352 15.3296C21.2352 15.3237 21.2352 15.3178 21.2352 15.3119C21.2352 15.306 21.2352 15.3001 21.2352 15.2943C21.2352 15.2884 21.2352 15.2825 21.2352 15.2767C21.2352 15.2708 21.2352 15.2649 21.2352 15.2591C21.2352 15.2532 21.2352 15.2473 21.2352 15.2415C21.2352 15.2356 21.2352 15.2298 21.2352 15.2239C21.2352 15.2181 21.2352 15.2122 21.2352 15.2064C21.2352 15.2005 21.2352 15.1947 21.2352 15.1888C21.2352 15.183 21.2352 15.1772 21.2352 15.1713C21.2352 15.1655 21.2352 15.1597 21.2352 15.1539C21.2352 15.148 21.2352 15.1422 21.2352 15.1364C21.2352 15.1306 21.2352 15.1248 21.2352 15.1189C21.2352 15.1131 21.2352 15.1073 21.2352 15.1015C21.2352 15.0957 21.2352 15.0899 21.2352 15.0841C21.2352 15.0783 21.2352 15.0725 21.2352 15.0667C21.2352 15.0609 21.2352 15.0551 21.2352 15.0494C21.2352 15.0436 21.2352 15.0378 21.2352 15.032C21.2352 15.0262 21.2352 15.0205 21.2352 15.0147C21.2352 15.0089 21.2352 15.0031 21.2352 14.9974C21.2352 14.9916 21.2352 14.9859 21.2352 14.9801C21.2352 14.9743 21.2352 14.9686 21.2352 14.9628C21.2352 14.9571 21.2352 14.9514 21.2352 14.9456C21.2352 14.9399 21.2352 14.9341 21.2352 14.9284C21.2352 14.9227 21.2352 14.9169 21.2352 14.9112C21.2352 14.9055 21.2352 14.8998 21.2352 14.894C21.2352 14.8883 21.2352 14.8826 21.2352 14.8769C21.2352 14.8712 21.2352 14.8655 21.2352 14.8598C21.2352 14.8541 21.2352 14.8484 21.2352 14.8427C21.2352 14.837 21.2352 14.8313 21.2352 14.8256C21.2352 14.8199 21.2352 14.8142 21.2352 14.8086C21.2352 14.8029 21.2352 14.7972 21.2352 14.7915C21.2352 14.7859 21.2352 14.7802 21.2352 14.7745C21.2352 14.7689 21.2352 14.7632 21.2352 14.7576C21.2352 14.7519 21.2352 14.7463 21.2352 14.7406C21.2352 14.735 21.2352 14.7293 21.2352 14.7237C21.2352 14.7181 21.2352 14.7124 21.2352 14.7068C21.2352 14.7012 21.2352 14.6956 21.2352 14.6899C21.2352 14.6843 21.2352 14.6787 21.2352 14.6731C21.2352 14.6675 21.2352 14.6619 21.2352 14.6563C21.2352 14.6507 21.2352 14.6451 21.2352 14.6395C21.2352 14.6339 21.2352 14.6283 21.2352 14.6227C21.2352 14.6171 21.2352 14.6116 21.2352 14.606C21.2352 14.6004 21.2352 14.5949 21.2352 14.5893C21.2352 14.5837 21.2352 14.5782 21.2352 14.5726C21.2352 14.5671 21.2352 14.5615 21.2352 14.556C21.2352 14.5504 21.2352 14.5449 21.2352 14.5393C21.2352 14.5338 21.2352 14.5283 21.2352 14.5227C21.2352 14.5172 21.2352 14.5117 21.2352 14.5062C21.2352 14.5007 21.2352 14.4952 21.2352 14.4897C21.2352 14.4841 21.2352 14.4786 21.2352 14.4732C21.2352 14.4677 21.2352 14.4622 21.2352 14.4567C21.2352 14.4512 21.2352 14.4457 21.2352 14.4402C21.2352 14.4348 21.2352 14.4293 21.2352 14.4238C21.2352 14.4184 21.2352 14.4129 21.2352 14.4074C21.2352 14.402 21.2352 14.3965 21.2352 14.3911C21.2352 14.3856 21.2352 14.3802 21.2352 14.3748C21.2352 14.3693 21.2352 14.3639 21.2352 14.3585C21.2352 14.3531 21.2352 14.3476 21.2352 14.3422C21.2352 14.3368 21.2352 14.3314 21.2352 14.326C21.2352 14.3206 21.2352 14.3152 21.2352 14.3098C21.2352 14.3044 21.2352 14.299 21.2352 14.2937C21.2352 14.2883 21.2352 14.2829 21.2352 14.2775C21.2352 14.2722 21.2352 14.2668 21.2352 14.2614C21.2352 14.2561 21.2352 14.2507 21.2352 14.2454C21.2352 14.24 21.2352 14.2347 21.2352 14.2293C21.2352 14.224 21.2352 14.2187 21.2352 14.2134C21.2352 14.208 21.2352 14.2027 21.2352 14.1974C21.2352 14.1921 21.2352 14.1868 21.2352 14.1815C21.2352 14.1762 21.2352 14.1709 21.2352 14.1656C21.2352 14.1603 21.2352 14.155 21.2352 14.1497C21.2352 14.1445 21.2352 14.1392 21.2352 14.1339C21.2352 14.1286 21.2352 14.1234 21.2352 14.1181C21.2352 14.1129 21.2352 14.1076 21.2352 14.1024C21.2352 14.0971 21.2352 14.0919 21.2352 14.0867C21.2352 14.0814 21.2352 14.0762 21.2352 14.071C21.2352 14.0658 21.2352 14.0606 21.2352 14.0554H18.8352C18.8352 14.0606 18.8352 14.0658 18.8352 14.071C18.8352 14.0762 18.8352 14.0814 18.8352 14.0867C18.8352 14.0919 18.8352 14.0971 18.8352 14.1024C18.8352 14.1076 18.8352 14.1129 18.8352 14.1181C18.8352 14.1234 18.8352 14.1286 18.8352 14.1339C18.8352 14.1392 18.8352 14.1445 18.8352 14.1497C18.8352 14.155 18.8352 14.1603 18.8352 14.1656C18.8352 14.1709 18.8352 14.1762 18.8352 14.1815C18.8352 14.1868 18.8352 14.1921 18.8352 14.1974C18.8352 14.2027 18.8352 14.208 18.8352 14.2134C18.8352 14.2187 18.8352 14.224 18.8352 14.2293C18.8352 14.2347 18.8352 14.24 18.8352 14.2454C18.8352 14.2507 18.8352 14.2561 18.8352 14.2614C18.8352 14.2668 18.8352 14.2722 18.8352 14.2775C18.8352 14.2829 18.8352 14.2883 18.8352 14.2937C18.8352 14.299 18.8352 14.3044 18.8352 14.3098C18.8352 14.3152 18.8352 14.3206 18.8352 14.326C18.8352 14.3314 18.8352 14.3368 18.8352 14.3422C18.8352 14.3476 18.8352 14.3531 18.8352 14.3585C18.8352 14.3639 18.8352 14.3693 18.8352 14.3748C18.8352 14.3802 18.8352 14.3856 18.8352 14.3911C18.8352 14.3965 18.8352 14.402 18.8352 14.4074C18.8352 14.4129 18.8352 14.4184 18.8352 14.4238C18.8352 14.4293 18.8352 14.4348 18.8352 14.4402C18.8352 14.4457 18.8352 14.4512 18.8352 14.4567C18.8352 14.4622 18.8352 14.4677 18.8352 14.4732C18.8352 14.4786 18.8352 14.4841 18.8352 14.4897C18.8352 14.4952 18.8352 14.5007 18.8352 14.5062C18.8352 14.5117 18.8352 14.5172 18.8352 14.5227C18.8352 14.5283 18.8352 14.5338 18.8352 14.5393C18.8352 14.5449 18.8352 14.5504 18.8352 14.556C18.8352 14.5615 18.8352 14.5671 18.8352 14.5726C18.8352 14.5782 18.8352 14.5837 18.8352 14.5893C18.8352 14.5949 18.8352 14.6004 18.8352 14.606C18.8352 14.6116 18.8352 14.6171 18.8352 14.6227C18.8352 14.6283 18.8352 14.6339 18.8352 14.6395C18.8352 14.6451 18.8352 14.6507 18.8352 14.6563C18.8352 14.6619 18.8352 14.6675 18.8352 14.6731C18.8352 14.6787 18.8352 14.6843 18.8352 14.6899C18.8352 14.6956 18.8352 14.7012 18.8352 14.7068C18.8352 14.7124 18.8352 14.7181 18.8352 14.7237C18.8352 14.7293 18.8352 14.735 18.8352 14.7406C18.8352 14.7463 18.8352 14.7519 18.8352 14.7576C18.8352 14.7632 18.8352 14.7689 18.8352 14.7745C18.8352 14.7802 18.8352 14.7859 18.8352 14.7915C18.8352 14.7972 18.8352 14.8029 18.8352 14.8086C18.8352 14.8142 18.8352 14.8199 18.8352 14.8256C18.8352 14.8313 18.8352 14.837 18.8352 14.8427C18.8352 14.8484 18.8352 14.8541 18.8352 14.8598C18.8352 14.8655 18.8352 14.8712 18.8352 14.8769C18.8352 14.8826 18.8352 14.8883 18.8352 14.894C18.8352 14.8998 18.8352 14.9055 18.8352 14.9112C18.8352 14.9169 18.8352 14.9227 18.8352 14.9284C18.8352 14.9341 18.8352 14.9399 18.8352 14.9456C18.8352 14.9514 18.8352 14.9571 18.8352 14.9628C18.8352 14.9686 18.8352 14.9743 18.8352 14.9801C18.8352 14.9859 18.8352 14.9916 18.8352 14.9974C18.8352 15.0031 18.8352 15.0089 18.8352 15.0147C18.8352 15.0205 18.8352 15.0262 18.8352 15.032C18.8352 15.0378 18.8352 15.0436 18.8352 15.0494C18.8352 15.0551 18.8352 15.0609 18.8352 15.0667C18.8352 15.0725 18.8352 15.0783 18.8352 15.0841C18.8352 15.0899 18.8352 15.0957 18.8352 15.1015C18.8352 15.1073 18.8352 15.1131 18.8352 15.1189C18.8352 15.1248 18.8352 15.1306 18.8352 15.1364C18.8352 15.1422 18.8352 15.148 18.8352 15.1539C18.8352 15.1597 18.8352 15.1655 18.8352 15.1713C18.8352 15.1772 18.8352 15.183 18.8352 15.1888C18.8352 15.1947 18.8352 15.2005 18.8352 15.2064C18.8352 15.2122 18.8352 15.2181 18.8352 15.2239C18.8352 15.2298 18.8352 15.2356 18.8352 15.2415C18.8352 15.2473 18.8352 15.2532 18.8352 15.2591C18.8352 15.2649 18.8352 15.2708 18.8352 15.2767C18.8352 15.2825 18.8352 15.2884 18.8352 15.2943C18.8352 15.3001 18.8352 15.306 18.8352 15.3119C18.8352 15.3178 18.8352 15.3237 18.8352 15.3296C18.8352 15.3354 18.8352 15.3413 18.8352 15.3472C18.8352 15.3531 18.8352 15.359 18.8352 15.3649C18.8352 15.3708 18.8352 15.3767 18.8352 15.3826C18.8352 15.3885 18.8352 15.3944 18.8352 15.4003C18.8352 15.4062 18.8352 15.4121 18.8352 15.418C18.8352 15.424 18.8352 15.4299 18.8352 15.4358C18.8352 15.4417 18.8352 15.4476 18.8352 15.4536C18.8352 15.4595 18.8352 15.4654 18.8352 15.4713C18.8352 15.4773 18.8352 15.4832 18.8352 15.4891C18.8352 15.4951 18.8352 15.501 18.8352 15.5069C18.8352 15.5129 18.8352 15.5188 18.8352 15.5248C18.8352 15.5307 18.8352 15.5366 18.8352 15.5426C18.8352 15.5485 18.8352 15.5545 18.8352 15.5604C18.8352 15.5664 18.8352 15.5723 18.8352 15.5783C18.8352 15.5843 18.8352 15.5902 18.8352 15.5962C18.8352 15.6021 18.8352 15.6081 18.8352 15.6141C18.8352 15.62 18.8352 15.626 18.8352 15.632C18.8352 15.6379 18.8352 15.6439 18.8352 15.6499C18.8352 15.6558 18.8352 15.6618 18.8352 15.6678C18.8352 15.6738 18.8352 15.6798 18.8352 15.6857C18.8352 15.6917 18.8352 15.6977 18.8352 15.7037C18.8352 15.7097 18.8352 15.7157 18.8352 15.7216C18.8352 15.7276 18.8352 15.7336 18.8352 15.7396C18.8352 15.7456 18.8352 15.7516 18.8352 15.7576C18.8352 15.7636 18.8352 15.7696 18.8352 15.7756C18.8352 15.7816 18.8352 15.7876 18.8352 15.7936C18.8352 15.7996 18.8352 15.8056 18.8352 15.8116C18.8352 15.8176 18.8352 15.8236 18.8352 15.8296C18.8352 15.8356 18.8352 15.8416 18.8352 15.8477C18.8352 15.8537 18.8352 15.8597 18.8352 15.8657C18.8352 15.8717 18.8352 15.8777 18.8352 15.8837C18.8352 15.8898 18.8352 15.8958 18.8352 15.9018C18.8352 15.9078 18.8352 15.9138 18.8352 15.9199C18.8352 15.9259 18.8352 15.9319 18.8352 15.9379C18.8352 15.944 18.8352 15.95 18.8352 15.956C18.8352 15.9621 18.8352 15.9681 18.8352 15.9741C18.8352 15.9801 18.8352 15.9862 18.8352 15.9922C18.8352 15.9982 18.8352 16.0043 18.8352 16.0103C18.8352 16.0163 18.8352 16.0224 18.8352 16.0284C18.8352 16.0345 18.8352 16.0405 18.8352 16.0465C18.8352 16.0526 18.8352 16.0586 18.8352 16.0647C18.8352 16.0707 18.8352 16.0768 18.8352 16.0828C18.8352 16.0888 18.8352 16.0949 18.8352 16.1009C18.8352 16.107 18.8352 16.113 18.8352 16.1191C18.8352 16.1251 18.8352 16.1312 18.8352 16.1372C18.8352 16.1433 18.8352 16.1493 18.8352 16.1554C18.8352 16.1614 18.8352 16.1675 18.8352 16.1735C18.8352 16.1796 18.8352 16.1856 18.8352 16.1917C18.8352 16.1977 18.8352 16.2038 18.8352 16.2099C18.8352 16.2159 18.8352 16.222 18.8352 16.228C18.8352 16.2341 18.8352 16.2401 18.8352 16.2462C18.8352 16.2523 18.8352 16.2583 18.8352 16.2644C18.8352 16.2704 18.8352 16.2765 18.8352 16.2826C18.8352 16.2886 18.8352 16.2947 18.8352 16.3007C18.8352 16.3068 18.8352 16.3129 18.8352 16.3189C18.8352 16.325 18.8352 16.331 18.8352 16.3371C18.8352 16.3432 18.8352 16.3492 18.8352 16.3553C18.8352 16.3614 18.8352 16.3674 18.8352 16.3735C18.8352 16.3796 18.8352 16.3856 18.8352 16.3917C18.8352 16.3977 18.8352 16.4038 18.8352 16.4099C18.8352 16.4159 18.8352 16.422 18.8352 16.4281C18.8352 16.4341 18.8352 16.4402 18.8352 16.4463C18.8352 16.4523 18.8352 16.4584 18.8352 16.4645C18.8352 16.4705 18.8352 16.4766 18.8352 16.4827C18.8352 16.4887 18.8352 16.4948 18.8352 16.5009C18.8352 16.5069 18.8352 16.513 18.8352 16.5191C18.8352 16.5251 18.8352 16.5312 18.8352 16.5372C18.8352 16.5433 18.8352 16.5494 18.8352 16.5554C18.8352 16.5615 18.8352 16.5676 18.8352 16.5736C18.8352 16.5797 18.8352 16.5858 18.8352 16.5918C18.8352 16.5979 18.8352 16.604 18.8352 16.61C18.8352 16.6161 18.8352 16.6221 18.8352 16.6282C18.8352 16.6343 18.8352 16.6403 18.8352 16.6464C18.8352 16.6525 18.8352 16.6585 18.8352 16.6646C18.8352 16.6706 18.8352 16.6767 18.8352 16.6828C18.8352 16.6888 18.8352 16.6949 18.8352 16.7009C18.8352 16.707 18.8352 16.7131 18.8352 16.7191C18.8352 16.7252 18.8352 16.7312 18.8352 16.7373C18.8352 16.7433 18.8352 16.7494 18.8352 16.7555C18.8352 16.7615 18.8352 16.7676 18.8352 16.7736C18.8352 16.7797 18.8352 16.7857 18.8352 16.7918C18.8352 16.7978 18.8352 16.8039 18.8352 16.8099C18.8352 16.816 18.8352 16.822 18.8352 16.8281C18.8352 16.8341 18.8352 16.8402 18.8352 16.8462C18.8352 16.8523 18.8352 16.8583 18.8352 16.8644C18.8352 16.8704 18.8352 16.8765 18.8352 16.8825C18.8352 16.8886 18.8352 16.8946 18.8352 16.9006C18.8352 16.9067 18.8352 16.9127 18.8352 16.9188C18.8352 16.9248 18.8352 16.9309 18.8352 16.9369C18.8352 16.9429 18.8352 16.949 18.8352 16.955C18.8352 16.961 18.8352 16.9671 18.8352 16.9731C18.8352 16.9791 18.8352 16.9852 18.8352 16.9912C18.8352 16.9972 18.8352 17.0033 18.8352 17.0093C18.8352 17.0153 18.8352 17.0213 18.8352 17.0274C18.8352 17.0334 18.8352 17.0394 18.8352 17.0454C18.8352 17.0515 18.8352 17.0575 18.8352 17.0635C18.8352 17.0695 18.8352 17.0756 18.8352 17.0816C18.8352 17.0876 18.8352 17.0936 18.8352 17.0996C18.8352 17.1056 18.8352 17.1116 18.8352 17.1177C18.8352 17.1237 18.8352 17.1297 18.8352 17.1357C18.8352 17.1417 18.8352 17.1477 18.8352 17.1537C18.8352 17.1597 18.8352 17.1657 18.8352 17.1717C18.8352 17.1777 18.8352 17.1837 18.8352 17.1897C18.8352 17.1957 18.8352 17.2017 18.8352 17.2077C18.8352 17.2137 18.8352 17.2197 18.8352 17.2257C18.8352 17.2317 18.8352 17.2377 18.8352 17.2437C18.8352 17.2497 18.8352 17.2556 18.8352 17.2616C18.8352 17.2676 18.8352 17.2736 18.8352 17.2796C18.8352 17.2856 18.8352 17.2915 18.8352 17.2975C18.8352 17.3035 18.8352 17.3095 18.8352 17.3154C18.8352 17.3214 18.8352 17.3274 18.8352 17.3333C18.8352 17.3393 18.8352 17.3453 18.8352 17.3512C18.8352 17.3572 18.8352 17.3632 18.8352 17.3691C18.8352 17.3751 18.8352 17.3811 18.8352 17.387C18.8352 17.393 18.8352 17.3989 18.8352 17.4049C18.8352 17.4108 18.8352 17.4168 18.8352 17.4227C18.8352 17.4287 18.8352 17.4346 18.8352 17.4406C18.8352 17.4465 18.8352 17.4524 18.8352 17.4584C18.8352 17.4643 18.8352 17.4702 18.8352 17.4762C18.8352 17.4821 18.8352 17.488 18.8352 17.494C18.8352 17.4999 18.8352 17.5058 18.8352 17.5117C18.8352 17.5177 18.8352 17.5236 18.8352 17.5295C18.8352 17.5354 18.8352 17.5413 18.8352 17.5473C18.8352 17.5532 18.8352 17.5591 18.8352 17.565C18.8352 17.5709 18.8352 17.5768 18.8352 17.5827C18.8352 17.5886 18.8352 17.5945 18.8352 17.6004C18.8352 17.6063 18.8352 17.6122 18.8352 17.6181C18.8352 17.624 18.8352 17.6299 18.8352 17.6357C18.8352 17.6416 18.8352 17.6475 18.8352 17.6534C18.8352 17.6593 18.8352 17.6652 18.8352 17.671C18.8352 17.6769 18.8352 17.6828 18.8352 17.6886C18.8352 17.6945 18.8352 17.7004 18.8352 17.7062C18.8352 17.7121 18.8352 17.718 18.8352 17.7238C18.8352 17.7297 18.8352 17.7355 18.8352 17.7414C18.8352 17.7472 18.8352 17.7531 18.8352 17.7589C18.8352 17.7648 18.8352 17.7706 18.8352 17.7765C18.8352 17.7823 18.8352 17.7881 18.8352 17.794C18.8352 17.7998 18.8352 17.8056 18.8352 17.8114C18.8352 17.8173 18.8352 17.8231 18.8352 17.8289C18.8352 17.8347 18.8352 17.8405 18.8352 17.8464C18.8352 17.8522 18.8352 17.858 18.8352 17.8638C18.8352 17.8696 18.8352 17.8754 18.8352 17.8812C18.8352 17.887 18.8352 17.8928 18.8352 17.8986C18.8352 17.9044 18.8352 17.9102 18.8352 17.9159C18.8352 17.9217 18.8352 17.9275 18.8352 17.9333C18.8352 17.9391 18.8352 17.9448 18.8352 17.9506C18.8352 17.9564 18.8352 17.9621 18.8352 17.9679C18.8352 17.9737 18.8352 17.9794 18.8352 17.9852C18.8352 17.9909 18.8352 17.9967 18.8352 18.0024C18.8352 18.0082 18.8352 18.0139 18.8352 18.0197C18.8352 18.0254 18.8352 18.0312 18.8352 18.0369C18.8352 18.0426 18.8352 18.0484 18.8352 18.0541C18.8352 18.0598 18.8352 18.0655 18.8352 18.0713C18.8352 18.077 18.8352 18.0827 18.8352 18.0884C18.8352 18.0941 18.8352 18.0998 18.8352 18.1055C18.8352 18.1112 18.8352 18.1169 18.8352 18.1226C18.8352 18.1283 18.8352 18.134 18.8352 18.1397C18.8352 18.1454 18.8352 18.151 18.8352 18.1567C18.8352 18.1624 18.8352 18.1681 18.8352 18.1737C18.8352 18.1794 18.8352 18.1851 18.8352 18.1907C18.8352 18.1964 18.8352 18.2021 18.8352 18.2077C18.8352 18.2134 18.8352 18.219 18.8352 18.2247C18.8352 18.2303 18.8352 18.2359 18.8352 18.2416C18.8352 18.2472 18.8352 18.2529 18.8352 18.2585C18.8352 18.2641 18.8352 18.2697 18.8352 18.2753C18.8352 18.281 18.8352 18.2866 18.8352 18.2922C18.8352 18.2978 18.8352 18.3034 18.8352 18.309C18.8352 18.3146 18.8352 18.3202 18.8352 18.3258C18.8352 18.3314 18.8352 18.337 18.8352 18.3426C18.8352 18.3481 18.8352 18.3537 18.8352 18.3593C18.8352 18.3649 18.8352 18.3704 18.8352 18.376C18.8352 18.3816 18.8352 18.3871 18.8352 18.3927C18.8352 18.3982 18.8352 18.4038 18.8352 18.4093C18.8352 18.4149 18.8352 18.4204 18.8352 18.4259C18.8352 18.4315 18.8352 18.437 18.8352 18.4425C18.8352 18.4481 18.8352 18.4536 18.8352 18.4591C18.8352 18.4646 18.8352 18.4701 18.8352 18.4756C18.8352 18.4811 18.8352 18.4866 18.8352 18.4921C18.8352 18.4976 18.8352 18.5031 18.8352 18.5086C18.8352 18.5141 18.8352 18.5196 18.8352 18.525C18.8352 18.5305 18.8352 18.536 18.8352 18.5414C18.8352 18.5469 18.8352 18.5524 18.8352 18.5578C18.8352 18.5633 18.8352 18.5687 18.8352 18.5742C18.8352 18.5796 18.8352 18.5851 18.8352 18.5905C18.8352 18.5959 18.8352 18.6014 18.8352 18.6068C18.8352 18.6122 18.8352 18.6176 18.8352 18.623C18.8352 18.6285 18.8352 18.6339 18.8352 18.6393C18.8352 18.6447 18.8352 18.6501 18.8352 18.6555C18.8352 18.6608 18.8352 18.6662 18.8352 18.6716C18.8352 18.677 18.8352 18.6824 18.8352 18.6877C18.8352 18.6931 18.8352 18.6985 18.8352 18.7038C18.8352 18.7092 18.8352 18.7145 18.8352 18.7199C18.8352 18.7252 18.8352 18.7306 18.8352 18.7359C18.8352 18.7413 18.8352 18.7466 18.8352 18.7519C18.8352 18.7572 18.8352 18.7626 18.8352 18.7679C18.8352 18.7732 18.8352 18.7785 18.8352 18.7838C18.8352 18.7891 18.8352 18.7944 18.8352 18.7997C18.8352 18.805 18.8352 18.8102 18.8352 18.8155C18.8352 18.8208 18.8352 18.8261 18.8352 18.8313C18.8352 18.8366 18.8352 18.8419 18.8352 18.8471C18.8352 18.8524 18.8352 18.8576 18.8352 18.8629C18.8352 18.8681 18.8352 18.8734 18.8352 18.8786C18.8352 18.8838 18.8352 18.889 18.8352 18.8943C18.8352 18.8995 18.8352 18.9047 18.8352 18.9099C18.8352 18.9151 18.8352 18.9203 18.8352 18.9255C18.8352 18.9307 18.8352 18.9359 18.8352 18.9411C18.8352 18.9462 18.8352 18.9514 18.8352 18.9566C18.8352 18.9618 18.8352 18.9669 18.8352 18.9721C18.8352 18.9772 18.8352 18.9824 18.8352 18.9875C18.8352 18.9927 18.8352 18.9978 18.8352 19.0029C18.8352 19.0081 18.8352 19.0132 18.8352 19.0183C18.8352 19.0234 18.8352 19.0285 18.8352 19.0336C18.8352 19.0388 18.8352 19.0439 18.8352 19.0489C18.8352 19.054 18.8352 19.0591 18.8352 19.0642C18.8352 19.0693 18.8352 19.0744 18.8352 19.0794C18.8352 19.0845 18.8352 19.0895 18.8352 19.0946C18.8352 19.0997 18.8352 19.1047 18.8352 19.1097C18.8352 19.1148 18.8352 19.1198 18.8352 19.1248C18.8352 19.1299 18.8352 19.1349 18.8352 19.1399C18.8352 19.1449 18.8352 19.1499 18.8352 19.1549C18.8352 19.1599 18.8352 19.1649 18.8352 19.1699C18.8352 19.1749 18.8352 19.1798 18.8352 19.1848C18.8352 19.1898 18.8352 19.1948 18.8352 19.1997C18.8352 19.2047 18.8352 19.2096 18.8352 19.2146C18.8352 19.2195 18.8352 19.2244 18.8352 19.2294C18.8352 19.2343 18.8352 19.2392 18.8352 19.2441C18.8352 19.2491 18.8352 19.254 18.8352 19.2589C18.8352 19.2638 18.8352 19.2687 18.8352 19.2735C18.8352 19.2784 18.8352 19.2833 18.8352 19.2882C18.8352 19.2931 18.8352 19.2979 18.8352 19.3028C18.8352 19.3076 18.8352 19.3125 18.8352 19.3173C18.8352 19.3222 18.8352 19.327 18.8352 19.3318C18.8352 19.3367 18.8352 19.3415 18.8352 19.3463C18.8352 19.3511 18.8352 19.3559 18.8352 19.3607C18.8352 19.3655 18.8352 19.3703 18.8352 19.3751C18.8352 19.3799 18.8352 19.3847 18.8352 19.3894C18.8352 19.3942 18.8352 19.3989 18.8352 19.4037C18.8352 19.4085 18.8352 19.4132 18.8352 19.4179C18.8352 19.4227 18.8352 19.4274 18.8352 19.4321C18.8352 19.4369 18.8352 19.4416 18.8352 19.4463C18.8352 19.451 18.8352 19.4557 18.8352 19.4604C18.8352 19.4651 18.8352 19.4698 18.8352 19.4744C18.8352 19.4791 18.8352 19.4838 18.8352 19.4884C18.8352 19.4931 18.8352 19.4978 18.8352 19.5024C18.8352 19.507 18.8352 19.5117 18.8352 19.5163C18.8352 19.5209 18.8352 19.5256 18.8352 19.5302C18.8352 19.5348 18.8352 19.5394 18.8352 19.544C18.8352 19.5486 18.8352 19.5532 18.8352 19.5578C18.8352 19.5623 18.8352 19.5669 18.8352 19.5715C18.8352 19.576 18.8352 19.5806 18.8352 19.5852C18.8352 19.5897 18.8352 19.5942 18.8352 19.5988C18.8352 19.6033 18.8352 19.6078 18.8352 19.6123C18.8352 19.6169 18.8352 19.6214 18.8352 19.6259C18.8352 19.6304 18.8352 19.6349 18.8352 19.6393C18.8352 19.6438 18.8352 19.6483 18.8352 19.6528C18.8352 19.6572 18.8352 19.6617 18.8352 19.6661C18.8352 19.6706 18.8352 19.675 18.8352 19.6795C18.8352 19.6839 18.8352 19.6883 18.8352 19.6927C18.8352 19.6972 18.8352 19.7016 18.8352 19.706C18.8352 19.7104 18.8352 19.7148 18.8352 19.7191C18.8352 19.7235 18.8352 19.7279 18.8352 19.7323C18.8352 19.7366 18.8352 19.741 18.8352 19.7453C18.8352 19.7497 18.8352 19.754 18.8352 19.7583C18.8352 19.7627 18.8352 19.767 18.8352 19.7713C18.8352 19.7756 18.8352 19.7799 18.8352 19.7842C18.8352 19.7885 18.8352 19.7928 18.8352 19.7971C18.8352 19.8013 18.8352 19.8056 18.8352 19.8099C18.8352 19.8141 18.8352 19.8184 18.8352 19.8226C18.8352 19.8269 18.8352 19.8311 18.8352 19.8353C18.8352 19.8395 18.8352 19.8438 18.8352 19.848C18.8352 19.8522 18.8352 19.8564 18.8352 19.8606C18.8352 19.8647 18.8352 19.8689 18.8352 19.8731C18.8352 19.8773 18.8352 19.8814 18.8352 19.8856C18.8352 19.8897 18.8352 19.8939 18.8352 19.898C18.8352 19.9021 18.8352 19.9062 18.8352 19.9104C18.8352 19.9145 18.8352 19.9186 18.8352 19.9227C18.8352 19.9268 18.8352 19.9309 18.8352 19.9349C18.8352 19.939 18.8352 19.9431 18.8352 19.9471C18.8352 19.9512 18.8352 19.9552 18.8352 19.9593C18.8352 19.9633 18.8352 19.9674 18.8352 19.9714C18.8352 19.9754 18.8352 19.9794 18.8352 19.9834C18.8352 19.9874 18.8352 19.9914 18.8352 19.9954C18.8352 19.9994 18.8352 20.0033 18.8352 20.0073C18.8352 20.0113 18.8352 20.0152 18.8352 20.0192C18.8352 20.0231 18.8352 20.027 18.8352 20.031C18.8352 20.0349 18.8352 20.0388 18.8352 20.0427C18.8352 20.0466 18.8352 20.0505 18.8352 20.0544C18.8352 20.0583 18.8352 20.0622 18.8352 20.066C18.8352 20.0699 18.8352 20.0737 18.8352 20.0776C18.8352 20.0814 18.8352 20.0853 18.8352 20.0891C18.8352 20.0929 18.8352 20.0967 18.8352 20.1006C18.8352 20.1044 18.8352 20.1082 18.8352 20.1119C18.8352 20.1157 18.8352 20.1195 18.8352 20.1233C18.8352 20.127 18.8352 20.1308 18.8352 20.1345C18.8352 20.1383 18.8352 20.142 18.8352 20.1458C18.8352 20.1495 18.8352 20.1532 18.8352 20.1569C18.8352 20.1606 18.8352 20.1643 18.8352 20.168C18.8352 20.1717 18.8352 20.1754 18.8352 20.179C18.8352 20.1827 18.8352 20.1863 18.8352 20.19C18.8352 20.1936 18.8352 20.1973 18.8352 20.2009C18.8352 20.2045 18.8352 20.2081 18.8352 20.2117C18.8352 20.2153 18.8352 20.2189 18.8352 20.2225C18.8352 20.2261 18.8352 20.2297 18.8352 20.2332C18.8352 20.2368 18.8352 20.2403 18.8352 20.2439C18.8352 20.2474 18.8352 20.251 18.8352 20.2545C18.8352 20.258 18.8352 20.2615 18.8352 20.265C18.8352 20.2685 18.8352 20.272 18.8352 20.2755C18.8352 20.2789 18.8352 20.2824 18.8352 20.2859C18.8352 20.2893 18.8352 20.2928 18.8352 20.2962C18.8352 20.2996 18.8352 20.3031 18.8352 20.3065C18.8352 20.3099 18.8352 20.3133 18.8352 20.3167C18.8352 20.3201 18.8352 20.3234 18.8352 20.3268C18.8352 20.3302 18.8352 20.3335 18.8352 20.3369C18.8352 20.3402 18.8352 20.3436 18.8352 20.3469C18.8352 20.3502 18.8352 20.3535 18.8352 20.3569C18.8352 20.3602 18.8352 20.3634 18.8352 20.3667C18.8352 20.37 18.8352 20.3733 18.8352 20.3765C18.8352 20.3798 18.8352 20.3831 18.8352 20.3863C18.8352 20.3895 18.8352 20.3928 18.8352 20.396C18.8352 20.3992 18.8352 20.4024 18.8352 20.4056C18.8352 20.4088 18.8352 20.412 18.8352 20.4151C18.8352 20.4183 18.8352 20.4215 18.8352 20.4246C18.8352 20.4278 18.8352 20.4309 18.8352 20.434C18.8352 20.4371 18.8352 20.4403 18.8352 20.4434C18.8352 20.4465 18.8352 20.4495 18.8352 20.4526C18.8352 20.4557 18.8352 20.4588 18.8352 20.4618C18.8352 20.4649 18.8352 20.4679 18.8352 20.471C18.8352 20.474 18.8352 20.477 18.8352 20.48C18.8352 20.483 18.8352 20.486 18.8352 20.489C18.8352 20.492 18.8352 20.495 18.8352 20.498C18.8352 20.5009 18.8352 20.5039 18.8352 20.5068C18.8352 20.5098 18.8352 20.5127 18.8352 20.5156C18.8352 20.5185 18.8352 20.5214 18.8352 20.5243C18.8352 20.5272 18.8352 20.5301 18.8352 20.533C18.8352 20.5358 18.8352 20.5387 18.8352 20.5415C18.8352 20.5444 18.8352 20.5472 18.8352 20.55C18.8352 20.5529 18.8352 20.5557 18.8352 20.5585C18.8352 20.5613 18.8352 20.5641 18.8352 20.5668C18.8352 20.5696 18.8352 20.5724 18.8352 20.5751C18.8352 20.5779 18.8352 20.5806 18.8352 20.5833C18.8352 20.5861 18.8352 20.5888 18.8352 20.5915C18.8352 20.5942 18.8352 20.5969 18.8352 20.5996C18.8352 20.6022 18.8352 20.6049 18.8352 20.6076C18.8352 20.6102 18.8352 20.6128 18.8352 20.6155C18.8352 20.6181 18.8352 20.6207 18.8352 20.6233C18.8352 20.6259 18.8352 20.6285 18.8352 20.6311C18.8352 20.6337 18.8352 20.6363 18.8352 20.6388C18.8352 20.6414 18.8352 20.6439 18.8352 20.6464C18.8352 20.649 18.8352 20.6515 18.8352 20.654C18.8352 20.6565 18.8352 20.659 18.8352 20.6615C18.8352 20.6639 18.8352 20.6664 18.8352 20.6689C18.8352 20.6713 18.8352 20.6738 18.8352 20.6762C18.8352 20.6786 18.8352 20.681 18.8352 20.6834C18.8352 20.6859 18.8352 20.6882 18.8352 20.6906C18.8352 20.693 18.8352 20.6954 18.8352 20.6977C18.8352 20.7001 18.8352 20.7024 18.8352 20.7047C18.8352 20.7071 18.8352 20.7094 18.8352 20.7117C18.8352 20.714 18.8352 20.7163 18.8352 20.7186C18.8352 20.7208 18.8352 20.7231 18.8352 20.7254C18.8352 20.7276 18.8352 20.7298 18.8352 20.7321C18.8352 20.7343 18.8352 20.7365 18.8352 20.7387C18.8352 20.7409 18.8352 20.7431 18.8352 20.7453C18.8352 20.7474 18.8352 20.7496 18.8352 20.7517C18.8352 20.7539 18.8352 20.756 18.8352 20.7581C18.8352 20.7603 18.8352 20.7624 18.8352 20.7645C18.8352 20.7666 18.8352 20.7686 18.8352 20.7707C18.8352 20.7728 18.8352 20.7748 18.8352 20.7769C18.8352 20.7789 18.8352 20.7809 18.8352 20.783C18.8352 20.785 18.8352 20.787 18.8352 20.789C18.8352 20.791 18.8352 20.7929 18.8352 20.7949C18.8352 20.7969 18.8352 20.7988 18.8352 20.8007C18.8352 20.8027 18.8352 20.8046 18.8352 20.8065C18.8352 20.8084 18.8352 20.8103 18.8352 20.8122C18.8352 20.8141 18.8352 20.8159 18.8352 20.8178C18.8352 20.8196 18.8352 20.8215 18.8352 20.8233C18.8352 20.8251 18.8352 20.8269 18.8352 20.8287C18.8352 20.8305 18.8352 20.8323 18.8352 20.8341C18.8352 20.8359 18.8352 20.8376 18.8352 20.8394C18.8352 20.8411 18.8352 20.8428 18.8352 20.8446C18.8352 20.8463 18.8352 20.848 18.8352 20.8497C18.8352 20.8513 18.8352 20.853 18.8352 20.8547C18.8352 20.8563 18.8352 20.858 18.8352 20.8596C18.8352 20.8613 18.8352 20.8629 18.8352 20.8645C18.8352 20.8661 18.8352 20.8677 18.8352 20.8693C18.8352 20.8708 18.8352 20.8724 18.8352 20.8739C18.8352 20.8755 18.8352 20.877 18.8352 20.8786C18.8352 20.8801 18.8352 20.8816 18.8352 20.8831C18.8352 20.8846 18.8352 20.886 18.8352 20.8875C18.8352 20.889 18.8352 20.8904 18.8352 20.8919C18.8352 20.8933 18.8352 20.8947 18.8352 20.8961C18.8352 20.8975 18.8352 20.8989 18.8352 20.9003C18.8352 20.9017 18.8352 20.903 18.8352 20.9044C18.8352 20.9057 18.8352 20.9071 18.8352 20.9084C18.8352 20.9097 18.8352 20.911 18.8352 20.9123C18.8352 20.9136 18.8352 20.9149 18.8352 20.9162C18.8352 20.9174 18.8352 20.9187 18.8352 20.9199C18.8352 20.9211 18.8352 20.9224 18.8352 20.9236C18.8352 20.9248 18.8352 20.926 18.8352 20.9271C18.8352 20.9283 18.8352 20.9295 18.8352 20.9306C18.8352 20.9318 18.8352 20.9329 18.8352 20.934C18.8352 20.9351 18.8352 20.9362 18.8352 20.9373C18.8352 20.9384 18.8352 20.9395 18.8352 20.9405C18.8352 20.9416 18.8352 20.9426 18.8352 20.9437C18.8352 20.9447 18.8352 20.9457 18.8352 20.9467C18.8352 20.9477 18.8352 20.9487 18.8352 20.9497C18.8352 20.9506 18.8352 20.9516 18.8352 20.9525C18.8352 20.9535 18.8352 20.9544 18.8352 20.9553C18.8352 20.9562 18.8352 20.9571 18.8352 20.958C18.8352 20.9589 18.8352 20.9597 18.8352 20.9606C18.8352 20.9614 18.8352 20.9622 18.8352 20.9631C18.8352 20.9639 18.8352 20.9647 18.8352 20.9655C18.8352 20.9663 18.8352 20.967 18.8352 20.9678C18.8352 20.9685 18.8352 20.9693 18.8352 20.97C18.8352 20.9707 18.8352 20.9715 18.8352 20.9722C18.8352 20.9728 18.8352 20.9735 18.8352 20.9742C18.8352 20.9749 18.8352 20.9755 18.8352 20.9761C18.8352 20.9768 18.8352 20.9774 18.8352 20.978C18.8352 20.9786 18.8352 20.9792 18.8352 20.9798C18.8352 20.9803 18.8352 20.9809 18.8352 20.9814C18.8352 20.982 18.8352 20.9825 18.8352 20.983C18.8352 20.9835 18.8352 20.984 18.8352 20.9845C18.8352 20.985 18.8352 20.9854 18.8352 20.9859C18.8352 20.9863 18.8352 20.9868 18.8352 20.9872C18.8352 20.9876 18.8352 20.988 18.8352 20.9884C18.8352 20.9888 18.8352 20.9891 18.8352 20.9895C18.8352 20.9899 18.8352 20.9902 18.8352 20.9905C18.8352 20.9908 18.8352 20.9911 18.8352 20.9914C18.8352 20.9917 18.8352 20.992 18.8352 20.9923C18.8352 20.9925 18.8352 20.9928 18.8352 20.993C18.8352 20.9932 18.8352 20.9934 18.8352 20.9936C18.8352 20.9938 18.8352 20.994 18.8352 20.9941C18.8352 20.9943 18.8352 20.9944 18.8352 20.9946C18.8352 20.9947 18.8352 20.9948 18.8352 20.9949C18.8352 20.995 18.8352 20.9951 18.8352 20.9952C18.8352 20.9952 18.8352 20.9953 18.8352 20.9953C18.8352 20.9953 18.8352 20.9954 20.0352 20.9954Z" fill="black" mask="url(#path-3-inside-1_10_530)"/>
</svg>
