<svg width="24" height="24" viewBox="0 0 24 24" fill="none" xmlns="http://www.w3.org/2000/svg">
<path d="M3 18C7.29577 18 9.70423 18 14 18" stroke="black" stroke-width="1.2"/>
<path d="M18 18C19.1716 18 19.8284 18 21 18" stroke="black" stroke-width="1.2"/>
<path d="M18.4 18C18.4 19.3255 17.3255 20.4 16 20.4C14.6745 20.4 13.6 19.3255 13.6 18C13.6 16.6745 14.6745 15.6 16 15.6C17.3255 15.6 18.4 16.6745 18.4 18Z" stroke="black" stroke-width="1.2"/>
<path d="M10 12C14.2958 12 16.7042 12 21 12" stroke="black" stroke-width="1.2"/>
<path d="M3 12C4.17157 12 4.82843 12 6 12" stroke="black" stroke-width="1.2"/>
<path d="M10.4 12C10.4 13.3255 9.32548 14.4 8 14.4C6.67452 14.4 5.6 13.3255 5.6 12C5.6 10.6745 6.67452 9.6 8 9.6C9.32548 9.6 10.4 10.6745 10.4 12Z" stroke="black" stroke-width="1.2"/>
<path d="M3 6C7.29577 6 9.70423 6 14 6" stroke="black" stroke-width="1.2"/>
<path d="M18 6C19.1716 6 19.8284 6 21 6" stroke="black" stroke-width="1.2"/>
<path d="M18.4 6C18.4 7.32548 17.3255 8.4 16 8.4C14.6745 8.4 13.6 7.32548 13.6 6C13.6 4.67452 14.6745 3.6 16 3.6C17.3255 3.6 18.4 4.67452 18.4 6Z" stroke="black" stroke-width="1.2"/>
</svg>
