<svg width="16" height="16" viewBox="0 0 16 16" fill="none" xmlns="http://www.w3.org/2000/svg">
<path d="M2.70284 7.9999C2.70509 8.31738 2.73377 8.6342 2.78856 8.94688L2 9.71313L3.50855 12.2956L4.57143 11.9942C5.0611 12.4034 5.61797 12.7239 6.21713 12.9412L6.48284 14H9.50855L9.77427 12.9412C10.3656 12.7018 10.9221 12.3832 11.4286 11.9942L12.4828 12.2956L14 9.71313L13.2028 8.94688C13.2647 8.63506 13.2963 8.31785 13.2971 7.9999C13.2959 7.68196 13.2643 7.365 13.2028 7.05312L14 6.29549L12.4828 3.71302L11.4286 4.0144C10.9388 3.60069 10.3783 3.27975 9.77427 3.06741L9.50855 2H6.48284L6.21713 3.06741C5.61485 3.27785 5.0568 3.59902 4.57143 4.0144L3.50855 3.71302L2 6.29549L2.78856 7.05312C2.73416 7.36586 2.70549 7.68243 2.70284 7.9999Z" stroke="black" stroke-miterlimit="10"/>
<path d="M8.00004 10.1429C9.1835 10.1429 10.1429 9.1835 10.1429 8.00004C10.1429 6.81657 9.1835 5.85718 8.00004 5.85718C6.81657 5.85718 5.85718 6.81657 5.85718 8.00004C5.85718 9.1835 6.81657 10.1429 8.00004 10.1429Z" stroke="black" stroke-miterlimit="10"/>
</svg>
