<svg width="32" height="32" viewBox="0 0 32 32" fill="none" xmlns="http://www.w3.org/2000/svg">
<path d="M16.0001 5.20068L16.0001 22.5" stroke="black" stroke-width="2" stroke-miterlimit="10"/>
<path d="M9.20003 11.6851L16 5L22.8 11.6851" stroke="black" stroke-width="2"/>
<mask id="path-3-inside-1_10_601" fill="white">
<path d="M5.00002 18.542V28H27C27 28 27 22.1738 27 18.54"/>
</mask>
<path d="M5.00002 28H3.00002V30H5.00002V28ZM27 28V30H29V28H27ZM3.00002 18.542V28H7.00002V18.542H3.00002ZM5.00002 30H27V26H5.00002V30ZM27 28C29 28 29 28 29 27.9999C29 27.9999 29 27.9998 29 27.9997C29 27.9996 29 27.9995 29 27.9994C29 27.9993 29 27.9991 29 27.9989C29 27.9988 29 27.9986 29 27.9983C29 27.9981 29 27.9979 29 27.9976C29 27.9973 29 27.9971 29 27.9968C29 27.9964 29 27.9961 29 27.9958C29 27.9954 29 27.995 29 27.9946C29 27.9942 29 27.9938 29 27.9934C29 27.993 29 27.9925 29 27.992C29 27.9915 29 27.991 29 27.9905C29 27.99 29 27.9894 29 27.9889C29 27.9883 29 27.9877 29 27.9871C29 27.9865 29 27.9859 29 27.9852C29 27.9845 29 27.9839 29 27.9832C29 27.9825 29 27.9818 29 27.981C29 27.9803 29 27.9795 29 27.9787C29 27.978 29 27.9772 29 27.9763C29 27.9755 29 27.9747 29 27.9738C29 27.9729 29 27.9721 29 27.9711C29 27.9702 29 27.9693 29 27.9684C29 27.9674 29 27.9664 29 27.9655C29 27.9645 29 27.9635 29 27.9624C29 27.9614 29 27.9603 29 27.9593C29 27.9582 29 27.9571 29 27.956C29 27.9549 29 27.9537 29 27.9526C29 27.9514 29 27.9502 29 27.949C29 27.9478 29 27.9466 29 27.9454C29 27.9441 29 27.9429 29 27.9416C29 27.9403 29 27.939 29 27.9377C29 27.9364 29 27.935 29 27.9337C29 27.9323 29 27.9309 29 27.9295C29 27.9281 29 27.9267 29 27.9253C29 27.9238 29 27.9224 29 27.9209C29 27.9194 29 27.9179 29 27.9164C29 27.9149 29 27.9133 29 27.9117C29 27.9102 29 27.9086 29 27.907C29 27.9054 29 27.9038 29 27.9021C29 27.9005 29 27.8988 29 27.8971C29 27.8955 29 27.8938 29 27.892C29 27.8903 29 27.8886 29 27.8868C29 27.885 29 27.8833 29 27.8815C29 27.8797 29 27.8778 29 27.876C29 27.8742 29 27.8723 29 27.8704C29 27.8685 29 27.8666 29 27.8647C29 27.8628 29 27.8609 29 27.8589C29 27.857 29 27.855 29 27.853C29 27.851 29 27.849 29 27.8469C29 27.8449 29 27.8429 29 27.8408C29 27.8387 29 27.8366 29 27.8345C29 27.8324 29 27.8303 29 27.8281C29 27.826 29 27.8238 29 27.8216C29 27.8194 29 27.8172 29 27.815C29 27.8128 29 27.8105 29 27.8082C29 27.806 29 27.8037 29 27.8014C29 27.7991 29 27.7968 29 27.7944C29 27.7921 29 27.7897 29 27.7874C29 27.785 29 27.7826 29 27.7802C29 27.7778 29 27.7753 29 27.7729C29 27.7704 29 27.768 29 27.7655C29 27.763 29 27.7605 29 27.7579C29 27.7554 29 27.7529 29 27.7503C29 27.7477 29 27.7452 29 27.7426C29 27.74 29 27.7373 29 27.7347C29 27.7321 29 27.7294 29 27.7267C29 27.7241 29 27.7214 29 27.7187C29 27.716 29 27.7132 29 27.7105C29 27.7077 29 27.705 29 27.7022C29 27.6994 29 27.6966 29 27.6938C29 27.691 29 27.6881 29 27.6853C29 27.6824 29 27.6795 29 27.6767C29 27.6738 29 27.6709 29 27.6679C29 27.665 29 27.6621 29 27.6591C29 27.6561 29 27.6532 29 27.6502C29 27.6472 29 27.6441 29 27.6411C29 27.6381 29 27.635 29 27.632C29 27.6289 29 27.6258 29 27.6227C29 27.6196 29 27.6165 29 27.6133C29 27.6102 29 27.607 29 27.6039C29 27.6007 29 27.5975 29 27.5943C29 27.5911 29 27.5879 29 27.5846C29 27.5814 29 27.5781 29 27.5748C29 27.5716 29 27.5683 29 27.5649C29 27.5616 29 27.5583 29 27.555C29 27.5516 29 27.5483 29 27.5449C29 27.5415 29 27.5381 29 27.5347C29 27.5313 29 27.5278 29 27.5244C29 27.5209 29 27.5175 29 27.514C29 27.5105 29 27.507 29 27.5035C29 27.5 29 27.4964 29 27.4929C29 27.4893 29 27.4858 29 27.4822C29 27.4786 29 27.475 29 27.4714C29 27.4678 29 27.4641 29 27.4605C29 27.4568 29 27.4532 29 27.4495C29 27.4458 29 27.4421 29 27.4384C29 27.4347 29 27.4309 29 27.4272C29 27.4234 29 27.4197 29 27.4159C29 27.4121 29 27.4083 29 27.4045C29 27.4007 29 27.3968 29 27.393C29 27.3891 29 27.3853 29 27.3814C29 27.3775 29 27.3736 29 27.3697C29 27.3658 29 27.3619 29 27.3579C29 27.354 29 27.35 29 27.346C29 27.3421 29 27.3381 29 27.3341C29 27.3301 29 27.326 29 27.322C29 27.318 29 27.3139 29 27.3098C29 27.3057 29 27.3017 29 27.2976C29 27.2935 29 27.2893 29 27.2852C29 27.2811 29 27.2769 29 27.2727C29 27.2686 29 27.2644 29 27.2602C29 27.256 29 27.2518 29 27.2476C29 27.2433 29 27.2391 29 27.2348C29 27.2306 29 27.2263 29 27.222C29 27.2177 29 27.2134 29 27.2091C29 27.2048 29 27.2004 29 27.1961C29 27.1917 29 27.1873 29 27.183C29 27.1786 29 27.1742 29 27.1698C29 27.1654 29 27.1609 29 27.1565C29 27.152 29 27.1476 29 27.1431C29 27.1386 29 27.1341 29 27.1296C29 27.1251 29 27.1206 29 27.1161C29 27.1116 29 27.107 29 27.1024C29 27.0979 29 27.0933 29 27.0887C29 27.0841 29 27.0795 29 27.0749C29 27.0703 29 27.0656 29 27.061C29 27.0563 29 27.0517 29 27.047C29 27.0423 29 27.0376 29 27.0329C29 27.0282 29 27.0234 29 27.0187C29 27.014 29 27.0092 29 27.0044C29 26.9997 29 26.9949 29 26.9901C29 26.9853 29 26.9805 29 26.9757C29 26.9708 29 26.966 29 26.9611C29 26.9563 29 26.9514 29 26.9465C29 26.9416 29 26.9367 29 26.9318C29 26.9269 29 26.922 29 26.9171C29 26.9121 29 26.9072 29 26.9022C29 26.8972 29 26.8922 29 26.8872C29 26.8822 29 26.8772 29 26.8722C29 26.8672 29 26.8622 29 26.8571C29 26.852 29 26.847 29 26.8419C29 26.8368 29 26.8317 29 26.8266C29 26.8215 29 26.8164 29 26.8113C29 26.8061 29 26.801 29 26.7958C29 26.7907 29 26.7855 29 26.7803C29 26.7751 29 26.7699 29 26.7647C29 26.7595 29 26.7542 29 26.749C29 26.7437 29 26.7385 29 26.7332C29 26.7279 29 26.7227 29 26.7174C29 26.7121 29 26.7068 29 26.7014C29 26.6961 29 26.6908 29 26.6854C29 26.6801 29 26.6747 29 26.6693C29 26.664 29 26.6586 29 26.6532C29 26.6478 29 26.6424 29 26.6369C29 26.6315 29 26.6261 29 26.6206C29 26.6151 29 26.6097 29 26.6042C29 26.5987 29 26.5932 29 26.5877C29 26.5822 29 26.5767 29 26.5712C29 26.5656 29 26.5601 29 26.5545C29 26.549 29 26.5434 29 26.5378C29 26.5322 29 26.5266 29 26.521C29 26.5154 29 26.5098 29 26.5042C29 26.4985 29 26.4929 29 26.4872C29 26.4816 29 26.4759 29 26.4702C29 26.4645 29 26.4588 29 26.4531C29 26.4474 29 26.4417 29 26.436C29 26.4302 29 26.4245 29 26.4187C29 26.413 29 26.4072 29 26.4014C29 26.3957 29 26.3899 29 26.3841C29 26.3782 29 26.3724 29 26.3666C29 26.3608 29 26.3549 29 26.3491C29 26.3432 29 26.3374 29 26.3315C29 26.3256 29 26.3197 29 26.3138C29 26.3079 29 26.302 29 26.2961C29 26.2901 29 26.2842 29 26.2783C29 26.2723 29 26.2663 29 26.2604C29 26.2544 29 26.2484 29 26.2424C29 26.2364 29 26.2304 29 26.2244C29 26.2184 29 26.2123 29 26.2063C29 26.2003 29 26.1942 29 26.1881C29 26.1821 29 26.176 29 26.1699C29 26.1638 29 26.1577 29 26.1516C29 26.1455 29 26.1394 29 26.1332C29 26.1271 29 26.121 29 26.1148C29 26.1087 29 26.1025 29 26.0963C29 26.0901 29 26.0839 29 26.0777C29 26.0715 29 26.0653 29 26.0591C29 26.0529 29 26.0466 29 26.0404C29 26.0342 29 26.0279 29 26.0216C29 26.0154 29 26.0091 29 26.0028C29 25.9965 29 25.9902 29 25.9839C29 25.9776 29 25.9713 29 25.9649C29 25.9586 29 25.9523 29 25.9459C29 25.9396 29 25.9332 29 25.9268C29 25.9204 29 25.9141 29 25.9077C29 25.9013 29 25.8949 29 25.8884C29 25.882 29 25.8756 29 25.8692C29 25.8627 29 25.8563 29 25.8498C29 25.8434 29 25.8369 29 25.8304C29 25.8239 29 25.8174 29 25.8109C29 25.8044 29 25.7979 29 25.7914C29 25.7849 29 25.7783 29 25.7718C29 25.7653 29 25.7587 29 25.7522C29 25.7456 29 25.739 29 25.7324C29 25.7259 29 25.7193 29 25.7127C29 25.7061 29 25.6995 29 25.6928C29 25.6862 29 25.6796 29 25.6729C29 25.6663 29 25.6596 29 25.653C29 25.6463 29 25.6397 29 25.633C29 25.6263 29 25.6196 29 25.6129C29 25.6062 29 25.5995 29 25.5928C29 25.5861 29 25.5793 29 25.5726C29 25.5658 29 25.5591 29 25.5523C29 25.5456 29 25.5388 29 25.532C29 25.5253 29 25.5185 29 25.5117C29 25.5049 29 25.4981 29 25.4913C29 25.4845 29 25.4776 29 25.4708C29 25.464 29 25.4571 29 25.4503C29 25.4434 29 25.4366 29 25.4297C29 25.4228 29 25.4159 29 25.4091C29 25.4022 29 25.3953 29 25.3884C29 25.3815 29 25.3745 29 25.3676C29 25.3607 29 25.3538 29 25.3468C29 25.3399 29 25.3329 29 25.326C29 25.319 29 25.312 29 25.3051C29 25.2981 29 25.2911 29 25.2841C29 25.2771 29 25.2701 29 25.2631C29 25.2561 29 25.2491 29 25.242C29 25.235 29 25.228 29 25.2209C29 25.2139 29 25.2068 29 25.1998C29 25.1927 29 25.1856 29 25.1786C29 25.1715 29 25.1644 29 25.1573C29 25.1502 29 25.1431 29 25.136C29 25.1289 29 25.1217 29 25.1146C29 25.1075 29 25.1003 29 25.0932C29 25.086 29 25.0789 29 25.0717C29 25.0646 29 25.0574 29 25.0502C29 25.043 29 25.0359 29 25.0287C29 25.0215 29 25.0143 29 25.007C29 24.9998 29 24.9926 29 24.9854C29 24.9782 29 24.9709 29 24.9637C29 24.9564 29 24.9492 29 24.9419C29 24.9347 29 24.9274 29 24.9201C29 24.9129 29 24.9056 29 24.8983C29 24.891 29 24.8837 29 24.8764C29 24.8691 29 24.8618 29 24.8545C29 24.8471 29 24.8398 29 24.8325C29 24.8252 29 24.8178 29 24.8105C29 24.8031 29 24.7958 29 24.7884C29 24.781 29 24.7737 29 24.7663C29 24.7589 29 24.7515 29 24.7441C29 24.7367 29 24.7293 29 24.7219C29 24.7145 29 24.7071 29 24.6997C29 24.6923 29 24.6848 29 24.6774C29 24.67 29 24.6625 29 24.6551C29 24.6476 29 24.6402 29 24.6327C29 24.6252 29 24.6178 29 24.6103C29 24.6028 29 24.5953 29 24.5878C29 24.5803 29 24.5728 29 24.5653C29 24.5578 29 24.5503 29 24.5428C29 24.5353 29 24.5277 29 24.5202C29 24.5127 29 24.5051 29 24.4976C29 24.4901 29 24.4825 29 24.4749C29 24.4674 29 24.4598 29 24.4523C29 24.4447 29 24.4371 29 24.4295C29 24.4219 29 24.4143 29 24.4068C29 24.3992 29 24.3916 29 24.3839C29 24.3763 29 24.3687 29 24.3611C29 24.3535 29 24.3458 29 24.3382C29 24.3306 29 24.3229 29 24.3153C29 24.3076 29 24.3 29 24.2923C29 24.2847 29 24.277 29 24.2693C29 24.2617 29 24.254 29 24.2463C29 24.2386 29 24.2309 29 24.2232C29 24.2156 29 24.2079 29 24.2001C29 24.1924 29 24.1847 29 24.177C29 24.1693 29 24.1616 29 24.1538C29 24.1461 29 24.1384 29 24.1306C29 24.1229 29 24.1152 29 24.1074C29 24.0997 29 24.0919 29 24.0841C29 24.0764 29 24.0686 29 24.0608C29 24.0531 29 24.0453 29 24.0375C29 24.0297 29 24.0219 29 24.0141C29 24.0063 29 23.9985 29 23.9907C29 23.9829 29 23.9751 29 23.9673C29 23.9595 29 23.9517 29 23.9438C29 23.936 29 23.9282 29 23.9203C29 23.9125 29 23.9047 29 23.8968C29 23.889 29 23.8811 29 23.8733C29 23.8654 29 23.8575 29 23.8497C29 23.8418 29 23.8339 29 23.8261C29 23.8182 29 23.8103 29 23.8024C29 23.7945 29 23.7866 29 23.7788C29 23.7709 29 23.763 29 23.7551C29 23.7471 29 23.7392 29 23.7313C29 23.7234 29 23.7155 29 23.7076C29 23.6996 29 23.6917 29 23.6838C29 23.6759 29 23.6679 29 23.66C29 23.652 29 23.6441 29 23.6361C29 23.6282 29 23.6202 29 23.6123C29 23.6043 29 23.5964 29 23.5884C29 23.5804 29 23.5725 29 23.5645C29 23.5565 29 23.5485 29 23.5405C29 23.5326 29 23.5246 29 23.5166C29 23.5086 29 23.5006 29 23.4926C29 23.4846 29 23.4766 29 23.4686C29 23.4606 29 23.4526 29 23.4445C29 23.4365 29 23.4285 29 23.4205C29 23.4125 29 23.4044 29 23.3964C29 23.3884 29 23.3803 29 23.3723C29 23.3643 29 23.3562 29 23.3482C29 23.3401 29 23.3321 29 23.324C29 23.316 29 23.3079 29 23.2999C29 23.2918 29 23.2837 29 23.2757C29 23.2676 29 23.2595 29 23.2515C29 23.2434 29 23.2353 29 23.2272C29 23.2192 29 23.2111 29 23.203C29 23.1949 29 23.1868 29 23.1787C29 23.1706 29 23.1625 29 23.1544C29 23.1463 29 23.1382 29 23.1301C29 23.122 29 23.1139 29 23.1058C29 23.0977 29 23.0896 29 23.0814C29 23.0733 29 23.0652 29 23.0571C29 23.0489 29 23.0408 29 23.0327C29 23.0246 29 23.0164 29 23.0083C29 23.0002 29 22.992 29 22.9839C29 22.9757 29 22.9676 29 22.9594C29 22.9513 29 22.9431 29 22.935C29 22.9268 29 22.9187 29 22.9105C29 22.9024 29 22.8942 29 22.886C29 22.8779 29 22.8697 29 22.8615C29 22.8534 29 22.8452 29 22.837C29 22.8289 29 22.8207 29 22.8125C29 22.8043 29 22.7962 29 22.788C29 22.7798 29 22.7716 29 22.7634C29 22.7552 29 22.7471 29 22.7389C29 22.7307 29 22.7225 29 22.7143C29 22.7061 29 22.6979 29 22.6897C29 22.6815 29 22.6733 29 22.6651C29 22.6569 29 22.6487 29 22.6405C29 22.6323 29 22.6241 29 22.6158C29 22.6076 29 22.5994 29 22.5912C29 22.583 29 22.5748 29 22.5666C29 22.5583 29 22.5501 29 22.5419C29 22.5337 29 22.5255 29 22.5172C29 22.509 29 22.5008 29 22.4926C29 22.4843 29 22.4761 29 22.4679C29 22.4596 29 22.4514 29 22.4432C29 22.4349 29 22.4267 29 22.4185C29 22.4102 29 22.402 29 22.3938C29 22.3855 29 22.3773 29 22.369C29 22.3608 29 22.3526 29 22.3443C29 22.3361 29 22.3278 29 22.3196C29 22.3113 29 22.3031 29 22.2948C29 22.2866 29 22.2783 29 22.2701C29 22.2618 29 22.2536 29 22.2453C29 22.2371 29 22.2288 29 22.2206C29 22.2123 29 22.2041 29 22.1958C29 22.1875 29 22.1793 29 22.171C29 22.1628 29 22.1545 29 22.1463C29 22.138 29 22.1297 29 22.1215C29 22.1132 29 22.1049 29 22.0967C29 22.0884 29 22.0802 29 22.0719C29 22.0636 29 22.0554 29 22.0471C29 22.0388 29 22.0306 29 22.0223C29 22.014 29 22.0058 29 21.9975C29 21.9893 29 21.981 29 21.9727C29 21.9645 29 21.9562 29 21.9479C29 21.9397 29 21.9314 29 21.9231C29 21.9148 29 21.9066 29 21.8983C29 21.89 29 21.8818 29 21.8735C29 21.8652 29 21.857 29 21.8487C29 21.8404 29 21.8322 29 21.8239C29 21.8156 29 21.8074 29 21.7991C29 21.7908 29 21.7826 29 21.7743C29 21.766 29 21.7578 29 21.7495C29 21.7412 29 21.733 29 21.7247C29 21.7164 29 21.7082 29 21.6999C29 21.6916 29 21.6834 29 21.6751C29 21.6668 29 21.6586 29 21.6503C29 21.642 29 21.6338 29 21.6255C29 21.6172 29 21.609 29 21.6007C29 21.5925 29 21.5842 29 21.5759C29 21.5677 29 21.5594 29 21.5512C29 21.5429 29 21.5346 29 21.5264C29 21.5181 29 21.5099 29 21.5016C29 21.4934 29 21.4851 29 21.4768C29 21.4686 29 21.4603 29 21.4521C29 21.4438 29 21.4356 29 21.4273C29 21.4191 29 21.4108 29 21.4026C29 21.3943 29 21.3861 29 21.3778C29 21.3696 29 21.3613 29 21.3531C29 21.3449 29 21.3366 29 21.3284C29 21.3201 29 21.3119 29 21.3037C29 21.2954 29 21.2872 29 21.2789C29 21.2707 29 21.2625 29 21.2542C29 21.246 29 21.2378 29 21.2295C29 21.2213 29 21.2131 29 21.2049C29 21.1966 29 21.1884 29 21.1802C29 21.1719 29 21.1637 29 21.1555C29 21.1473 29 21.1391 29 21.1308C29 21.1226 29 21.1144 29 21.1062C29 21.098 29 21.0898 29 21.0816C29 21.0733 29 21.0651 29 21.0569C29 21.0487 29 21.0405 29 21.0323C29 21.0241 29 21.0159 29 21.0077C29 20.9995 29 20.9913 29 20.9831C29 20.9749 29 20.9667 29 20.9585C29 20.9504 29 20.9422 29 20.934C29 20.9258 29 20.9176 29 20.9094C29 20.9012 29 20.8931 29 20.8849C29 20.8767 29 20.8685 29 20.8604C29 20.8522 29 20.844 29 20.8359C29 20.8277 29 20.8195 29 20.8114C29 20.8032 29 20.795 29 20.7869C29 20.7787 29 20.7706 29 20.7624C29 20.7543 29 20.7461 29 20.738C29 20.7298 29 20.7217 29 20.7135C29 20.7054 29 20.6973 29 20.6891C29 20.681 29 20.6728 29 20.6647C29 20.6566 29 20.6485 29 20.6403C29 20.6322 29 20.6241 29 20.616C29 20.6078 29 20.5997 29 20.5916C29 20.5835 29 20.5754 29 20.5673C29 20.5592 29 20.5511 29 20.543C29 20.5349 29 20.5268 29 20.5187C29 20.5106 29 20.5025 29 20.4944C29 20.4863 29 20.4782 29 20.4702C29 20.4621 29 20.454 29 20.4459C29 20.4379 29 20.4298 29 20.4217C29 20.4137 29 20.4056 29 20.3975C29 20.3895 29 20.3814 29 20.3734C29 20.3653 29 20.3573 29 20.3492C29 20.3412 29 20.3331 29 20.3251C29 20.317 29 20.309 29 20.301C29 20.293 29 20.2849 29 20.2769C29 20.2689 29 20.2609 29 20.2528C29 20.2448 29 20.2368 29 20.2288C29 20.2208 29 20.2128 29 20.2048C29 20.1968 29 20.1888 29 20.1808C29 20.1728 29 20.1648 29 20.1568C29 20.1489 29 20.1409 29 20.1329C29 20.1249 29 20.117 29 20.109C29 20.101 29 20.0931 29 20.0851C29 20.0771 29 20.0692 29 20.0612C29 20.0533 29 20.0453 29 20.0374C29 20.0295 29 20.0215 29 20.0136C29 20.0057 29 19.9977 29 19.9898C29 19.9819 29 19.974 29 19.9661C29 19.9581 29 19.9502 29 19.9423C29 19.9344 29 19.9265 29 19.9186C29 19.9107 29 19.9028 29 19.895C29 19.8871 29 19.8792 29 19.8713C29 19.8634 29 19.8556 29 19.8477C29 19.8398 29 19.832 29 19.8241C29 19.8163 29 19.8084 29 19.8006C29 19.7927 29 19.7849 29 19.777C29 19.7692 29 19.7614 29 19.7535C29 19.7457 29 19.7379 29 19.7301C29 19.7223 29 19.7145 29 19.7067C29 19.6988 29 19.691 29 19.6832C29 19.6755 29 19.6677 29 19.6599C29 19.6521 29 19.6443 29 19.6365C29 19.6288 29 19.621 29 19.6132C29 19.6055 29 19.5977 29 19.59C29 19.5822 29 19.5745 29 19.5667C29 19.559 29 19.5513 29 19.5435C29 19.5358 29 19.5281 29 19.5204C29 19.5126 29 19.5049 29 19.4972C29 19.4895 29 19.4818 29 19.4741C29 19.4664 29 19.4587 29 19.4511C29 19.4434 29 19.4357 29 19.428C29 19.4204 29 19.4127 29 19.405C29 19.3974 29 19.3897 29 19.3821C29 19.3744 29 19.3668 29 19.3592C29 19.3515 29 19.3439 29 19.3363C29 19.3286 29 19.321 29 19.3134C29 19.3058 29 19.2982 29 19.2906C29 19.283 29 19.2754 29 19.2678C29 19.2603 29 19.2527 29 19.2451C29 19.2375 29 19.23 29 19.2224C29 19.2149 29 19.2073 29 19.1998C29 19.1922 29 19.1847 29 19.1771C29 19.1696 29 19.1621 29 19.1546C29 19.147 29 19.1395 29 19.132C29 19.1245 29 19.117 29 19.1095C29 19.102 29 19.0946 29 19.0871C29 19.0796 29 19.0721 29 19.0647C29 19.0572 29 19.0497 29 19.0423C29 19.0348 29 19.0274 29 19.02C29 19.0125 29 19.0051 29 18.9977C29 18.9903 29 18.9828 29 18.9754C29 18.968 29 18.9606 29 18.9532C29 18.9458 29 18.9384 29 18.9311C29 18.9237 29 18.9163 29 18.909C29 18.9016 29 18.8942 29 18.8869C29 18.8795 29 18.8722 29 18.8649C29 18.8575 29 18.8502 29 18.8429C29 18.8356 29 18.8282 29 18.8209C29 18.8136 29 18.8063 29 18.799C29 18.7918 29 18.7845 29 18.7772C29 18.7699 29 18.7627 29 18.7554C29 18.7481 29 18.7409 29 18.7337C29 18.7264 29 18.7192 29 18.7119C29 18.7047 29 18.6975 29 18.6903C29 18.6831 29 18.6759 29 18.6687C29 18.6615 29 18.6543 29 18.6471C29 18.6399 29 18.6328 29 18.6256C29 18.6184 29 18.6113 29 18.6041C29 18.597 29 18.5899 29 18.5827C29 18.5756 29 18.5685 29 18.5614C29 18.5542 29 18.5471 29 18.54H25C25 18.5471 25 18.5542 25 18.5614C25 18.5685 25 18.5756 25 18.5827C25 18.5899 25 18.597 25 18.6041C25 18.6113 25 18.6184 25 18.6256C25 18.6328 25 18.6399 25 18.6471C25 18.6543 25 18.6615 25 18.6687C25 18.6759 25 18.6831 25 18.6903C25 18.6975 25 18.7047 25 18.7119C25 18.7192 25 18.7264 25 18.7337C25 18.7409 25 18.7481 25 18.7554C25 18.7627 25 18.7699 25 18.7772C25 18.7845 25 18.7918 25 18.799C25 18.8063 25 18.8136 25 18.8209C25 18.8282 25 18.8356 25 18.8429C25 18.8502 25 18.8575 25 18.8649C25 18.8722 25 18.8795 25 18.8869C25 18.8942 25 18.9016 25 18.909C25 18.9163 25 18.9237 25 18.9311C25 18.9384 25 18.9458 25 18.9532C25 18.9606 25 18.968 25 18.9754C25 18.9828 25 18.9903 25 18.9977C25 19.0051 25 19.0125 25 19.02C25 19.0274 25 19.0348 25 19.0423C25 19.0497 25 19.0572 25 19.0647C25 19.0721 25 19.0796 25 19.0871C25 19.0946 25 19.102 25 19.1095C25 19.117 25 19.1245 25 19.132C25 19.1395 25 19.147 25 19.1546C25 19.1621 25 19.1696 25 19.1771C25 19.1847 25 19.1922 25 19.1998C25 19.2073 25 19.2149 25 19.2224C25 19.23 25 19.2375 25 19.2451C25 19.2527 25 19.2603 25 19.2678C25 19.2754 25 19.283 25 19.2906C25 19.2982 25 19.3058 25 19.3134C25 19.321 25 19.3286 25 19.3363C25 19.3439 25 19.3515 25 19.3592C25 19.3668 25 19.3744 25 19.3821C25 19.3897 25 19.3974 25 19.405C25 19.4127 25 19.4204 25 19.428C25 19.4357 25 19.4434 25 19.4511C25 19.4587 25 19.4664 25 19.4741C25 19.4818 25 19.4895 25 19.4972C25 19.5049 25 19.5126 25 19.5204C25 19.5281 25 19.5358 25 19.5435C25 19.5513 25 19.559 25 19.5667C25 19.5745 25 19.5822 25 19.59C25 19.5977 25 19.6055 25 19.6132C25 19.621 25 19.6288 25 19.6365C25 19.6443 25 19.6521 25 19.6599C25 19.6677 25 19.6755 25 19.6832C25 19.691 25 19.6988 25 19.7067C25 19.7145 25 19.7223 25 19.7301C25 19.7379 25 19.7457 25 19.7535C25 19.7614 25 19.7692 25 19.777C25 19.7849 25 19.7927 25 19.8006C25 19.8084 25 19.8163 25 19.8241C25 19.832 25 19.8398 25 19.8477C25 19.8556 25 19.8634 25 19.8713C25 19.8792 25 19.8871 25 19.895C25 19.9028 25 19.9107 25 19.9186C25 19.9265 25 19.9344 25 19.9423C25 19.9502 25 19.9581 25 19.9661C25 19.974 25 19.9819 25 19.9898C25 19.9977 25 20.0057 25 20.0136C25 20.0215 25 20.0295 25 20.0374C25 20.0453 25 20.0533 25 20.0612C25 20.0692 25 20.0771 25 20.0851C25 20.0931 25 20.101 25 20.109C25 20.117 25 20.1249 25 20.1329C25 20.1409 25 20.1489 25 20.1568C25 20.1648 25 20.1728 25 20.1808C25 20.1888 25 20.1968 25 20.2048C25 20.2128 25 20.2208 25 20.2288C25 20.2368 25 20.2448 25 20.2528C25 20.2609 25 20.2689 25 20.2769C25 20.2849 25 20.293 25 20.301C25 20.309 25 20.317 25 20.3251C25 20.3331 25 20.3412 25 20.3492C25 20.3573 25 20.3653 25 20.3734C25 20.3814 25 20.3895 25 20.3975C25 20.4056 25 20.4137 25 20.4217C25 20.4298 25 20.4379 25 20.4459C25 20.454 25 20.4621 25 20.4702C25 20.4782 25 20.4863 25 20.4944C25 20.5025 25 20.5106 25 20.5187C25 20.5268 25 20.5349 25 20.543C25 20.5511 25 20.5592 25 20.5673C25 20.5754 25 20.5835 25 20.5916C25 20.5997 25 20.6078 25 20.616C25 20.6241 25 20.6322 25 20.6403C25 20.6485 25 20.6566 25 20.6647C25 20.6728 25 20.681 25 20.6891C25 20.6973 25 20.7054 25 20.7135C25 20.7217 25 20.7298 25 20.738C25 20.7461 25 20.7543 25 20.7624C25 20.7706 25 20.7787 25 20.7869C25 20.795 25 20.8032 25 20.8114C25 20.8195 25 20.8277 25 20.8359C25 20.844 25 20.8522 25 20.8604C25 20.8685 25 20.8767 25 20.8849C25 20.8931 25 20.9012 25 20.9094C25 20.9176 25 20.9258 25 20.934C25 20.9422 25 20.9504 25 20.9585C25 20.9667 25 20.9749 25 20.9831C25 20.9913 25 20.9995 25 21.0077C25 21.0159 25 21.0241 25 21.0323C25 21.0405 25 21.0487 25 21.0569C25 21.0651 25 21.0733 25 21.0816C25 21.0898 25 21.098 25 21.1062C25 21.1144 25 21.1226 25 21.1308C25 21.1391 25 21.1473 25 21.1555C25 21.1637 25 21.1719 25 21.1802C25 21.1884 25 21.1966 25 21.2049C25 21.2131 25 21.2213 25 21.2295C25 21.2378 25 21.246 25 21.2542C25 21.2625 25 21.2707 25 21.2789C25 21.2872 25 21.2954 25 21.3037C25 21.3119 25 21.3201 25 21.3284C25 21.3366 25 21.3449 25 21.3531C25 21.3613 25 21.3696 25 21.3778C25 21.3861 25 21.3943 25 21.4026C25 21.4108 25 21.4191 25 21.4273C25 21.4356 25 21.4438 25 21.4521C25 21.4603 25 21.4686 25 21.4768C25 21.4851 25 21.4934 25 21.5016C25 21.5099 25 21.5181 25 21.5264C25 21.5346 25 21.5429 25 21.5512C25 21.5594 25 21.5677 25 21.5759C25 21.5842 25 21.5925 25 21.6007C25 21.609 25 21.6172 25 21.6255C25 21.6338 25 21.642 25 21.6503C25 21.6586 25 21.6668 25 21.6751C25 21.6834 25 21.6916 25 21.6999C25 21.7082 25 21.7164 25 21.7247C25 21.733 25 21.7412 25 21.7495C25 21.7578 25 21.766 25 21.7743C25 21.7826 25 21.7908 25 21.7991C25 21.8074 25 21.8156 25 21.8239C25 21.8322 25 21.8404 25 21.8487C25 21.857 25 21.8652 25 21.8735C25 21.8818 25 21.89 25 21.8983C25 21.9066 25 21.9148 25 21.9231C25 21.9314 25 21.9397 25 21.9479C25 21.9562 25 21.9645 25 21.9727C25 21.981 25 21.9893 25 21.9975C25 22.0058 25 22.014 25 22.0223C25 22.0306 25 22.0388 25 22.0471C25 22.0554 25 22.0636 25 22.0719C25 22.0802 25 22.0884 25 22.0967C25 22.1049 25 22.1132 25 22.1215C25 22.1297 25 22.138 25 22.1463C25 22.1545 25 22.1628 25 22.171C25 22.1793 25 22.1875 25 22.1958C25 22.2041 25 22.2123 25 22.2206C25 22.2288 25 22.2371 25 22.2453C25 22.2536 25 22.2618 25 22.2701C25 22.2783 25 22.2866 25 22.2948C25 22.3031 25 22.3113 25 22.3196C25 22.3278 25 22.3361 25 22.3443C25 22.3526 25 22.3608 25 22.369C25 22.3773 25 22.3855 25 22.3938C25 22.402 25 22.4102 25 22.4185C25 22.4267 25 22.4349 25 22.4432C25 22.4514 25 22.4596 25 22.4679C25 22.4761 25 22.4843 25 22.4926C25 22.5008 25 22.509 25 22.5172C25 22.5255 25 22.5337 25 22.5419C25 22.5501 25 22.5583 25 22.5666C25 22.5748 25 22.583 25 22.5912C25 22.5994 25 22.6076 25 22.6158C25 22.6241 25 22.6323 25 22.6405C25 22.6487 25 22.6569 25 22.6651C25 22.6733 25 22.6815 25 22.6897C25 22.6979 25 22.7061 25 22.7143C25 22.7225 25 22.7307 25 22.7389C25 22.7471 25 22.7552 25 22.7634C25 22.7716 25 22.7798 25 22.788C25 22.7962 25 22.8043 25 22.8125C25 22.8207 25 22.8289 25 22.837C25 22.8452 25 22.8534 25 22.8615C25 22.8697 25 22.8779 25 22.886C25 22.8942 25 22.9024 25 22.9105C25 22.9187 25 22.9268 25 22.935C25 22.9431 25 22.9513 25 22.9594C25 22.9676 25 22.9757 25 22.9839C25 22.992 25 23.0002 25 23.0083C25 23.0164 25 23.0246 25 23.0327C25 23.0408 25 23.0489 25 23.0571C25 23.0652 25 23.0733 25 23.0814C25 23.0896 25 23.0977 25 23.1058C25 23.1139 25 23.122 25 23.1301C25 23.1382 25 23.1463 25 23.1544C25 23.1625 25 23.1706 25 23.1787C25 23.1868 25 23.1949 25 23.203C25 23.2111 25 23.2192 25 23.2272C25 23.2353 25 23.2434 25 23.2515C25 23.2595 25 23.2676 25 23.2757C25 23.2837 25 23.2918 25 23.2999C25 23.3079 25 23.316 25 23.324C25 23.3321 25 23.3401 25 23.3482C25 23.3562 25 23.3643 25 23.3723C25 23.3803 25 23.3884 25 23.3964C25 23.4044 25 23.4125 25 23.4205C25 23.4285 25 23.4365 25 23.4445C25 23.4526 25 23.4606 25 23.4686C25 23.4766 25 23.4846 25 23.4926C25 23.5006 25 23.5086 25 23.5166C25 23.5246 25 23.5326 25 23.5405C25 23.5485 25 23.5565 25 23.5645C25 23.5725 25 23.5804 25 23.5884C25 23.5964 25 23.6043 25 23.6123C25 23.6202 25 23.6282 25 23.6361C25 23.6441 25 23.652 25 23.66C25 23.6679 25 23.6759 25 23.6838C25 23.6917 25 23.6996 25 23.7076C25 23.7155 25 23.7234 25 23.7313C25 23.7392 25 23.7471 25 23.7551C25 23.763 25 23.7709 25 23.7788C25 23.7866 25 23.7945 25 23.8024C25 23.8103 25 23.8182 25 23.8261C25 23.8339 25 23.8418 25 23.8497C25 23.8575 25 23.8654 25 23.8733C25 23.8811 25 23.889 25 23.8968C25 23.9047 25 23.9125 25 23.9203C25 23.9282 25 23.936 25 23.9438C25 23.9517 25 23.9595 25 23.9673C25 23.9751 25 23.9829 25 23.9907C25 23.9985 25 24.0063 25 24.0141C25 24.0219 25 24.0297 25 24.0375C25 24.0453 25 24.0531 25 24.0608C25 24.0686 25 24.0764 25 24.0841C25 24.0919 25 24.0997 25 24.1074C25 24.1152 25 24.1229 25 24.1306C25 24.1384 25 24.1461 25 24.1538C25 24.1616 25 24.1693 25 24.177C25 24.1847 25 24.1924 25 24.2001C25 24.2079 25 24.2156 25 24.2232C25 24.2309 25 24.2386 25 24.2463C25 24.254 25 24.2617 25 24.2693C25 24.277 25 24.2847 25 24.2923C25 24.3 25 24.3076 25 24.3153C25 24.3229 25 24.3306 25 24.3382C25 24.3458 25 24.3535 25 24.3611C25 24.3687 25 24.3763 25 24.3839C25 24.3916 25 24.3992 25 24.4068C25 24.4143 25 24.4219 25 24.4295C25 24.4371 25 24.4447 25 24.4523C25 24.4598 25 24.4674 25 24.4749C25 24.4825 25 24.4901 25 24.4976C25 24.5051 25 24.5127 25 24.5202C25 24.5277 25 24.5353 25 24.5428C25 24.5503 25 24.5578 25 24.5653C25 24.5728 25 24.5803 25 24.5878C25 24.5953 25 24.6028 25 24.6103C25 24.6178 25 24.6252 25 24.6327C25 24.6402 25 24.6476 25 24.6551C25 24.6625 25 24.67 25 24.6774C25 24.6848 25 24.6923 25 24.6997C25 24.7071 25 24.7145 25 24.7219C25 24.7293 25 24.7367 25 24.7441C25 24.7515 25 24.7589 25 24.7663C25 24.7737 25 24.781 25 24.7884C25 24.7958 25 24.8031 25 24.8105C25 24.8178 25 24.8252 25 24.8325C25 24.8398 25 24.8471 25 24.8545C25 24.8618 25 24.8691 25 24.8764C25 24.8837 25 24.891 25 24.8983C25 24.9056 25 24.9129 25 24.9201C25 24.9274 25 24.9347 25 24.9419C25 24.9492 25 24.9564 25 24.9637C25 24.9709 25 24.9782 25 24.9854C25 24.9926 25 24.9998 25 25.007C25 25.0143 25 25.0215 25 25.0287C25 25.0359 25 25.043 25 25.0502C25 25.0574 25 25.0646 25 25.0717C25 25.0789 25 25.086 25 25.0932C25 25.1003 25 25.1075 25 25.1146C25 25.1217 25 25.1289 25 25.136C25 25.1431 25 25.1502 25 25.1573C25 25.1644 25 25.1715 25 25.1786C25 25.1856 25 25.1927 25 25.1998C25 25.2068 25 25.2139 25 25.2209C25 25.228 25 25.235 25 25.242C25 25.2491 25 25.2561 25 25.2631C25 25.2701 25 25.2771 25 25.2841C25 25.2911 25 25.2981 25 25.3051C25 25.312 25 25.319 25 25.326C25 25.3329 25 25.3399 25 25.3468C25 25.3538 25 25.3607 25 25.3676C25 25.3745 25 25.3815 25 25.3884C25 25.3953 25 25.4022 25 25.4091C25 25.4159 25 25.4228 25 25.4297C25 25.4366 25 25.4434 25 25.4503C25 25.4571 25 25.464 25 25.4708C25 25.4776 25 25.4845 25 25.4913C25 25.4981 25 25.5049 25 25.5117C25 25.5185 25 25.5253 25 25.532C25 25.5388 25 25.5456 25 25.5523C25 25.5591 25 25.5658 25 25.5726C25 25.5793 25 25.5861 25 25.5928C25 25.5995 25 25.6062 25 25.6129C25 25.6196 25 25.6263 25 25.633C25 25.6397 25 25.6463 25 25.653C25 25.6596 25 25.6663 25 25.6729C25 25.6796 25 25.6862 25 25.6928C25 25.6995 25 25.7061 25 25.7127C25 25.7193 25 25.7259 25 25.7324C25 25.739 25 25.7456 25 25.7522C25 25.7587 25 25.7653 25 25.7718C25 25.7783 25 25.7849 25 25.7914C25 25.7979 25 25.8044 25 25.8109C25 25.8174 25 25.8239 25 25.8304C25 25.8369 25 25.8434 25 25.8498C25 25.8563 25 25.8627 25 25.8692C25 25.8756 25 25.882 25 25.8884C25 25.8949 25 25.9013 25 25.9077C25 25.9141 25 25.9204 25 25.9268C25 25.9332 25 25.9396 25 25.9459C25 25.9523 25 25.9586 25 25.9649C25 25.9713 25 25.9776 25 25.9839C25 25.9902 25 25.9965 25 26.0028C25 26.0091 25 26.0154 25 26.0216C25 26.0279 25 26.0342 25 26.0404C25 26.0466 25 26.0529 25 26.0591C25 26.0653 25 26.0715 25 26.0777C25 26.0839 25 26.0901 25 26.0963C25 26.1025 25 26.1087 25 26.1148C25 26.121 25 26.1271 25 26.1332C25 26.1394 25 26.1455 25 26.1516C25 26.1577 25 26.1638 25 26.1699C25 26.176 25 26.1821 25 26.1881C25 26.1942 25 26.2003 25 26.2063C25 26.2123 25 26.2184 25 26.2244C25 26.2304 25 26.2364 25 26.2424C25 26.2484 25 26.2544 25 26.2604C25 26.2663 25 26.2723 25 26.2783C25 26.2842 25 26.2901 25 26.2961C25 26.302 25 26.3079 25 26.3138C25 26.3197 25 26.3256 25 26.3315C25 26.3374 25 26.3432 25 26.3491C25 26.3549 25 26.3608 25 26.3666C25 26.3724 25 26.3782 25 26.3841C25 26.3899 25 26.3957 25 26.4014C25 26.4072 25 26.413 25 26.4187C25 26.4245 25 26.4302 25 26.436C25 26.4417 25 26.4474 25 26.4531C25 26.4588 25 26.4645 25 26.4702C25 26.4759 25 26.4816 25 26.4872C25 26.4929 25 26.4985 25 26.5042C25 26.5098 25 26.5154 25 26.521C25 26.5266 25 26.5322 25 26.5378C25 26.5434 25 26.549 25 26.5545C25 26.5601 25 26.5656 25 26.5712C25 26.5767 25 26.5822 25 26.5877C25 26.5932 25 26.5987 25 26.6042C25 26.6097 25 26.6151 25 26.6206C25 26.6261 25 26.6315 25 26.6369C25 26.6424 25 26.6478 25 26.6532C25 26.6586 25 26.664 25 26.6693C25 26.6747 25 26.6801 25 26.6854C25 26.6908 25 26.6961 25 26.7014C25 26.7068 25 26.7121 25 26.7174C25 26.7227 25 26.7279 25 26.7332C25 26.7385 25 26.7437 25 26.749C25 26.7542 25 26.7595 25 26.7647C25 26.7699 25 26.7751 25 26.7803C25 26.7855 25 26.7907 25 26.7958C25 26.801 25 26.8061 25 26.8113C25 26.8164 25 26.8215 25 26.8266C25 26.8317 25 26.8368 25 26.8419C25 26.847 25 26.852 25 26.8571C25 26.8622 25 26.8672 25 26.8722C25 26.8772 25 26.8822 25 26.8872C25 26.8922 25 26.8972 25 26.9022C25 26.9072 25 26.9121 25 26.9171C25 26.922 25 26.9269 25 26.9318C25 26.9367 25 26.9416 25 26.9465C25 26.9514 25 26.9563 25 26.9611C25 26.966 25 26.9708 25 26.9757C25 26.9805 25 26.9853 25 26.9901C25 26.9949 25 26.9997 25 27.0044C25 27.0092 25 27.014 25 27.0187C25 27.0234 25 27.0282 25 27.0329C25 27.0376 25 27.0423 25 27.047C25 27.0517 25 27.0563 25 27.061C25 27.0656 25 27.0703 25 27.0749C25 27.0795 25 27.0841 25 27.0887C25 27.0933 25 27.0979 25 27.1024C25 27.107 25 27.1116 25 27.1161C25 27.1206 25 27.1251 25 27.1296C25 27.1341 25 27.1386 25 27.1431C25 27.1476 25 27.152 25 27.1565C25 27.1609 25 27.1654 25 27.1698C25 27.1742 25 27.1786 25 27.183C25 27.1873 25 27.1917 25 27.1961C25 27.2004 25 27.2048 25 27.2091C25 27.2134 25 27.2177 25 27.222C25 27.2263 25 27.2306 25 27.2348C25 27.2391 25 27.2433 25 27.2476C25 27.2518 25 27.256 25 27.2602C25 27.2644 25 27.2686 25 27.2727C25 27.2769 25 27.2811 25 27.2852C25 27.2893 25 27.2935 25 27.2976C25 27.3017 25 27.3057 25 27.3098C25 27.3139 25 27.318 25 27.322C25 27.326 25 27.3301 25 27.3341C25 27.3381 25 27.3421 25 27.346C25 27.35 25 27.354 25 27.3579C25 27.3619 25 27.3658 25 27.3697C25 27.3736 25 27.3775 25 27.3814C25 27.3853 25 27.3891 25 27.393C25 27.3968 25 27.4007 25 27.4045C25 27.4083 25 27.4121 25 27.4159C25 27.4197 25 27.4234 25 27.4272C25 27.4309 25 27.4347 25 27.4384C25 27.4421 25 27.4458 25 27.4495C25 27.4532 25 27.4568 25 27.4605C25 27.4641 25 27.4678 25 27.4714C25 27.475 25 27.4786 25 27.4822C25 27.4858 25 27.4893 25 27.4929C25 27.4964 25 27.5 25 27.5035C25 27.507 25 27.5105 25 27.514C25 27.5175 25 27.5209 25 27.5244C25 27.5278 25 27.5313 25 27.5347C25 27.5381 25 27.5415 25 27.5449C25 27.5483 25 27.5516 25 27.555C25 27.5583 25 27.5616 25 27.5649C25 27.5683 25 27.5716 25 27.5748C25 27.5781 25 27.5814 25 27.5846C25 27.5879 25 27.5911 25 27.5943C25 27.5975 25 27.6007 25 27.6039C25 27.607 25 27.6102 25 27.6133C25 27.6165 25 27.6196 25 27.6227C25 27.6258 25 27.6289 25 27.632C25 27.635 25 27.6381 25 27.6411C25 27.6441 25 27.6472 25 27.6502C25 27.6532 25 27.6561 25 27.6591C25 27.6621 25 27.665 25 27.6679C25 27.6709 25 27.6738 25 27.6767C25 27.6795 25 27.6824 25 27.6853C25 27.6881 25 27.691 25 27.6938C25 27.6966 25 27.6994 25 27.7022C25 27.705 25 27.7077 25 27.7105C25 27.7132 25 27.716 25 27.7187C25 27.7214 25 27.7241 25 27.7267C25 27.7294 25 27.7321 25 27.7347C25 27.7373 25 27.74 25 27.7426C25 27.7452 25 27.7477 25 27.7503C25 27.7529 25 27.7554 25 27.7579C25 27.7605 25 27.763 25 27.7655C25 27.768 25 27.7704 25 27.7729C25 27.7753 25 27.7778 25 27.7802C25 27.7826 25 27.785 25 27.7874C25 27.7897 25 27.7921 25 27.7944C25 27.7968 25 27.7991 25 27.8014C25 27.8037 25 27.806 25 27.8082C25 27.8105 25 27.8128 25 27.815C25 27.8172 25 27.8194 25 27.8216C25 27.8238 25 27.826 25 27.8281C25 27.8303 25 27.8324 25 27.8345C25 27.8366 25 27.8387 25 27.8408C25 27.8429 25 27.8449 25 27.8469C25 27.849 25 27.851 25 27.853C25 27.855 25 27.857 25 27.8589C25 27.8609 25 27.8628 25 27.8647C25 27.8666 25 27.8685 25 27.8704C25 27.8723 25 27.8742 25 27.876C25 27.8778 25 27.8797 25 27.8815C25 27.8833 25 27.885 25 27.8868C25 27.8886 25 27.8903 25 27.892C25 27.8938 25 27.8955 25 27.8971C25 27.8988 25 27.9005 25 27.9021C25 27.9038 25 27.9054 25 27.907C25 27.9086 25 27.9102 25 27.9117C25 27.9133 25 27.9149 25 27.9164C25 27.9179 25 27.9194 25 27.9209C25 27.9224 25 27.9238 25 27.9253C25 27.9267 25 27.9281 25 27.9295C25 27.9309 25 27.9323 25 27.9337C25 27.935 25 27.9364 25 27.9377C25 27.939 25 27.9403 25 27.9416C25 27.9429 25 27.9441 25 27.9454C25 27.9466 25 27.9478 25 27.949C25 27.9502 25 27.9514 25 27.9526C25 27.9537 25 27.9549 25 27.956C25 27.9571 25 27.9582 25 27.9593C25 27.9603 25 27.9614 25 27.9624C25 27.9635 25 27.9645 25 27.9655C25 27.9664 25 27.9674 25 27.9684C25 27.9693 25 27.9702 25 27.9711C25 27.9721 25 27.9729 25 27.9738C25 27.9747 25 27.9755 25 27.9763C25 27.9772 25 27.978 25 27.9787C25 27.9795 25 27.9803 25 27.981C25 27.9818 25 27.9825 25 27.9832C25 27.9839 25 27.9845 25 27.9852C25 27.9859 25 27.9865 25 27.9871C25 27.9877 25 27.9883 25 27.9889C25 27.9894 25 27.99 25 27.9905C25 27.991 25 27.9915 25 27.992C25 27.9925 25 27.993 25 27.9934C25 27.9938 25 27.9942 25 27.9946C25 27.995 25 27.9954 25 27.9958C25 27.9961 25 27.9964 25 27.9968C25 27.9971 25 27.9973 25 27.9976C25 27.9979 25 27.9981 25 27.9983C25 27.9986 25 27.9988 25 27.9989C25 27.9991 25 27.9993 25 27.9994C25 27.9995 25 27.9996 25 27.9997C25 27.9998 25 27.9999 25 27.9999C25 28 25 28 27 28Z" fill="black" mask="url(#path-3-inside-1_10_601)"/>
</svg>
