<svg width="24" height="24" viewBox="0 0 24 24" fill="none" xmlns="http://www.w3.org/2000/svg">
<path d="M4.58395 11.9998C4.58711 12.4443 4.62725 12.8879 4.70396 13.3256L3.59998 14.3984L5.71195 18.0138L7.19998 17.5919C7.88551 18.1648 8.66514 18.6135 9.50395 18.9177L9.87595 20.4H14.112L14.4839 18.9177C15.3119 18.5825 16.0909 18.1365 16.8 17.5919L18.276 18.0138L20.4 14.3984L19.2839 13.3256C19.3706 12.8891 19.4148 12.445 19.416 11.9998C19.4142 11.5547 19.37 11.111 19.2839 10.6743L20.4 9.61366L18.276 5.99821L16.8 6.42013C16.1143 5.84094 15.3296 5.39163 14.4839 5.09435L14.112 3.59998H9.87595L9.50395 5.09435C8.66076 5.38896 7.8795 5.83861 7.19998 6.42013L5.71195 5.99821L3.59998 9.61366L4.70396 10.6743C4.6278 11.1122 4.58766 11.5554 4.58395 11.9998Z" stroke="black" stroke-width="1.2" stroke-miterlimit="10"/>
<path d="M12 15C13.6569 15 15 13.6569 15 12C15 10.3431 13.6569 9 12 9C10.3431 9 9 10.3431 9 12C9 13.6569 10.3431 15 12 15Z" stroke="black" stroke-width="1.2" stroke-miterlimit="10"/>
</svg>
