<svg width="32" height="32" viewBox="0 0 32 32" fill="none" xmlns="http://www.w3.org/2000/svg">
<path d="M6.28853 15.9998C6.29267 16.5819 6.34525 17.1627 6.44569 17.736L5 19.1407L7.76568 23.8753L9.71429 23.3227C10.612 24.0729 11.633 24.6605 12.7314 25.0589L13.2185 27H18.7657L19.2528 25.0589C20.337 24.62 21.3572 24.0359 22.2857 23.3227L24.2185 23.8753L27 19.1407L25.5385 17.736C25.652 17.1643 25.7099 16.5827 25.7114 15.9998C25.7092 15.4169 25.6512 14.8358 25.5385 14.2641L27 12.8751L24.2185 8.14055L22.2857 8.69306C21.3879 7.9346 20.3602 7.34621 19.2528 6.95692L18.7657 5H13.2185L12.7314 6.95692C11.6272 7.34272 10.6041 7.93154 9.71429 8.69306L7.76568 8.14055L5 12.8751L6.44569 14.2641C6.34596 14.8374 6.29339 15.4178 6.28853 15.9998Z" stroke="black" stroke-width="2" stroke-miterlimit="10"/>
<path d="M16.0001 19.9286C18.1698 19.9286 19.9286 18.1697 19.9286 16C19.9286 13.8304 18.1698 12.0715 16.0001 12.0715C13.8304 12.0715 12.0715 13.8304 12.0715 16C12.0715 18.1697 13.8304 19.9286 16.0001 19.9286Z" stroke="black" stroke-width="2" stroke-miterlimit="10"/>
</svg>
