<svg width="16" height="16" viewBox="0 0 16 16" fill="none" xmlns="http://www.w3.org/2000/svg">
<path d="M8 3L8 11" stroke="black" stroke-miterlimit="10"/>
<path d="M4.5 6.5L8 3L11.5 6.5" stroke="black"/>
<mask id="path-3-inside-1_10_496" fill="white">
<path d="M2.5 9.00092V13.5H13.5C13.5 13.5 13.5 10.7286 13.5 9"/>
</mask>
<path d="M2.5 13.5H1.5V14.5H2.5V13.5ZM13.5 13.5V14.5H14.5V13.5H13.5ZM1.5 9.00092V13.5H3.5V9.00092H1.5ZM2.5 14.5H13.5V12.5H2.5V14.5ZM13.5 13.5C14.5 13.5 14.5 13.5 14.5 13.5C14.5 13.4999 14.5 13.4999 14.5 13.4999C14.5 13.4998 14.5 13.4998 14.5 13.4997C14.5 13.4997 14.5 13.4996 14.5 13.4995C14.5 13.4994 14.5 13.4993 14.5 13.4992C14.5 13.4991 14.5 13.499 14.5 13.4989C14.5 13.4987 14.5 13.4986 14.5 13.4985C14.5 13.4983 14.5 13.4982 14.5 13.498C14.5 13.4978 14.5 13.4976 14.5 13.4975C14.5 13.4973 14.5 13.4971 14.5 13.4969C14.5 13.4966 14.5 13.4964 14.5 13.4962C14.5 13.496 14.5 13.4957 14.5 13.4955C14.5 13.4952 14.5 13.495 14.5 13.4947C14.5 13.4944 14.5 13.4942 14.5 13.4939C14.5 13.4936 14.5 13.4933 14.5 13.493C14.5 13.4926 14.5 13.4923 14.5 13.492C14.5 13.4917 14.5 13.4913 14.5 13.491C14.5 13.4906 14.5 13.4903 14.5 13.4899C14.5 13.4895 14.5 13.4891 14.5 13.4887C14.5 13.4884 14.5 13.488 14.5 13.4875C14.5 13.4871 14.5 13.4867 14.5 13.4863C14.5 13.4858 14.5 13.4854 14.5 13.485C14.5 13.4845 14.5 13.484 14.5 13.4836C14.5 13.4831 14.5 13.4826 14.5 13.4821C14.5 13.4816 14.5 13.4811 14.5 13.4806C14.5 13.4801 14.5 13.4796 14.5 13.4791C14.5 13.4785 14.5 13.478 14.5 13.4774C14.5 13.4769 14.5 13.4763 14.5 13.4758C14.5 13.4752 14.5 13.4746 14.5 13.474C14.5 13.4734 14.5 13.4728 14.5 13.4722C14.5 13.4716 14.5 13.471 14.5 13.4704C14.5 13.4697 14.5 13.4691 14.5 13.4685C14.5 13.4678 14.5 13.4671 14.5 13.4665C14.5 13.4658 14.5 13.4651 14.5 13.4645C14.5 13.4638 14.5 13.4631 14.5 13.4624C14.5 13.4617 14.5 13.4609 14.5 13.4602C14.5 13.4595 14.5 13.4588 14.5 13.458C14.5 13.4573 14.5 13.4565 14.5 13.4558C14.5 13.455 14.5 13.4542 14.5 13.4534C14.5 13.4527 14.5 13.4519 14.5 13.4511C14.5 13.4503 14.5 13.4495 14.5 13.4486C14.5 13.4478 14.5 13.447 14.5 13.4462C14.5 13.4453 14.5 13.4445 14.5 13.4436C14.5 13.4428 14.5 13.4419 14.5 13.441C14.5 13.4401 14.5 13.4393 14.5 13.4384C14.5 13.4375 14.5 13.4366 14.5 13.4357C14.5 13.4347 14.5 13.4338 14.5 13.4329C14.5 13.432 14.5 13.431 14.5 13.4301C14.5 13.4291 14.5 13.4282 14.5 13.4272C14.5 13.4262 14.5 13.4252 14.5 13.4243C14.5 13.4233 14.5 13.4223 14.5 13.4213C14.5 13.4203 14.5 13.4193 14.5 13.4182C14.5 13.4172 14.5 13.4162 14.5 13.4151C14.5 13.4141 14.5 13.413 14.5 13.412C14.5 13.4109 14.5 13.4099 14.5 13.4088C14.5 13.4077 14.5 13.4066 14.5 13.4055C14.5 13.4044 14.5 13.4033 14.5 13.4022C14.5 13.4011 14.5 13.4 14.5 13.3989C14.5 13.3977 14.5 13.3966 14.5 13.3954C14.5 13.3943 14.5 13.3931 14.5 13.392C14.5 13.3908 14.5 13.3896 14.5 13.3884C14.5 13.3872 14.5 13.3861 14.5 13.3849C14.5 13.3837 14.5 13.3824 14.5 13.3812C14.5 13.38 14.5 13.3788 14.5 13.3775C14.5 13.3763 14.5 13.3751 14.5 13.3738C14.5 13.3725 14.5 13.3713 14.5 13.37C14.5 13.3687 14.5 13.3675 14.5 13.3662C14.5 13.3649 14.5 13.3636 14.5 13.3623C14.5 13.361 14.5 13.3597 14.5 13.3583C14.5 13.357 14.5 13.3557 14.5 13.3543C14.5 13.353 14.5 13.3516 14.5 13.3503C14.5 13.3489 14.5 13.3476 14.5 13.3462C14.5 13.3448 14.5 13.3434 14.5 13.342C14.5 13.3406 14.5 13.3392 14.5 13.3378C14.5 13.3364 14.5 13.335 14.5 13.3336C14.5 13.3322 14.5 13.3307 14.5 13.3293C14.5 13.3278 14.5 13.3264 14.5 13.3249C14.5 13.3235 14.5 13.322 14.5 13.3205C14.5 13.319 14.5 13.3176 14.5 13.3161C14.5 13.3146 14.5 13.3131 14.5 13.3116C14.5 13.3101 14.5 13.3085 14.5 13.307C14.5 13.3055 14.5 13.3039 14.5 13.3024C14.5 13.3009 14.5 13.2993 14.5 13.2978C14.5 13.2962 14.5 13.2946 14.5 13.2931C14.5 13.2915 14.5 13.2899 14.5 13.2883C14.5 13.2867 14.5 13.2851 14.5 13.2835C14.5 13.2819 14.5 13.2803 14.5 13.2787C14.5 13.277 14.5 13.2754 14.5 13.2738C14.5 13.2721 14.5 13.2705 14.5 13.2688C14.5 13.2671 14.5 13.2655 14.5 13.2638C14.5 13.2621 14.5 13.2605 14.5 13.2588C14.5 13.2571 14.5 13.2554 14.5 13.2537C14.5 13.252 14.5 13.2503 14.5 13.2485C14.5 13.2468 14.5 13.2451 14.5 13.2434C14.5 13.2416 14.5 13.2399 14.5 13.2381C14.5 13.2364 14.5 13.2346 14.5 13.2328C14.5 13.2311 14.5 13.2293 14.5 13.2275C14.5 13.2257 14.5 13.2239 14.5 13.2221C14.5 13.2203 14.5 13.2185 14.5 13.2167C14.5 13.2149 14.5 13.2131 14.5 13.2113C14.5 13.2094 14.5 13.2076 14.5 13.2057C14.5 13.2039 14.5 13.202 14.5 13.2002C14.5 13.1983 14.5 13.1964 14.5 13.1946C14.5 13.1927 14.5 13.1908 14.5 13.1889C14.5 13.187 14.5 13.1851 14.5 13.1832C14.5 13.1813 14.5 13.1794 14.5 13.1775C14.5 13.1756 14.5 13.1736 14.5 13.1717C14.5 13.1698 14.5 13.1678 14.5 13.1659C14.5 13.1639 14.5 13.1619 14.5 13.16C14.5 13.158 14.5 13.156 14.5 13.1541C14.5 13.1521 14.5 13.1501 14.5 13.1481C14.5 13.1461 14.5 13.1441 14.5 13.1421C14.5 13.1401 14.5 13.138 14.5 13.136C14.5 13.134 14.5 13.132 14.5 13.1299C14.5 13.1279 14.5 13.1258 14.5 13.1238C14.5 13.1217 14.5 13.1196 14.5 13.1176C14.5 13.1155 14.5 13.1134 14.5 13.1113C14.5 13.1093 14.5 13.1072 14.5 13.1051C14.5 13.103 14.5 13.1009 14.5 13.0988C14.5 13.0966 14.5 13.0945 14.5 13.0924C14.5 13.0903 14.5 13.0881 14.5 13.086C14.5 13.0838 14.5 13.0817 14.5 13.0795C14.5 13.0774 14.5 13.0752 14.5 13.073C14.5 13.0709 14.5 13.0687 14.5 13.0665C14.5 13.0643 14.5 13.0621 14.5 13.0599C14.5 13.0577 14.5 13.0555 14.5 13.0533C14.5 13.0511 14.5 13.0489 14.5 13.0467C14.5 13.0444 14.5 13.0422 14.5 13.04C14.5 13.0377 14.5 13.0355 14.5 13.0332C14.5 13.031 14.5 13.0287 14.5 13.0264C14.5 13.0242 14.5 13.0219 14.5 13.0196C14.5 13.0173 14.5 13.015 14.5 13.0127C14.5 13.0104 14.5 13.0081 14.5 13.0058C14.5 13.0035 14.5 13.0012 14.5 12.9989C14.5 12.9966 14.5 12.9942 14.5 12.9919C14.5 12.9895 14.5 12.9872 14.5 12.9849C14.5 12.9825 14.5 12.9801 14.5 12.9778C14.5 12.9754 14.5 12.9731 14.5 12.9707C14.5 12.9683 14.5 12.9659 14.5 12.9635C14.5 12.9611 14.5 12.9587 14.5 12.9563C14.5 12.9539 14.5 12.9515 14.5 12.9491C14.5 12.9467 14.5 12.9443 14.5 12.9418C14.5 12.9394 14.5 12.937 14.5 12.9345C14.5 12.9321 14.5 12.9296 14.5 12.9272C14.5 12.9247 14.5 12.9223 14.5 12.9198C14.5 12.9173 14.5 12.9149 14.5 12.9124C14.5 12.9099 14.5 12.9074 14.5 12.9049C14.5 12.9024 14.5 12.8999 14.5 12.8974C14.5 12.8949 14.5 12.8924 14.5 12.8899C14.5 12.8873 14.5 12.8848 14.5 12.8823C14.5 12.8798 14.5 12.8772 14.5 12.8747C14.5 12.8721 14.5 12.8696 14.5 12.867C14.5 12.8645 14.5 12.8619 14.5 12.8593C14.5 12.8568 14.5 12.8542 14.5 12.8516C14.5 12.849 14.5 12.8464 14.5 12.8438C14.5 12.8412 14.5 12.8386 14.5 12.836C14.5 12.8334 14.5 12.8308 14.5 12.8282C14.5 12.8256 14.5 12.8229 14.5 12.8203C14.5 12.8177 14.5 12.815 14.5 12.8124C14.5 12.8098 14.5 12.8071 14.5 12.8045C14.5 12.8018 14.5 12.7991 14.5 12.7965C14.5 12.7938 14.5 12.7911 14.5 12.7885C14.5 12.7858 14.5 12.7831 14.5 12.7804C14.5 12.7777 14.5 12.775 14.5 12.7723C14.5 12.7696 14.5 12.7669 14.5 12.7642C14.5 12.7615 14.5 12.7587 14.5 12.756C14.5 12.7533 14.5 12.7506 14.5 12.7478C14.5 12.7451 14.5 12.7423 14.5 12.7396C14.5 12.7368 14.5 12.7341 14.5 12.7313C14.5 12.7286 14.5 12.7258 14.5 12.723C14.5 12.7202 14.5 12.7175 14.5 12.7147C14.5 12.7119 14.5 12.7091 14.5 12.7063C14.5 12.7035 14.5 12.7007 14.5 12.6979C14.5 12.6951 14.5 12.6923 14.5 12.6895C14.5 12.6866 14.5 12.6838 14.5 12.681C14.5 12.6782 14.5 12.6753 14.5 12.6725C14.5 12.6696 14.5 12.6668 14.5 12.6639C14.5 12.6611 14.5 12.6582 14.5 12.6554C14.5 12.6525 14.5 12.6496 14.5 12.6468C14.5 12.6439 14.5 12.641 14.5 12.6381C14.5 12.6352 14.5 12.6323 14.5 12.6294C14.5 12.6266 14.5 12.6236 14.5 12.6207C14.5 12.6178 14.5 12.6149 14.5 12.612C14.5 12.6091 14.5 12.6062 14.5 12.6032C14.5 12.6003 14.5 12.5974 14.5 12.5944C14.5 12.5915 14.5 12.5886 14.5 12.5856C14.5 12.5827 14.5 12.5797 14.5 12.5767C14.5 12.5738 14.5 12.5708 14.5 12.5678C14.5 12.5649 14.5 12.5619 14.5 12.5589C14.5 12.5559 14.5 12.5529 14.5 12.55C14.5 12.547 14.5 12.544 14.5 12.541C14.5 12.538 14.5 12.535 14.5 12.5319C14.5 12.5289 14.5 12.5259 14.5 12.5229C14.5 12.5199 14.5 12.5168 14.5 12.5138C14.5 12.5108 14.5 12.5077 14.5 12.5047C14.5 12.5017 14.5 12.4986 14.5 12.4956C14.5 12.4925 14.5 12.4894 14.5 12.4864C14.5 12.4833 14.5 12.4803 14.5 12.4772C14.5 12.4741 14.5 12.471 14.5 12.4679C14.5 12.4649 14.5 12.4618 14.5 12.4587C14.5 12.4556 14.5 12.4525 14.5 12.4494C14.5 12.4463 14.5 12.4432 14.5 12.4401C14.5 12.437 14.5 12.4338 14.5 12.4307C14.5 12.4276 14.5 12.4245 14.5 12.4213C14.5 12.4182 14.5 12.4151 14.5 12.4119C14.5 12.4088 14.5 12.4057 14.5 12.4025C14.5 12.3994 14.5 12.3962 14.5 12.393C14.5 12.3899 14.5 12.3867 14.5 12.3835C14.5 12.3804 14.5 12.3772 14.5 12.374C14.5 12.3709 14.5 12.3677 14.5 12.3645C14.5 12.3613 14.5 12.3581 14.5 12.3549C14.5 12.3517 14.5 12.3485 14.5 12.3453C14.5 12.3421 14.5 12.3389 14.5 12.3357C14.5 12.3325 14.5 12.3292 14.5 12.326C14.5 12.3228 14.5 12.3196 14.5 12.3163C14.5 12.3131 14.5 12.3099 14.5 12.3066C14.5 12.3034 14.5 12.3001 14.5 12.2969C14.5 12.2936 14.5 12.2904 14.5 12.2871C14.5 12.2839 14.5 12.2806 14.5 12.2773C14.5 12.2741 14.5 12.2708 14.5 12.2675C14.5 12.2642 14.5 12.261 14.5 12.2577C14.5 12.2544 14.5 12.2511 14.5 12.2478C14.5 12.2445 14.5 12.2412 14.5 12.2379C14.5 12.2346 14.5 12.2313 14.5 12.228C14.5 12.2247 14.5 12.2214 14.5 12.2181C14.5 12.2147 14.5 12.2114 14.5 12.2081C14.5 12.2048 14.5 12.2014 14.5 12.1981C14.5 12.1948 14.5 12.1914 14.5 12.1881C14.5 12.1847 14.5 12.1814 14.5 12.178C14.5 12.1747 14.5 12.1713 14.5 12.168C14.5 12.1646 14.5 12.1612 14.5 12.1579C14.5 12.1545 14.5 12.1511 14.5 12.1478C14.5 12.1444 14.5 12.141 14.5 12.1376C14.5 12.1342 14.5 12.1308 14.5 12.1275C14.5 12.1241 14.5 12.1207 14.5 12.1173C14.5 12.1139 14.5 12.1105 14.5 12.1071C14.5 12.1036 14.5 12.1002 14.5 12.0968C14.5 12.0934 14.5 12.09 14.5 12.0866C14.5 12.0831 14.5 12.0797 14.5 12.0763C14.5 12.0729 14.5 12.0694 14.5 12.066C14.5 12.0625 14.5 12.0591 14.5 12.0557C14.5 12.0522 14.5 12.0488 14.5 12.0453C14.5 12.0419 14.5 12.0384 14.5 12.0349C14.5 12.0315 14.5 12.028 14.5 12.0246C14.5 12.0211 14.5 12.0176 14.5 12.0141C14.5 12.0107 14.5 12.0072 14.5 12.0037C14.5 12.0002 14.5 11.9967 14.5 11.9932C14.5 11.9898 14.5 11.9863 14.5 11.9828C14.5 11.9793 14.5 11.9758 14.5 11.9723C14.5 11.9688 14.5 11.9653 14.5 11.9618C14.5 11.9582 14.5 11.9547 14.5 11.9512C14.5 11.9477 14.5 11.9442 14.5 11.9407C14.5 11.9371 14.5 11.9336 14.5 11.9301C14.5 11.9265 14.5 11.923 14.5 11.9195C14.5 11.9159 14.5 11.9124 14.5 11.9088C14.5 11.9053 14.5 11.9018 14.5 11.8982C14.5 11.8947 14.5 11.8911 14.5 11.8875C14.5 11.884 14.5 11.8804 14.5 11.8769C14.5 11.8733 14.5 11.8697 14.5 11.8662C14.5 11.8626 14.5 11.859 14.5 11.8554C14.5 11.8519 14.5 11.8483 14.5 11.8447C14.5 11.8411 14.5 11.8375 14.5 11.8339C14.5 11.8304 14.5 11.8268 14.5 11.8232C14.5 11.8196 14.5 11.816 14.5 11.8124C14.5 11.8088 14.5 11.8052 14.5 11.8016C14.5 11.798 14.5 11.7943 14.5 11.7907C14.5 11.7871 14.5 11.7835 14.5 11.7799C14.5 11.7763 14.5 11.7726 14.5 11.769C14.5 11.7654 14.5 11.7618 14.5 11.7581C14.5 11.7545 14.5 11.7509 14.5 11.7472C14.5 11.7436 14.5 11.7399 14.5 11.7363C14.5 11.7327 14.5 11.729 14.5 11.7254C14.5 11.7217 14.5 11.7181 14.5 11.7144C14.5 11.7108 14.5 11.7071 14.5 11.7034C14.5 11.6998 14.5 11.6961 14.5 11.6925C14.5 11.6888 14.5 11.6851 14.5 11.6814C14.5 11.6778 14.5 11.6741 14.5 11.6704C14.5 11.6667 14.5 11.6631 14.5 11.6594C14.5 11.6557 14.5 11.652 14.5 11.6483C14.5 11.6446 14.5 11.641 14.5 11.6373C14.5 11.6336 14.5 11.6299 14.5 11.6262C14.5 11.6225 14.5 11.6188 14.5 11.6151C14.5 11.6114 14.5 11.6077 14.5 11.604C14.5 11.6003 14.5 11.5965 14.5 11.5928C14.5 11.5891 14.5 11.5854 14.5 11.5817C14.5 11.578 14.5 11.5742 14.5 11.5705C14.5 11.5668 14.5 11.5631 14.5 11.5594C14.5 11.5556 14.5 11.5519 14.5 11.5482C14.5 11.5444 14.5 11.5407 14.5 11.537C14.5 11.5332 14.5 11.5295 14.5 11.5257C14.5 11.522 14.5 11.5183 14.5 11.5145C14.5 11.5108 14.5 11.507 14.5 11.5033C14.5 11.4995 14.5 11.4958 14.5 11.492C14.5 11.4882 14.5 11.4845 14.5 11.4807C14.5 11.477 14.5 11.4732 14.5 11.4694C14.5 11.4657 14.5 11.4619 14.5 11.4581C14.5 11.4544 14.5 11.4506 14.5 11.4468C14.5 11.4431 14.5 11.4393 14.5 11.4355C14.5 11.4317 14.5 11.4279 14.5 11.4242C14.5 11.4204 14.5 11.4166 14.5 11.4128C14.5 11.409 14.5 11.4052 14.5 11.4014C14.5 11.3977 14.5 11.3939 14.5 11.3901C14.5 11.3863 14.5 11.3825 14.5 11.3787C14.5 11.3749 14.5 11.3711 14.5 11.3673C14.5 11.3635 14.5 11.3597 14.5 11.3559C14.5 11.3521 14.5 11.3483 14.5 11.3445C14.5 11.3406 14.5 11.3368 14.5 11.333C14.5 11.3292 14.5 11.3254 14.5 11.3216C14.5 11.3178 14.5 11.3139 14.5 11.3101C14.5 11.3063 14.5 11.3025 14.5 11.2987C14.5 11.2948 14.5 11.291 14.5 11.2872C14.5 11.2834 14.5 11.2795 14.5 11.2757C14.5 11.2719 14.5 11.268 14.5 11.2642C14.5 11.2604 14.5 11.2565 14.5 11.2527C14.5 11.2489 14.5 11.245 14.5 11.2412C14.5 11.2373 14.5 11.2335 14.5 11.2296C14.5 11.2258 14.5 11.222 14.5 11.2181C14.5 11.2143 14.5 11.2104 14.5 11.2066C14.5 11.2027 14.5 11.1989 14.5 11.195C14.5 11.1912 14.5 11.1873 14.5 11.1834C14.5 11.1796 14.5 11.1757 14.5 11.1719C14.5 11.168 14.5 11.1642 14.5 11.1603C14.5 11.1564 14.5 11.1526 14.5 11.1487C14.5 11.1448 14.5 11.141 14.5 11.1371C14.5 11.1332 14.5 11.1294 14.5 11.1255C14.5 11.1216 14.5 11.1178 14.5 11.1139C14.5 11.11 14.5 11.1061 14.5 11.1023C14.5 11.0984 14.5 11.0945 14.5 11.0906C14.5 11.0868 14.5 11.0829 14.5 11.079C14.5 11.0751 14.5 11.0712 14.5 11.0673C14.5 11.0635 14.5 11.0596 14.5 11.0557C14.5 11.0518 14.5 11.0479 14.5 11.044C14.5 11.0401 14.5 11.0363 14.5 11.0324C14.5 11.0285 14.5 11.0246 14.5 11.0207C14.5 11.0168 14.5 11.0129 14.5 11.009C14.5 11.0051 14.5 11.0012 14.5 10.9973C14.5 10.9934 14.5 10.9895 14.5 10.9856C14.5 10.9817 14.5 10.9778 14.5 10.9739C14.5 10.97 14.5 10.9661 14.5 10.9622C14.5 10.9583 14.5 10.9544 14.5 10.9505C14.5 10.9466 14.5 10.9427 14.5 10.9388C14.5 10.9349 14.5 10.931 14.5 10.9271C14.5 10.9232 14.5 10.9193 14.5 10.9154C14.5 10.9115 14.5 10.9076 14.5 10.9036C14.5 10.8997 14.5 10.8958 14.5 10.8919C14.5 10.888 14.5 10.8841 14.5 10.8802C14.5 10.8763 14.5 10.8723 14.5 10.8684C14.5 10.8645 14.5 10.8606 14.5 10.8567C14.5 10.8528 14.5 10.8488 14.5 10.8449C14.5 10.841 14.5 10.8371 14.5 10.8332C14.5 10.8293 14.5 10.8253 14.5 10.8214C14.5 10.8175 14.5 10.8136 14.5 10.8096C14.5 10.8057 14.5 10.8018 14.5 10.7979C14.5 10.794 14.5 10.79 14.5 10.7861C14.5 10.7822 14.5 10.7783 14.5 10.7743C14.5 10.7704 14.5 10.7665 14.5 10.7626C14.5 10.7586 14.5 10.7547 14.5 10.7508C14.5 10.7469 14.5 10.7429 14.5 10.739C14.5 10.7351 14.5 10.7311 14.5 10.7272C14.5 10.7233 14.5 10.7194 14.5 10.7154C14.5 10.7115 14.5 10.7076 14.5 10.7036C14.5 10.6997 14.5 10.6958 14.5 10.6919C14.5 10.6879 14.5 10.684 14.5 10.6801C14.5 10.6761 14.5 10.6722 14.5 10.6683C14.5 10.6643 14.5 10.6604 14.5 10.6565C14.5 10.6525 14.5 10.6486 14.5 10.6447C14.5 10.6408 14.5 10.6368 14.5 10.6329C14.5 10.629 14.5 10.625 14.5 10.6211C14.5 10.6172 14.5 10.6132 14.5 10.6093C14.5 10.6054 14.5 10.6014 14.5 10.5975C14.5 10.5936 14.5 10.5896 14.5 10.5857C14.5 10.5818 14.5 10.5778 14.5 10.5739C14.5 10.57 14.5 10.566 14.5 10.5621C14.5 10.5582 14.5 10.5542 14.5 10.5503C14.5 10.5464 14.5 10.5424 14.5 10.5385C14.5 10.5346 14.5 10.5306 14.5 10.5267C14.5 10.5228 14.5 10.5188 14.5 10.5149C14.5 10.511 14.5 10.507 14.5 10.5031C14.5 10.4992 14.5 10.4952 14.5 10.4913C14.5 10.4874 14.5 10.4835 14.5 10.4795C14.5 10.4756 14.5 10.4717 14.5 10.4677C14.5 10.4638 14.5 10.4599 14.5 10.4559C14.5 10.452 14.5 10.4481 14.5 10.4441C14.5 10.4402 14.5 10.4363 14.5 10.4324C14.5 10.4284 14.5 10.4245 14.5 10.4206C14.5 10.4166 14.5 10.4127 14.5 10.4088C14.5 10.4049 14.5 10.4009 14.5 10.397C14.5 10.3931 14.5 10.3892 14.5 10.3852C14.5 10.3813 14.5 10.3774 14.5 10.3735C14.5 10.3695 14.5 10.3656 14.5 10.3617C14.5 10.3578 14.5 10.3538 14.5 10.3499C14.5 10.346 14.5 10.3421 14.5 10.3381C14.5 10.3342 14.5 10.3303 14.5 10.3264C14.5 10.3225 14.5 10.3185 14.5 10.3146C14.5 10.3107 14.5 10.3068 14.5 10.3029C14.5 10.2989 14.5 10.295 14.5 10.2911C14.5 10.2872 14.5 10.2833 14.5 10.2794C14.5 10.2754 14.5 10.2715 14.5 10.2676C14.5 10.2637 14.5 10.2598 14.5 10.2559C14.5 10.252 14.5 10.2481 14.5 10.2441C14.5 10.2402 14.5 10.2363 14.5 10.2324C14.5 10.2285 14.5 10.2246 14.5 10.2207C14.5 10.2168 14.5 10.2129 14.5 10.209C14.5 10.2051 14.5 10.2012 14.5 10.1973C14.5 10.1934 14.5 10.1895 14.5 10.1856C14.5 10.1816 14.5 10.1777 14.5 10.1738C14.5 10.1699 14.5 10.166 14.5 10.1621C14.5 10.1583 14.5 10.1544 14.5 10.1505C14.5 10.1466 14.5 10.1427 14.5 10.1388C14.5 10.1349 14.5 10.131 14.5 10.1271C14.5 10.1232 14.5 10.1193 14.5 10.1154C14.5 10.1115 14.5 10.1076 14.5 10.1038C14.5 10.0999 14.5 10.096 14.5 10.0921C14.5 10.0882 14.5 10.0843 14.5 10.0804C14.5 10.0766 14.5 10.0727 14.5 10.0688C14.5 10.0649 14.5 10.061 14.5 10.0572C14.5 10.0533 14.5 10.0494 14.5 10.0455C14.5 10.0417 14.5 10.0378 14.5 10.0339C14.5 10.03 14.5 10.0262 14.5 10.0223C14.5 10.0184 14.5 10.0146 14.5 10.0107C14.5 10.0068 14.5 10.003 14.5 9.99909C14.5 9.99522 14.5 9.99136 14.5 9.9875C14.5 9.98363 14.5 9.97977 14.5 9.97592C14.5 9.97206 14.5 9.9682 14.5 9.96434C14.5 9.96049 14.5 9.95663 14.5 9.95278C14.5 9.94892 14.5 9.94507 14.5 9.94122C14.5 9.93737 14.5 9.93352 14.5 9.92968C14.5 9.92583 14.5 9.92198 14.5 9.91814C14.5 9.9143 14.5 9.91045 14.5 9.90661C14.5 9.90277 14.5 9.89893 14.5 9.8951C14.5 9.89126 14.5 9.88742 14.5 9.88359C14.5 9.87976 14.5 9.87592 14.5 9.87209C14.5 9.86826 14.5 9.86443 14.5 9.8606C14.5 9.85678 14.5 9.85295 14.5 9.84913C14.5 9.8453 14.5 9.84148 14.5 9.83766C14.5 9.83384 14.5 9.83002 14.5 9.82621C14.5 9.82239 14.5 9.81858 14.5 9.81476C14.5 9.81095 14.5 9.80714 14.5 9.80333C14.5 9.79952 14.5 9.79571 14.5 9.79191C14.5 9.7881 14.5 9.7843 14.5 9.7805C14.5 9.77669 14.5 9.7729 14.5 9.7691C14.5 9.7653 14.5 9.7615 14.5 9.75771C14.5 9.75392 14.5 9.75012 14.5 9.74633C14.5 9.74254 14.5 9.73876 14.5 9.73497C14.5 9.73119 14.5 9.7274 14.5 9.72362C14.5 9.71984 14.5 9.71606 14.5 9.71228C14.5 9.7085 14.5 9.70473 14.5 9.70096C14.5 9.69718 14.5 9.69341 14.5 9.68964C14.5 9.68587 14.5 9.68211 14.5 9.67834C14.5 9.67458 14.5 9.67082 14.5 9.66706C14.5 9.6633 14.5 9.65954 14.5 9.65578C14.5 9.65203 14.5 9.64827 14.5 9.64452C14.5 9.64077 14.5 9.63702 14.5 9.63327C14.5 9.62953 14.5 9.62578 14.5 9.62204C14.5 9.6183 14.5 9.61456 14.5 9.61082C14.5 9.60709 14.5 9.60335 14.5 9.59962C14.5 9.59589 14.5 9.59216 14.5 9.58843C14.5 9.5847 14.5 9.58097 14.5 9.57725C14.5 9.57353 14.5 9.56981 14.5 9.56609C14.5 9.56237 14.5 9.55866 14.5 9.55494C14.5 9.55123 14.5 9.54752 14.5 9.54381C14.5 9.5401 14.5 9.5364 14.5 9.5327C14.5 9.52899 14.5 9.52529 14.5 9.5216C14.5 9.5179 14.5 9.5142 14.5 9.51051C14.5 9.50682 14.5 9.50313 14.5 9.49944C14.5 9.49575 14.5 9.49207 14.5 9.48839C14.5 9.4847 14.5 9.48103 14.5 9.47735C14.5 9.47367 14.5 9.47 14.5 9.46633C14.5 9.46266 14.5 9.45899 14.5 9.45532C14.5 9.45166 14.5 9.44799 14.5 9.44433C14.5 9.44067 14.5 9.43702 14.5 9.43336C14.5 9.42971 14.5 9.42606 14.5 9.42241C14.5 9.41876 14.5 9.41511 14.5 9.41147C14.5 9.40783 14.5 9.40418 14.5 9.40055C14.5 9.39691 14.5 9.39328 14.5 9.38964C14.5 9.38601 14.5 9.38238 14.5 9.37876C14.5 9.37513 14.5 9.37151 14.5 9.36789C14.5 9.36427 14.5 9.36065 14.5 9.35704C14.5 9.35343 14.5 9.34982 14.5 9.34621C14.5 9.3426 14.5 9.339 14.5 9.33539C14.5 9.33179 14.5 9.32819 14.5 9.3246C14.5 9.321 14.5 9.31741 14.5 9.31382C14.5 9.31023 14.5 9.30665 14.5 9.30306C14.5 9.29948 14.5 9.2959 14.5 9.29232C14.5 9.28875 14.5 9.28517 14.5 9.2816C14.5 9.27803 14.5 9.27447 14.5 9.2709C14.5 9.26734 14.5 9.26378 14.5 9.26022C14.5 9.25666 14.5 9.25311 14.5 9.24956C14.5 9.24601 14.5 9.24246 14.5 9.23892C14.5 9.23537 14.5 9.23183 14.5 9.2283C14.5 9.22476 14.5 9.22122 14.5 9.21769C14.5 9.21416 14.5 9.21064 14.5 9.20711C14.5 9.20359 14.5 9.20007 14.5 9.19655C14.5 9.19303 14.5 9.18952 14.5 9.18601C14.5 9.1825 14.5 9.17899 14.5 9.17549C14.5 9.17199 14.5 9.16849 14.5 9.16499C14.5 9.16149 14.5 9.158 14.5 9.15451C14.5 9.15102 14.5 9.14754 14.5 9.14406C14.5 9.14057 14.5 9.1371 14.5 9.13362C14.5 9.13015 14.5 9.12668 14.5 9.12321C14.5 9.11974 14.5 9.11628 14.5 9.11282C14.5 9.10936 14.5 9.1059 14.5 9.10245C14.5 9.09899 14.5 9.09555 14.5 9.0921C14.5 9.08865 14.5 9.08521 14.5 9.08178C14.5 9.07834 14.5 9.0749 14.5 9.07147C14.5 9.06804 14.5 9.06462 14.5 9.06119C14.5 9.05777 14.5 9.05435 14.5 9.05094C14.5 9.04752 14.5 9.04411 14.5 9.0407C14.5 9.03729 14.5 9.03389 14.5 9.03049C14.5 9.02709 14.5 9.0237 14.5 9.0203C14.5 9.01691 14.5 9.01352 14.5 9.01014C14.5 9.00676 14.5 9.00338 14.5 9H12.5C12.5 9.00338 12.5 9.00676 12.5 9.01014C12.5 9.01352 12.5 9.01691 12.5 9.0203C12.5 9.0237 12.5 9.02709 12.5 9.03049C12.5 9.03389 12.5 9.03729 12.5 9.0407C12.5 9.04411 12.5 9.04752 12.5 9.05094C12.5 9.05435 12.5 9.05777 12.5 9.06119C12.5 9.06462 12.5 9.06804 12.5 9.07147C12.5 9.0749 12.5 9.07834 12.5 9.08178C12.5 9.08521 12.5 9.08865 12.5 9.0921C12.5 9.09555 12.5 9.09899 12.5 9.10245C12.5 9.1059 12.5 9.10936 12.5 9.11282C12.5 9.11628 12.5 9.11974 12.5 9.12321C12.5 9.12668 12.5 9.13015 12.5 9.13362C12.5 9.1371 12.5 9.14057 12.5 9.14406C12.5 9.14754 12.5 9.15102 12.5 9.15451C12.5 9.158 12.5 9.16149 12.5 9.16499C12.5 9.16849 12.5 9.17199 12.5 9.17549C12.5 9.17899 12.5 9.1825 12.5 9.18601C12.5 9.18952 12.5 9.19303 12.5 9.19655C12.5 9.20007 12.5 9.20359 12.5 9.20711C12.5 9.21064 12.5 9.21416 12.5 9.21769C12.5 9.22122 12.5 9.22476 12.5 9.2283C12.5 9.23183 12.5 9.23537 12.5 9.23892C12.5 9.24246 12.5 9.24601 12.5 9.24956C12.5 9.25311 12.5 9.25666 12.5 9.26022C12.5 9.26378 12.5 9.26734 12.5 9.2709C12.5 9.27447 12.5 9.27803 12.5 9.2816C12.5 9.28517 12.5 9.28875 12.5 9.29232C12.5 9.2959 12.5 9.29948 12.5 9.30306C12.5 9.30665 12.5 9.31023 12.5 9.31382C12.5 9.31741 12.5 9.321 12.5 9.3246C12.5 9.32819 12.5 9.33179 12.5 9.33539C12.5 9.339 12.5 9.3426 12.5 9.34621C12.5 9.34982 12.5 9.35343 12.5 9.35704C12.5 9.36065 12.5 9.36427 12.5 9.36789C12.5 9.37151 12.5 9.37513 12.5 9.37876C12.5 9.38238 12.5 9.38601 12.5 9.38964C12.5 9.39328 12.5 9.39691 12.5 9.40055C12.5 9.40418 12.5 9.40783 12.5 9.41147C12.5 9.41511 12.5 9.41876 12.5 9.42241C12.5 9.42606 12.5 9.42971 12.5 9.43336C12.5 9.43702 12.5 9.44067 12.5 9.44433C12.5 9.44799 12.5 9.45166 12.5 9.45532C12.5 9.45899 12.5 9.46266 12.5 9.46633C12.5 9.47 12.5 9.47367 12.5 9.47735C12.5 9.48103 12.5 9.4847 12.5 9.48839C12.5 9.49207 12.5 9.49575 12.5 9.49944C12.5 9.50313 12.5 9.50682 12.5 9.51051C12.5 9.5142 12.5 9.5179 12.5 9.5216C12.5 9.52529 12.5 9.52899 12.5 9.5327C12.5 9.5364 12.5 9.5401 12.5 9.54381C12.5 9.54752 12.5 9.55123 12.5 9.55494C12.5 9.55866 12.5 9.56237 12.5 9.56609C12.5 9.56981 12.5 9.57353 12.5 9.57725C12.5 9.58097 12.5 9.5847 12.5 9.58843C12.5 9.59216 12.5 9.59589 12.5 9.59962C12.5 9.60335 12.5 9.60709 12.5 9.61082C12.5 9.61456 12.5 9.6183 12.5 9.62204C12.5 9.62578 12.5 9.62953 12.5 9.63327C12.5 9.63702 12.5 9.64077 12.5 9.64452C12.5 9.64827 12.5 9.65203 12.5 9.65578C12.5 9.65954 12.5 9.6633 12.5 9.66706C12.5 9.67082 12.5 9.67458 12.5 9.67834C12.5 9.68211 12.5 9.68587 12.5 9.68964C12.5 9.69341 12.5 9.69718 12.5 9.70096C12.5 9.70473 12.5 9.7085 12.5 9.71228C12.5 9.71606 12.5 9.71984 12.5 9.72362C12.5 9.7274 12.5 9.73119 12.5 9.73497C12.5 9.73876 12.5 9.74254 12.5 9.74633C12.5 9.75012 12.5 9.75392 12.5 9.75771C12.5 9.7615 12.5 9.7653 12.5 9.7691C12.5 9.7729 12.5 9.77669 12.5 9.7805C12.5 9.7843 12.5 9.7881 12.5 9.79191C12.5 9.79571 12.5 9.79952 12.5 9.80333C12.5 9.80714 12.5 9.81095 12.5 9.81476C12.5 9.81858 12.5 9.82239 12.5 9.82621C12.5 9.83002 12.5 9.83384 12.5 9.83766C12.5 9.84148 12.5 9.8453 12.5 9.84913C12.5 9.85295 12.5 9.85678 12.5 9.8606C12.5 9.86443 12.5 9.86826 12.5 9.87209C12.5 9.87592 12.5 9.87976 12.5 9.88359C12.5 9.88742 12.5 9.89126 12.5 9.8951C12.5 9.89893 12.5 9.90277 12.5 9.90661C12.5 9.91045 12.5 9.9143 12.5 9.91814C12.5 9.92198 12.5 9.92583 12.5 9.92968C12.5 9.93352 12.5 9.93737 12.5 9.94122C12.5 9.94507 12.5 9.94892 12.5 9.95278C12.5 9.95663 12.5 9.96049 12.5 9.96434C12.5 9.9682 12.5 9.97206 12.5 9.97592C12.5 9.97977 12.5 9.98363 12.5 9.9875C12.5 9.99136 12.5 9.99522 12.5 9.99909C12.5 10.003 12.5 10.0068 12.5 10.0107C12.5 10.0146 12.5 10.0184 12.5 10.0223C12.5 10.0262 12.5 10.03 12.5 10.0339C12.5 10.0378 12.5 10.0417 12.5 10.0455C12.5 10.0494 12.5 10.0533 12.5 10.0572C12.5 10.061 12.5 10.0649 12.5 10.0688C12.5 10.0727 12.5 10.0766 12.5 10.0804C12.5 10.0843 12.5 10.0882 12.5 10.0921C12.5 10.096 12.5 10.0999 12.5 10.1038C12.5 10.1076 12.5 10.1115 12.5 10.1154C12.5 10.1193 12.5 10.1232 12.5 10.1271C12.5 10.131 12.5 10.1349 12.5 10.1388C12.5 10.1427 12.5 10.1466 12.5 10.1505C12.5 10.1544 12.5 10.1583 12.5 10.1621C12.5 10.166 12.5 10.1699 12.5 10.1738C12.5 10.1777 12.5 10.1816 12.5 10.1856C12.5 10.1895 12.5 10.1934 12.5 10.1973C12.5 10.2012 12.5 10.2051 12.5 10.209C12.5 10.2129 12.5 10.2168 12.5 10.2207C12.5 10.2246 12.5 10.2285 12.5 10.2324C12.5 10.2363 12.5 10.2402 12.5 10.2441C12.5 10.2481 12.5 10.252 12.5 10.2559C12.5 10.2598 12.5 10.2637 12.5 10.2676C12.5 10.2715 12.5 10.2754 12.5 10.2794C12.5 10.2833 12.5 10.2872 12.5 10.2911C12.5 10.295 12.5 10.2989 12.5 10.3029C12.5 10.3068 12.5 10.3107 12.5 10.3146C12.5 10.3185 12.5 10.3225 12.5 10.3264C12.5 10.3303 12.5 10.3342 12.5 10.3381C12.5 10.3421 12.5 10.346 12.5 10.3499C12.5 10.3538 12.5 10.3578 12.5 10.3617C12.5 10.3656 12.5 10.3695 12.5 10.3735C12.5 10.3774 12.5 10.3813 12.5 10.3852C12.5 10.3892 12.5 10.3931 12.5 10.397C12.5 10.4009 12.5 10.4049 12.5 10.4088C12.5 10.4127 12.5 10.4166 12.5 10.4206C12.5 10.4245 12.5 10.4284 12.5 10.4324C12.5 10.4363 12.5 10.4402 12.5 10.4441C12.5 10.4481 12.5 10.452 12.5 10.4559C12.5 10.4599 12.5 10.4638 12.5 10.4677C12.5 10.4717 12.5 10.4756 12.5 10.4795C12.5 10.4835 12.5 10.4874 12.5 10.4913C12.5 10.4952 12.5 10.4992 12.5 10.5031C12.5 10.507 12.5 10.511 12.5 10.5149C12.5 10.5188 12.5 10.5228 12.5 10.5267C12.5 10.5306 12.5 10.5346 12.5 10.5385C12.5 10.5424 12.5 10.5464 12.5 10.5503C12.5 10.5542 12.5 10.5582 12.5 10.5621C12.5 10.566 12.5 10.57 12.5 10.5739C12.5 10.5778 12.5 10.5818 12.5 10.5857C12.5 10.5896 12.5 10.5936 12.5 10.5975C12.5 10.6014 12.5 10.6054 12.5 10.6093C12.5 10.6132 12.5 10.6172 12.5 10.6211C12.5 10.625 12.5 10.629 12.5 10.6329C12.5 10.6368 12.5 10.6408 12.5 10.6447C12.5 10.6486 12.5 10.6525 12.5 10.6565C12.5 10.6604 12.5 10.6643 12.5 10.6683C12.5 10.6722 12.5 10.6761 12.5 10.6801C12.5 10.684 12.5 10.6879 12.5 10.6919C12.5 10.6958 12.5 10.6997 12.5 10.7036C12.5 10.7076 12.5 10.7115 12.5 10.7154C12.5 10.7194 12.5 10.7233 12.5 10.7272C12.5 10.7311 12.5 10.7351 12.5 10.739C12.5 10.7429 12.5 10.7469 12.5 10.7508C12.5 10.7547 12.5 10.7586 12.5 10.7626C12.5 10.7665 12.5 10.7704 12.5 10.7743C12.5 10.7783 12.5 10.7822 12.5 10.7861C12.5 10.79 12.5 10.794 12.5 10.7979C12.5 10.8018 12.5 10.8057 12.5 10.8096C12.5 10.8136 12.5 10.8175 12.5 10.8214C12.5 10.8253 12.5 10.8293 12.5 10.8332C12.5 10.8371 12.5 10.841 12.5 10.8449C12.5 10.8488 12.5 10.8528 12.5 10.8567C12.5 10.8606 12.5 10.8645 12.5 10.8684C12.5 10.8723 12.5 10.8763 12.5 10.8802C12.5 10.8841 12.5 10.888 12.5 10.8919C12.5 10.8958 12.5 10.8997 12.5 10.9036C12.5 10.9076 12.5 10.9115 12.5 10.9154C12.5 10.9193 12.5 10.9232 12.5 10.9271C12.5 10.931 12.5 10.9349 12.5 10.9388C12.5 10.9427 12.5 10.9466 12.5 10.9505C12.5 10.9544 12.5 10.9583 12.5 10.9622C12.5 10.9661 12.5 10.97 12.5 10.9739C12.5 10.9778 12.5 10.9817 12.5 10.9856C12.5 10.9895 12.5 10.9934 12.5 10.9973C12.5 11.0012 12.5 11.0051 12.5 11.009C12.5 11.0129 12.5 11.0168 12.5 11.0207C12.5 11.0246 12.5 11.0285 12.5 11.0324C12.5 11.0363 12.5 11.0401 12.5 11.044C12.5 11.0479 12.5 11.0518 12.5 11.0557C12.5 11.0596 12.5 11.0635 12.5 11.0673C12.5 11.0712 12.5 11.0751 12.5 11.079C12.5 11.0829 12.5 11.0868 12.5 11.0906C12.5 11.0945 12.5 11.0984 12.5 11.1023C12.5 11.1061 12.5 11.11 12.5 11.1139C12.5 11.1178 12.5 11.1216 12.5 11.1255C12.5 11.1294 12.5 11.1332 12.5 11.1371C12.5 11.141 12.5 11.1448 12.5 11.1487C12.5 11.1526 12.5 11.1564 12.5 11.1603C12.5 11.1642 12.5 11.168 12.5 11.1719C12.5 11.1757 12.5 11.1796 12.5 11.1834C12.5 11.1873 12.5 11.1912 12.5 11.195C12.5 11.1989 12.5 11.2027 12.5 11.2066C12.5 11.2104 12.5 11.2143 12.5 11.2181C12.5 11.222 12.5 11.2258 12.5 11.2296C12.5 11.2335 12.5 11.2373 12.5 11.2412C12.5 11.245 12.5 11.2489 12.5 11.2527C12.5 11.2565 12.5 11.2604 12.5 11.2642C12.5 11.268 12.5 11.2719 12.5 11.2757C12.5 11.2795 12.5 11.2834 12.5 11.2872C12.5 11.291 12.5 11.2948 12.5 11.2987C12.5 11.3025 12.5 11.3063 12.5 11.3101C12.5 11.3139 12.5 11.3178 12.5 11.3216C12.5 11.3254 12.5 11.3292 12.5 11.333C12.5 11.3368 12.5 11.3406 12.5 11.3445C12.5 11.3483 12.5 11.3521 12.5 11.3559C12.5 11.3597 12.5 11.3635 12.5 11.3673C12.5 11.3711 12.5 11.3749 12.5 11.3787C12.5 11.3825 12.5 11.3863 12.5 11.3901C12.5 11.3939 12.5 11.3977 12.5 11.4014C12.5 11.4052 12.5 11.409 12.5 11.4128C12.5 11.4166 12.5 11.4204 12.5 11.4242C12.5 11.4279 12.5 11.4317 12.5 11.4355C12.5 11.4393 12.5 11.4431 12.5 11.4468C12.5 11.4506 12.5 11.4544 12.5 11.4581C12.5 11.4619 12.5 11.4657 12.5 11.4694C12.5 11.4732 12.5 11.477 12.5 11.4807C12.5 11.4845 12.5 11.4882 12.5 11.492C12.5 11.4958 12.5 11.4995 12.5 11.5033C12.5 11.507 12.5 11.5108 12.5 11.5145C12.5 11.5183 12.5 11.522 12.5 11.5257C12.5 11.5295 12.5 11.5332 12.5 11.537C12.5 11.5407 12.5 11.5444 12.5 11.5482C12.5 11.5519 12.5 11.5556 12.5 11.5594C12.5 11.5631 12.5 11.5668 12.5 11.5705C12.5 11.5742 12.5 11.578 12.5 11.5817C12.5 11.5854 12.5 11.5891 12.5 11.5928C12.5 11.5965 12.5 11.6003 12.5 11.604C12.5 11.6077 12.5 11.6114 12.5 11.6151C12.5 11.6188 12.5 11.6225 12.5 11.6262C12.5 11.6299 12.5 11.6336 12.5 11.6373C12.5 11.641 12.5 11.6446 12.5 11.6483C12.5 11.652 12.5 11.6557 12.5 11.6594C12.5 11.6631 12.5 11.6667 12.5 11.6704C12.5 11.6741 12.5 11.6778 12.5 11.6814C12.5 11.6851 12.5 11.6888 12.5 11.6925C12.5 11.6961 12.5 11.6998 12.5 11.7034C12.5 11.7071 12.5 11.7108 12.5 11.7144C12.5 11.7181 12.5 11.7217 12.5 11.7254C12.5 11.729 12.5 11.7327 12.5 11.7363C12.5 11.7399 12.5 11.7436 12.5 11.7472C12.5 11.7509 12.5 11.7545 12.5 11.7581C12.5 11.7618 12.5 11.7654 12.5 11.769C12.5 11.7726 12.5 11.7763 12.5 11.7799C12.5 11.7835 12.5 11.7871 12.5 11.7907C12.5 11.7943 12.5 11.798 12.5 11.8016C12.5 11.8052 12.5 11.8088 12.5 11.8124C12.5 11.816 12.5 11.8196 12.5 11.8232C12.5 11.8268 12.5 11.8304 12.5 11.8339C12.5 11.8375 12.5 11.8411 12.5 11.8447C12.5 11.8483 12.5 11.8519 12.5 11.8554C12.5 11.859 12.5 11.8626 12.5 11.8662C12.5 11.8697 12.5 11.8733 12.5 11.8769C12.5 11.8804 12.5 11.884 12.5 11.8875C12.5 11.8911 12.5 11.8947 12.5 11.8982C12.5 11.9018 12.5 11.9053 12.5 11.9088C12.5 11.9124 12.5 11.9159 12.5 11.9195C12.5 11.923 12.5 11.9265 12.5 11.9301C12.5 11.9336 12.5 11.9371 12.5 11.9407C12.5 11.9442 12.5 11.9477 12.5 11.9512C12.5 11.9547 12.5 11.9582 12.5 11.9618C12.5 11.9653 12.5 11.9688 12.5 11.9723C12.5 11.9758 12.5 11.9793 12.5 11.9828C12.5 11.9863 12.5 11.9898 12.5 11.9932C12.5 11.9967 12.5 12.0002 12.5 12.0037C12.5 12.0072 12.5 12.0107 12.5 12.0141C12.5 12.0176 12.5 12.0211 12.5 12.0246C12.5 12.028 12.5 12.0315 12.5 12.0349C12.5 12.0384 12.5 12.0419 12.5 12.0453C12.5 12.0488 12.5 12.0522 12.5 12.0557C12.5 12.0591 12.5 12.0625 12.5 12.066C12.5 12.0694 12.5 12.0729 12.5 12.0763C12.5 12.0797 12.5 12.0831 12.5 12.0866C12.5 12.09 12.5 12.0934 12.5 12.0968C12.5 12.1002 12.5 12.1036 12.5 12.1071C12.5 12.1105 12.5 12.1139 12.5 12.1173C12.5 12.1207 12.5 12.1241 12.5 12.1275C12.5 12.1308 12.5 12.1342 12.5 12.1376C12.5 12.141 12.5 12.1444 12.5 12.1478C12.5 12.1511 12.5 12.1545 12.5 12.1579C12.5 12.1612 12.5 12.1646 12.5 12.168C12.5 12.1713 12.5 12.1747 12.5 12.178C12.5 12.1814 12.5 12.1847 12.5 12.1881C12.5 12.1914 12.5 12.1948 12.5 12.1981C12.5 12.2014 12.5 12.2048 12.5 12.2081C12.5 12.2114 12.5 12.2147 12.5 12.2181C12.5 12.2214 12.5 12.2247 12.5 12.228C12.5 12.2313 12.5 12.2346 12.5 12.2379C12.5 12.2412 12.5 12.2445 12.5 12.2478C12.5 12.2511 12.5 12.2544 12.5 12.2577C12.5 12.261 12.5 12.2642 12.5 12.2675C12.5 12.2708 12.5 12.2741 12.5 12.2773C12.5 12.2806 12.5 12.2839 12.5 12.2871C12.5 12.2904 12.5 12.2936 12.5 12.2969C12.5 12.3001 12.5 12.3034 12.5 12.3066C12.5 12.3099 12.5 12.3131 12.5 12.3163C12.5 12.3196 12.5 12.3228 12.5 12.326C12.5 12.3292 12.5 12.3325 12.5 12.3357C12.5 12.3389 12.5 12.3421 12.5 12.3453C12.5 12.3485 12.5 12.3517 12.5 12.3549C12.5 12.3581 12.5 12.3613 12.5 12.3645C12.5 12.3677 12.5 12.3709 12.5 12.374C12.5 12.3772 12.5 12.3804 12.5 12.3835C12.5 12.3867 12.5 12.3899 12.5 12.393C12.5 12.3962 12.5 12.3994 12.5 12.4025C12.5 12.4057 12.5 12.4088 12.5 12.4119C12.5 12.4151 12.5 12.4182 12.5 12.4213C12.5 12.4245 12.5 12.4276 12.5 12.4307C12.5 12.4338 12.5 12.437 12.5 12.4401C12.5 12.4432 12.5 12.4463 12.5 12.4494C12.5 12.4525 12.5 12.4556 12.5 12.4587C12.5 12.4618 12.5 12.4649 12.5 12.4679C12.5 12.471 12.5 12.4741 12.5 12.4772C12.5 12.4803 12.5 12.4833 12.5 12.4864C12.5 12.4894 12.5 12.4925 12.5 12.4956C12.5 12.4986 12.5 12.5017 12.5 12.5047C12.5 12.5077 12.5 12.5108 12.5 12.5138C12.5 12.5168 12.5 12.5199 12.5 12.5229C12.5 12.5259 12.5 12.5289 12.5 12.5319C12.5 12.535 12.5 12.538 12.5 12.541C12.5 12.544 12.5 12.547 12.5 12.55C12.5 12.5529 12.5 12.5559 12.5 12.5589C12.5 12.5619 12.5 12.5649 12.5 12.5678C12.5 12.5708 12.5 12.5738 12.5 12.5767C12.5 12.5797 12.5 12.5827 12.5 12.5856C12.5 12.5886 12.5 12.5915 12.5 12.5944C12.5 12.5974 12.5 12.6003 12.5 12.6032C12.5 12.6062 12.5 12.6091 12.5 12.612C12.5 12.6149 12.5 12.6178 12.5 12.6207C12.5 12.6236 12.5 12.6266 12.5 12.6294C12.5 12.6323 12.5 12.6352 12.5 12.6381C12.5 12.641 12.5 12.6439 12.5 12.6468C12.5 12.6496 12.5 12.6525 12.5 12.6554C12.5 12.6582 12.5 12.6611 12.5 12.6639C12.5 12.6668 12.5 12.6696 12.5 12.6725C12.5 12.6753 12.5 12.6782 12.5 12.681C12.5 12.6838 12.5 12.6866 12.5 12.6895C12.5 12.6923 12.5 12.6951 12.5 12.6979C12.5 12.7007 12.5 12.7035 12.5 12.7063C12.5 12.7091 12.5 12.7119 12.5 12.7147C12.5 12.7175 12.5 12.7202 12.5 12.723C12.5 12.7258 12.5 12.7286 12.5 12.7313C12.5 12.7341 12.5 12.7368 12.5 12.7396C12.5 12.7423 12.5 12.7451 12.5 12.7478C12.5 12.7506 12.5 12.7533 12.5 12.756C12.5 12.7587 12.5 12.7615 12.5 12.7642C12.5 12.7669 12.5 12.7696 12.5 12.7723C12.5 12.775 12.5 12.7777 12.5 12.7804C12.5 12.7831 12.5 12.7858 12.5 12.7885C12.5 12.7911 12.5 12.7938 12.5 12.7965C12.5 12.7991 12.5 12.8018 12.5 12.8045C12.5 12.8071 12.5 12.8098 12.5 12.8124C12.5 12.815 12.5 12.8177 12.5 12.8203C12.5 12.8229 12.5 12.8256 12.5 12.8282C12.5 12.8308 12.5 12.8334 12.5 12.836C12.5 12.8386 12.5 12.8412 12.5 12.8438C12.5 12.8464 12.5 12.849 12.5 12.8516C12.5 12.8542 12.5 12.8568 12.5 12.8593C12.5 12.8619 12.5 12.8645 12.5 12.867C12.5 12.8696 12.5 12.8721 12.5 12.8747C12.5 12.8772 12.5 12.8798 12.5 12.8823C12.5 12.8848 12.5 12.8873 12.5 12.8899C12.5 12.8924 12.5 12.8949 12.5 12.8974C12.5 12.8999 12.5 12.9024 12.5 12.9049C12.5 12.9074 12.5 12.9099 12.5 12.9124C12.5 12.9149 12.5 12.9173 12.5 12.9198C12.5 12.9223 12.5 12.9247 12.5 12.9272C12.5 12.9296 12.5 12.9321 12.5 12.9345C12.5 12.937 12.5 12.9394 12.5 12.9418C12.5 12.9443 12.5 12.9467 12.5 12.9491C12.5 12.9515 12.5 12.9539 12.5 12.9563C12.5 12.9587 12.5 12.9611 12.5 12.9635C12.5 12.9659 12.5 12.9683 12.5 12.9707C12.5 12.9731 12.5 12.9754 12.5 12.9778C12.5 12.9801 12.5 12.9825 12.5 12.9849C12.5 12.9872 12.5 12.9895 12.5 12.9919C12.5 12.9942 12.5 12.9966 12.5 12.9989C12.5 13.0012 12.5 13.0035 12.5 13.0058C12.5 13.0081 12.5 13.0104 12.5 13.0127C12.5 13.015 12.5 13.0173 12.5 13.0196C12.5 13.0219 12.5 13.0242 12.5 13.0264C12.5 13.0287 12.5 13.031 12.5 13.0332C12.5 13.0355 12.5 13.0377 12.5 13.04C12.5 13.0422 12.5 13.0444 12.5 13.0467C12.5 13.0489 12.5 13.0511 12.5 13.0533C12.5 13.0555 12.5 13.0577 12.5 13.0599C12.5 13.0621 12.5 13.0643 12.5 13.0665C12.5 13.0687 12.5 13.0709 12.5 13.073C12.5 13.0752 12.5 13.0774 12.5 13.0795C12.5 13.0817 12.5 13.0838 12.5 13.086C12.5 13.0881 12.5 13.0903 12.5 13.0924C12.5 13.0945 12.5 13.0966 12.5 13.0988C12.5 13.1009 12.5 13.103 12.5 13.1051C12.5 13.1072 12.5 13.1093 12.5 13.1113C12.5 13.1134 12.5 13.1155 12.5 13.1176C12.5 13.1196 12.5 13.1217 12.5 13.1238C12.5 13.1258 12.5 13.1279 12.5 13.1299C12.5 13.132 12.5 13.134 12.5 13.136C12.5 13.138 12.5 13.1401 12.5 13.1421C12.5 13.1441 12.5 13.1461 12.5 13.1481C12.5 13.1501 12.5 13.1521 12.5 13.1541C12.5 13.156 12.5 13.158 12.5 13.16C12.5 13.1619 12.5 13.1639 12.5 13.1659C12.5 13.1678 12.5 13.1698 12.5 13.1717C12.5 13.1736 12.5 13.1756 12.5 13.1775C12.5 13.1794 12.5 13.1813 12.5 13.1832C12.5 13.1851 12.5 13.187 12.5 13.1889C12.5 13.1908 12.5 13.1927 12.5 13.1946C12.5 13.1964 12.5 13.1983 12.5 13.2002C12.5 13.202 12.5 13.2039 12.5 13.2057C12.5 13.2076 12.5 13.2094 12.5 13.2113C12.5 13.2131 12.5 13.2149 12.5 13.2167C12.5 13.2185 12.5 13.2203 12.5 13.2221C12.5 13.2239 12.5 13.2257 12.5 13.2275C12.5 13.2293 12.5 13.2311 12.5 13.2328C12.5 13.2346 12.5 13.2364 12.5 13.2381C12.5 13.2399 12.5 13.2416 12.5 13.2434C12.5 13.2451 12.5 13.2468 12.5 13.2485C12.5 13.2503 12.5 13.252 12.5 13.2537C12.5 13.2554 12.5 13.2571 12.5 13.2588C12.5 13.2605 12.5 13.2621 12.5 13.2638C12.5 13.2655 12.5 13.2671 12.5 13.2688C12.5 13.2705 12.5 13.2721 12.5 13.2738C12.5 13.2754 12.5 13.277 12.5 13.2787C12.5 13.2803 12.5 13.2819 12.5 13.2835C12.5 13.2851 12.5 13.2867 12.5 13.2883C12.5 13.2899 12.5 13.2915 12.5 13.2931C12.5 13.2946 12.5 13.2962 12.5 13.2978C12.5 13.2993 12.5 13.3009 12.5 13.3024C12.5 13.3039 12.5 13.3055 12.5 13.307C12.5 13.3085 12.5 13.3101 12.5 13.3116C12.5 13.3131 12.5 13.3146 12.5 13.3161C12.5 13.3176 12.5 13.319 12.5 13.3205C12.5 13.322 12.5 13.3235 12.5 13.3249C12.5 13.3264 12.5 13.3278 12.5 13.3293C12.5 13.3307 12.5 13.3322 12.5 13.3336C12.5 13.335 12.5 13.3364 12.5 13.3378C12.5 13.3392 12.5 13.3406 12.5 13.342C12.5 13.3434 12.5 13.3448 12.5 13.3462C12.5 13.3476 12.5 13.3489 12.5 13.3503C12.5 13.3516 12.5 13.353 12.5 13.3543C12.5 13.3557 12.5 13.357 12.5 13.3583C12.5 13.3597 12.5 13.361 12.5 13.3623C12.5 13.3636 12.5 13.3649 12.5 13.3662C12.5 13.3675 12.5 13.3687 12.5 13.37C12.5 13.3713 12.5 13.3725 12.5 13.3738C12.5 13.3751 12.5 13.3763 12.5 13.3775C12.5 13.3788 12.5 13.38 12.5 13.3812C12.5 13.3824 12.5 13.3837 12.5 13.3849C12.5 13.3861 12.5 13.3872 12.5 13.3884C12.5 13.3896 12.5 13.3908 12.5 13.392C12.5 13.3931 12.5 13.3943 12.5 13.3954C12.5 13.3966 12.5 13.3977 12.5 13.3989C12.5 13.4 12.5 13.4011 12.5 13.4022C12.5 13.4033 12.5 13.4044 12.5 13.4055C12.5 13.4066 12.5 13.4077 12.5 13.4088C12.5 13.4099 12.5 13.4109 12.5 13.412C12.5 13.413 12.5 13.4141 12.5 13.4151C12.5 13.4162 12.5 13.4172 12.5 13.4182C12.5 13.4193 12.5 13.4203 12.5 13.4213C12.5 13.4223 12.5 13.4233 12.5 13.4243C12.5 13.4252 12.5 13.4262 12.5 13.4272C12.5 13.4282 12.5 13.4291 12.5 13.4301C12.5 13.431 12.5 13.432 12.5 13.4329C12.5 13.4338 12.5 13.4347 12.5 13.4357C12.5 13.4366 12.5 13.4375 12.5 13.4384C12.5 13.4393 12.5 13.4401 12.5 13.441C12.5 13.4419 12.5 13.4428 12.5 13.4436C12.5 13.4445 12.5 13.4453 12.5 13.4462C12.5 13.447 12.5 13.4478 12.5 13.4486C12.5 13.4495 12.5 13.4503 12.5 13.4511C12.5 13.4519 12.5 13.4527 12.5 13.4534C12.5 13.4542 12.5 13.455 12.5 13.4558C12.5 13.4565 12.5 13.4573 12.5 13.458C12.5 13.4588 12.5 13.4595 12.5 13.4602C12.5 13.4609 12.5 13.4617 12.5 13.4624C12.5 13.4631 12.5 13.4638 12.5 13.4645C12.5 13.4651 12.5 13.4658 12.5 13.4665C12.5 13.4671 12.5 13.4678 12.5 13.4685C12.5 13.4691 12.5 13.4697 12.5 13.4704C12.5 13.471 12.5 13.4716 12.5 13.4722C12.5 13.4728 12.5 13.4734 12.5 13.474C12.5 13.4746 12.5 13.4752 12.5 13.4758C12.5 13.4763 12.5 13.4769 12.5 13.4774C12.5 13.478 12.5 13.4785 12.5 13.4791C12.5 13.4796 12.5 13.4801 12.5 13.4806C12.5 13.4811 12.5 13.4816 12.5 13.4821C12.5 13.4826 12.5 13.4831 12.5 13.4836C12.5 13.484 12.5 13.4845 12.5 13.485C12.5 13.4854 12.5 13.4858 12.5 13.4863C12.5 13.4867 12.5 13.4871 12.5 13.4875C12.5 13.488 12.5 13.4884 12.5 13.4887C12.5 13.4891 12.5 13.4895 12.5 13.4899C12.5 13.4903 12.5 13.4906 12.5 13.491C12.5 13.4913 12.5 13.4917 12.5 13.492C12.5 13.4923 12.5 13.4926 12.5 13.493C12.5 13.4933 12.5 13.4936 12.5 13.4939C12.5 13.4942 12.5 13.4944 12.5 13.4947C12.5 13.495 12.5 13.4952 12.5 13.4955C12.5 13.4957 12.5 13.496 12.5 13.4962C12.5 13.4964 12.5 13.4966 12.5 13.4969C12.5 13.4971 12.5 13.4973 12.5 13.4975C12.5 13.4976 12.5 13.4978 12.5 13.498C12.5 13.4982 12.5 13.4983 12.5 13.4985C12.5 13.4986 12.5 13.4987 12.5 13.4989C12.5 13.499 12.5 13.4991 12.5 13.4992C12.5 13.4993 12.5 13.4994 12.5 13.4995C12.5 13.4996 12.5 13.4997 12.5 13.4997C12.5 13.4998 12.5 13.4998 12.5 13.4999C12.5 13.4999 12.5 13.4999 12.5 13.5C12.5 13.5 12.5 13.5 13.5 13.5Z" fill="black" mask="url(#path-3-inside-1_10_496)"/>
</svg>
